<svg width="540" height="493" viewBox="0 0 540 493" fill="none" xmlns="http://www.w3.org/2000/svg">
<g clip-path="url(#clip0_11_6)">
<g style="mix-blend-mode:multiply" opacity="0.6">
<path d="M409.371 355.949C410.971 356.869 410.971 358.309 409.371 359.229L287.211 430.229C286.333 430.681 285.359 430.918 284.371 430.918C283.383 430.918 282.41 430.681 281.531 430.229L240.131 406.229C238.571 405.309 238.531 403.829 240.131 402.909L362.291 332.029C363.175 331.595 364.147 331.369 365.131 331.369C366.116 331.369 367.088 331.595 367.971 332.029L409.371 355.949Z" fill="#3A0155"/>
</g>
<g style="mix-blend-mode:multiply" opacity="0.6">
<path d="M286.811 342.469C287.875 342.827 288.8 343.51 289.454 344.421C290.109 345.333 290.462 346.426 290.462 347.549C290.462 348.671 290.109 349.765 289.454 350.677C288.8 351.588 287.875 352.271 286.811 352.629L244.011 377.469C241.298 378.849 238.296 379.569 235.251 379.569C232.207 379.569 229.205 378.849 226.491 377.469L180.091 350.469C180.001 350.411 179.926 350.331 179.874 350.237C179.822 350.142 179.795 350.036 179.795 349.929C179.795 349.821 179.822 349.715 179.874 349.621C179.926 349.526 180.001 349.447 180.091 349.389L239.531 314.949L286.811 342.469Z" fill="#3A0155"/>
</g>
<path d="M179.131 339.909V343.269L226.451 370.469C229.165 371.849 232.167 372.569 235.211 372.569C238.256 372.569 241.258 371.849 243.971 370.469L286.851 345.549C287.845 345.105 288.703 344.404 289.336 343.518C289.969 342.632 290.354 341.593 290.451 340.509V337.269L179.131 339.909Z" fill="url(#paint0_linear_11_6)"/>
<path d="M286.811 332.189C287.875 332.547 288.799 333.23 289.454 334.141C290.109 335.053 290.461 336.146 290.461 337.269C290.461 338.391 290.109 339.485 289.454 340.397C288.799 341.308 287.875 341.991 286.811 342.349L244.011 367.229C241.297 368.609 238.296 369.329 235.251 369.329C232.207 369.329 229.205 368.609 226.491 367.229L180.091 340.429C180 340.376 179.924 340.3 179.871 340.209C179.818 340.118 179.791 340.014 179.791 339.909C179.791 339.803 179.818 339.7 179.871 339.608C179.924 339.517 180 339.441 180.091 339.389L239.531 304.869L286.811 332.189Z" fill="url(#paint1_linear_11_6)"/>
<path d="M200.492 301.229L260.932 266.189L242.292 306.469L181.812 341.469L200.492 301.229Z" fill="#CB89F0"/>
<path d="M198.291 298.629L200.491 301.229L181.811 341.469L180.531 341.309L179.171 339.909L198.291 298.629Z" fill="#8D3FCF"/>
<path opacity="0.6" d="M207.971 356.589L268.531 321.629L242.291 306.469L260.931 266.189L200.491 301.229L198.291 298.629L179.171 339.909L179.131 343.269L207.971 359.909V356.589Z" fill="#8D3FCF"/>
<path d="M343.531 46.9488C343.222 46.8457 342.894 46.8103 342.57 46.8448C342.245 46.8793 341.932 46.9829 341.651 47.1488L106.451 177.589C105.649 178.103 105.008 178.835 104.605 179.699C104.201 180.562 104.051 181.523 104.171 182.469L132.171 374.189C132.201 374.613 132.342 375.021 132.581 375.373C132.82 375.724 133.148 376.006 133.531 376.189L135.051 376.789L345.131 47.5088L343.531 46.9488Z" fill="url(#paint2_linear_11_6)"/>
<path d="M133.891 163.789L107.931 178.189C107.369 178.536 106.902 179.017 106.571 179.589L133.891 163.789Z" fill="#CB89F0"/>
<path d="M129.051 342.469L133.771 374.709C133.778 375.083 133.885 375.45 134.079 375.77C134.274 376.09 134.55 376.353 134.879 376.532C135.208 376.711 135.579 376.799 135.954 376.788C136.328 376.777 136.693 376.667 137.011 376.469L372.331 246.069C373.12 245.562 373.749 244.842 374.146 243.993C374.542 243.143 374.69 242.199 374.571 241.269L369.731 207.989C369.653 207.562 369.476 207.16 369.216 206.814C368.955 206.467 368.618 206.186 368.23 205.992C367.842 205.798 367.414 205.697 366.981 205.696C366.547 205.696 366.12 205.796 365.731 205.989L129.051 342.469Z" fill="#CB89F0"/>
<path d="M346.491 49.5088C346.487 49.1368 346.385 48.7724 346.195 48.4523C346.006 48.1322 345.735 47.8677 345.411 47.6853C345.087 47.5029 344.72 47.409 344.348 47.4132C343.976 47.4173 343.611 47.5193 343.291 47.7088L107.931 178.189C107.143 178.695 106.513 179.415 106.117 180.265C105.72 181.114 105.573 182.059 105.691 182.989L129.691 347.189L369.691 208.589L346.491 49.5088Z" fill="#181019"/>
<path d="M259.531 287.149C259.371 286.33 259.371 285.488 259.531 284.669C259.041 284.771 258.569 284.946 258.131 285.189C256.805 285.96 255.752 287.126 255.121 288.525C254.49 289.923 254.312 291.484 254.611 292.989C254.737 293.628 255.017 294.228 255.427 294.735C255.837 295.241 256.364 295.64 256.964 295.897C257.563 296.153 258.216 296.259 258.866 296.205C259.515 296.152 260.142 295.94 260.691 295.589C261.633 295.05 262.446 294.314 263.075 293.429C263.703 292.545 264.132 291.535 264.331 290.469C263.797 290.584 263.244 290.589 262.707 290.482C262.171 290.375 261.662 290.16 261.212 289.849C260.762 289.537 260.381 289.137 260.092 288.673C259.803 288.209 259.612 287.69 259.531 287.149Z" fill="#3B223A"/>
<path d="M238.971 395.669V399.029C239.002 399.386 239.13 399.727 239.342 400.016C239.554 400.306 239.84 400.531 240.171 400.669L281.571 424.669C282.449 425.121 283.423 425.358 284.411 425.358C285.399 425.358 286.373 425.121 287.251 424.669L409.411 353.669C409.742 353.531 410.029 353.306 410.24 353.016C410.452 352.727 410.58 352.386 410.611 352.029V348.669L238.971 395.669Z" fill="url(#paint3_linear_11_6)"/>
<path d="M409.371 346.909C409.715 347.03 410.012 347.255 410.223 347.552C410.433 347.849 410.546 348.205 410.546 348.569C410.546 348.933 410.433 349.288 410.223 349.586C410.012 349.883 409.715 350.108 409.371 350.229L287.211 421.229C286.327 421.663 285.356 421.889 284.371 421.889C283.387 421.889 282.415 421.663 281.531 421.229L240.131 397.229C239.783 397.119 239.478 396.9 239.262 396.605C239.046 396.31 238.93 395.954 238.93 395.589C238.93 395.223 239.046 394.867 239.262 394.572C239.478 394.277 239.783 394.059 240.131 393.949L362.291 323.029C363.17 322.576 364.143 322.34 365.131 322.34C366.119 322.34 367.093 322.576 367.971 323.029L409.371 346.909Z" fill="url(#paint4_linear_11_6)"/>
<path d="M280.891 402.789C280.891 402.149 280.891 401.909 281.251 401.709L287.011 398.389C287.321 398.231 287.664 398.148 288.011 398.148C288.359 398.148 288.702 398.231 289.011 398.389L293.851 401.189C293.981 401.246 294.088 401.343 294.16 401.465C294.232 401.587 294.264 401.728 294.251 401.869C294.251 402.509 294.251 402.749 293.851 402.949L288.131 406.269C287.815 406.427 287.465 406.51 287.111 406.51C286.757 406.51 286.408 406.427 286.091 406.269L281.251 403.469C280.931 403.269 280.811 403.029 280.891 402.789ZM269.651 400.349L274.491 403.149C274.801 403.307 275.144 403.389 275.491 403.389C275.839 403.389 276.182 403.307 276.491 403.149L282.251 399.829C282.571 399.829 282.691 399.389 282.611 399.149C282.531 398.909 282.611 398.269 282.251 398.069L277.411 395.309C277.095 395.15 276.745 395.068 276.391 395.068C276.037 395.068 275.688 395.15 275.371 395.309L269.651 398.589C269.522 398.646 269.414 398.743 269.343 398.865C269.271 398.987 269.239 399.128 269.251 399.269C269.211 399.909 269.331 400.189 269.651 400.349ZM282.971 381.309C282.838 381.361 282.727 381.457 282.654 381.58C282.582 381.703 282.553 381.847 282.571 381.989C282.571 382.629 282.571 382.869 282.971 383.069L287.771 385.829C288.088 385.987 288.437 386.07 288.791 386.07C289.146 386.07 289.495 385.987 289.811 385.829L295.531 382.469C295.664 382.416 295.776 382.321 295.849 382.198C295.921 382.075 295.95 381.931 295.931 381.789C295.931 381.189 295.931 380.909 295.531 380.749C288.451 376.669 290.851 376.749 282.971 381.309ZM362.251 363.469L367.971 360.149C368.101 360.091 368.208 359.995 368.28 359.873C368.352 359.751 368.384 359.61 368.371 359.469C368.371 358.829 368.371 358.589 367.971 358.389L363.131 355.629C362.827 355.453 362.482 355.361 362.131 355.361C361.78 355.361 361.435 355.453 361.131 355.629L355.371 358.909C355.246 358.968 355.143 359.066 355.078 359.189C355.013 359.311 354.99 359.452 355.011 359.589C355.011 360.229 355.011 360.509 355.371 360.669L360.211 363.469C360.528 363.627 360.877 363.71 361.231 363.71C361.586 363.71 361.935 363.627 362.251 363.469ZM297.371 400.909L303.131 397.589C303.267 397.543 303.38 397.447 303.447 397.32C303.514 397.194 303.53 397.047 303.491 396.909C303.491 396.269 303.491 396.029 303.131 395.829L298.291 393.069C297.982 392.911 297.639 392.828 297.291 392.828C296.944 392.828 296.601 392.911 296.291 393.069L290.531 396.349C290.399 396.414 290.29 396.517 290.218 396.646C290.147 396.775 290.116 396.922 290.131 397.069C290.131 397.669 290.131 397.949 290.531 398.109L295.371 400.909C295.681 401.067 296.024 401.149 296.371 401.149C296.719 401.149 297.062 401.067 297.371 400.909ZM279.531 383.349L273.771 386.629C273.639 386.694 273.53 386.797 273.458 386.926C273.387 387.055 273.356 387.202 273.371 387.349C273.371 387.949 273.371 388.229 273.771 388.389L278.611 391.189C278.921 391.347 279.264 391.429 279.611 391.429C279.959 391.429 280.302 391.347 280.611 391.189L286.371 387.869C286.691 387.869 286.811 387.429 286.731 387.189C286.651 386.949 286.731 386.309 286.371 386.109L281.531 383.349C281.222 383.191 280.879 383.108 280.531 383.108C280.184 383.108 279.841 383.191 279.531 383.349ZM343.531 374.149L349.291 370.869C349.611 370.682 349.731 370.442 349.651 370.149C349.651 369.549 349.651 369.269 349.291 369.109L344.451 366.309C344.142 366.151 343.799 366.068 343.451 366.068C343.104 366.068 342.761 366.151 342.451 366.309L336.691 369.629C336.556 369.675 336.443 369.771 336.376 369.897C336.309 370.024 336.293 370.171 336.331 370.309C336.331 370.949 336.331 371.189 336.691 371.389L341.531 374.149C341.841 374.307 342.184 374.389 342.531 374.389C342.879 374.389 343.222 374.307 343.531 374.149ZM297.811 372.629L292.051 375.949C291.731 375.949 291.611 376.389 291.691 376.629C291.771 376.869 291.691 377.509 292.051 377.709L296.891 380.509C297.208 380.667 297.557 380.75 297.911 380.75C298.266 380.75 298.615 380.667 298.931 380.509L304.651 377.189C304.781 377.131 304.888 377.035 304.96 376.913C305.032 376.791 305.064 376.65 305.051 376.509C305.051 375.869 305.051 375.629 304.651 375.429L299.811 372.629C299.523 372.496 299.209 372.427 298.891 372.427C298.574 372.427 298.26 372.496 297.971 372.629H297.811ZM334.291 379.509L340.011 376.189C340.144 376.136 340.256 376.041 340.329 375.918C340.401 375.795 340.43 375.651 340.411 375.509C340.411 374.869 340.411 374.629 340.011 374.429L335.531 371.669C335.222 371.511 334.879 371.428 334.531 371.428C334.184 371.428 333.841 371.511 333.531 371.669L327.811 374.989C327.674 375.035 327.557 375.129 327.484 375.254C327.41 375.379 327.385 375.526 327.411 375.669C327.411 376.269 327.411 376.549 327.811 376.709L332.611 379.509C332.901 379.637 333.215 379.703 333.531 379.703C333.848 379.703 334.162 379.637 334.451 379.509H334.291ZM306.291 395.509L312.011 392.189C312.144 392.136 312.256 392.041 312.329 391.918C312.401 391.795 312.43 391.651 312.411 391.509C312.411 390.909 312.411 390.629 312.011 390.469L307.211 387.669C306.895 387.51 306.546 387.428 306.191 387.428C305.837 387.428 305.488 387.51 305.171 387.669L299.451 390.989C299.318 391.041 299.207 391.137 299.134 391.26C299.062 391.383 299.033 391.527 299.051 391.669C299.051 392.309 299.051 392.549 299.451 392.749L304.251 395.509C304.608 395.738 305.022 395.863 305.446 395.87C305.87 395.877 306.287 395.766 306.651 395.549L306.291 395.509ZM352.611 368.789L358.331 365.469C358.46 365.411 358.568 365.315 358.64 365.193C358.712 365.071 358.744 364.93 358.731 364.789C358.731 364.149 358.731 363.909 358.331 363.709L353.531 360.909C353.215 360.75 352.866 360.668 352.511 360.668C352.157 360.668 351.808 360.75 351.491 360.909L345.771 364.229C345.642 364.287 345.534 364.383 345.463 364.505C345.391 364.627 345.359 364.768 345.371 364.909C345.371 365.549 345.371 365.789 345.771 365.989L350.571 368.789C350.928 369.018 351.342 369.143 351.766 369.15C352.19 369.157 352.607 369.046 352.971 368.829L352.611 368.789ZM315.531 390.189L321.291 386.869C321.421 386.811 321.528 386.715 321.6 386.593C321.672 386.471 321.704 386.33 321.691 386.189C321.691 385.549 321.691 385.309 321.291 385.109L316.451 382.309C316.142 382.151 315.799 382.068 315.451 382.068C315.104 382.068 314.761 382.151 314.451 382.309L308.691 385.629C308.371 385.629 308.251 386.069 308.331 386.309C308.411 386.549 308.331 387.189 308.691 387.389L313.531 390.189C313.88 390.419 314.288 390.545 314.706 390.552C315.124 390.559 315.535 390.447 315.891 390.229L315.531 390.189ZM324.811 384.829L330.571 381.509C330.697 381.45 330.8 381.352 330.865 381.229C330.93 381.106 330.953 380.966 330.931 380.829C330.931 380.189 330.931 379.949 330.571 379.749L325.731 376.949C325.415 376.79 325.065 376.708 324.711 376.708C324.357 376.708 324.008 376.79 323.691 376.949L317.971 380.269C317.842 380.326 317.734 380.423 317.663 380.545C317.591 380.667 317.559 380.808 317.571 380.949C317.571 381.589 317.571 381.829 317.971 382.029L322.811 384.829C323.16 385.059 323.568 385.185 323.986 385.192C324.404 385.199 324.815 385.087 325.171 384.869L324.811 384.829ZM269.811 388.829L264.051 392.149C263.926 392.208 263.823 392.306 263.758 392.429C263.693 392.551 263.67 392.692 263.691 392.829C263.691 393.469 263.691 393.709 264.051 393.909L268.891 396.709C269.208 396.867 269.557 396.95 269.911 396.95C270.266 396.95 270.615 396.867 270.931 396.709L276.651 393.389C276.781 393.331 276.888 393.235 276.96 393.113C277.032 392.991 277.064 392.85 277.051 392.709C277.051 392.069 277.051 391.829 276.651 391.629L271.811 388.829C271.306 388.565 270.718 388.508 270.171 388.669L269.811 388.829ZM303.931 387.269L309.651 383.949C309.784 383.896 309.896 383.801 309.969 383.678C310.041 383.555 310.07 383.411 310.051 383.269C310.051 382.629 310.051 382.389 309.651 382.189L304.851 379.389C304.535 379.23 304.185 379.148 303.831 379.148C303.477 379.148 303.128 379.23 302.811 379.389L297.091 382.709C296.962 382.766 296.854 382.863 296.783 382.985C296.711 383.107 296.679 383.248 296.691 383.389C296.691 384.029 296.691 384.269 297.091 384.469L301.931 387.269C302.299 387.47 302.717 387.561 303.135 387.533C303.553 387.505 303.954 387.357 304.291 387.109L303.931 387.269ZM331.931 371.269L337.651 367.989C337.781 367.931 337.888 367.835 337.96 367.713C338.032 367.591 338.064 367.45 338.051 367.309C338.051 366.669 338.051 366.389 337.651 366.229L332.851 363.429C332.535 363.27 332.185 363.188 331.831 363.188C331.477 363.188 331.128 363.27 330.811 363.429L325.091 366.749C324.962 366.806 324.854 366.903 324.783 367.025C324.711 367.147 324.679 367.288 324.691 367.429C324.691 368.069 324.691 368.309 325.091 368.509L329.891 371.269C330.244 371.44 330.637 371.508 331.026 371.466C331.415 371.423 331.784 371.272 332.091 371.029L331.931 371.269ZM322.651 376.629L328.411 373.309C328.547 373.263 328.66 373.167 328.727 373.04C328.794 372.914 328.81 372.767 328.771 372.629C328.771 372.029 328.771 371.749 328.411 371.589L323.571 368.789C323.262 368.631 322.919 368.548 322.571 368.548C322.224 368.548 321.881 368.631 321.571 368.789L315.811 372.109C315.676 372.155 315.563 372.251 315.496 372.377C315.429 372.504 315.413 372.651 315.451 372.789C315.451 373.429 315.451 373.669 315.811 373.869L320.651 376.629C321.001 376.779 321.384 376.836 321.763 376.794C322.142 376.752 322.503 376.612 322.811 376.389L322.651 376.629ZM313.411 381.989L319.131 378.669C319.261 378.611 319.368 378.515 319.44 378.393C319.512 378.271 319.544 378.13 319.531 377.989C319.531 377.349 319.531 377.109 319.131 376.909L314.291 374.149C313.982 373.991 313.639 373.908 313.291 373.908C312.944 373.908 312.601 373.991 312.291 374.149L306.571 377.429C306.438 377.481 306.327 377.577 306.254 377.7C306.182 377.823 306.153 377.967 306.171 378.109C306.171 378.749 306.171 379.029 306.571 379.189L311.371 381.989C311.728 382.139 312.118 382.196 312.502 382.154C312.887 382.112 313.255 381.972 313.571 381.749L313.411 381.989ZM382.691 343.829C382.691 344.469 382.691 344.709 383.091 344.909L387.931 347.709C388.241 347.867 388.584 347.949 388.931 347.949C389.279 347.949 389.622 347.867 389.931 347.709L395.691 344.389C396.011 344.389 396.131 343.949 396.051 343.709C395.971 343.469 396.051 342.829 395.691 342.629L390.851 339.829C390.542 339.671 390.199 339.588 389.851 339.588C389.504 339.588 389.161 339.671 388.851 339.829L383.091 343.149C382.958 343.26 382.872 343.417 382.851 343.589L382.691 343.829ZM294.691 392.669L300.451 389.389C300.771 389.389 300.891 388.949 300.811 388.709C300.731 388.469 300.811 387.789 300.451 387.629L295.611 384.829C295.302 384.671 294.959 384.588 294.611 384.588C294.264 384.588 293.921 384.671 293.611 384.829L287.851 388.149C287.531 388.149 287.411 388.589 287.491 388.829C287.571 389.069 287.491 389.709 287.851 389.909L292.691 392.669C293.062 392.85 293.476 392.924 293.886 392.882C294.296 392.839 294.686 392.682 295.011 392.429L294.691 392.669ZM286.371 390.189C286.055 390.03 285.706 389.948 285.351 389.948C284.997 389.948 284.648 390.03 284.331 390.189L278.611 393.509C278.478 393.561 278.367 393.657 278.294 393.78C278.222 393.903 278.193 394.047 278.211 394.189C278.211 394.829 278.211 395.069 278.611 395.229L283.411 398.029C283.728 398.187 284.077 398.27 284.431 398.27C284.785 398.27 285.135 398.187 285.451 398.029L291.531 394.469C291.664 394.416 291.776 394.321 291.849 394.198C291.921 394.075 291.95 393.931 291.931 393.789C291.931 393.149 291.931 392.909 291.531 392.709L286.371 390.189ZM316.171 362.189L310.451 365.509C310.318 365.561 310.207 365.657 310.134 365.78C310.062 365.903 310.033 366.047 310.051 366.189C310.051 366.789 310.051 367.069 310.451 367.229L315.251 370.029C315.568 370.187 315.917 370.27 316.271 370.27C316.625 370.27 316.975 370.187 317.291 370.029L323.531 366.469C323.664 366.416 323.776 366.321 323.849 366.198C323.921 366.075 323.95 365.931 323.931 365.789C323.931 365.149 323.931 364.909 323.531 364.709L318.731 361.949C318.39 361.756 318.004 361.655 317.611 361.655C317.219 361.655 316.833 361.756 316.491 361.949L316.171 362.189ZM325.451 356.829L319.691 360.149C319.556 360.195 319.443 360.291 319.376 360.417C319.309 360.544 319.293 360.691 319.331 360.829C319.331 361.469 319.331 361.709 319.691 361.909L324.531 364.669C324.841 364.827 325.184 364.909 325.531 364.909C325.879 364.909 326.222 364.827 326.531 364.669L332.291 361.349C332.427 361.303 332.54 361.207 332.607 361.08C332.674 360.954 332.69 360.807 332.651 360.669C332.651 360.069 332.651 359.789 332.291 359.629L327.451 356.829C327.201 356.68 326.924 356.582 326.635 356.54C326.347 356.499 326.053 356.516 325.771 356.589L325.451 356.829ZM341.051 365.949L346.771 362.629C346.9 362.571 347.008 362.475 347.08 362.353C347.152 362.231 347.184 362.09 347.171 361.949C347.171 361.309 347.171 361.069 346.771 360.869L341.931 358.069C341.622 357.911 341.279 357.828 340.931 357.828C340.584 357.828 340.241 357.911 339.931 358.069L334.171 361.389C333.851 361.389 333.731 361.829 333.811 362.069C333.891 362.309 333.811 362.949 334.171 363.149L339.011 365.949C339.389 366.129 339.809 366.202 340.225 366.16C340.641 366.118 341.038 365.961 341.371 365.709L341.051 365.949ZM334.691 351.469L328.971 354.789C328.842 354.847 328.734 354.943 328.663 355.065C328.591 355.187 328.559 355.328 328.571 355.469C328.571 356.109 328.571 356.349 328.971 356.549L333.811 359.349C334.121 359.507 334.464 359.589 334.811 359.589C335.159 359.589 335.502 359.507 335.811 359.349L341.531 356.029C341.664 355.976 341.776 355.881 341.849 355.758C341.921 355.635 341.95 355.491 341.931 355.349C341.931 354.709 341.931 354.469 341.531 354.269L336.731 351.469C336.212 351.165 335.594 351.079 335.011 351.229L334.691 351.469ZM306.691 367.469L300.971 370.789C300.842 370.847 300.734 370.943 300.663 371.065C300.591 371.187 300.559 371.328 300.571 371.469C300.571 372.109 300.571 372.349 300.971 372.549C305.691 375.309 306.531 376.069 307.811 375.349L313.571 372.029C313.891 372.029 314.011 371.589 313.931 371.349C313.851 371.109 313.931 370.469 313.571 370.269L308.731 367.469C308.263 367.229 307.726 367.158 307.211 367.269L306.691 367.469ZM350.091 360.549L359.531 355.309C359.661 355.251 359.768 355.155 359.84 355.033C359.912 354.911 359.944 354.77 359.931 354.629C359.931 353.989 359.931 353.749 359.531 353.549L354.731 350.789C354.415 350.63 354.065 350.548 353.711 350.548C353.357 350.548 353.008 350.63 352.691 350.789L343.971 355.829C343.838 355.881 343.727 355.977 343.654 356.1C343.582 356.223 343.553 356.367 343.571 356.509C343.571 357.109 343.571 357.389 343.971 357.549L348.811 360.349C349.094 360.476 349.401 360.541 349.711 360.541C350.022 360.541 350.328 360.476 350.611 360.349L350.091 360.549ZM350.611 348.869L345.771 346.109C345.467 345.933 345.122 345.841 344.771 345.841C344.42 345.841 344.075 345.933 343.771 346.109L338.051 349.389C337.918 349.441 337.807 349.537 337.734 349.66C337.662 349.783 337.633 349.927 337.651 350.069C337.651 350.709 337.651 350.989 338.051 351.149L342.851 353.949C343.168 354.107 343.517 354.19 343.871 354.19C344.226 354.19 344.575 354.107 344.891 353.949L351.131 350.469C351.261 350.411 351.368 350.315 351.44 350.193C351.512 350.071 351.544 349.93 351.531 349.789C351.531 349.109 351.531 348.869 351.131 348.669L350.611 348.869ZM317.131 353.389L321.971 356.189C322.288 356.347 322.637 356.43 322.991 356.43C323.345 356.43 323.695 356.347 324.011 356.189L329.731 352.869C329.861 352.811 329.968 352.715 330.04 352.593C330.112 352.471 330.144 352.33 330.131 352.189C330.131 351.549 330.131 351.309 329.731 351.109L324.891 348.309C324.582 348.151 324.239 348.068 323.891 348.068C323.544 348.068 323.201 348.151 322.891 348.309L317.131 351.629C317.006 351.688 316.903 351.786 316.838 351.909C316.773 352.031 316.75 352.172 316.771 352.309C317.251 352.749 317.331 352.989 317.651 353.189L317.131 353.389ZM289.131 413.389L284.931 410.469C284.622 410.311 284.279 410.228 283.931 410.228C283.584 410.228 283.241 410.311 282.931 410.469L277.171 413.789C277.041 413.842 276.934 413.939 276.868 414.064C276.802 414.188 276.782 414.331 276.811 414.469C276.811 415.109 276.811 415.349 277.171 415.509L282.011 418.309C282.328 418.467 282.677 418.55 283.031 418.55C283.386 418.55 283.735 418.467 284.051 418.309L289.771 414.989C289.904 414.936 290.016 414.841 290.089 414.718C290.161 414.595 290.19 414.451 290.171 414.309C290.211 413.549 290.091 413.309 289.771 413.109L289.131 413.389ZM298.411 408.069L293.571 405.269C293.262 405.111 292.919 405.028 292.571 405.028C292.224 405.028 291.881 405.111 291.571 405.269L285.811 408.589C285.682 408.646 285.574 408.743 285.503 408.865C285.431 408.987 285.399 409.128 285.411 409.269C285.411 409.909 285.411 410.149 285.811 410.349L290.651 413.109C290.961 413.267 291.304 413.349 291.651 413.349C291.999 413.349 292.342 413.267 292.651 413.109L298.411 409.829C298.731 409.829 298.851 409.389 298.771 409.149C298.691 408.909 299.531 407.949 299.051 407.789L298.411 408.069ZM284.331 408.069C284.331 407.429 284.331 407.149 283.931 406.989L279.131 404.189C278.815 404.03 278.465 403.948 278.111 403.948C277.757 403.948 277.408 404.03 277.091 404.189L268.371 409.229C268.242 409.287 268.134 409.383 268.063 409.505C267.991 409.627 267.959 409.768 267.971 409.909C267.971 410.549 267.971 410.789 268.371 410.989L273.211 413.789C273.521 413.947 273.864 414.029 274.211 414.029C274.559 414.029 274.902 413.947 275.211 413.789L283.931 408.749C284.08 408.887 284.277 408.96 284.48 408.952C284.682 408.945 284.874 408.857 285.011 408.709C285.149 408.56 285.223 408.363 285.215 408.161C285.208 407.958 285.12 407.767 284.971 407.629L284.331 408.069ZM307.651 402.869L302.851 400.069C302.535 399.91 302.185 399.828 301.831 399.828C301.477 399.828 301.128 399.91 300.811 400.069L295.091 403.389C294.962 403.447 294.854 403.543 294.783 403.665C294.711 403.787 294.679 403.928 294.691 404.069C294.691 404.709 294.691 404.949 295.091 405.149L299.891 407.949C300.208 408.107 300.557 408.19 300.911 408.19C301.266 408.19 301.615 408.107 301.931 407.949L307.651 404.629C307.781 404.571 307.888 404.475 307.96 404.353C308.032 404.231 308.064 404.09 308.051 403.949C308.731 402.869 308.611 402.469 308.291 402.469L307.651 402.869ZM255.891 395.229C255.891 394.589 255.891 394.349 255.491 394.149L250.651 391.349C250.342 391.191 249.999 391.108 249.651 391.108C249.304 391.108 248.961 391.191 248.651 391.349L242.891 394.669C242.766 394.728 242.663 394.826 242.598 394.949C242.533 395.071 242.51 395.212 242.531 395.349C242.531 395.989 242.531 396.229 242.891 396.429L247.731 399.229C248.048 399.387 248.397 399.47 248.751 399.47C249.106 399.47 249.455 399.387 249.771 399.229L255.491 395.909C255.64 396.047 255.837 396.12 256.04 396.112C256.242 396.105 256.434 396.017 256.571 395.869C256.709 395.72 256.783 395.523 256.775 395.321C256.768 395.118 256.68 394.927 256.531 394.789L255.891 395.229ZM272.731 404.949C272.731 404.309 272.731 404.069 272.331 403.869L267.491 401.069C267.182 400.911 266.839 400.828 266.491 400.828C266.144 400.828 265.801 400.911 265.491 401.069L259.731 404.389C259.411 404.389 259.291 404.829 259.371 405.069C259.451 405.309 259.371 405.949 259.731 406.149L264.571 408.949C264.888 409.107 265.237 409.19 265.591 409.19C265.945 409.19 266.295 409.107 266.611 408.949L272.331 405.629C272.48 405.767 272.677 405.84 272.88 405.832C273.082 405.825 273.274 405.737 273.411 405.589C273.549 405.44 273.623 405.243 273.615 405.041C273.608 404.838 273.52 404.647 273.371 404.509L272.731 404.949ZM267.491 398.349C267.491 397.709 267.491 397.429 267.091 397.269L262.291 394.469C261.975 394.31 261.625 394.228 261.271 394.228C260.917 394.228 260.568 394.31 260.251 394.469L251.531 399.509C251.211 399.509 251.091 399.949 251.171 400.189C251.251 400.429 251.171 401.069 251.531 401.269L256.371 404.069C256.681 404.227 257.024 404.309 257.371 404.309C257.719 404.309 258.062 404.227 258.371 404.069L267.731 398.469C267.845 398.423 267.942 398.346 268.013 398.247C268.084 398.148 268.125 398.031 268.131 397.909L267.491 398.349ZM403.491 347.709L398.691 344.949C398.375 344.79 398.026 344.708 397.671 344.708C397.317 344.708 396.968 344.79 396.651 344.949L390.931 348.229C390.802 348.287 390.694 348.383 390.623 348.505C390.551 348.627 390.519 348.768 390.531 348.909C390.531 349.549 390.531 349.829 390.931 349.989L395.731 352.789C396.048 352.947 396.397 353.03 396.751 353.03C397.105 353.03 397.455 352.947 397.771 352.789L403.491 349.469C403.62 349.411 403.728 349.315 403.8 349.193C403.872 349.071 403.904 348.93 403.891 348.789C404.731 347.709 404.611 347.469 404.291 347.269L403.491 347.709ZM384.971 358.429L380.131 355.629C379.822 355.471 379.479 355.388 379.131 355.388C378.784 355.388 378.441 355.471 378.131 355.629L372.411 358.949C372.278 359.001 372.167 359.097 372.094 359.22C372.022 359.343 371.993 359.487 372.011 359.629C372.011 360.269 372.011 360.509 372.411 360.709L377.211 363.469C377.528 363.627 377.877 363.71 378.231 363.71C378.586 363.71 378.935 363.627 379.251 363.469L384.971 360.189C385.101 360.131 385.208 360.035 385.28 359.913C385.352 359.791 385.384 359.65 385.371 359.509C386.211 358.469 386.091 358.149 385.771 357.989L384.971 358.429ZM394.251 353.069L389.411 350.269C389.102 350.111 388.759 350.028 388.411 350.028C388.064 350.028 387.721 350.111 387.411 350.269L381.651 353.589C381.331 353.589 381.211 354.029 381.291 354.269C381.371 354.509 381.291 355.149 381.651 355.349L386.491 358.149C386.801 358.307 387.144 358.389 387.491 358.389C387.839 358.389 388.182 358.307 388.491 358.149L394.251 354.829C394.571 354.829 394.691 354.389 394.611 354.149C394.531 353.909 395.531 352.829 395.051 352.629L394.251 353.069ZM317.571 397.069L312.731 394.469C312.422 394.311 312.079 394.228 311.731 394.228C311.384 394.228 311.041 394.311 310.731 394.469L304.971 397.749C304.651 397.749 304.531 398.189 304.611 398.429C304.691 398.669 304.611 399.349 304.971 399.509L309.811 402.309C310.121 402.467 310.464 402.549 310.811 402.549C311.159 402.549 311.502 402.467 311.811 402.309L317.571 398.989C317.701 398.931 317.808 398.835 317.88 398.713C317.952 398.591 317.984 398.45 317.971 398.309C318.011 397.509 317.891 397.269 317.571 397.069ZM252.811 390.469L257.651 393.269C257.961 393.427 258.304 393.509 258.651 393.509C258.999 393.509 259.342 393.427 259.651 393.269L265.411 389.949C265.731 389.949 265.851 389.509 265.771 389.269C265.691 389.029 265.771 388.389 265.411 388.189L260.571 385.429C260.267 385.253 259.922 385.161 259.571 385.161C259.22 385.161 258.875 385.253 258.571 385.429L252.811 388.709C252.682 388.766 252.574 388.863 252.503 388.985C252.431 389.107 252.399 389.248 252.411 389.389C252.371 390.189 252.491 390.469 252.811 390.469ZM364.051 370.469L359.211 367.669C358.902 367.511 358.559 367.428 358.211 367.428C357.864 367.428 357.521 367.511 357.211 367.669L314.291 392.429C314.159 392.493 314.05 392.597 313.978 392.726C313.907 392.855 313.876 393.002 313.891 393.149C313.891 393.749 313.891 394.029 314.291 394.189L319.131 396.989C319.441 397.147 319.784 397.229 320.131 397.229C320.479 397.229 320.822 397.147 321.131 396.989L364.051 372.229C364.371 372.229 364.491 371.789 364.411 371.549C364.331 371.309 364.371 370.469 364.051 370.469ZM376.051 363.429L371.211 360.629C370.902 360.471 370.559 360.388 370.211 360.388C369.864 360.388 369.521 360.471 369.211 360.629L360.491 365.669C360.358 365.721 360.247 365.817 360.174 365.94C360.102 366.063 360.073 366.207 360.091 366.349C360.091 366.989 360.091 367.229 360.491 367.429L365.291 370.189C365.608 370.347 365.957 370.43 366.311 370.43C366.666 370.43 367.015 370.347 367.331 370.189L376.051 365.149C376.184 365.096 376.296 365.001 376.369 364.878C376.441 364.755 376.47 364.611 376.451 364.469C376.531 363.749 376.411 363.469 376.091 363.309L376.051 363.429ZM371.531 358.149L377.251 354.829C377.384 354.776 377.496 354.681 377.569 354.558C377.641 354.435 377.67 354.291 377.651 354.149C377.651 353.509 377.651 353.269 377.251 353.069L372.451 350.309C372.135 350.15 371.785 350.068 371.431 350.068C371.077 350.068 370.728 350.15 370.411 350.309L364.691 353.629C364.558 353.681 364.447 353.777 364.374 353.9C364.302 354.023 364.273 354.167 364.291 354.309C364.291 354.949 364.291 355.189 364.691 355.349L369.491 358.149C369.808 358.307 370.157 358.39 370.511 358.39C370.866 358.39 371.215 358.307 371.531 358.149ZM357.851 330.149L362.691 332.949C363.001 333.107 363.344 333.189 363.691 333.189C364.039 333.189 364.382 333.107 364.691 332.949L370.451 329.629C370.771 329.429 370.891 329.189 370.811 328.949C370.731 328.709 370.811 328.069 370.451 327.869L365.611 325.069C365.295 324.91 364.946 324.828 364.591 324.828C364.237 324.828 363.888 324.91 363.571 325.069L357.851 328.389C357.722 328.447 357.614 328.543 357.543 328.665C357.471 328.787 357.439 328.928 357.451 329.069C357.451 329.589 357.571 329.829 357.891 330.029L357.851 330.149ZM348.571 335.509L353.411 338.269C353.728 338.427 354.077 338.51 354.431 338.51C354.785 338.51 355.135 338.427 355.451 338.269L361.171 334.949C361.304 334.896 361.416 334.801 361.489 334.678C361.561 334.555 361.59 334.411 361.571 334.269C361.571 333.669 361.571 333.389 361.171 333.229L356.371 330.469C356.062 330.311 355.719 330.228 355.371 330.228C355.024 330.228 354.681 330.311 354.371 330.469L348.611 333.789C348.476 333.835 348.363 333.931 348.296 334.057C348.229 334.184 348.213 334.331 348.251 334.469C348.171 334.949 348.291 335.189 348.611 335.389L348.571 335.509ZM326.891 347.949L331.731 350.749C332.041 350.907 332.384 350.989 332.731 350.989C333.079 350.989 333.422 350.907 333.731 350.749L342.451 345.709C342.581 345.651 342.688 345.555 342.76 345.433C342.832 345.311 342.864 345.17 342.851 345.029C342.851 344.389 342.851 344.149 342.451 343.949L337.651 341.189C337.335 341.03 336.986 340.948 336.631 340.948C336.277 340.948 335.928 341.03 335.611 341.189L326.891 346.229C326.758 346.281 326.647 346.377 326.574 346.5C326.502 346.623 326.473 346.767 326.491 346.909C326.491 347.389 326.611 347.669 326.931 347.829L326.891 347.949ZM339.531 340.709L344.331 343.509C344.648 343.667 344.997 343.75 345.351 343.75C345.706 343.75 346.055 343.667 346.371 343.509L352.091 340.189C352.224 340.136 352.336 340.041 352.409 339.918C352.481 339.795 352.51 339.651 352.491 339.509C352.491 338.869 352.491 338.629 352.091 338.429L347.291 335.669C346.975 335.51 346.625 335.428 346.271 335.428C345.917 335.428 345.568 335.51 345.251 335.669L339.531 338.989C339.398 339.041 339.287 339.137 339.214 339.26C339.142 339.383 339.113 339.527 339.131 339.669C338.931 340.269 339.051 340.549 339.531 340.709ZM366.131 333.829C366.131 334.469 366.131 334.709 366.491 334.909L371.331 337.709C371.641 337.867 371.984 337.949 372.331 337.949C372.679 337.949 373.022 337.867 373.331 337.709L378.931 334.469C379.251 334.469 379.371 334.029 379.291 333.789C379.211 333.549 379.291 332.909 378.931 332.709L374.091 329.909C373.782 329.751 373.439 329.668 373.091 329.668C372.744 329.668 372.401 329.751 372.091 329.909L366.331 333.229C366.011 333.349 365.891 333.589 365.971 333.829H366.131ZM381.011 352.789L386.731 349.509C386.861 349.451 386.968 349.355 387.04 349.233C387.112 349.111 387.144 348.97 387.131 348.829C387.131 348.189 387.131 347.909 386.731 347.749L381.891 344.949C381.582 344.791 381.239 344.708 380.891 344.708C380.544 344.708 380.201 344.791 379.891 344.949L374.131 348.269C374.006 348.328 373.903 348.426 373.838 348.549C373.773 348.671 373.75 348.812 373.771 348.949C373.771 349.589 373.771 349.829 374.131 350.029L378.971 352.789C379.267 352.922 379.587 352.992 379.911 352.992C380.236 352.992 380.556 352.922 380.851 352.789H381.011ZM271.531 379.949L276.371 382.709C276.681 382.867 277.024 382.949 277.371 382.949C277.719 382.949 278.062 382.867 278.371 382.709L284.131 379.429C284.261 379.371 284.368 379.275 284.44 379.153C284.512 379.031 284.544 378.89 284.531 378.749C284.531 378.109 284.531 377.829 284.131 377.669L279.291 374.869C278.982 374.711 278.639 374.628 278.291 374.628C277.944 374.628 277.601 374.711 277.291 374.869L271.531 378.189C271.211 378.189 271.091 378.629 271.171 378.869C271.251 379.109 271.011 379.749 271.531 379.949ZM280.611 374.469C287.571 378.469 285.171 378.469 293.211 373.949C293.337 373.89 293.44 373.792 293.505 373.669C293.57 373.546 293.593 373.406 293.571 373.269C293.571 372.629 293.571 372.389 293.211 372.189L288.371 369.389C288.055 369.23 287.706 369.148 287.351 369.148C286.997 369.148 286.648 369.23 286.331 369.389L280.611 372.709C280.482 372.766 280.374 372.863 280.303 372.985C280.231 373.107 280.199 373.248 280.211 373.389C280.171 374.149 280.291 374.469 280.611 374.469ZM262.091 385.149L266.891 387.949C267.208 388.107 267.557 388.19 267.911 388.19C268.266 388.19 268.615 388.107 268.931 387.949L274.651 384.629C274.784 384.576 274.896 384.481 274.969 384.358C275.041 384.235 275.07 384.091 275.051 383.949C275.051 383.309 275.051 383.069 274.651 382.869L269.851 380.109C269.535 379.95 269.185 379.868 268.831 379.868C268.477 379.868 268.128 379.95 267.811 380.109L262.091 383.429C261.958 383.481 261.847 383.577 261.774 383.7C261.702 383.823 261.673 383.967 261.691 384.109C261.651 384.869 261.771 385.109 262.091 385.269V385.149ZM290.091 369.149L294.891 371.949C295.208 372.107 295.557 372.19 295.911 372.19C296.266 372.19 296.615 372.107 296.931 371.949L302.651 368.629C302.781 368.571 302.888 368.475 302.96 368.353C303.032 368.231 303.064 368.09 303.051 367.949C303.051 367.309 303.051 367.069 302.651 366.869L297.851 364.109C297.535 363.95 297.185 363.868 296.831 363.868C296.477 363.868 296.128 363.95 295.811 364.109L290.091 367.389C289.962 367.447 289.854 367.543 289.783 367.665C289.711 367.787 289.679 367.928 289.691 368.069C289.451 368.789 289.571 369.069 289.891 369.229L290.091 369.149ZM308.411 358.469L313.251 361.229C313.555 361.404 313.9 361.497 314.251 361.497C314.602 361.497 314.947 361.404 315.251 361.229L320.971 357.949C321.104 357.896 321.216 357.801 321.289 357.678C321.361 357.555 321.39 357.411 321.371 357.269C321.371 356.629 321.371 356.349 320.971 356.189L316.171 353.389C315.855 353.23 315.506 353.148 315.151 353.148C314.797 353.148 314.448 353.23 314.131 353.389L308.411 356.709C308.282 356.766 308.174 356.863 308.103 356.985C308.031 357.107 307.999 357.248 308.011 357.389C307.971 358.109 308.091 358.469 308.411 358.469ZM299.131 363.829L303.971 366.589C304.281 366.747 304.624 366.829 304.971 366.829C305.319 366.829 305.662 366.747 305.971 366.589L311.731 363.269C311.867 363.223 311.98 363.127 312.047 363C312.114 362.874 312.13 362.727 312.091 362.589C312.091 361.949 312.091 361.709 311.731 361.549L306.891 358.749C306.582 358.591 306.239 358.508 305.891 358.508C305.544 358.508 305.201 358.591 304.891 358.749L299.131 362.069C298.996 362.115 298.883 362.211 298.816 362.337C298.749 362.464 298.733 362.611 298.771 362.749C298.691 363.469 298.811 363.709 299.131 363.909V363.829ZM371.131 338.909L364.771 335.269C364.381 335.072 363.949 334.969 363.511 334.969C363.074 334.969 362.642 335.072 362.251 335.269L347.691 343.669C347.538 343.735 347.409 343.848 347.323 343.992C347.237 344.135 347.198 344.302 347.211 344.469C347.211 345.149 347.211 345.469 347.691 345.709L360.371 353.029C360.762 353.226 361.194 353.328 361.631 353.328C362.069 353.328 362.501 353.226 362.891 353.029L386.891 339.069C387.047 339.047 387.192 338.978 387.307 338.87C387.421 338.763 387.5 338.623 387.531 338.469C387.531 337.789 387.531 337.469 387.051 337.229L382.411 334.469C382.147 334.35 381.861 334.288 381.571 334.288C381.282 334.288 380.995 334.35 380.731 334.469L372.731 339.109C372.494 339.213 372.235 339.257 371.976 339.236C371.718 339.215 371.469 339.13 371.251 338.989L371.131 338.909Z" fill="#B069E2"/>
<path d="M256.132 394.469L250.412 397.789C250.095 397.947 249.746 398.03 249.392 398.03C249.037 398.03 248.688 397.947 248.372 397.789L243.532 394.989C243.421 394.937 243.328 394.855 243.262 394.753C243.197 394.65 243.162 394.531 243.162 394.409C243.162 394.287 243.197 394.168 243.262 394.065C243.328 393.962 243.421 393.88 243.532 393.829L249.292 390.509C249.601 390.351 249.944 390.268 250.292 390.268C250.639 390.268 250.982 390.351 251.292 390.509L256.132 393.309C256.26 393.343 256.373 393.418 256.453 393.523C256.534 393.628 256.578 393.756 256.578 393.889C256.578 394.021 256.534 394.15 256.453 394.255C256.373 394.36 256.26 394.435 256.132 394.469ZM265.412 387.949L260.572 385.149C260.262 384.991 259.919 384.908 259.572 384.908C259.224 384.908 258.881 384.991 258.572 385.149L252.812 388.469C252.684 388.503 252.57 388.578 252.49 388.683C252.409 388.788 252.365 388.916 252.365 389.049C252.365 389.181 252.409 389.31 252.49 389.415C252.57 389.52 252.684 389.595 252.812 389.629L257.652 392.429C257.961 392.587 258.304 392.669 258.652 392.669C258.999 392.669 259.342 392.587 259.652 392.429L265.412 389.109C265.494 389.054 265.562 388.98 265.609 388.893C265.655 388.805 265.68 388.708 265.68 388.609C265.68 388.51 265.655 388.412 265.609 388.325C265.562 388.238 265.494 388.164 265.412 388.109V387.949ZM274.652 382.589L269.852 379.789C269.535 379.63 269.186 379.548 268.832 379.548C268.477 379.548 268.128 379.63 267.812 379.789L262.092 383.109C261.964 383.143 261.85 383.218 261.77 383.323C261.689 383.428 261.645 383.556 261.645 383.689C261.645 383.821 261.689 383.95 261.77 384.055C261.85 384.16 261.964 384.235 262.092 384.269L266.892 387.069C267.208 387.227 267.557 387.31 267.912 387.31C268.266 387.31 268.615 387.227 268.932 387.069L274.652 383.749C274.734 383.694 274.802 383.62 274.849 383.533C274.895 383.445 274.92 383.348 274.92 383.249C274.92 383.15 274.895 383.052 274.849 382.965C274.802 382.878 274.734 382.804 274.652 382.749V382.589ZM283.932 377.229L279.092 374.469C278.782 374.311 278.439 374.228 278.092 374.228C277.744 374.228 277.401 374.311 277.092 374.469L271.332 377.789C271.204 377.823 271.09 377.898 271.01 378.003C270.929 378.108 270.885 378.236 270.885 378.369C270.885 378.501 270.929 378.63 271.01 378.735C271.09 378.84 271.204 378.915 271.332 378.949L276.172 381.709C276.481 381.867 276.824 381.949 277.172 381.949C277.519 381.949 277.862 381.867 278.172 381.709L283.932 378.469C284.492 378.229 284.492 377.709 283.932 377.389V377.229ZM293.212 371.909L288.372 369.109C288.055 368.95 287.706 368.868 287.352 368.868C286.997 368.868 286.648 368.95 286.332 369.109L280.612 372.429C280.484 372.463 280.37 372.538 280.29 372.643C280.209 372.748 280.165 372.876 280.165 373.009C280.165 373.141 280.209 373.27 280.29 373.375C280.37 373.48 280.484 373.555 280.612 373.589L285.452 376.389C285.761 376.547 286.104 376.629 286.452 376.629C286.799 376.629 287.142 376.547 287.452 376.389L293.212 373.069C293.294 373.014 293.362 372.94 293.409 372.853C293.455 372.765 293.48 372.668 293.48 372.569C293.48 372.47 293.455 372.372 293.409 372.285C293.362 372.198 293.294 372.124 293.212 372.069V371.909ZM302.452 366.549L297.652 363.749C297.335 363.59 296.986 363.508 296.632 363.508C296.277 363.508 295.928 363.59 295.612 363.749L289.892 367.069C289.764 367.103 289.65 367.178 289.57 367.283C289.489 367.388 289.445 367.516 289.445 367.649C289.445 367.781 289.489 367.91 289.57 368.015C289.65 368.12 289.764 368.195 289.892 368.229L294.692 371.029C295.008 371.187 295.357 371.27 295.712 371.27C296.066 371.27 296.415 371.187 296.732 371.029L302.452 367.709C302.534 367.654 302.602 367.58 302.649 367.493C302.695 367.405 302.72 367.308 302.72 367.209C302.72 367.11 302.695 367.012 302.649 366.925C302.602 366.838 302.534 366.764 302.452 366.709V366.549ZM311.732 361.189L306.892 358.469C306.588 358.293 306.243 358.201 305.892 358.201C305.54 358.201 305.196 358.293 304.892 358.469L299.132 361.749C299.004 361.783 298.89 361.858 298.81 361.963C298.729 362.068 298.685 362.196 298.685 362.329C298.685 362.461 298.729 362.59 298.81 362.695C298.89 362.8 299.004 362.875 299.132 362.909L303.972 365.709C304.281 365.867 304.624 365.949 304.972 365.949C305.319 365.949 305.662 365.867 305.972 365.709L311.732 362.389C311.823 362.336 311.899 362.26 311.952 362.169C312.004 362.078 312.032 361.974 312.032 361.869C312.032 361.763 312.004 361.66 311.952 361.568C311.899 361.477 311.823 361.401 311.732 361.349V361.189ZM320.972 355.829L316.172 353.069C315.855 352.91 315.506 352.828 315.152 352.828C314.797 352.828 314.448 352.91 314.132 353.069L308.412 356.389C308.284 356.423 308.17 356.498 308.09 356.603C308.009 356.708 307.965 356.836 307.965 356.969C307.965 357.101 308.009 357.23 308.09 357.335C308.17 357.44 308.284 357.515 308.412 357.549L313.252 360.309C313.561 360.467 313.904 360.549 314.252 360.549C314.599 360.549 314.942 360.467 315.252 360.309L320.972 357.029C321.054 356.97 321.121 356.891 321.168 356.801C321.214 356.711 321.238 356.61 321.238 356.509C321.238 356.407 321.214 356.307 321.168 356.217C321.121 356.126 321.054 356.048 320.972 355.989V355.829ZM330.252 350.509L325.412 347.709C325.102 347.551 324.759 347.468 324.412 347.468C324.064 347.468 323.721 347.551 323.412 347.709L317.652 351.029C317.541 351.08 317.448 351.162 317.382 351.265C317.317 351.368 317.282 351.487 317.282 351.609C317.282 351.731 317.317 351.85 317.382 351.953C317.448 352.055 317.541 352.137 317.652 352.189L322.492 354.989C322.808 355.147 323.157 355.23 323.512 355.23C323.866 355.23 324.215 355.147 324.532 354.989L330.252 351.669C330.334 351.614 330.402 351.54 330.449 351.453C330.495 351.365 330.52 351.268 330.52 351.169C330.52 351.07 330.495 350.972 330.449 350.885C330.402 350.798 330.334 350.724 330.252 350.669V350.509ZM342.492 343.429L337.692 340.629C337.375 340.47 337.026 340.388 336.672 340.388C336.317 340.388 335.968 340.47 335.652 340.629L326.932 345.669C326.804 345.703 326.69 345.778 326.61 345.883C326.529 345.988 326.485 346.116 326.485 346.249C326.485 346.381 326.529 346.51 326.61 346.615C326.69 346.72 326.804 346.795 326.932 346.829L331.772 349.629C332.081 349.787 332.424 349.869 332.772 349.869C333.119 349.869 333.462 349.787 333.772 349.629L342.492 344.589C342.574 344.534 342.642 344.46 342.689 344.373C342.735 344.285 342.76 344.188 342.76 344.089C342.76 343.99 342.735 343.892 342.689 343.805C342.642 343.718 342.574 343.644 342.492 343.589V343.429ZM377.292 352.669L372.492 349.869C372.175 349.71 371.826 349.628 371.472 349.628C371.117 349.628 370.768 349.71 370.452 349.869L364.732 353.189C364.604 353.223 364.49 353.298 364.41 353.403C364.329 353.508 364.285 353.636 364.285 353.769C364.285 353.901 364.329 354.03 364.41 354.135C364.49 354.24 364.604 354.315 364.732 354.349L369.532 357.149C369.848 357.307 370.197 357.39 370.552 357.39C370.906 357.39 371.255 357.307 371.572 357.149L377.292 353.829C377.374 353.774 377.442 353.7 377.489 353.613C377.535 353.525 377.56 353.428 377.56 353.329C377.56 353.23 377.535 353.132 377.489 353.045C377.442 352.958 377.374 352.884 377.292 352.829V352.669ZM386.572 347.309L381.732 344.549C381.422 344.391 381.079 344.308 380.732 344.308C380.384 344.308 380.041 344.391 379.732 344.549L373.972 347.869C373.844 347.903 373.73 347.978 373.65 348.083C373.569 348.188 373.525 348.316 373.525 348.449C373.525 348.581 373.569 348.71 373.65 348.815C373.73 348.92 373.844 348.995 373.972 349.029L378.812 351.789C379.128 351.947 379.477 352.03 379.832 352.03C380.186 352.03 380.535 351.947 380.852 351.789L386.572 348.469C386.654 348.414 386.722 348.34 386.769 348.253C386.815 348.165 386.84 348.068 386.84 347.969C386.84 347.87 386.815 347.772 386.769 347.685C386.722 347.598 386.654 347.524 386.572 347.469V347.309ZM395.852 341.989L391.012 339.189C390.702 339.031 390.359 338.948 390.012 338.948C389.664 338.948 389.321 339.031 389.012 339.189L383.252 342.509C383.124 342.543 383.01 342.618 382.93 342.723C382.849 342.828 382.805 342.956 382.805 343.089C382.805 343.221 382.849 343.35 382.93 343.455C383.01 343.56 383.124 343.635 383.252 343.669L388.092 346.469C388.401 346.627 388.744 346.709 389.092 346.709C389.439 346.709 389.782 346.627 390.092 346.469L395.852 343.149C395.934 343.094 396.002 343.02 396.049 342.933C396.095 342.845 396.12 342.748 396.12 342.649C396.12 342.55 396.095 342.452 396.049 342.365C396.002 342.278 395.934 342.204 395.852 342.149V341.989ZM385.772 357.549L380.932 354.789C380.622 354.631 380.279 354.548 379.932 354.548C379.584 354.548 379.241 354.631 378.932 354.789L373.212 358.109C373.084 358.143 372.97 358.218 372.89 358.323C372.809 358.428 372.765 358.556 372.765 358.689C372.765 358.821 372.809 358.95 372.89 359.055C372.97 359.16 373.084 359.235 373.212 359.269L378.012 362.029C378.328 362.187 378.677 362.27 379.032 362.27C379.386 362.27 379.735 362.187 380.052 362.029L385.772 358.709C385.854 358.654 385.922 358.58 385.969 358.493C386.015 358.405 386.04 358.308 386.04 358.209C386.04 358.11 386.015 358.012 385.969 357.925C385.922 357.838 385.854 357.764 385.772 357.709V357.549ZM395.052 352.229L390.212 349.429C389.902 349.271 389.559 349.188 389.212 349.188C388.864 349.188 388.521 349.271 388.212 349.429L382.452 352.749C382.324 352.783 382.21 352.858 382.13 352.963C382.049 353.068 382.005 353.196 382.005 353.329C382.005 353.461 382.049 353.59 382.13 353.695C382.21 353.8 382.324 353.875 382.452 353.909L387.292 356.709C387.601 356.867 387.944 356.949 388.292 356.949C388.639 356.949 388.982 356.867 389.292 356.709L395.052 353.389C395.134 353.334 395.202 353.26 395.249 353.173C395.295 353.085 395.32 352.988 395.32 352.889C395.32 352.79 395.295 352.692 395.249 352.605C395.202 352.518 395.134 352.444 395.052 352.389V352.229ZM404.292 346.869L399.492 344.069C399.175 343.91 398.826 343.828 398.472 343.828C398.117 343.828 397.768 343.91 397.452 344.069L391.732 347.389C391.604 347.423 391.49 347.498 391.41 347.603C391.329 347.708 391.285 347.836 391.285 347.969C391.285 348.101 391.329 348.23 391.41 348.335C391.49 348.44 391.604 348.515 391.732 348.549L396.532 351.349C396.848 351.507 397.197 351.59 397.552 351.59C397.906 351.59 398.255 351.507 398.572 351.349L404.292 348.029C404.374 347.974 404.442 347.9 404.489 347.813C404.535 347.725 404.56 347.628 404.56 347.529C404.56 347.43 404.535 347.332 404.489 347.245C404.442 347.158 404.374 347.084 404.292 347.029V346.869ZM267.732 396.549L262.932 393.789C262.615 393.63 262.266 393.548 261.912 393.548C261.557 393.548 261.208 393.63 260.892 393.789L252.172 398.829C252.044 398.863 251.93 398.938 251.85 399.043C251.769 399.148 251.725 399.276 251.725 399.409C251.725 399.541 251.769 399.67 251.85 399.775C251.93 399.88 252.044 399.955 252.172 399.989L257.012 402.749C257.316 402.924 257.66 403.017 258.012 403.017C258.363 403.017 258.708 402.924 259.012 402.749L267.732 397.749C268.292 397.389 268.292 396.869 267.732 396.549ZM277.012 391.229L272.172 388.429C271.862 388.271 271.519 388.188 271.172 388.188C270.824 388.188 270.481 388.271 270.172 388.429L264.412 391.749C264.301 391.8 264.208 391.882 264.142 391.985C264.077 392.088 264.042 392.207 264.042 392.329C264.042 392.451 264.077 392.57 264.142 392.673C264.208 392.775 264.301 392.857 264.412 392.909L269.252 395.709C269.568 395.867 269.917 395.95 270.272 395.95C270.626 395.95 270.975 395.867 271.292 395.709L277.012 392.389C277.14 392.355 277.253 392.28 277.333 392.175C277.414 392.07 277.458 391.941 277.458 391.809C277.458 391.676 277.414 391.548 277.333 391.443C277.253 391.338 277.14 391.263 277.012 391.229ZM286.292 385.869L281.452 383.069C281.142 382.911 280.799 382.828 280.452 382.828C280.104 382.828 279.761 382.911 279.452 383.069L273.692 386.389C273.564 386.423 273.45 386.498 273.37 386.603C273.289 386.708 273.245 386.836 273.245 386.969C273.245 387.101 273.289 387.23 273.37 387.335C273.45 387.44 273.564 387.515 273.692 387.549L278.532 390.349C278.841 390.507 279.184 390.589 279.532 390.589C279.879 390.589 280.222 390.507 280.532 390.349L286.292 387.029C286.42 386.995 286.533 386.92 286.613 386.815C286.694 386.71 286.738 386.581 286.738 386.449C286.738 386.316 286.694 386.188 286.613 386.083C286.533 385.978 286.42 385.903 286.292 385.869ZM295.532 380.509L290.732 377.749C290.42 377.574 290.069 377.482 289.712 377.482C289.354 377.482 289.003 377.574 288.692 377.749L282.972 381.029C282.412 381.349 282.412 381.869 282.972 382.229L287.772 384.989C288.088 385.147 288.437 385.23 288.792 385.23C289.146 385.23 289.495 385.147 289.812 384.989L295.532 381.669C295.66 381.635 295.773 381.56 295.853 381.455C295.934 381.35 295.978 381.221 295.978 381.089C295.978 380.956 295.934 380.828 295.853 380.723C295.773 380.618 295.66 380.543 295.532 380.509ZM304.812 375.149L299.972 372.389C299.662 372.231 299.319 372.148 298.972 372.148C298.624 372.148 298.281 372.231 297.972 372.389L292.212 375.709C292.084 375.743 291.97 375.818 291.89 375.923C291.809 376.028 291.765 376.156 291.765 376.289C291.765 376.421 291.809 376.55 291.89 376.655C291.97 376.76 292.084 376.835 292.212 376.869L297.052 379.629C297.368 379.787 297.717 379.87 298.072 379.87C298.426 379.87 298.775 379.787 299.092 379.629L304.812 376.349C305.372 376.029 305.372 375.509 304.812 375.149ZM314.092 369.829L309.252 367.029C308.935 366.87 308.586 366.788 308.232 366.788C307.877 366.788 307.528 366.87 307.212 367.029L301.492 370.349C301.364 370.383 301.25 370.458 301.17 370.563C301.089 370.668 301.045 370.796 301.045 370.929C301.045 371.061 301.089 371.19 301.17 371.295C301.25 371.4 301.364 371.475 301.492 371.509L306.332 374.309C306.641 374.467 306.984 374.549 307.332 374.549C307.679 374.549 308.022 374.467 308.332 374.309L314.092 370.989C314.22 370.955 314.333 370.88 314.413 370.775C314.494 370.67 314.538 370.541 314.538 370.409C314.538 370.276 314.494 370.148 314.413 370.043C314.333 369.938 314.22 369.863 314.092 369.829ZM323.532 364.469L318.732 361.669C318.415 361.51 318.066 361.428 317.712 361.428C317.357 361.428 317.008 361.51 316.692 361.669L310.972 364.989C310.844 365.023 310.73 365.098 310.65 365.203C310.569 365.308 310.525 365.436 310.525 365.569C310.525 365.701 310.569 365.83 310.65 365.935C310.73 366.04 310.844 366.115 310.972 366.149L315.772 368.949C316.088 369.107 316.437 369.19 316.792 369.19C317.146 369.19 317.495 369.107 317.812 368.949L323.532 365.629C323.66 365.595 323.773 365.52 323.853 365.415C323.934 365.31 323.978 365.181 323.978 365.049C323.978 364.916 323.934 364.788 323.853 364.683C323.773 364.578 323.66 364.503 323.532 364.469ZM332.812 359.109L327.972 356.349C327.662 356.191 327.319 356.108 326.972 356.108C326.624 356.108 326.281 356.191 325.972 356.349L320.212 359.629C320.089 359.674 319.983 359.756 319.909 359.863C319.834 359.971 319.794 360.098 319.794 360.229C319.794 360.359 319.834 360.487 319.909 360.594C319.983 360.701 320.089 360.783 320.212 360.829L325.052 363.589C325.361 363.747 325.704 363.829 326.052 363.829C326.399 363.829 326.742 363.747 327.052 363.589L332.812 360.269C332.941 360.219 333.05 360.126 333.118 360.005C333.187 359.884 333.211 359.744 333.188 359.607C333.164 359.47 333.094 359.345 332.989 359.255C332.884 359.164 332.75 359.112 332.612 359.109H332.812ZM342.052 353.789L337.252 350.989C336.935 350.83 336.586 350.748 336.232 350.748C335.877 350.748 335.528 350.83 335.212 350.989L329.492 354.309C329.364 354.343 329.25 354.418 329.17 354.523C329.089 354.628 329.045 354.756 329.045 354.889C329.045 355.021 329.089 355.15 329.17 355.255C329.25 355.36 329.364 355.435 329.492 355.469L334.332 358.269C334.641 358.427 334.984 358.509 335.332 358.509C335.679 358.509 336.022 358.427 336.332 358.269L342.052 354.949C342.181 354.899 342.29 354.806 342.358 354.685C342.427 354.564 342.452 354.424 342.428 354.287C342.404 354.15 342.334 354.025 342.229 353.935C342.124 353.844 341.99 353.792 341.852 353.789H342.052ZM351.332 348.429L346.492 345.629C346.182 345.471 345.839 345.388 345.492 345.388C345.144 345.388 344.801 345.471 344.492 345.629L338.772 348.949C338.644 348.983 338.53 349.058 338.45 349.163C338.369 349.268 338.325 349.396 338.325 349.529C338.325 349.661 338.369 349.79 338.45 349.895C338.53 350 338.644 350.075 338.772 350.109L343.572 352.909C343.888 353.067 344.237 353.15 344.592 353.15C344.946 353.15 345.295 353.067 345.612 352.909L351.332 349.589C351.461 349.539 351.57 349.446 351.638 349.325C351.707 349.204 351.732 349.064 351.708 348.927C351.684 348.79 351.614 348.665 351.509 348.575C351.404 348.484 351.27 348.432 351.132 348.429H351.332ZM272.972 403.189L268.132 400.389C267.822 400.231 267.479 400.148 267.132 400.148C266.784 400.148 266.441 400.231 266.132 400.389L260.372 403.709C260.244 403.743 260.13 403.818 260.05 403.923C259.969 404.028 259.925 404.156 259.925 404.289C259.925 404.421 259.969 404.55 260.05 404.655C260.13 404.76 260.244 404.835 260.372 404.869L265.212 407.669C265.528 407.827 265.877 407.91 266.232 407.91C266.586 407.91 266.935 407.827 267.252 407.669L272.972 404.349C273.1 404.315 273.213 404.24 273.293 404.135C273.374 404.03 273.418 403.901 273.418 403.769C273.418 403.636 273.374 403.508 273.293 403.403C273.213 403.298 273.1 403.223 272.972 403.189ZM282.252 397.829L277.412 395.029C277.095 394.87 276.746 394.788 276.392 394.788C276.037 394.788 275.688 394.87 275.372 395.029L269.652 398.349C269.524 398.383 269.41 398.458 269.33 398.563C269.249 398.668 269.205 398.796 269.205 398.929C269.205 399.061 269.249 399.19 269.33 399.295C269.41 399.4 269.524 399.475 269.652 399.509L274.492 402.309C274.801 402.467 275.144 402.549 275.492 402.549C275.839 402.549 276.182 402.467 276.492 402.309L282.252 398.989C282.38 398.955 282.493 398.88 282.573 398.775C282.654 398.67 282.698 398.541 282.698 398.409C282.698 398.276 282.654 398.148 282.573 398.043C282.493 397.938 282.38 397.863 282.252 397.829ZM291.532 392.469L286.732 389.669C286.415 389.51 286.066 389.428 285.712 389.428C285.357 389.428 285.008 389.51 284.692 389.669L278.972 392.989C278.844 393.023 278.73 393.098 278.65 393.203C278.569 393.308 278.525 393.436 278.525 393.569C278.525 393.701 278.569 393.83 278.65 393.935C278.73 394.04 278.844 394.115 278.972 394.149L283.772 396.949C284.088 397.107 284.437 397.19 284.792 397.19C285.146 397.19 285.495 397.107 285.812 396.949L291.532 393.629C291.66 393.595 291.773 393.52 291.853 393.415C291.934 393.31 291.978 393.181 291.978 393.049C291.978 392.916 291.934 392.788 291.853 392.683C291.773 392.578 291.66 392.503 291.532 392.469ZM300.812 387.109L295.972 384.349C295.662 384.191 295.319 384.108 294.972 384.108C294.624 384.108 294.281 384.191 293.972 384.349L288.212 387.669C288.084 387.703 287.97 387.778 287.89 387.883C287.809 387.988 287.765 388.116 287.765 388.249C287.765 388.381 287.809 388.51 287.89 388.615C287.97 388.72 288.084 388.795 288.212 388.829L293.052 391.589C293.361 391.747 293.704 391.829 294.052 391.829C294.399 391.829 294.742 391.747 295.052 391.589L300.812 388.309C301.332 387.949 301.332 387.429 300.772 387.109H300.812ZM289.812 412.869L284.972 410.069C284.662 409.911 284.319 409.828 283.972 409.828C283.624 409.828 283.281 409.911 282.972 410.069L277.212 413.389C277.084 413.423 276.97 413.498 276.89 413.603C276.809 413.708 276.765 413.836 276.765 413.969C276.765 414.101 276.809 414.23 276.89 414.335C276.97 414.44 277.084 414.515 277.212 414.549L282.052 417.349C282.368 417.507 282.717 417.59 283.072 417.59C283.426 417.59 283.775 417.507 284.092 417.349L289.812 414.029C289.939 413.991 290.049 413.912 290.127 413.804C290.204 413.696 290.244 413.566 290.239 413.433C290.234 413.301 290.186 413.174 290.102 413.071C290.017 412.969 289.901 412.898 289.772 412.869H289.812ZM299.092 407.509L294.252 404.749C293.942 404.591 293.599 404.508 293.252 404.508C292.904 404.508 292.561 404.591 292.252 404.749L286.492 408.069C286.364 408.103 286.25 408.178 286.17 408.283C286.089 408.388 286.045 408.516 286.045 408.649C286.045 408.781 286.089 408.91 286.17 409.015C286.25 409.12 286.364 409.195 286.492 409.229L291.332 411.989C291.641 412.147 291.984 412.229 292.332 412.229C292.679 412.229 293.022 412.147 293.332 411.989L299.092 408.669C299.219 408.631 299.329 408.552 299.407 408.444C299.484 408.336 299.524 408.206 299.519 408.073C299.514 407.941 299.466 407.814 299.382 407.711C299.297 407.609 299.181 407.538 299.052 407.509H299.092ZM308.332 402.189L303.532 399.389C303.215 399.23 302.866 399.148 302.512 399.148C302.157 399.148 301.808 399.23 301.492 399.389L295.772 402.709C295.644 402.743 295.53 402.818 295.45 402.923C295.369 403.028 295.325 403.156 295.325 403.289C295.325 403.421 295.369 403.55 295.45 403.655C295.53 403.76 295.644 403.835 295.772 403.869L300.572 406.669C300.888 406.827 301.237 406.91 301.592 406.91C301.946 406.91 302.295 406.827 302.612 406.669L308.332 403.349C308.459 403.311 308.569 403.232 308.647 403.124C308.724 403.016 308.764 402.886 308.759 402.753C308.754 402.621 308.706 402.494 308.621 402.391C308.537 402.289 308.421 402.218 308.292 402.189H308.332ZM317.612 396.829L312.772 394.029C312.462 393.871 312.119 393.788 311.772 393.788C311.424 393.788 311.081 393.871 310.772 394.029L305.012 397.349C304.884 397.383 304.77 397.458 304.69 397.563C304.609 397.668 304.565 397.796 304.565 397.929C304.565 398.061 304.609 398.19 304.69 398.295C304.77 398.4 304.884 398.475 305.012 398.509L309.852 401.309C310.161 401.467 310.504 401.549 310.852 401.549C311.199 401.549 311.542 401.467 311.852 401.309L317.612 397.989C317.739 397.951 317.849 397.872 317.927 397.764C318.004 397.656 318.044 397.526 318.039 397.393C318.034 397.261 317.986 397.134 317.901 397.031C317.817 396.929 317.701 396.858 317.572 396.829H317.612ZM376.132 363.029L371.292 360.269C370.988 360.093 370.643 360.001 370.292 360.001C369.94 360.001 369.596 360.093 369.292 360.269L360.572 365.269C360.012 365.629 360.012 366.149 360.572 366.469L365.372 369.229C365.688 369.387 366.037 369.47 366.392 369.47C366.746 369.47 367.095 369.387 367.412 369.229L376.132 364.189C376.259 364.151 376.369 364.072 376.447 363.964C376.524 363.856 376.564 363.726 376.559 363.593C376.554 363.461 376.506 363.334 376.421 363.231C376.337 363.129 376.221 363.058 376.092 363.029H376.132ZM310.052 381.789L305.252 378.989C304.935 378.83 304.586 378.748 304.232 378.748C303.877 378.748 303.528 378.83 303.212 378.989L297.492 382.309C297.364 382.343 297.25 382.418 297.17 382.523C297.089 382.628 297.045 382.756 297.045 382.889C297.045 383.021 297.089 383.15 297.17 383.255C297.25 383.36 297.364 383.435 297.492 383.469L302.332 386.269C302.641 386.427 302.984 386.509 303.332 386.509C303.679 386.509 304.022 386.427 304.332 386.269L310.052 382.949C310.179 382.911 310.289 382.832 310.367 382.724C310.444 382.616 310.484 382.486 310.479 382.353C310.474 382.221 310.426 382.094 310.341 381.991C310.257 381.889 310.141 381.818 310.012 381.789H310.052ZM319.332 376.429L314.492 373.629C314.182 373.471 313.839 373.388 313.492 373.388C313.144 373.388 312.801 373.471 312.492 373.629L306.772 376.949C306.644 376.983 306.53 377.058 306.45 377.163C306.369 377.268 306.325 377.396 306.325 377.529C306.325 377.661 306.369 377.79 306.45 377.895C306.53 378 306.644 378.075 306.772 378.109L311.572 380.909C311.888 381.067 312.237 381.15 312.592 381.15C312.946 381.15 313.295 381.067 313.612 380.909L319.332 377.589C319.459 377.551 319.569 377.472 319.647 377.364C319.724 377.256 319.764 377.126 319.759 376.993C319.754 376.861 319.706 376.734 319.621 376.631C319.537 376.529 319.421 376.458 319.292 376.429H319.332ZM328.612 371.069L323.772 368.309C323.468 368.133 323.123 368.041 322.772 368.041C322.42 368.041 322.076 368.133 321.772 368.309L316.012 371.589C315.884 371.623 315.77 371.698 315.69 371.803C315.609 371.908 315.565 372.036 315.565 372.169C315.565 372.301 315.609 372.43 315.69 372.535C315.77 372.64 315.884 372.715 316.012 372.749L320.852 375.549C321.161 375.707 321.504 375.789 321.852 375.789C322.199 375.789 322.542 375.707 322.852 375.549L328.612 372.229C328.739 372.191 328.849 372.112 328.927 372.004C329.004 371.896 329.044 371.766 329.039 371.633C329.034 371.501 328.986 371.374 328.901 371.271C328.817 371.169 328.701 371.098 328.572 371.069H328.612ZM337.852 365.709L333.052 362.949C332.735 362.79 332.386 362.708 332.032 362.708C331.677 362.708 331.328 362.79 331.012 362.949L325.292 366.269C325.164 366.303 325.05 366.378 324.97 366.483C324.889 366.588 324.845 366.716 324.845 366.849C324.845 366.981 324.889 367.11 324.97 367.215C325.05 367.32 325.164 367.395 325.292 367.429L330.092 370.189C330.408 370.347 330.757 370.43 331.112 370.43C331.466 370.43 331.815 370.347 332.132 370.189L337.852 366.909C337.973 366.859 338.076 366.774 338.147 366.664C338.218 366.555 338.254 366.426 338.25 366.295C338.245 366.164 338.201 366.038 338.123 365.933C338.044 365.828 337.936 365.75 337.812 365.709H337.852ZM347.132 360.389L342.292 357.589C341.982 357.431 341.639 357.348 341.292 357.348C340.944 357.348 340.601 357.431 340.292 357.589L334.532 360.909C334.404 360.943 334.29 361.018 334.21 361.123C334.129 361.228 334.085 361.356 334.085 361.489C334.085 361.621 334.129 361.75 334.21 361.855C334.29 361.96 334.404 362.035 334.532 362.069L339.372 364.869C339.688 365.027 340.037 365.11 340.392 365.11C340.746 365.11 341.095 365.027 341.412 364.869L347.132 361.549C347.259 361.511 347.369 361.432 347.447 361.324C347.524 361.216 347.564 361.086 347.559 360.953C347.554 360.821 347.506 360.694 347.421 360.591C347.337 360.489 347.221 360.418 347.092 360.389H347.132ZM359.532 353.309L354.732 350.509C354.415 350.35 354.066 350.268 353.712 350.268C353.357 350.268 353.008 350.35 352.692 350.509L343.972 355.549C343.844 355.583 343.73 355.658 343.65 355.763C343.569 355.868 343.525 355.996 343.525 356.129C343.525 356.261 343.569 356.39 343.65 356.495C343.73 356.6 343.844 356.675 343.972 356.709L348.812 359.509C349.121 359.667 349.464 359.749 349.812 359.749C350.159 359.749 350.502 359.667 350.812 359.509L359.532 354.469C359.66 354.435 359.773 354.36 359.853 354.255C359.934 354.15 359.978 354.021 359.978 353.889C359.978 353.756 359.934 353.628 359.853 353.523C359.773 353.418 359.66 353.343 359.532 353.309ZM284.572 406.469L279.772 403.709C279.455 403.55 279.106 403.468 278.752 403.468C278.397 403.468 278.048 403.55 277.732 403.709L269.012 408.749C268.884 408.783 268.77 408.858 268.69 408.963C268.609 409.068 268.565 409.196 268.565 409.329C268.565 409.461 268.609 409.59 268.69 409.695C268.77 409.8 268.884 409.875 269.012 409.909L273.852 412.709C274.161 412.867 274.504 412.949 274.852 412.949C275.199 412.949 275.542 412.867 275.852 412.709L284.572 407.669C284.694 407.623 284.8 407.541 284.874 407.434C284.949 407.327 284.989 407.199 284.989 407.069C284.989 406.938 284.949 406.811 284.874 406.703C284.8 406.596 284.694 406.514 284.572 406.469ZM293.852 401.149L289.012 398.349C288.702 398.191 288.359 398.108 288.012 398.108C287.664 398.108 287.321 398.191 287.012 398.349L281.252 401.669C281.124 401.703 281.01 401.778 280.93 401.883C280.849 401.988 280.805 402.116 280.805 402.249C280.805 402.381 280.849 402.51 280.93 402.615C281.01 402.72 281.124 402.795 281.252 402.829L286.092 405.629C286.408 405.787 286.757 405.87 287.112 405.87C287.466 405.87 287.815 405.787 288.132 405.629L293.852 402.309C294.032 402.309 294.205 402.237 294.332 402.11C294.46 401.982 294.532 401.809 294.532 401.629C294.532 401.448 294.46 401.276 294.332 401.148C294.205 401.02 294.032 400.949 293.852 400.949V401.149ZM303.132 395.789L298.292 392.989C297.982 392.831 297.639 392.748 297.292 392.748C296.944 392.748 296.601 392.831 296.292 392.989L290.532 396.309C290.404 396.343 290.29 396.418 290.21 396.523C290.129 396.628 290.085 396.756 290.085 396.889C290.085 397.021 290.129 397.15 290.21 397.255C290.29 397.36 290.404 397.435 290.532 397.469L295.372 400.269C295.681 400.427 296.024 400.509 296.372 400.509C296.719 400.509 297.062 400.427 297.372 400.269L303.132 396.949C303.221 396.949 303.309 396.931 303.392 396.897C303.474 396.863 303.549 396.813 303.612 396.75C303.676 396.686 303.726 396.612 303.76 396.529C303.794 396.447 303.812 396.358 303.812 396.269C303.812 396.179 303.794 396.091 303.76 396.009C303.726 395.926 303.676 395.851 303.612 395.788C303.549 395.725 303.474 395.675 303.392 395.641C303.309 395.606 303.221 395.589 303.132 395.589V395.789ZM312.372 390.429L307.572 387.669C307.255 387.51 306.906 387.428 306.552 387.428C306.197 387.428 305.848 387.51 305.532 387.669L299.812 390.949C299.252 391.269 299.252 391.789 299.812 392.149L304.612 394.909C304.928 395.067 305.277 395.15 305.632 395.15C305.986 395.15 306.335 395.067 306.652 394.909L312.372 391.589C312.552 391.589 312.725 391.517 312.852 391.39C312.98 391.262 313.052 391.089 313.052 390.909C313.052 390.728 312.98 390.556 312.852 390.428C312.725 390.3 312.552 390.229 312.372 390.229V390.429ZM321.652 385.069L316.812 382.309C316.502 382.151 316.159 382.068 315.812 382.068C315.464 382.068 315.121 382.151 314.812 382.309L309.052 385.629C308.924 385.663 308.81 385.738 308.73 385.843C308.649 385.948 308.605 386.076 308.605 386.209C308.605 386.341 308.649 386.47 308.73 386.575C308.81 386.68 308.924 386.755 309.052 386.789L313.892 389.549C314.196 389.724 314.54 389.817 314.892 389.817C315.243 389.817 315.588 389.724 315.892 389.549L321.652 386.269C322.212 385.749 322.212 385.229 321.652 384.869V385.069ZM364.052 370.269L359.212 367.509C358.902 367.351 358.559 367.268 358.212 367.268C357.864 367.268 357.521 367.351 357.212 367.509L314.292 392.069C314.164 392.103 314.05 392.178 313.97 392.283C313.889 392.388 313.845 392.516 313.845 392.649C313.845 392.781 313.889 392.91 313.97 393.015C314.05 393.12 314.164 393.195 314.292 393.229L319.132 396.029C319.441 396.187 319.784 396.269 320.132 396.269C320.479 396.269 320.822 396.187 321.132 396.029L364.052 371.269C364.174 371.223 364.28 371.141 364.354 371.034C364.429 370.927 364.469 370.799 364.469 370.669C364.469 370.538 364.429 370.411 364.354 370.303C364.28 370.196 364.174 370.114 364.052 370.069V370.269ZM330.932 379.749L326.092 376.949C325.775 376.79 325.426 376.708 325.072 376.708C324.717 376.708 324.368 376.79 324.052 376.949L318.332 380.269C318.204 380.303 318.09 380.378 318.01 380.483C317.929 380.588 317.885 380.716 317.885 380.849C317.885 380.981 317.929 381.11 318.01 381.215C318.09 381.32 318.204 381.395 318.332 381.429L323.172 384.229C323.481 384.387 323.824 384.469 324.172 384.469C324.519 384.469 324.862 384.387 325.172 384.229L330.932 380.909C331.021 380.909 331.109 380.891 331.192 380.857C331.274 380.823 331.349 380.773 331.412 380.71C331.476 380.647 331.526 380.572 331.56 380.489C331.594 380.407 331.612 380.318 331.612 380.229C331.612 380.14 331.594 380.051 331.56 379.969C331.526 379.886 331.476 379.811 331.412 379.748C331.349 379.685 331.274 379.635 331.192 379.601C331.109 379.566 331.021 379.549 330.932 379.549V379.749ZM340.172 374.389L335.332 371.589C335.022 371.431 334.679 371.348 334.332 371.348C333.984 371.348 333.641 371.431 333.332 371.589L327.612 374.909C327.484 374.943 327.37 375.018 327.29 375.123C327.209 375.228 327.165 375.356 327.165 375.489C327.165 375.621 327.209 375.75 327.29 375.855C327.37 375.96 327.484 376.035 327.612 376.069L332.412 378.869C332.728 379.027 333.077 379.11 333.432 379.11C333.786 379.11 334.135 379.027 334.452 378.869L340.172 375.549C340.352 375.549 340.525 375.477 340.652 375.35C340.78 375.222 340.852 375.049 340.852 374.869C340.852 374.688 340.78 374.515 340.652 374.388C340.525 374.26 340.352 374.189 340.172 374.189V374.389ZM349.452 369.029L344.612 366.269C344.302 366.111 343.959 366.028 343.612 366.028C343.264 366.028 342.921 366.111 342.612 366.269L336.852 369.549C336.292 369.909 336.292 370.429 336.852 370.749L341.692 373.509C342.001 373.667 342.344 373.749 342.692 373.749C343.039 373.749 343.382 373.667 343.692 373.509L349.452 370.189C349.541 370.189 349.629 370.171 349.712 370.137C349.794 370.103 349.869 370.053 349.932 369.99C349.996 369.927 350.046 369.852 350.08 369.769C350.114 369.687 350.132 369.598 350.132 369.509C350.132 369.42 350.114 369.331 350.08 369.249C350.046 369.166 349.996 369.091 349.932 369.028C349.869 368.965 349.794 368.915 349.712 368.881C349.629 368.846 349.541 368.829 349.452 368.829V369.029ZM358.692 363.709L353.892 360.909C353.575 360.75 353.226 360.668 352.872 360.668C352.517 360.668 352.168 360.75 351.852 360.909L346.132 364.229C346.004 364.263 345.89 364.338 345.81 364.443C345.729 364.548 345.685 364.676 345.685 364.809C345.685 364.941 345.729 365.07 345.81 365.175C345.89 365.28 346.004 365.355 346.132 365.389L350.932 368.189C351.248 368.347 351.597 368.43 351.952 368.43C352.306 368.43 352.655 368.347 352.972 368.189L358.692 364.869C358.872 364.869 359.045 364.797 359.172 364.67C359.3 364.542 359.372 364.369 359.372 364.189C359.372 364.008 359.3 363.836 359.172 363.708C359.045 363.58 358.872 363.509 358.692 363.509V363.709ZM367.972 358.349L363.132 355.549C362.822 355.391 362.479 355.308 362.132 355.308C361.784 355.308 361.441 355.391 361.132 355.549L355.372 358.869C355.244 358.903 355.13 358.978 355.05 359.083C354.969 359.188 354.925 359.316 354.925 359.449C354.925 359.581 354.969 359.71 355.05 359.815C355.13 359.92 355.244 359.995 355.372 360.029L360.212 362.829C360.528 362.987 360.877 363.07 361.232 363.07C361.586 363.07 361.935 362.987 362.252 362.829L367.972 359.509C368.061 359.509 368.149 359.491 368.232 359.457C368.314 359.423 368.389 359.373 368.452 359.31C368.516 359.246 368.566 359.172 368.6 359.089C368.634 359.007 368.652 358.918 368.652 358.829C368.652 358.739 368.634 358.651 368.6 358.569C368.566 358.486 368.516 358.411 368.452 358.348C368.389 358.285 368.314 358.235 368.232 358.201C368.149 358.166 368.061 358.149 367.972 358.149V358.349ZM351.972 338.349L347.172 335.549C346.855 335.39 346.506 335.308 346.152 335.308C345.797 335.308 345.448 335.39 345.132 335.549L339.412 338.869C339.284 338.903 339.17 338.978 339.09 339.083C339.009 339.188 338.965 339.316 338.965 339.449C338.965 339.581 339.009 339.71 339.09 339.815C339.17 339.92 339.284 339.995 339.412 340.029L344.212 342.829C344.528 342.987 344.877 343.07 345.232 343.07C345.586 343.07 345.935 342.987 346.252 342.829L351.972 339.509C352.147 339.504 352.312 339.429 352.432 339.301C352.552 339.174 352.617 339.004 352.612 338.829C352.606 338.654 352.532 338.488 352.404 338.368C352.277 338.248 352.107 338.184 351.932 338.189L351.972 338.349ZM361.252 332.989L356.412 330.229C356.102 330.071 355.759 329.988 355.412 329.988C355.064 329.988 354.721 330.071 354.412 330.229L348.652 333.509C348.092 333.869 348.092 334.389 348.652 334.709L353.492 337.469C353.808 337.627 354.157 337.71 354.512 337.71C354.866 337.71 355.215 337.627 355.532 337.469L361.252 334.149C361.427 334.143 361.592 334.069 361.712 333.941C361.832 333.814 361.897 333.644 361.892 333.469C361.886 333.294 361.812 333.128 361.684 333.008C361.557 332.888 361.387 332.823 361.212 332.829L361.252 332.989ZM370.532 327.669L365.692 324.869C365.375 324.71 365.026 324.628 364.672 324.628C364.317 324.628 363.968 324.71 363.652 324.869L357.932 328.189C357.804 328.223 357.69 328.298 357.61 328.403C357.529 328.508 357.485 328.636 357.485 328.769C357.485 328.901 357.529 329.03 357.61 329.135C357.69 329.24 357.804 329.315 357.932 329.349L362.772 332.149C363.081 332.307 363.424 332.389 363.772 332.389C364.119 332.389 364.462 332.307 364.772 332.149L370.532 328.829C370.707 328.823 370.872 328.749 370.992 328.621C371.112 328.494 371.177 328.324 371.172 328.149C371.166 327.974 371.092 327.808 370.964 327.688C370.837 327.568 370.667 327.504 370.492 327.509L370.532 327.669ZM378.972 332.549L374.132 329.749C373.822 329.591 373.479 329.508 373.132 329.508C372.784 329.508 372.441 329.591 372.132 329.749L366.372 333.069C366.244 333.103 366.13 333.178 366.05 333.283C365.969 333.388 365.925 333.516 365.925 333.649C365.925 333.781 365.969 333.91 366.05 334.015C366.13 334.12 366.244 334.195 366.372 334.229L371.212 336.989C371.516 337.164 371.86 337.257 372.212 337.257C372.563 337.257 372.908 337.164 373.212 336.989L378.972 333.709C379.147 333.703 379.312 333.629 379.432 333.501C379.552 333.374 379.617 333.204 379.612 333.029C379.606 332.854 379.532 332.688 379.404 332.568C379.277 332.448 379.107 332.384 378.932 332.389L378.972 332.549ZM387.132 336.869L382.412 334.149C382.153 334.012 381.864 333.941 381.572 333.941C381.279 333.941 380.99 334.012 380.732 334.149L372.732 338.749C372.517 338.868 372.277 338.93 372.032 338.93C371.787 338.93 371.546 338.868 371.332 338.749L364.972 335.069C364.581 334.872 364.149 334.769 363.712 334.769C363.274 334.769 362.842 334.872 362.452 335.069L347.892 343.469C347.745 343.529 347.619 343.632 347.531 343.763C347.443 343.895 347.396 344.05 347.396 344.209C347.396 344.367 347.443 344.522 347.531 344.654C347.619 344.786 347.745 344.889 347.892 344.949L360.572 352.229C360.962 352.426 361.394 352.528 361.832 352.528C362.269 352.528 362.701 352.426 363.092 352.229L387.092 338.309C387.244 338.262 387.377 338.169 387.474 338.043C387.57 337.916 387.624 337.762 387.629 337.603C387.633 337.444 387.588 337.288 387.498 337.156C387.409 337.024 387.281 336.924 387.132 336.869Z" fill="url(#paint5_linear_11_6)"/>
<g style="mix-blend-mode:screen">
<path d="M237.851 251.109L250.451 243.829C250.894 243.56 251.269 243.193 251.546 242.756C251.824 242.319 251.996 241.824 252.051 241.309C252.051 240.389 251.331 240.109 250.451 240.629L237.851 247.909C237.404 248.172 237.026 248.538 236.748 248.976C236.47 249.414 236.299 249.912 236.251 250.429C236.251 251.309 236.971 251.629 237.851 251.109Z" fill="#3B223A"/>
<path d="M220.131 261.349L226.171 257.829C226.628 257.573 227.016 257.209 227.301 256.771C227.587 256.332 227.762 255.83 227.811 255.309C227.811 254.429 227.091 254.109 226.171 254.629L220.131 258.109C219.676 258.377 219.29 258.748 219.005 259.193C218.72 259.638 218.544 260.143 218.491 260.669C218.491 261.549 219.211 261.869 220.131 261.349Z" fill="#3B223A"/>
<path d="M202.971 271.229L208.091 268.269C208.538 268.005 208.916 267.639 209.194 267.201C209.473 266.763 209.643 266.265 209.691 265.749C209.691 264.869 208.971 264.549 208.091 265.069L202.971 268.029C202.528 268.297 202.153 268.664 201.876 269.101C201.598 269.539 201.426 270.034 201.371 270.549C201.371 271.469 202.091 271.749 202.971 271.229Z" fill="#3B223A"/>
<path d="M174.491 287.669L191.531 277.869C191.977 277.594 192.353 277.22 192.631 276.776C192.908 276.332 193.08 275.83 193.131 275.309C193.131 274.429 192.411 274.109 191.531 274.629L174.491 284.469C174.048 284.737 173.673 285.104 173.396 285.541C173.118 285.979 172.946 286.474 172.891 286.989C172.891 287.909 173.611 288.189 174.491 287.669Z" fill="#3B223A"/>
<path d="M164.251 290.469L154.651 295.989C154.203 296.261 153.825 296.634 153.548 297.079C153.27 297.524 153.1 298.027 153.051 298.549C153.051 299.429 153.771 299.709 154.651 299.229L164.251 293.709C164.697 293.434 165.073 293.06 165.351 292.616C165.629 292.172 165.8 291.67 165.851 291.149C165.851 290.189 165.131 289.869 164.251 290.469Z" fill="#3B223A"/>
<path d="M141.011 307.029L145.571 304.389C146.019 304.117 146.397 303.743 146.675 303.299C146.953 302.854 147.123 302.351 147.171 301.829C147.171 300.949 146.451 300.669 145.571 301.149L141.011 303.789C140.57 304.086 140.206 304.485 139.948 304.95C139.691 305.416 139.548 305.937 139.531 306.469C139.531 307.229 140.131 307.509 141.011 307.029Z" fill="#3B223A"/>
<path d="M250.451 247.949L244.851 251.189C244.403 251.461 244.025 251.834 243.747 252.279C243.469 252.723 243.299 253.227 243.251 253.749C243.251 254.629 243.971 254.949 244.851 254.429L250.451 251.189C250.899 250.916 251.277 250.543 251.555 250.099C251.832 249.654 252.002 249.151 252.051 248.629C252.051 247.749 251.531 247.469 250.451 247.949Z" fill="#3B223A"/>
<path d="M224.571 264.509C224.571 265.389 225.291 265.709 226.171 265.189L232.491 261.549C232.934 261.28 233.309 260.913 233.587 260.476C233.864 260.039 234.037 259.544 234.091 259.029C234.091 258.109 233.371 257.829 232.491 258.349L226.171 261.989C225.724 262.252 225.346 262.618 225.068 263.056C224.79 263.494 224.62 263.992 224.571 264.509Z" fill="#3B223A"/>
<path d="M216.931 268.909C216.931 268.029 216.211 267.709 215.331 268.229L208.091 272.229C207.644 272.492 207.266 272.858 206.988 273.296C206.71 273.734 206.54 274.232 206.491 274.749C206.491 275.629 207.211 275.949 208.091 275.429L215.331 271.429C215.772 271.158 216.145 270.79 216.423 270.354C216.7 269.917 216.874 269.423 216.931 268.909Z" fill="#3B223A"/>
<path d="M180.811 289.789C180.811 290.669 181.531 290.949 182.451 290.469L199.531 280.549C199.986 280.29 200.371 279.926 200.657 279.488C200.942 279.049 201.118 278.549 201.171 278.029C201.171 277.109 200.451 276.829 199.531 277.349L182.411 287.229C181.959 287.496 181.577 287.868 181.299 288.314C181.021 288.759 180.853 289.265 180.811 289.789Z" fill="#3B223A"/>
<path d="M173.251 295.749C173.694 295.48 174.069 295.113 174.347 294.676C174.624 294.239 174.797 293.744 174.851 293.229C174.851 292.349 174.131 292.029 173.251 292.549L168.211 295.429C167.763 295.701 167.385 296.074 167.108 296.519C166.83 296.964 166.66 297.467 166.611 297.989C166.611 298.869 167.331 299.189 168.211 298.669L173.251 295.749Z" fill="#3B223A"/>
<path d="M141.011 314.469L159.531 303.709C159.974 303.44 160.349 303.073 160.626 302.636C160.904 302.199 161.077 301.704 161.131 301.189C161.131 300.309 160.411 299.989 159.531 300.509L141.091 311.149C140.648 311.417 140.274 311.784 139.996 312.221C139.718 312.659 139.546 313.154 139.491 313.669C139.531 314.469 140.131 314.869 141.011 314.469Z" fill="#3B223A"/>
<path d="M250.451 255.309L232.491 265.669C232.045 265.944 231.669 266.317 231.391 266.762C231.114 267.206 230.943 267.708 230.891 268.229C230.891 269.109 231.611 269.429 232.491 268.909L250.451 258.469C250.897 258.194 251.273 257.82 251.551 257.376C251.828 256.932 252 256.43 252.051 255.909C252.051 255.109 251.531 254.789 250.451 255.309Z" fill="#3B223A"/>
<path d="M215.531 275.589C215.088 275.857 214.713 276.224 214.436 276.661C214.158 277.098 213.986 277.594 213.931 278.109C213.931 279.029 214.651 279.309 215.531 278.789L224.731 273.469C225.188 273.213 225.576 272.849 225.861 272.411C226.147 271.972 226.322 271.47 226.371 270.949C226.371 270.069 225.651 269.749 224.731 270.269L215.531 275.589Z" fill="#3B223A"/>
<path d="M194.931 288.989C194.931 289.869 195.651 290.149 196.531 289.669L205.531 284.469C205.979 284.196 206.357 283.823 206.635 283.379C206.913 282.934 207.083 282.431 207.131 281.909C207.131 281.029 206.411 280.749 205.531 281.229L196.531 286.469C196.088 286.737 195.713 287.104 195.436 287.541C195.158 287.979 194.986 288.474 194.931 288.989Z" fill="#3B223A"/>
<path d="M174.491 299.149C174.045 299.423 173.669 299.797 173.391 300.241C173.114 300.686 172.943 301.188 172.891 301.709C172.891 302.589 173.611 302.909 174.491 302.389L186.171 295.629C186.618 295.365 186.996 294.999 187.274 294.561C187.553 294.123 187.723 293.625 187.771 293.109C187.771 292.229 187.051 291.909 186.171 292.429L174.491 299.149Z" fill="#3B223A"/>
<path d="M164.251 305.109L159.451 307.869C159.004 308.132 158.626 308.498 158.348 308.936C158.07 309.374 157.899 309.872 157.851 310.389C157.851 311.269 158.571 311.589 159.451 311.069L164.251 308.309C164.694 308.04 165.069 307.673 165.346 307.236C165.624 306.799 165.797 306.304 165.851 305.789C165.851 304.869 165.131 304.589 164.251 305.109Z" fill="#3B223A"/>
<path d="M150.571 312.989L141.011 318.469C140.564 318.732 140.186 319.098 139.908 319.536C139.63 319.974 139.459 320.472 139.411 320.989C139.411 321.869 140.131 322.189 141.011 321.669L150.571 316.149C151.026 315.89 151.412 315.526 151.697 315.088C151.982 314.649 152.158 314.149 152.211 313.629C152.211 312.749 151.531 312.469 150.571 312.989Z" fill="#3B223A"/>
<path d="M250.451 262.669L237.851 269.949C237.408 270.217 237.033 270.584 236.756 271.021C236.478 271.458 236.305 271.954 236.251 272.469C236.251 273.349 236.971 273.669 237.851 273.149L250.451 265.869C250.898 265.605 251.276 265.239 251.554 264.801C251.832 264.363 252.003 263.865 252.051 263.349C252.051 262.469 251.531 262.149 250.451 262.669Z" fill="#3B223A"/>
<path d="M226.171 276.669L215.531 282.949C215.088 283.217 214.713 283.584 214.436 284.021C214.158 284.458 213.986 284.954 213.931 285.469C213.931 286.349 214.651 286.669 215.531 286.149L226.371 279.909C226.827 279.641 227.212 279.27 227.497 278.825C227.782 278.38 227.958 277.874 228.011 277.349C227.811 276.469 227.091 276.149 226.171 276.669Z" fill="#3B223A"/>
<path d="M206.251 288.189L186.251 299.789C185.809 300.057 185.434 300.424 185.156 300.861C184.879 301.299 184.706 301.794 184.651 302.309C184.651 303.189 185.371 303.509 186.251 302.989L206.251 291.429C206.697 291.154 207.074 290.78 207.351 290.336C207.629 289.892 207.8 289.39 207.851 288.869C207.851 287.989 207.131 287.669 206.251 288.189Z" fill="#3B223A"/>
<path d="M159.531 315.189L154.731 317.949C154.286 318.224 153.909 318.597 153.632 319.042C153.354 319.486 153.183 319.988 153.131 320.509C153.131 321.389 153.851 321.709 154.731 321.189L159.531 318.469C159.979 318.196 160.357 317.823 160.635 317.379C160.913 316.934 161.083 316.431 161.131 315.909C161.051 314.989 160.331 314.669 159.531 315.189Z" fill="#3B223A"/>
<path d="M145.571 323.229L141.011 325.829C140.565 326.103 140.189 326.477 139.911 326.921C139.634 327.366 139.463 327.868 139.411 328.389C139.411 329.269 140.131 329.589 141.011 329.069L145.571 326.469C146.014 326.2 146.389 325.833 146.666 325.396C146.944 324.959 147.117 324.464 147.171 323.949C147.171 322.989 146.451 322.709 145.571 323.229Z" fill="#3B223A"/>
<path d="M374.091 172.429L386.691 165.189C387.137 164.914 387.513 164.54 387.791 164.096C388.068 163.652 388.24 163.15 388.291 162.629C388.291 161.749 387.571 161.429 386.691 161.949L374.091 169.229C373.648 169.497 373.274 169.864 372.996 170.301C372.718 170.739 372.546 171.234 372.491 171.749C372.491 172.669 373.211 172.949 374.091 172.429Z" fill="#3B223A"/>
<path d="M356.371 182.669L362.411 179.189C362.871 178.926 363.26 178.556 363.545 178.11C363.831 177.665 364.004 177.156 364.051 176.629C364.051 175.749 363.331 175.429 362.411 175.949L356.371 179.469C355.916 179.728 355.53 180.091 355.245 180.53C354.96 180.968 354.784 181.468 354.731 181.989C354.731 182.909 355.531 183.189 356.371 182.669Z" fill="#3B223A"/>
<path d="M339.211 192.589L344.331 189.629C344.779 189.356 345.157 188.983 345.435 188.539C345.713 188.094 345.883 187.591 345.931 187.069C345.931 186.189 345.211 185.869 344.331 186.389L339.211 189.349C338.766 189.624 338.389 189.997 338.112 190.442C337.834 190.886 337.663 191.388 337.611 191.909C337.611 192.789 338.331 193.109 339.211 192.589Z" fill="#3B223A"/>
<path d="M310.731 209.029L327.771 199.189C328.219 198.916 328.597 198.543 328.875 198.099C329.153 197.654 329.323 197.151 329.371 196.629C329.371 195.749 328.651 195.469 327.771 195.949L310.731 205.789C310.283 206.061 309.905 206.434 309.628 206.879C309.35 207.323 309.18 207.827 309.131 208.349C309.131 209.229 309.851 209.549 310.731 209.029Z" fill="#3B223A"/>
<path d="M300.491 211.709L290.891 217.229C290.445 217.504 290.069 217.877 289.791 218.322C289.514 218.766 289.343 219.268 289.291 219.789C289.291 220.669 290.011 220.989 290.891 220.469L300.491 214.949C300.939 214.676 301.317 214.303 301.595 213.859C301.873 213.414 302.042 212.911 302.091 212.389C302.091 211.509 301.371 211.229 300.491 211.709Z" fill="#3B223A"/>
<path d="M277.251 228.349L281.811 225.709C282.254 225.44 282.629 225.073 282.906 224.636C283.184 224.199 283.357 223.704 283.411 223.189C283.411 222.309 282.691 221.989 281.811 222.509L277.251 225.149C276.804 225.412 276.426 225.778 276.148 226.216C275.87 226.654 275.699 227.152 275.651 227.669C275.531 228.549 276.371 228.869 277.251 228.349Z" fill="#3B223A"/>
<path d="M360.811 185.869C360.811 186.749 361.531 187.029 362.411 186.549L368.731 182.909C369.177 182.634 369.553 182.26 369.831 181.816C370.108 181.372 370.279 180.87 370.331 180.349C370.331 179.469 369.611 179.149 368.731 179.669L362.411 183.309C361.963 183.581 361.585 183.954 361.307 184.399C361.03 184.843 360.86 185.347 360.811 185.869Z" fill="#3B223A"/>
<path d="M353.171 190.469C353.171 189.549 352.451 189.269 351.571 189.789L344.331 193.789C343.883 194.061 343.505 194.434 343.227 194.879C342.949 195.324 342.779 195.827 342.731 196.349C342.731 197.229 343.451 197.509 344.331 197.029L351.571 193.029C352.019 192.756 352.397 192.383 352.675 191.939C352.952 191.494 353.122 190.991 353.171 190.469Z" fill="#3B223A"/>
<path d="M317.051 211.109C317.051 211.989 317.771 212.309 318.691 211.789L335.811 201.869C336.268 201.613 336.656 201.249 336.941 200.811C337.227 200.372 337.402 199.87 337.451 199.349C337.451 198.469 336.731 198.149 335.811 198.669L318.691 208.549C318.236 208.817 317.85 209.188 317.565 209.633C317.28 210.077 317.104 210.583 317.051 211.109Z" fill="#3B223A"/>
<path d="M309.491 217.109C309.937 216.834 310.313 216.46 310.591 216.016C310.868 215.572 311.04 215.07 311.091 214.549C311.091 213.669 310.371 213.349 309.491 213.869L304.451 216.789C304.004 217.052 303.626 217.418 303.348 217.856C303.07 218.294 302.899 218.792 302.851 219.309C302.851 220.189 303.571 220.509 304.451 219.989L309.491 217.109Z" fill="#3B223A"/>
<path d="M277.251 235.709L295.531 225.069C295.977 224.794 296.353 224.42 296.631 223.976C296.908 223.532 297.08 223.03 297.131 222.509C297.131 221.629 296.411 221.309 295.531 221.829L277.251 232.469C276.805 232.743 276.429 233.117 276.151 233.561C275.874 234.006 275.703 234.508 275.651 235.029C275.531 235.909 276.371 236.229 277.251 235.709Z" fill="#3B223A"/>
<path d="M351.531 196.909C351.085 197.183 350.709 197.557 350.431 198.001C350.154 198.445 349.983 198.948 349.931 199.469C349.931 200.349 350.651 200.669 351.531 200.149L360.731 194.829C361.191 194.566 361.58 194.196 361.866 193.75C362.151 193.304 362.325 192.796 362.371 192.269C362.371 191.389 361.651 191.109 360.731 191.589L351.531 196.909Z" fill="#3B223A"/>
<path d="M331.171 210.469C331.171 211.349 331.891 211.669 332.771 211.149L341.771 205.949C342.214 205.68 342.589 205.313 342.866 204.876C343.144 204.439 343.316 203.944 343.371 203.429C343.371 202.549 342.651 202.229 341.771 202.749L332.771 207.909C332.325 208.183 331.949 208.557 331.671 209.001C331.394 209.446 331.222 209.948 331.171 210.469Z" fill="#3B223A"/>
<path d="M310.731 220.509C310.289 220.777 309.914 221.144 309.636 221.581C309.359 222.019 309.186 222.514 309.131 223.029C309.131 223.909 309.851 224.229 310.731 223.709L322.411 216.989C322.859 216.716 323.237 216.343 323.515 215.899C323.793 215.454 323.963 214.951 324.011 214.429C324.011 213.549 323.291 213.269 322.411 213.749L310.731 220.509Z" fill="#3B223A"/>
<path d="M300.491 226.469L295.691 229.229C295.248 229.497 294.874 229.864 294.596 230.301C294.319 230.738 294.146 231.234 294.091 231.749C294.091 232.669 294.811 232.949 295.691 232.429L300.491 229.669C300.938 229.405 301.316 229.039 301.595 228.601C301.873 228.163 302.043 227.665 302.091 227.149C302.091 226.229 301.371 225.909 300.491 226.469Z" fill="#3B223A"/>
<path d="M286.811 234.469L277.251 239.989C276.791 240.239 276.396 240.594 276.097 241.025C275.798 241.455 275.605 241.95 275.531 242.469C275.531 243.389 276.251 243.669 277.131 243.189L286.691 237.629C287.148 237.373 287.536 237.009 287.821 236.571C288.107 236.132 288.282 235.63 288.331 235.109C288.451 234.109 287.731 233.789 286.811 234.469Z" fill="#3B223A"/>
<path d="M342.491 209.509L322.491 221.109C322.043 221.381 321.665 221.754 321.387 222.199C321.11 222.644 320.94 223.147 320.891 223.669C320.891 224.549 321.611 224.829 322.491 224.349L342.491 212.749C342.939 212.476 343.317 212.103 343.595 211.659C343.873 211.214 344.043 210.711 344.091 210.189C344.091 209.309 343.531 209.029 342.491 209.509Z" fill="#3B223A"/>
<path d="M310.731 227.829L305.731 230.749C305.289 231.017 304.914 231.384 304.636 231.821C304.359 232.259 304.186 232.754 304.131 233.269C304.131 234.189 304.851 234.469 305.731 233.949L310.731 231.069C311.179 230.796 311.557 230.423 311.835 229.979C312.113 229.534 312.283 229.031 312.331 228.509C312.331 227.629 311.531 227.349 310.731 227.829Z" fill="#3B223A"/>
<path d="M295.531 236.549L290.731 239.309C290.289 239.577 289.914 239.944 289.636 240.381C289.359 240.818 289.186 241.314 289.131 241.829C289.131 242.709 289.851 243.029 290.731 242.509L295.531 239.749C295.974 239.48 296.349 239.113 296.627 238.676C296.904 238.239 297.077 237.744 297.131 237.229C297.291 236.309 296.571 236.029 295.531 236.549Z" fill="#3B223A"/>
<path d="M281.811 244.549L277.251 247.189C276.809 247.457 276.434 247.824 276.156 248.261C275.879 248.699 275.706 249.194 275.651 249.709C275.651 250.589 276.371 250.909 277.251 250.389L281.811 247.789C282.257 247.514 282.634 247.14 282.911 246.696C283.189 246.252 283.36 245.75 283.411 245.229C283.531 244.349 282.691 244.029 281.811 244.549Z" fill="#3B223A"/>
<path d="M171.851 268.349L149.051 281.509V258.469L171.851 245.309V268.349ZM202.811 216.349L180.051 229.669V263.589L202.811 250.469V216.349ZM233.811 182.629L211.011 195.789V245.709L233.811 232.549V182.629ZM264.811 152.149L242.011 165.309V227.829L264.811 214.669V152.149ZM295.771 116.149L273.011 129.309V209.949L295.771 196.789V116.149ZM326.771 83.5088L304.011 96.6688V192.029L326.771 178.869V83.5088ZM357.771 90.4688L334.971 103.629V174.149L357.771 160.989V90.4688ZM388.771 125.349L365.971 138.469V156.189L388.771 143.029V125.349Z" fill="url(#paint6_linear_11_6)"/>
<path d="M141.331 293.069V184.749L139.851 185.589V295.389L389.251 151.429V149.949L141.331 293.069Z" fill="#3B223A"/>
</g>
<path style="mix-blend-mode:screen" d="M462.406 216.636C525.484 153.558 525.484 51.2894 462.406 -11.7881C399.329 -74.8656 297.06 -74.8656 233.982 -11.7881C170.905 51.2894 170.905 153.558 233.982 216.636C297.06 279.713 399.329 279.713 462.406 216.636Z" fill="url(#paint7_radial_11_6)"/>
<path style="mix-blend-mode:screen" d="M417.271 291.902C503.761 270.065 556.173 182.247 534.336 95.7564C512.499 9.26553 424.681 -43.1465 338.191 -21.3091C251.7 0.528266 199.288 88.3456 221.125 174.836C242.962 261.327 330.78 313.739 417.271 291.902Z" fill="url(#paint8_radial_11_6)"/>
<path style="mix-blend-mode:screen" d="M357.324 256.266C443.64 233.75 495.361 145.524 472.845 59.207C450.329 -27.1096 362.103 -78.8303 275.786 -56.3143C189.469 -33.7983 137.749 54.428 160.265 140.745C182.781 227.061 271.007 278.782 357.324 256.266Z" fill="url(#paint9_radial_11_6)"/>
<path style="mix-blend-mode:screen" d="M325.458 290.487C411.987 268.186 464.054 179.961 441.752 93.4324C419.451 6.90353 331.227 -45.1633 244.698 -22.862C158.169 -0.560738 106.102 87.6635 128.404 174.192C150.705 260.721 238.929 312.788 325.458 290.487Z" fill="url(#paint10_radial_11_6)"/>
<path style="mix-blend-mode:screen" d="M296.705 327.309C383.234 304.115 434.578 215.168 411.384 128.639C388.191 42.1103 299.244 -9.23331 212.715 13.96C126.186 37.1533 74.8424 126.101 98.0357 212.63C121.229 299.158 210.176 350.502 296.705 327.309Z" fill="url(#paint11_radial_11_6)"/>
<path style="mix-blend-mode:screen" d="M264.929 353.236C351.094 330.148 402.229 241.581 379.141 155.415C356.053 69.2499 267.485 18.1155 181.32 41.2035C95.1544 64.2914 44.02 152.859 67.1079 239.024C90.1959 325.19 178.763 376.324 264.929 353.236Z" fill="url(#paint12_radial_11_6)"/>
<path style="mix-blend-mode:screen" d="M298.741 353.842C365.675 294.873 372.132 192.808 313.163 125.874C254.194 58.9399 152.129 52.4827 85.1952 111.452C18.261 170.421 11.8038 272.485 70.7728 339.42C129.742 406.354 231.807 412.811 298.741 353.842Z" fill="url(#paint13_radial_11_6)"/>
<path style="mix-blend-mode:screen" d="M317.869 299.09C339.238 212.483 286.351 124.95 199.744 103.581C113.136 82.2118 25.6035 135.098 4.2344 221.706C-17.1347 308.314 35.7517 395.846 122.359 417.215C208.967 438.584 296.5 385.698 317.869 299.09Z" fill="url(#paint14_radial_11_6)"/>
</g>
<defs>
<linearGradient id="paint0_linear_11_6" x1="227.051" y1="354.989" x2="244.411" y2="354.989" gradientUnits="userSpaceOnUse">
<stop stop-color="#8B3DCE"/>
<stop offset="1" stop-color="#CB89F0"/>
</linearGradient>
<linearGradient id="paint1_linear_11_6" x1="179.771" y1="337.069" x2="290.451" y2="337.069" gradientUnits="userSpaceOnUse">
<stop stop-color="#F5ABFF"/>
<stop offset="0.46" stop-color="#FFC5FF"/>
<stop offset="1" stop-color="#FFDEFF"/>
</linearGradient>
<linearGradient id="paint2_linear_11_6" x1="159.571" y1="247.349" x2="179.811" y2="205.909" gradientUnits="userSpaceOnUse">
<stop stop-color="#8B3DCE"/>
<stop offset="1" stop-color="#CB89F0"/>
</linearGradient>
<linearGradient id="paint3_linear_11_6" x1="238.931" y1="386.909" x2="410.571" y2="386.909" gradientUnits="userSpaceOnUse">
<stop stop-color="#8B3DCE"/>
<stop offset="1" stop-color="#CB89F0"/>
</linearGradient>
<linearGradient id="paint4_linear_11_6" x1="238.971" y1="372.109" x2="410.571" y2="372.109" gradientUnits="userSpaceOnUse">
<stop stop-color="#F5ABFF"/>
<stop offset="0.46" stop-color="#FFC5FF"/>
<stop offset="1" stop-color="#FFDEFF"/>
</linearGradient>
<linearGradient id="paint5_linear_11_6" x1="243.132" y1="371.029" x2="404.732" y2="371.029" gradientUnits="userSpaceOnUse">
<stop stop-color="#FFC5FF"/>
<stop offset="1" stop-color="#FFDEFF"/>
</linearGradient>
<linearGradient id="paint6_linear_11_6" x1="231.491" y1="138.629" x2="272.731" y2="210.069" gradientUnits="userSpaceOnUse">
<stop stop-color="#FFBF44"/>
<stop offset="1" stop-color="#FFAC3D"/>
</linearGradient>
<radialGradient id="paint7_radial_11_6" cx="0" cy="0" r="1" gradientUnits="userSpaceOnUse" gradientTransform="translate(348.186 102.408) scale(161.52)">
<stop stop-color="#F6A400"/>
<stop offset="0.02" stop-color="#C88500"/>
<stop offset="0.05" stop-color="#9D6900"/>
<stop offset="0.07" stop-color="#774F00"/>
<stop offset="0.1" stop-color="#573A00"/>
<stop offset="0.12" stop-color="#3B2800"/>
<stop offset="0.16" stop-color="#251900"/>
<stop offset="0.19" stop-color="#140E00"/>
<stop offset="0.24" stop-color="#090600"/>
<stop offset="0.31" stop-color="#020100"/>
<stop offset="0.49"/>
</radialGradient>
<radialGradient id="paint8_radial_11_6" cx="0" cy="0" r="1" gradientUnits="userSpaceOnUse" gradientTransform="translate(377.716 135.294) scale(161.52)">
<stop stop-color="#F6A400"/>
<stop offset="0.02" stop-color="#C88500"/>
<stop offset="0.05" stop-color="#9D6900"/>
<stop offset="0.07" stop-color="#774F00"/>
<stop offset="0.1" stop-color="#573A00"/>
<stop offset="0.12" stop-color="#3B2800"/>
<stop offset="0.16" stop-color="#251900"/>
<stop offset="0.19" stop-color="#140E00"/>
<stop offset="0.24" stop-color="#090600"/>
<stop offset="0.31" stop-color="#020100"/>
<stop offset="0.49"/>
</radialGradient>
<radialGradient id="paint9_radial_11_6" cx="0" cy="0" r="1" gradientUnits="userSpaceOnUse" gradientTransform="translate(316.569 100.007) scale(161.52 161.52)">
<stop stop-color="#F6A400"/>
<stop offset="0.02" stop-color="#C88500"/>
<stop offset="0.05" stop-color="#9D6900"/>
<stop offset="0.07" stop-color="#774F00"/>
<stop offset="0.1" stop-color="#573A00"/>
<stop offset="0.12" stop-color="#3B2800"/>
<stop offset="0.16" stop-color="#251900"/>
<stop offset="0.19" stop-color="#140E00"/>
<stop offset="0.24" stop-color="#090600"/>
<stop offset="0.31" stop-color="#020100"/>
<stop offset="0.49"/>
</radialGradient>
<radialGradient id="paint10_radial_11_6" cx="0" cy="0" r="1" gradientUnits="userSpaceOnUse" gradientTransform="translate(285.065 133.782) rotate(0.217572) scale(161.794)">
<stop stop-color="#F6A400"/>
<stop offset="0.02" stop-color="#C88500"/>
<stop offset="0.05" stop-color="#9D6900"/>
<stop offset="0.07" stop-color="#774F00"/>
<stop offset="0.1" stop-color="#573A00"/>
<stop offset="0.12" stop-color="#3B2800"/>
<stop offset="0.16" stop-color="#251900"/>
<stop offset="0.19" stop-color="#140E00"/>
<stop offset="0.24" stop-color="#090600"/>
<stop offset="0.31" stop-color="#020100"/>
<stop offset="0.49"/>
</radialGradient>
<radialGradient id="paint11_radial_11_6" cx="0" cy="0" r="1" gradientUnits="userSpaceOnUse" gradientTransform="translate(254.703 170.657) scale(162.205 162.205)">
<stop stop-color="#F6A400"/>
<stop offset="0.02" stop-color="#C88500"/>
<stop offset="0.05" stop-color="#9D6900"/>
<stop offset="0.07" stop-color="#774F00"/>
<stop offset="0.1" stop-color="#573A00"/>
<stop offset="0.12" stop-color="#3B2800"/>
<stop offset="0.16" stop-color="#251900"/>
<stop offset="0.19" stop-color="#140E00"/>
<stop offset="0.24" stop-color="#090600"/>
<stop offset="0.31" stop-color="#020100"/>
<stop offset="0.49"/>
</radialGradient>
<radialGradient id="paint12_radial_11_6" cx="0" cy="0" r="1" gradientUnits="userSpaceOnUse" gradientTransform="translate(223.126 197.193) scale(161.52 161.52)">
<stop stop-color="#F6A400"/>
<stop offset="0.02" stop-color="#C88500"/>
<stop offset="0.05" stop-color="#9D6900"/>
<stop offset="0.07" stop-color="#774F00"/>
<stop offset="0.1" stop-color="#573A00"/>
<stop offset="0.12" stop-color="#3B2800"/>
<stop offset="0.16" stop-color="#251900"/>
<stop offset="0.19" stop-color="#140E00"/>
<stop offset="0.24" stop-color="#090600"/>
<stop offset="0.31" stop-color="#020100"/>
<stop offset="0.49"/>
</radialGradient>
<radialGradient id="paint13_radial_11_6" cx="0" cy="0" r="1" gradientUnits="userSpaceOnUse" gradientTransform="translate(191.966 232.653) scale(161.52 161.52)">
<stop stop-color="#F6A400"/>
<stop offset="0.02" stop-color="#C88500"/>
<stop offset="0.05" stop-color="#9D6900"/>
<stop offset="0.07" stop-color="#774F00"/>
<stop offset="0.1" stop-color="#573A00"/>
<stop offset="0.12" stop-color="#3B2800"/>
<stop offset="0.16" stop-color="#251900"/>
<stop offset="0.19" stop-color="#140E00"/>
<stop offset="0.24" stop-color="#090600"/>
<stop offset="0.31" stop-color="#020100"/>
<stop offset="0.49"/>
</radialGradient>
<radialGradient id="paint14_radial_11_6" cx="0" cy="0" r="1" gradientUnits="userSpaceOnUse" gradientTransform="translate(161.061 260.376) scale(161.52 161.52)">
<stop stop-color="#F6A400"/>
<stop offset="0.02" stop-color="#C88500"/>
<stop offset="0.05" stop-color="#9D6900"/>
<stop offset="0.07" stop-color="#774F00"/>
<stop offset="0.1" stop-color="#573A00"/>
<stop offset="0.12" stop-color="#3B2800"/>
<stop offset="0.16" stop-color="#251900"/>
<stop offset="0.19" stop-color="#140E00"/>
<stop offset="0.24" stop-color="#090600"/>
<stop offset="0.31" stop-color="#020100"/>
<stop offset="0.49"/>
</radialGradient>
<clipPath id="clip0_11_6">
<rect width="539.72" height="492.44" fill="white"/>
</clipPath>
</defs>
</svg>
