<svg width="482" height="436" viewBox="0 0 482 436" fill="none" xmlns="http://www.w3.org/2000/svg">
<g clip-path="url(#clip0_73_557)">
<g style="mix-blend-mode:multiply" opacity="0.6">
<path d="M387.32 259.4L84.72 434.12C82.9423 435.026 80.9753 435.499 78.98 435.499C76.9847 435.499 75.0177 435.026 73.24 434.12L58.64 425.68C57.9333 425.458 57.316 425.016 56.8777 424.419C56.4394 423.822 56.2031 423.101 56.2031 422.36C56.2031 421.619 56.4394 420.898 56.8777 420.301C57.316 419.704 57.9333 419.262 58.64 419.04L361.24 244.36C363.018 243.454 364.985 242.982 366.98 242.982C368.975 242.982 370.942 243.454 372.72 244.36L387.32 252.8C388.012 253.032 388.613 253.475 389.04 254.067C389.466 254.659 389.695 255.37 389.695 256.1C389.695 256.83 389.466 257.541 389.04 258.133C388.613 258.725 388.012 259.168 387.32 259.4Z" fill="#3A0155"/>
</g>
<path d="M321.6 216V166.2L309.12 158.96V208.76C308.996 209.912 309.182 211.076 309.661 212.131C310.139 213.187 310.892 214.094 311.84 214.76L324.32 222C323.381 221.326 322.635 220.417 322.158 219.364C321.681 218.311 321.488 217.151 321.6 216Z" fill="#962DCC"/>
<path d="M372.92 114.56C371.841 114.062 370.649 113.862 369.467 113.982C368.285 114.101 367.157 114.536 366.2 115.24L318.2 142.84C315.464 144.614 313.186 147.01 311.552 149.833C309.918 152.655 308.975 155.824 308.8 159.08L321.28 166.32C321.438 163.064 322.37 159.893 323.997 157.069C325.625 154.245 327.902 151.849 330.64 150.08L378.64 122.44C379.596 121.75 380.719 121.327 381.893 121.214C383.067 121.102 384.25 121.304 385.32 121.8L372.92 114.56Z" fill="url(#paint0_linear_73_557)"/>
<g style="mix-blend-mode:screen" opacity="0.3">
<path d="M372.92 114.56C371.841 114.062 370.649 113.862 369.467 113.982C368.285 114.101 367.157 114.536 366.2 115.24L378.68 122.44C379.636 121.75 380.759 121.327 381.933 121.214C383.107 121.102 384.29 121.304 385.36 121.8L372.92 114.56Z" fill="#FFAFF5"/>
</g>
<g style="mix-blend-mode:screen" opacity="0.3">
<path d="M318.4 142.84C315.664 144.614 313.386 147.01 311.752 149.832C310.118 152.655 309.175 155.824 309 159.08L321.48 166.32C321.638 163.064 322.57 159.893 324.197 157.069C325.825 154.245 328.102 151.849 330.84 150.08L318.4 142.84Z" fill="#FFAFF5"/>
</g>
<path d="M388 128C388 122 383.76 119.64 378.6 122.6L330.6 150.24C327.862 152.009 325.585 154.405 323.957 157.229C322.33 160.053 321.398 163.224 321.24 166.48L321.6 216C321.6 221.96 325.84 224.36 331.04 221.36L379.04 193.76C381.762 191.974 384.027 189.575 385.653 186.754C387.279 183.934 388.22 180.771 388.4 177.52L388 128Z" fill="#D473F1"/>
<path d="M298.72 157.4C297.652 156.895 296.468 156.689 295.292 156.801C294.116 156.914 292.993 157.342 292.04 158.04L65.6 288.76C62.8711 290.539 60.6009 292.937 58.9744 295.759C57.3478 298.581 56.4109 301.747 56.24 305V354.8C56.1209 355.957 56.3097 357.125 56.7874 358.186C57.265 359.247 58.0145 360.162 58.96 360.84L71.56 368C70.6145 367.322 69.865 366.407 69.3874 365.346C68.9097 364.285 68.7209 363.117 68.84 361.96V312.16C69.0146 308.937 69.9368 305.799 71.5336 302.995C73.1303 300.19 75.3579 297.795 78.04 296L304.52 165.28C305.474 164.587 306.595 164.159 307.768 164.04C308.942 163.92 310.126 164.114 311.2 164.6L298.72 157.4Z" fill="url(#paint1_linear_73_557)"/>
<path d="M65.6 288.76C62.8711 290.539 60.6009 292.937 58.9744 295.759C57.3478 298.581 56.4109 301.747 56.24 305L68.68 312.24C68.8604 308.99 69.8013 305.827 71.4269 303.006C73.0526 300.185 75.3177 297.786 78.04 296L65.6 288.76Z" fill="#FFAFF5"/>
<g style="mix-blend-mode:screen" opacity="0.3">
<path d="M298.72 157.4C297.652 156.895 296.468 156.689 295.292 156.801C294.116 156.914 292.993 157.342 292.04 158.04L304.52 165.28C305.474 164.587 306.595 164.159 307.768 164.04C308.942 163.92 310.126 164.114 311.2 164.6L298.72 157.4Z" fill="#FFAFF5"/>
</g>
<path d="M313.92 170.64C313.92 164.68 309.68 162.28 304.52 165.28L78.04 296C75.3177 297.786 73.0526 300.185 71.4269 303.006C69.8013 305.827 68.8604 308.989 68.68 312.24V362.04C68.68 368 72.92 370.4 78.12 367.4L304.72 236.68C307.441 234.903 309.707 232.511 311.333 229.697C312.959 226.883 313.9 223.725 314.08 220.48L313.92 170.64Z" fill="white"/>
<path d="M89.92 337.48L87.52 338.88C87.08 339.12 86.88 338.88 86.88 338.6V315.28C86.8746 315.063 86.9322 314.85 87.0458 314.665C87.1594 314.481 87.3241 314.333 87.52 314.24L89.92 312.84C90.36 312.6 90.56 312.84 90.56 313.12V325.12C90.96 324.2 91.28 323.36 91.68 322.56L99 308.12C99.2456 307.538 99.6832 307.058 100.24 306.76L103.08 305.12C103.6 304.8 103.68 305.12 103.32 305.68L96 320.32L104.4 328.32C104.72 328.68 104.4 329 103.96 329.36L101.8 330.6C101.12 331 100.64 331.08 100.36 330.6L93.6 324.32L90.56 329.64V336.44C90.5654 336.657 90.5078 336.87 90.3942 337.055C90.2806 337.24 90.1159 337.387 89.92 337.48Z" fill="#3B223A"/>
<path d="M121.28 319.36L113.04 324C112.423 324.475 111.708 324.807 110.947 324.973C110.187 325.139 109.399 325.134 108.64 324.96C107.6 324.48 107.08 323.32 107.08 321.48V313.96C107.078 312.086 107.62 310.252 108.64 308.68C109.772 307.02 111.28 305.65 113.04 304.68L116 302.8C116.615 302.321 117.328 301.983 118.089 301.811C118.849 301.638 119.638 301.634 120.4 301.8C121.44 302.253 121.96 303.413 121.96 305.28V310.16C121.96 310.386 121.896 310.607 121.775 310.798C121.655 310.989 121.483 311.142 121.28 311.24L111.2 317.16C111.073 317.214 110.964 317.302 110.886 317.416C110.808 317.529 110.764 317.663 110.76 317.8V319.44C110.76 321.28 111.68 321.68 113.56 320.6L121.28 316C121.76 315.72 122 316 122 316.28V318.2C122.025 318.446 121.967 318.693 121.837 318.903C121.707 319.112 121.511 319.273 121.28 319.36ZM111.2 314.56L118.04 310.56C118.151 310.501 118.246 310.415 118.316 310.311C118.385 310.206 118.428 310.085 118.44 309.96V307.52C118.44 306.52 118.2 305.96 117.76 305.76C117.32 305.56 116.64 305.76 115.68 306.32L113.56 307.52C112.718 307.975 111.992 308.618 111.44 309.4C110.991 310.162 110.769 311.036 110.8 311.92V314.36C110.8 314.64 110.92 314.72 111.2 314.56Z" fill="#3B223A"/>
<path d="M128.64 321.32L126.6 322.48C126.2 322.76 125.96 322.48 125.96 322.24V320.28C125.957 320.059 126.015 319.84 126.128 319.65C126.24 319.459 126.404 319.303 126.6 319.2L127.48 318.68C128.769 318.038 129.881 317.09 130.72 315.92C131.435 314.676 131.948 313.325 132.24 311.92L130.72 312.8C130.32 313.04 130.08 312.8 129.92 312.8L124.8 298.44C124.76 298.25 124.791 298.051 124.886 297.882C124.982 297.713 125.136 297.584 125.32 297.52L128 296C128.4 295.76 128.68 296 128.76 296L132.96 308.6L137.28 291.08C137.311 290.852 137.397 290.636 137.529 290.448C137.661 290.26 137.836 290.106 138.04 290L140.48 288.6C140.96 288.32 141.16 288.6 141.08 288.92L135.84 310.36C135.367 312.602 134.529 314.75 133.36 316.72C132.218 318.641 130.59 320.228 128.64 321.32Z" fill="#3B223A"/>
<path d="M151.08 302.16L148 304C147.6 304 147.36 304 147.24 303.76L142.64 288C142.586 287.819 142.601 287.625 142.683 287.455C142.764 287.285 142.906 287.152 143.08 287.08L145.84 285.52C146.32 285.24 146.56 285.52 146.6 285.52L149.4 298.36H149.68L153.04 281.92C153.07 281.697 153.151 281.484 153.275 281.297C153.4 281.11 153.566 280.954 153.76 280.84L156.28 279.4C156.72 279.12 157 279.4 157.08 279.4L160.4 292H160.68L163.44 276C163.482 275.766 163.575 275.543 163.713 275.35C163.852 275.156 164.032 274.995 164.24 274.88L166.96 273.28C167.4 273.04 167.56 273.28 167.44 273.68L163.04 294.44C163.006 294.672 162.919 294.893 162.788 295.087C162.656 295.281 162.483 295.442 162.28 295.56L158.96 297.44C158.56 297.68 158.32 297.44 158.2 297.24L155.16 284.8H154.88L151.84 300.8C151.857 301.076 151.795 301.351 151.66 301.592C151.525 301.833 151.324 302.03 151.08 302.16Z" fill="#3B223A"/>
<path d="M179.6 285.68L176.24 287.64C175.63 288.114 174.922 288.446 174.168 288.612C173.414 288.778 172.632 288.774 171.88 288.6C170.84 288.173 170.32 287.013 170.32 285.12V277.48C170.354 275.594 170.937 273.759 172 272.2C173.097 270.524 174.596 269.149 176.36 268.2L179.72 266.24C180.315 265.766 181.006 265.428 181.745 265.249C182.485 265.069 183.254 265.052 184 265.2C185.08 265.6 185.6 266.76 185.6 268.64V276.32C185.595 278.199 185.038 280.035 184 281.6C182.889 283.3 181.379 284.701 179.6 285.68ZM176.8 284.08L179.12 282.72C179.951 282.325 180.651 281.701 181.14 280.922C181.629 280.142 181.886 279.24 181.88 278.32V270.92C181.88 269.053 180.96 268.653 179.12 269.72L176.8 271.04C175.938 271.484 175.207 272.146 174.68 272.96C174.23 273.707 174.007 274.569 174.04 275.44V282.88C174.04 283.84 174.24 284.44 174.68 284.6C175.12 284.76 176 284.64 176.8 284V284.08Z" fill="#3B223A"/>
<path d="M193.04 277.92L190.64 279.32C190.2 279.56 190 279.32 190 279.04V260.84C189.995 260.623 190.052 260.41 190.166 260.225C190.279 260.041 190.444 259.893 190.64 259.8L193.04 258.4C193.48 258.16 193.72 258.4 193.72 258.68V260C194.128 259.099 194.667 258.263 195.32 257.52C196.037 256.755 196.859 256.096 197.76 255.56L199.2 254.76C199.6 254.48 199.84 254.76 199.84 255V257C199.854 257.213 199.8 257.425 199.684 257.605C199.569 257.785 199.399 257.924 199.2 258L196.88 259.32C195.905 259.818 195.09 260.582 194.531 261.523C193.972 262.465 193.691 263.545 193.72 264.64V276.64C193.769 276.899 193.728 277.167 193.605 277.399C193.481 277.632 193.282 277.816 193.04 277.92Z" fill="#3B223A"/>
<path d="M210.12 268L208.16 269.16C207.566 269.618 206.876 269.935 206.141 270.087C205.407 270.24 204.647 270.224 203.92 270.04C202.92 269.56 202.44 268.4 202.44 266.48V258.92C202.436 257.058 202.979 255.237 204 253.68C205.063 252.019 206.519 250.645 208.24 249.68L210.2 248.56C212.16 247.44 213.44 247.36 214 248.56V239.72C214.008 239.506 214.071 239.298 214.183 239.116C214.295 238.934 214.453 238.783 214.64 238.68L217.12 237.28C217.56 237.04 217.76 237.28 217.76 237.56V263.16C217.765 263.377 217.708 263.59 217.594 263.775C217.481 263.96 217.316 264.107 217.12 264.2L214.64 265.6C214.24 265.88 214 265.6 214 265.36V263.96C213.196 265.704 211.83 267.127 210.12 268ZM214.12 259.2V252.76C214.12 250.6 213.08 250.12 211 251.32L208.96 252.52C208.129 252.915 207.429 253.539 206.94 254.318C206.451 255.098 206.194 256 206.2 256.92V264.28C206.2 266.16 207.12 266.6 208.96 265.52L211 264.36C211.935 263.884 212.719 263.156 213.263 262.258C213.807 261.361 214.09 260.33 214.08 259.28L214.12 259.2Z" fill="#3B223A"/>
<path d="M229.64 256.8L222.6 260.8C222.16 261.04 221.92 260.8 221.92 260.52V258.64C221.933 258.433 222.004 258.233 222.124 258.064C222.244 257.894 222.409 257.761 222.6 257.68L229.04 253.96C230.68 253 231.52 251.92 231.52 250.8V250.4C231.52 249.4 230.92 248.96 229.72 249.12L225.72 249.52C224.769 249.732 223.773 249.59 222.92 249.12C222.585 248.825 222.329 248.451 222.175 248.032C222.022 247.613 221.975 247.162 222.04 246.72C222.123 245.015 222.675 243.366 223.635 241.955C224.595 240.544 225.925 239.424 227.48 238.72L233.84 235.04C234.28 234.8 234.48 235.04 234.48 235.36V237.2C234.485 237.417 234.428 237.63 234.314 237.815C234.201 238 234.036 238.147 233.84 238.24L228.28 241.44C227.599 241.792 227 242.282 226.52 242.88C226.139 243.25 225.91 243.75 225.88 244.28V244.68C225.88 245.52 226.56 245.84 227.84 245.72L232 245.36C232.466 245.219 232.958 245.189 233.437 245.273C233.916 245.356 234.369 245.55 234.76 245.84C235.321 246.63 235.577 247.596 235.48 248.56C235.382 250.344 234.782 252.065 233.749 253.522C232.715 254.98 231.291 256.117 229.64 256.8Z" fill="#3B223A"/>
<path d="M364.72 149.24C359.36 144.84 348.72 149.24 341.36 158.84C334 168.44 332.12 180.04 337.36 184.44C342.04 188.44 350.64 185.52 357.76 178.24L369.64 188C370.76 188.88 372.84 188 374.36 186.08C375.88 184.16 376.24 181.8 375.16 180.88L363.4 171.2C368.68 162.36 369.4 153.12 364.72 149.24ZM358.72 173.24C352.84 180.8 344.64 184.16 340.48 180.72C336.32 177.28 337.64 168.32 343.48 160.72C349.32 153.12 357.56 149.8 361.72 153.24C365.88 156.68 364.56 165.52 358.72 173.12V173.24Z" fill="white"/>
<path style="mix-blend-mode:screen" d="M76.92 296.24C75.1792 297.527 73.6651 299.095 72.44 300.88C70.741 303.278 69.5562 306.002 68.96 308.88C68.7502 309.92 68.6563 310.98 68.68 312.04C68.7249 310.988 68.8723 309.943 69.12 308.92C69.8456 306.029 71.1372 303.309 72.92 300.92C74.1695 299.247 75.6826 297.788 77.4 296.6C80.48 294.76 197.4 230.4 304.52 164.96C207.36 218.2 83.4 292 76.92 296.24Z" fill="url(#paint2_radial_73_557)"/>
<path style="mix-blend-mode:screen" d="M332 148.44C327.69 150.885 324.356 154.742 322.56 159.36C322.124 160.57 321.789 161.814 321.56 163.08C321.495 163.865 321.495 164.655 321.56 165.44V166.32C321.639 165.25 321.826 164.192 322.12 163.16C322.559 161.76 323.163 160.417 323.92 159.16C326.218 155.367 329.438 152.216 333.28 150L378.76 122.64C378.76 122.64 344 141.4 332 148.44Z" fill="url(#paint3_radial_73_557)"/>
<path style="mix-blend-mode:screen" d="M207.183 393.503C284.425 362.358 321.794 274.493 290.648 197.251C259.503 120.009 171.639 82.6404 94.3967 113.785C17.1549 144.93 -20.214 232.795 10.931 310.037C42.076 387.279 129.941 424.648 207.183 393.503Z" fill="url(#paint4_radial_73_557)"/>
<path style="mix-blend-mode:screen" d="M479.416 175.416C492.989 93.2453 437.38 15.6288 355.21 2.05495C273.039 -11.5189 195.422 44.09 181.848 126.261C168.274 208.432 223.883 286.048 306.054 299.622C388.225 313.196 465.842 257.587 479.416 175.416Z" fill="url(#paint5_radial_73_557)"/>
<path style="mix-blend-mode:color-dodge" d="M330.64 182.6C348.203 182.6 362.44 168.363 362.44 150.8C362.44 133.237 348.203 119 330.64 119C313.077 119 298.84 133.237 298.84 150.8C298.84 168.363 313.077 182.6 330.64 182.6Z" fill="url(#paint6_radial_73_557)"/>
</g>
<defs>
<linearGradient id="paint0_linear_73_557" x1="363.84" y1="109.32" x2="328.6" y2="170.4" gradientUnits="userSpaceOnUse">
<stop stop-color="#FFAFF5"/>
<stop offset="1" stop-color="#FF98FF"/>
</linearGradient>
<linearGradient id="paint1_linear_73_557" x1="131.08" y1="323.72" x2="119.96" y2="343" gradientUnits="userSpaceOnUse">
<stop stop-color="#FFAFF5"/>
<stop offset="0.07" stop-color="#FFA7F9"/>
<stop offset="0.22" stop-color="#FF9CFD"/>
<stop offset="0.38" stop-color="#FF98FF"/>
<stop offset="0.48" stop-color="#F891FB"/>
<stop offset="0.63" stop-color="#E47CF2"/>
<stop offset="0.8" stop-color="#C35BE2"/>
<stop offset="1" stop-color="#962DCC"/>
</linearGradient>
<radialGradient id="paint2_radial_73_557" cx="0" cy="0" r="1" gradientUnits="userSpaceOnUse" gradientTransform="translate(196.76 224.8) scale(199 199)">
<stop stop-color="#FFAFF5"/>
<stop offset="0.01" stop-color="#FBACF1"/>
<stop offset="0.39" stop-color="#91638B"/>
<stop offset="0.68" stop-color="#432E40"/>
<stop offset="0.9" stop-color="#130D12"/>
<stop offset="1"/>
</radialGradient>
<radialGradient id="paint3_radial_73_557" cx="0" cy="0" r="1" gradientUnits="userSpaceOnUse" gradientTransform="translate(338.28 144.6) scale(80.28 80.28)">
<stop stop-color="#FFAFF5"/>
<stop offset="0.01" stop-color="#FBACF1"/>
<stop offset="0.39" stop-color="#91638B"/>
<stop offset="0.68" stop-color="#432E40"/>
<stop offset="0.9" stop-color="#130D12"/>
<stop offset="1"/>
</radialGradient>
<radialGradient id="paint4_radial_73_557" cx="0" cy="0" r="1" gradientUnits="userSpaceOnUse" gradientTransform="translate(150.793 253.632) scale(150.8)">
<stop stop-color="#DB4DFF"/>
<stop offset="0.04" stop-color="#BC42DB"/>
<stop offset="0.1" stop-color="#9534AE"/>
<stop offset="0.16" stop-color="#712884"/>
<stop offset="0.23" stop-color="#531D60"/>
<stop offset="0.31" stop-color="#391442"/>
<stop offset="0.39" stop-color="#240D2A"/>
<stop offset="0.48" stop-color="#140717"/>
<stop offset="0.59" stop-color="#09030A"/>
<stop offset="0.72" stop-color="#020102"/>
<stop offset="1"/>
</radialGradient>
<radialGradient id="paint5_radial_73_557" cx="0" cy="0" r="1" gradientUnits="userSpaceOnUse" gradientTransform="translate(330.633 150.814) scale(150.8)">
<stop stop-color="#FFD84D"/>
<stop offset="0.13" stop-color="#D34AF6"/>
<stop offset="0.17" stop-color="#AC3CC8"/>
<stop offset="0.2" stop-color="#872F9D"/>
<stop offset="0.24" stop-color="#662477"/>
<stop offset="0.28" stop-color="#4A1A57"/>
<stop offset="0.33" stop-color="#33123B"/>
<stop offset="0.38" stop-color="#200B25"/>
<stop offset="0.44" stop-color="#120614"/>
<stop offset="0.52" stop-color="#070309"/>
<stop offset="0.62" stop-color="#020102"/>
<stop offset="0.92"/>
</radialGradient>
<radialGradient id="paint6_radial_73_557" cx="0" cy="0" r="1" gradientUnits="userSpaceOnUse" gradientTransform="translate(330.654 150.793) rotate(-45) scale(31.8)">
<stop stop-color="#FFA962"/>
<stop offset="0.01" stop-color="#F6A35E"/>
<stop offset="0.04" stop-color="#C8854D"/>
<stop offset="0.07" stop-color="#9D683C"/>
<stop offset="0.1" stop-color="#774F2E"/>
<stop offset="0.14" stop-color="#573921"/>
<stop offset="0.19" stop-color="#3B2717"/>
<stop offset="0.24" stop-color="#25190E"/>
<stop offset="0.29" stop-color="#140E08"/>
<stop offset="0.36" stop-color="#090603"/>
<stop offset="0.46" stop-color="#020101"/>
<stop offset="0.74"/>
</radialGradient>
<clipPath id="clip0_73_557">
<rect width="481.48" height="435.52" fill="white"/>
</clipPath>
</defs>
</svg>
