<svg width="217" height="276" viewBox="0 0 217 276" fill="none" xmlns="http://www.w3.org/2000/svg">
<g clip-path="url(#clip0_73_626)">
<g style="mix-blend-mode:multiply" opacity="0.6">
<path d="M129.848 251.214L100.195 234.112C98.4912 233.245 96.6062 232.794 94.6941 232.794C92.782 232.794 90.897 233.245 89.1929 234.112L59.7278 251.214C56.7015 252.971 56.725 255.899 59.7278 257.586L89.404 274.688C91.1081 275.554 92.9931 276.006 94.9052 276.006C96.8174 276.006 98.7024 275.554 100.406 274.688L129.895 257.703C132.945 255.829 132.898 253.018 129.848 251.214Z" fill="#3A0155"/>
</g>
<path d="M78.4719 136.184V141.338C78.423 141.85 78.2555 142.342 77.9826 142.777C77.7098 143.212 77.3391 143.578 76.9001 143.845L66.836 149.632C65.968 150.147 65.2642 149.843 65.2642 148.976V143.798C65.3777 142.603 65.7727 141.451 66.4168 140.438C67.061 139.424 67.9362 138.576 68.9708 137.965C70.4018 139.089 73.3343 137.403 74.7653 134.615C76.8063 133.537 78.4719 134.123 78.4719 136.184ZM71.8563 135.88C73.2139 135.068 74.3623 133.951 75.2096 132.616C76.0569 131.282 76.5796 129.768 76.7359 128.196C76.7359 125.501 74.5542 124.588 71.8563 126.134C70.5 126.947 69.3526 128.065 68.5054 129.399C67.6582 130.733 67.1348 132.246 66.9768 133.818C66.9768 136.583 69.1819 137.496 71.8563 135.88ZM160.181 61.4036C158.914 63.7464 156.357 65.316 155.114 64.3321C154.214 64.8682 153.453 65.6073 152.891 66.4901C152.329 67.3729 151.981 68.3749 151.877 69.4158V73.9374C151.877 74.687 152.487 74.9447 153.261 74.4996L162.035 69.4393C162.414 69.211 162.735 68.8971 162.971 68.5229C163.207 68.1486 163.353 67.7243 163.395 67.2839V62.7624C163.395 60.9116 161.87 60.3728 160.181 61.4036ZM157.648 62.575C158.825 61.8633 159.82 60.887 160.553 59.7238C161.286 58.5606 161.737 57.2426 161.87 55.8747C161.87 53.532 159.97 52.712 157.624 54.0708C156.439 54.7786 155.436 55.7529 154.695 56.9161C153.954 58.0794 153.495 59.3994 153.355 60.7711C153.378 63.1138 155.302 63.9338 157.648 62.575ZM119.901 105.424C119.268 106.689 117.954 107.439 117.297 106.923C116.836 107.203 116.445 107.585 116.156 108.04C115.867 108.495 115.688 109.011 115.632 109.547V111.89C115.632 112.288 115.96 112.429 116.359 112.195L120.863 109.594C121.061 109.476 121.229 109.312 121.351 109.117C121.473 108.921 121.547 108.699 121.567 108.47V106.127C121.567 105.424 120.84 105.002 119.901 105.424ZM118.611 106.033C119.214 105.658 119.723 105.151 120.101 104.55C120.479 103.949 120.716 103.271 120.793 102.566C120.793 101.371 119.807 100.949 118.611 101.652C118 102.014 117.482 102.514 117.099 103.113C116.716 103.711 116.479 104.39 116.406 105.096C116.406 106.408 117.297 106.83 118.611 106.127V106.033ZM59.5636 106.197C58.7659 107.767 57.2176 108.727 56.3027 108.095C55.7218 108.44 55.2303 108.917 54.8676 109.486C54.505 110.056 54.2814 110.703 54.2148 111.375V114.28C54.2148 114.772 54.6136 114.936 55.1063 114.654L60.76 111.398C61.0081 111.249 61.218 111.045 61.3728 110.801C61.5276 110.557 61.6231 110.28 61.6515 109.992V107.181C61.6515 106.033 60.7365 105.635 59.5636 106.291V106.197ZM57.9449 106.947C58.7087 106.488 59.3547 105.857 59.8312 105.104C60.3078 104.352 60.6017 103.499 60.6896 102.613C60.6896 101.113 59.4463 100.598 57.9449 101.465C57.1773 101.92 56.5284 102.549 56.0513 103.303C55.5743 104.056 55.2826 104.911 55.2001 105.799C55.2001 107.392 56.42 107.907 57.9449 107.04V106.947ZM111.292 67.1199C112.056 66.6674 112.703 66.0413 113.18 65.2923C113.657 64.5434 113.95 63.6927 114.036 62.8093C114.036 61.2865 112.817 60.7711 111.292 61.6379C110.53 62.0997 109.886 62.7313 109.41 63.4833C108.934 64.2352 108.638 65.087 108.547 65.972C108.547 67.6353 109.79 68.1507 111.292 67.2605V67.1199ZM112.934 66.3703C112.113 67.9399 110.588 68.9004 109.673 68.2679C109.088 68.6088 108.594 69.0843 108.231 69.6549C107.867 70.2254 107.646 70.8744 107.585 71.5477V74.4528C107.585 74.9447 107.984 75.1087 108.477 74.8276L114.13 71.5712C114.351 71.4271 114.539 71.2376 114.68 71.0154C114.822 70.7932 114.914 70.5434 114.951 70.2827V67.4011C114.951 66.2531 114.083 65.8548 112.934 66.5108V66.3703ZM23.0137 161.65C22.2161 163.22 20.5505 164.18 19.7529 163.548C19.172 163.893 18.6804 164.37 18.3178 164.939C17.9551 165.509 17.7315 166.156 17.665 166.828V169.733C17.665 170.225 18.0638 170.389 18.5564 170.107L24.2102 166.851C24.4583 166.702 24.6682 166.498 24.823 166.254C24.9778 166.01 25.0732 165.733 25.1016 165.445V162.587C25.1016 161.439 24.1632 161.041 23.0137 161.65ZM21.395 162.4C22.1559 161.943 22.8 161.316 23.2764 160.568C23.7528 159.82 24.0484 158.971 24.1398 158.089C24.1398 156.566 22.8964 156.051 21.395 156.918C20.6432 157.39 20.0135 158.033 19.557 158.795C19.1005 159.556 18.83 160.414 18.7676 161.299C18.7676 162.798 19.8702 163.313 21.395 162.447V162.4ZM45.8163 184.703C46.5785 184.247 47.2235 183.621 47.7 182.872C48.1766 182.124 48.4714 181.275 48.5611 180.392C48.5611 178.869 47.3412 178.354 45.8163 179.244C45.0505 179.695 44.4025 180.321 43.9254 181.07C43.4484 181.82 43.1558 182.671 43.0716 183.555C43.0716 185.078 44.2915 185.617 45.8163 184.75V184.703ZM47.4585 183.953C46.6374 185.523 44.9952 186.46 44.1742 185.827C43.5933 186.173 43.1017 186.649 42.7391 187.219C42.3764 187.789 42.1528 188.435 42.0863 189.107V192.106C42.0863 192.598 42.4851 192.762 42.9777 192.481L48.6549 189.201C48.9031 189.052 49.1129 188.848 49.2677 188.604C49.4225 188.36 49.518 188.083 49.5464 187.795V184.867C49.5464 183.719 48.608 183.321 47.4585 184V183.953ZM109.438 154.622L115.092 151.342C115.34 151.193 115.55 150.989 115.705 150.745C115.86 150.501 115.955 150.224 115.984 149.936V147.008C115.984 145.86 115.045 145.462 113.896 146.141C113.075 147.711 111.55 148.648 110.635 148.015C110.05 148.356 109.556 148.832 109.192 149.402C108.829 149.973 108.608 150.622 108.547 151.295V154.224C108.547 154.622 108.946 154.88 109.438 154.622ZM112.254 146.914C113.013 146.449 113.652 145.812 114.121 145.056C114.59 144.299 114.874 143.443 114.951 142.557C114.951 141.034 113.731 140.518 112.207 141.409C111.443 141.863 110.797 142.489 110.321 143.238C109.844 143.987 109.55 144.837 109.462 145.719C109.509 147.242 110.752 147.758 112.254 146.891V146.914ZM160.955 105.424C160.158 106.994 158.609 107.931 157.695 107.298C157.114 107.643 156.622 108.12 156.259 108.69C155.897 109.259 155.673 109.906 155.607 110.578V113.507C155.607 113.975 156.005 114.162 156.498 113.881L162.152 110.601C162.4 110.453 162.61 110.248 162.765 110.004C162.919 109.76 163.015 109.483 163.043 109.196V106.221C163.043 105.073 162.105 104.674 160.955 105.424ZM159.313 106.174C160.078 105.716 160.725 105.085 161.202 104.333C161.679 103.58 161.972 102.726 162.058 101.84C162.058 100.317 160.838 99.8014 159.313 100.668C158.552 101.13 157.908 101.762 157.432 102.514C156.955 103.266 156.66 104.117 156.568 105.002C156.568 106.455 157.812 106.97 159.313 106.103V106.174ZM183.57 30.7369L168.251 49.479C169.191 50.26 169.928 51.2551 170.402 52.3804C170.875 53.5058 171.071 54.7283 170.973 55.945C170.973 62.9733 165.507 71.8992 158.586 76.3738L159.712 97.8803C164.404 95.397 168.087 97.0603 168.087 101.746C167.805 104.57 166.864 107.289 165.341 109.686C163.817 112.082 161.753 114.088 159.313 115.545C154.621 118.333 150.563 116.669 150.563 111.843C150.842 109.116 151.739 106.487 153.186 104.158C154.633 101.828 156.592 99.8573 158.914 98.3957L157.765 76.9361C153.073 79.5834 149.108 79.6068 146.715 77.4515L125.602 101.441C125.639 101.823 125.639 102.207 125.602 102.589C125.382 104.868 124.63 107.063 123.408 108.999C122.186 110.936 120.527 112.559 118.564 113.741C114.67 116.084 111.526 114.631 111.526 110.742C111.75 108.468 112.503 106.277 113.725 104.345C114.947 102.413 116.604 100.793 118.564 99.614C121.755 97.7866 124.406 98.3723 125.297 100.762L146.129 77.0064C144.817 75.4076 144.148 73.3781 144.252 71.3135C144.308 69.0827 144.752 66.8788 145.566 64.8006L117.743 70.0952C116.17 72.7884 113.954 75.0502 111.292 76.6784C109.892 77.5691 108.259 78.0256 106.6 77.9903L83.7268 120.746C84.8861 121.623 85.8039 122.779 86.3947 124.106C86.9854 125.434 87.2298 126.889 87.105 128.336C86.9141 132.668 85.6136 136.879 83.328 140.565L105.779 145.462C107.359 142.754 109.583 140.477 112.254 138.832C117.086 136.044 121.004 137.707 121.004 142.51C120.726 145.333 119.79 148.051 118.27 150.447C116.751 152.844 114.69 154.851 112.254 156.309C107.421 159.097 103.503 157.433 103.503 152.607C103.597 150.419 104.208 148.283 105.286 146.375L82.7884 141.456C80.0659 145.886 76.3165 149.599 71.8563 152.279C69.8765 153.502 67.6635 154.3 65.3581 154.622L52.4319 175.917C53.1615 176.399 53.7458 177.07 54.122 177.859C54.4982 178.647 54.6519 179.523 54.5667 180.392C54.2888 183.215 53.3525 185.933 51.833 188.33C50.3134 190.726 48.2528 192.733 45.8163 194.191C40.9837 196.979 37.0659 195.316 37.0659 190.489C37.3474 187.671 38.2853 184.957 39.8047 182.565C41.3241 180.173 43.3828 178.169 45.8163 176.714C46.6864 176.097 47.6855 175.686 48.7381 175.511C49.7907 175.337 50.8693 175.404 51.8923 175.707L64.6074 154.622C59.9155 154.786 56.7719 151.74 56.6311 146.211L29.8874 160.104C28.7134 164.974 25.6613 169.184 21.395 171.818C16.5624 174.582 12.6212 172.942 12.6212 168.116C12.8481 164.679 14.1532 161.4 16.3512 158.745L1.71254 151.295C1.54832 151.295 1.57178 150.967 1.71254 150.733C1.8533 150.499 2.13481 150.335 2.27557 150.428L17.0316 158.042C18.2657 156.586 19.7321 155.343 21.3716 154.364C26.1808 151.576 30.1219 153.24 30.1219 158.066C30.1439 158.479 30.1439 158.894 30.1219 159.307L56.725 145.485C56.9127 139.066 60.9477 131.429 66.5779 125.993L61.5107 113.717C60.4802 114.781 59.3127 115.703 58.0387 116.458C53.2061 119.223 49.2883 117.583 49.2883 112.757C49.5662 109.934 50.5025 107.216 52.0221 104.819C53.5416 102.423 55.6022 100.416 58.0387 98.958C62.8714 96.1701 66.7891 97.8335 66.7891 102.66C66.4968 106.5 64.8898 110.124 62.2379 112.921L67.3287 125.291C68.7731 124.002 70.3452 122.864 72.0205 121.894C76.5248 119.293 80.5598 118.942 83.3749 120.441L106.037 77.92C104.937 77.6878 103.967 77.0494 103.318 76.1329C102.67 75.2163 102.393 74.0891 102.541 72.9768C102.817 70.1567 103.753 67.4407 105.273 65.0479C106.793 62.6552 108.854 60.6525 111.292 59.2014C116.124 56.4135 120.042 58.0535 120.042 62.8796C119.958 65.074 119.355 67.2175 118.283 69.1347L145.988 63.8635C148.381 58.2219 152.483 53.4703 157.718 50.2755C161.753 47.9328 165.366 47.6751 167.806 49.1041L183.195 30.3621C183.383 30.1278 183.617 30.0341 183.758 30.1513C183.899 30.2684 183.734 30.4558 183.57 30.6667V30.7369ZM65.8976 103.081C65.8976 98.7003 62.3318 97.1775 57.9449 99.7077C55.726 101.026 53.8496 102.847 52.4678 105.025C51.086 107.203 50.2379 109.675 49.9921 112.241C49.9921 116.622 53.5579 118.122 57.9449 115.615C60.1637 114.297 62.0401 112.475 63.4219 110.298C64.8037 108.12 65.6519 105.648 65.8976 103.081ZM29.3478 158.534C29.3478 154.153 25.7585 152.631 21.395 155.161C19.1762 156.479 17.2998 158.3 15.918 160.478C14.5362 162.656 13.688 165.128 13.4423 167.694C13.4423 172.075 17.0081 173.575 21.395 171.068C23.6052 169.74 25.4749 167.916 26.8555 165.74C28.236 163.564 29.0894 161.097 29.3478 158.534ZM45.7694 177.464C43.5506 178.782 41.6741 180.603 40.2924 182.781C38.9106 184.959 38.0624 187.431 37.8167 189.997C37.8167 194.378 41.3825 195.878 45.7694 193.348C47.9882 192.03 49.8647 190.208 51.2465 188.03C52.6282 185.853 53.4764 183.38 53.7222 180.814C53.7691 176.433 50.2032 174.934 45.8163 177.464H45.7694ZM104.301 152.139C104.301 156.519 107.867 158.019 112.254 155.489C114.478 154.166 116.359 152.337 117.741 150.151C119.123 147.964 119.968 145.483 120.206 142.908C120.206 138.527 116.64 137.028 112.254 139.558C110.029 140.88 108.148 142.709 106.766 144.896C105.384 147.082 104.539 149.564 104.301 152.139ZM71.8563 122.69C63.9036 127.376 57.4288 137.496 57.4288 145.462C57.4288 153.427 63.9036 156.145 71.8563 151.553C79.8091 146.961 86.3074 136.747 86.3074 128.805C86.3074 120.863 79.7622 118.098 71.8563 122.69ZM119.244 63.2544C119.244 58.8734 115.679 57.3741 111.292 59.9043C109.049 61.2403 107.157 63.0914 105.774 65.3038C104.391 67.5163 103.556 70.0262 103.339 72.6254C103.339 77.0064 106.905 78.5292 111.292 75.999C113.538 74.6607 115.431 72.8059 116.815 70.5891C118.198 68.3723 119.031 65.8577 119.244 63.2544ZM124.875 103.081C124.875 99.6374 122.06 98.3957 118.611 100.434C116.866 101.479 115.391 102.917 114.303 104.634C113.215 106.351 112.545 108.298 112.347 110.32C112.347 113.764 115.162 115.006 118.611 112.944C120.353 111.902 121.827 110.467 122.914 108.755C124.002 107.042 124.673 105.099 124.875 103.081ZM159.313 98.8643C157.094 100.182 155.218 102.004 153.836 104.182C152.454 106.359 151.606 108.832 151.36 111.398C151.36 115.732 154.832 117.138 159.313 114.795C161.529 113.471 163.404 111.649 164.789 109.472C166.174 107.296 167.03 104.827 167.289 102.261C167.289 97.7866 163.7 96.2872 159.313 98.8174V98.8643ZM157.648 51.0721C150.61 55.0547 145.097 63.9338 145.097 70.8215C145.097 77.7092 150.727 80.1925 157.648 76.1161C164.568 72.0397 170.175 63.2778 170.175 56.3667C170.175 49.4556 164.545 47.0894 157.648 51.0721Z" fill="url(#paint0_linear_73_626)"/>
<path d="M57.4522 229.59V244.49C57.5132 245.188 57.764 245.856 58.1774 246.421C58.5909 246.987 59.1513 247.429 59.7982 247.7L89.4744 264.802C91.1785 265.668 93.0635 266.119 94.9756 266.119C96.8877 266.119 98.7728 265.668 100.477 264.802L129.965 247.7C130.606 247.433 131.162 246.998 131.575 246.441C131.988 245.884 132.242 245.226 132.311 244.537V229.637L57.4522 229.59Z" fill="url(#paint1_linear_73_626)"/>
<path d="M129.848 226.474L100.195 209.372C98.4912 208.506 96.6062 208.054 94.694 208.054C92.7819 208.054 90.8969 208.506 89.1928 209.372L59.7277 226.474C56.7014 228.231 56.7249 231.16 59.7277 232.823L89.4039 249.925C91.1064 250.797 92.992 251.251 94.9052 251.251C96.8183 251.251 98.704 250.797 100.406 249.925L129.871 232.823C132.945 231.089 132.898 228.231 129.848 226.474Z" fill="url(#paint2_linear_73_626)"/>
<path d="M95.6911 232.8C99.6946 232.8 102.94 230.922 102.94 228.606C102.94 226.29 99.6946 224.413 95.6911 224.413C91.6876 224.413 88.4421 226.29 88.4421 228.606C88.4421 230.922 91.6876 232.8 95.6911 232.8Z" fill="url(#paint3_linear_73_626)"/>
<path style="mix-blend-mode:screen" d="M39.5996 195.128C39.5996 196.206 89.1459 230.762 90.5535 231.558C92.1409 232.366 93.8975 232.788 95.6794 232.788C97.4613 232.788 99.2179 232.366 100.805 231.558C101.567 231.165 102.202 230.564 102.635 229.824L165.835 108.821C189.341 58.6861 22.4507 180.392 39.5996 195.128Z" fill="url(#paint4_linear_73_626)"/>
<path style="mix-blend-mode:screen" d="M158.234 117.372C190.69 117.372 217 91.0974 217 58.686C217 26.2746 190.69 0 158.234 0C125.779 0 99.4681 26.2746 99.4681 58.686C99.4681 91.0974 125.779 117.372 158.234 117.372Z" fill="url(#paint5_radial_73_626)"/>
<path style="mix-blend-mode:screen" d="M71.8563 195.597C107.538 195.597 136.464 166.71 136.464 131.077C136.464 95.444 107.538 66.5576 71.8563 66.5576C36.1747 66.5576 7.24896 95.444 7.24896 131.077C7.24896 166.71 36.1747 195.597 71.8563 195.597Z" fill="url(#paint6_radial_73_626)"/>
<path style="mix-blend-mode:screen" d="M75.0958 217.364C91.2659 201.216 91.2659 175.035 75.0958 158.887C58.9258 142.739 32.709 142.739 16.539 158.887C0.368974 175.035 0.368974 201.216 16.539 217.364C32.709 233.512 58.9258 233.512 75.0958 217.364Z" fill="url(#paint7_radial_73_626)"/>
<path style="mix-blend-mode:screen" d="M42.1438 164.741C44.8551 153.269 37.7405 141.774 26.253 139.067C14.7654 136.359 3.25494 143.464 0.543632 154.936C-2.16768 166.408 4.94689 177.903 16.4345 180.61C27.922 183.318 39.4325 176.213 42.1438 164.741Z" fill="url(#paint8_radial_73_626)"/>
<path style="mix-blend-mode:screen" d="M57.9449 132.155C73.3499 132.155 85.8382 119.684 85.8382 104.299C85.8382 88.9154 73.3499 76.4441 57.9449 76.4441C42.5398 76.4441 30.0516 88.9154 30.0516 104.299C30.0516 119.684 42.5398 132.155 57.9449 132.155Z" fill="url(#paint9_radial_73_626)"/>
<path style="mix-blend-mode:screen" d="M153.853 74.5619C159.401 51.0892 144.844 27.5696 121.339 22.0295C97.8341 16.4894 74.2825 31.0268 68.7349 54.4995C63.1873 77.9723 77.7444 101.492 101.249 107.032C124.754 112.572 148.305 98.0347 153.853 74.5619Z" fill="url(#paint10_radial_73_626)"/>
<path style="mix-blend-mode:screen" d="M138.15 108.536C140.698 97.7565 134.013 86.9556 123.219 84.4115C112.425 81.8673 101.609 88.5433 99.0618 99.3226C96.5142 110.102 103.199 120.903 113.993 123.447C124.787 125.991 135.603 119.315 138.15 108.536Z" fill="url(#paint11_radial_73_626)"/>
<path style="mix-blend-mode:screen" d="M112.254 164.204C123.344 164.204 132.335 155.225 132.335 144.15C132.335 133.074 123.344 124.096 112.254 124.096C101.163 124.096 92.1722 133.074 92.1722 144.15C92.1722 155.225 101.163 164.204 112.254 164.204Z" fill="url(#paint12_radial_73_626)"/>
<path style="mix-blend-mode:screen" d="M199.713 122.3C205.326 98.8431 190.835 75.283 167.346 69.6774C143.857 64.0718 120.265 78.5434 114.651 102.001C109.038 125.458 123.529 149.018 147.019 154.623C170.508 160.229 194.1 145.757 199.713 122.3Z" fill="url(#paint13_radial_73_626)"/>
</g>
<defs>
<linearGradient id="paint0_linear_73_626" x1="161.401" y1="59.8574" x2="25.1972" y2="182.451" gradientUnits="userSpaceOnUse">
<stop stop-color="#FFD3F9"/>
<stop offset="0.64" stop-color="#FFADF5"/>
<stop offset="1" stop-color="#FF9EF4"/>
</linearGradient>
<linearGradient id="paint1_linear_73_626" x1="101.063" y1="247.887" x2="89.1459" y2="247.887" gradientUnits="userSpaceOnUse">
<stop stop-color="#FF98FF"/>
<stop offset="0.19" stop-color="#F28AF8"/>
<stop offset="0.54" stop-color="#CE66E7"/>
<stop offset="1" stop-color="#962DCC"/>
</linearGradient>
<linearGradient id="paint2_linear_73_626" x1="173.67" y1="203.796" x2="64.2844" y2="239.776" gradientUnits="userSpaceOnUse">
<stop stop-color="#473046"/>
<stop offset="1" stop-color="#3B223A"/>
</linearGradient>
<linearGradient id="paint3_linear_73_626" x1="100.891" y1="218.274" x2="93.6581" y2="232.612" gradientUnits="userSpaceOnUse">
<stop stop-color="#FFAFF5"/>
<stop offset="0.19" stop-color="#FFA7F9"/>
<stop offset="0.57" stop-color="#FF9CFD"/>
<stop offset="1" stop-color="#FF98FF"/>
</linearGradient>
<linearGradient id="paint4_linear_73_626" x1="98.2248" y1="137.824" x2="140.085" y2="210.429" gradientUnits="userSpaceOnUse">
<stop/>
<stop offset="0.22" stop-color="#020102"/>
<stop offset="0.34" stop-color="#09030A"/>
<stop offset="0.44" stop-color="#140718"/>
<stop offset="0.52" stop-color="#250D2B"/>
<stop offset="0.59" stop-color="#3B1544"/>
<stop offset="0.66" stop-color="#551E63"/>
<stop offset="0.72" stop-color="#752988"/>
<stop offset="0.78" stop-color="#9936B2"/>
<stop offset="0.84" stop-color="#C144E1"/>
<stop offset="0.87" stop-color="#DB4DFF"/>
<stop offset="0.88" stop-color="#DC52FA"/>
<stop offset="0.9" stop-color="#DF60EB"/>
<stop offset="0.93" stop-color="#E477D2"/>
<stop offset="0.95" stop-color="#EB97AF"/>
<stop offset="0.98" stop-color="#F4C082"/>
<stop offset="1" stop-color="#FFF04D"/>
</linearGradient>
<radialGradient id="paint5_radial_73_626" cx="0" cy="0" r="1" gradientUnits="userSpaceOnUse" gradientTransform="translate(158.234 58.686) scale(58.7659 58.686)">
<stop stop-color="#FFD84D"/>
<stop offset="0.13" stop-color="#D34AF6"/>
<stop offset="0.17" stop-color="#AC3CC8"/>
<stop offset="0.2" stop-color="#872F9D"/>
<stop offset="0.24" stop-color="#662477"/>
<stop offset="0.28" stop-color="#4A1A57"/>
<stop offset="0.33" stop-color="#33123B"/>
<stop offset="0.38" stop-color="#200B25"/>
<stop offset="0.44" stop-color="#120614"/>
<stop offset="0.52" stop-color="#070309"/>
<stop offset="0.62" stop-color="#020102"/>
<stop offset="0.92"/>
</radialGradient>
<radialGradient id="paint6_radial_73_626" cx="0" cy="0" r="1" gradientUnits="userSpaceOnUse" gradientTransform="translate(71.8563 131.077) scale(64.6074 64.5195)">
<stop stop-color="#FFD84D"/>
<stop offset="0.13" stop-color="#D34AF6"/>
<stop offset="0.17" stop-color="#AC3CC8"/>
<stop offset="0.2" stop-color="#872F9D"/>
<stop offset="0.24" stop-color="#662477"/>
<stop offset="0.28" stop-color="#4A1A57"/>
<stop offset="0.33" stop-color="#33123B"/>
<stop offset="0.38" stop-color="#200B25"/>
<stop offset="0.44" stop-color="#120614"/>
<stop offset="0.52" stop-color="#070309"/>
<stop offset="0.62" stop-color="#020102"/>
<stop offset="0.92"/>
</radialGradient>
<radialGradient id="paint7_radial_73_626" cx="0" cy="0" r="1" gradientUnits="userSpaceOnUse" gradientTransform="translate(45.8167 188.127) scale(41.4059 41.3496)">
<stop stop-color="#FFD84D"/>
<stop offset="0.13" stop-color="#D34AF6"/>
<stop offset="0.17" stop-color="#AC3CC8"/>
<stop offset="0.2" stop-color="#872F9D"/>
<stop offset="0.24" stop-color="#662477"/>
<stop offset="0.28" stop-color="#4A1A57"/>
<stop offset="0.33" stop-color="#33123B"/>
<stop offset="0.38" stop-color="#200B25"/>
<stop offset="0.44" stop-color="#120614"/>
<stop offset="0.52" stop-color="#070309"/>
<stop offset="0.62" stop-color="#020102"/>
<stop offset="0.92"/>
</radialGradient>
<radialGradient id="paint8_radial_73_626" cx="0" cy="0" r="1" gradientUnits="userSpaceOnUse" gradientTransform="translate(21.3411 159.845) scale(21.3716 21.3425)">
<stop stop-color="#FFD84D"/>
<stop offset="0.13" stop-color="#D34AF6"/>
<stop offset="0.17" stop-color="#AC3CC8"/>
<stop offset="0.2" stop-color="#872F9D"/>
<stop offset="0.24" stop-color="#662477"/>
<stop offset="0.28" stop-color="#4A1A57"/>
<stop offset="0.33" stop-color="#33123B"/>
<stop offset="0.38" stop-color="#200B25"/>
<stop offset="0.44" stop-color="#120614"/>
<stop offset="0.52" stop-color="#070309"/>
<stop offset="0.62" stop-color="#020102"/>
<stop offset="0.92"/>
</radialGradient>
<radialGradient id="paint9_radial_73_626" cx="0" cy="0" r="1" gradientUnits="userSpaceOnUse" gradientTransform="translate(57.9449 104.299) scale(27.8933 27.8554)">
<stop stop-color="#FFD84D"/>
<stop offset="0.13" stop-color="#D34AF6"/>
<stop offset="0.17" stop-color="#AC3CC8"/>
<stop offset="0.2" stop-color="#872F9D"/>
<stop offset="0.24" stop-color="#662477"/>
<stop offset="0.28" stop-color="#4A1A57"/>
<stop offset="0.33" stop-color="#33123B"/>
<stop offset="0.38" stop-color="#200B25"/>
<stop offset="0.44" stop-color="#120614"/>
<stop offset="0.52" stop-color="#070309"/>
<stop offset="0.62" stop-color="#020102"/>
<stop offset="0.92"/>
</radialGradient>
<radialGradient id="paint10_radial_73_626" cx="0" cy="0" r="1" gradientUnits="userSpaceOnUse" gradientTransform="translate(111.291 64.5206) scale(43.7284 43.669)">
<stop stop-color="#FFD84D"/>
<stop offset="0.13" stop-color="#D34AF6"/>
<stop offset="0.17" stop-color="#AC3CC8"/>
<stop offset="0.2" stop-color="#872F9D"/>
<stop offset="0.24" stop-color="#662477"/>
<stop offset="0.28" stop-color="#4A1A57"/>
<stop offset="0.33" stop-color="#33123B"/>
<stop offset="0.38" stop-color="#200B25"/>
<stop offset="0.44" stop-color="#120614"/>
<stop offset="0.52" stop-color="#070309"/>
<stop offset="0.62" stop-color="#020102"/>
<stop offset="0.92"/>
</radialGradient>
<radialGradient id="paint11_radial_73_626" cx="0" cy="0" r="1" gradientUnits="userSpaceOnUse" gradientTransform="translate(118.602 103.927) scale(20.0813 20.054)">
<stop stop-color="#FFD84D"/>
<stop offset="0.13" stop-color="#D34AF6"/>
<stop offset="0.17" stop-color="#AC3CC8"/>
<stop offset="0.2" stop-color="#872F9D"/>
<stop offset="0.24" stop-color="#662477"/>
<stop offset="0.28" stop-color="#4A1A57"/>
<stop offset="0.33" stop-color="#33123B"/>
<stop offset="0.38" stop-color="#200B25"/>
<stop offset="0.44" stop-color="#120614"/>
<stop offset="0.52" stop-color="#070309"/>
<stop offset="0.62" stop-color="#020102"/>
<stop offset="0.92"/>
</radialGradient>
<radialGradient id="paint12_radial_73_626" cx="0" cy="0" r="1" gradientUnits="userSpaceOnUse" gradientTransform="translate(112.254 144.15) scale(20.0813 20.054)">
<stop stop-color="#FFD84D"/>
<stop offset="0.13" stop-color="#D34AF6"/>
<stop offset="0.17" stop-color="#AC3CC8"/>
<stop offset="0.2" stop-color="#872F9D"/>
<stop offset="0.24" stop-color="#662477"/>
<stop offset="0.28" stop-color="#4A1A57"/>
<stop offset="0.33" stop-color="#33123B"/>
<stop offset="0.38" stop-color="#200B25"/>
<stop offset="0.44" stop-color="#120614"/>
<stop offset="0.52" stop-color="#070309"/>
<stop offset="0.62" stop-color="#020102"/>
<stop offset="0.92"/>
</radialGradient>
<radialGradient id="paint13_radial_73_626" cx="0" cy="0" r="1" gradientUnits="userSpaceOnUse" gradientTransform="translate(157.187 112.143) scale(43.7284 43.669)">
<stop stop-color="#FFD84D"/>
<stop offset="0.13" stop-color="#D34AF6"/>
<stop offset="0.17" stop-color="#AC3CC8"/>
<stop offset="0.2" stop-color="#872F9D"/>
<stop offset="0.24" stop-color="#662477"/>
<stop offset="0.28" stop-color="#4A1A57"/>
<stop offset="0.33" stop-color="#33123B"/>
<stop offset="0.38" stop-color="#200B25"/>
<stop offset="0.44" stop-color="#120614"/>
<stop offset="0.52" stop-color="#070309"/>
<stop offset="0.62" stop-color="#020102"/>
<stop offset="0.92"/>
</radialGradient>
<clipPath id="clip0_73_626">
<rect width="217" height="276" fill="white"/>
</clipPath>
</defs>
</svg>
