<svg width="97" height="96" viewBox="0 0 97 96" fill="none" xmlns="http://www.w3.org/2000/svg">
<g id="Arhive_load_fill">
<path id="Intersect" fill-rule="evenodd" clip-rule="evenodd" d="M84.5 44V64C84.5 75.3137 84.5 80.9706 80.9853 84.4853C77.4706 88 71.8137 88 60.5 88H36.5C25.1863 88 19.5294 88 16.0147 84.4853C12.5 80.9706 12.5 75.3137 12.5 64V44C12.5 47.7275 12.5 49.5913 13.109 51.0615C13.9209 53.0217 15.4783 54.5791 17.4385 55.391C18.9087 56 20.7725 56 24.5 56H27.2018C29.5258 56 30.6879 56 31.6155 56.5351C31.8498 56.6702 32.0698 56.8288 32.2721 57.0083C33.073 57.7192 33.4405 58.8215 34.1754 61.0263L34.6766 62.5298C35.5566 65.1699 35.9966 66.4899 37.0442 67.245C38.0917 68 39.4832 68 42.2661 68H54.7339C57.5168 68 58.9083 68 59.9558 67.245C61.0034 66.4899 61.4434 65.1699 62.3234 62.5298L62.8246 61.0263L62.8246 61.0263L62.8246 61.0262C63.5595 58.8215 63.927 57.7191 64.7279 57.0083C64.9302 56.8288 65.1502 56.6702 65.3845 56.5351C66.3121 56 67.4742 56 69.7982 56H72.5C76.2275 56 78.0913 56 79.5615 55.391C81.5217 54.5791 83.0791 53.0217 83.891 51.0615C84.5 49.5913 84.5 47.7275 84.5 44Z" fill="white"/>
<path id="Rectangle 3" d="M64.5 24H68.5C76.0425 24 79.8137 24 82.1569 26.3431C84.5 28.6863 84.5 32.4575 84.5 40V72C84.5 79.5425 84.5 83.3137 82.1569 85.6569C79.8137 88 76.0425 88 68.5 88H28.5C20.9575 88 17.1863 88 14.8431 85.6569C12.5 83.3137 12.5 79.5425 12.5 72V40C12.5 32.4575 12.5 28.6863 14.8431 26.3431C17.1863 24 20.9575 24 28.5 24H32.5" stroke="white" stroke-width="8"/>
<path id="Vector 9" d="M32.5 40L48.5 52M48.5 52L64.5 40M48.5 52L48.5 12" stroke="white" stroke-width="8"/>
</g>
</svg>
