<svg width="225" height="354" viewBox="0 0 225 354" fill="none" xmlns="http://www.w3.org/2000/svg">
<g clip-path="url(#clip0_145_2372)">
<rect x="0.899902" y="0.199951" width="224" height="353.6" rx="12.7111" fill="#2E2B43"/>
<rect width="224" height="89.1333" transform="translate(0.899902 0.199951)" fill="#12171D"/>
<path d="M24.4156 20.2334C20.9112 20.2334 18.0601 23.0845 18.0601 26.589C18.0601 30.0934 20.9112 32.9445 24.4156 32.9445C27.9201 32.9445 30.7712 30.0934 30.7712 26.589C30.7712 23.0845 27.9201 20.2334 24.4156 20.2334ZM29.4562 25.9534H27.5292C27.4035 25.3435 27.1018 24.7837 26.6613 24.3434C26.2209 23.9031 25.6611 23.6016 25.0512 23.476V21.5484C26.1696 21.691 27.2091 22.2009 28.0064 22.9982C28.8037 23.7955 29.3136 24.8349 29.4562 25.9534ZM24.4156 24.6823C25.4668 24.6823 26.3223 25.5377 26.3223 26.589C26.3223 27.6402 25.4668 28.4956 24.4156 28.4956C23.3644 28.4956 22.5089 27.6402 22.5089 26.589C22.5089 25.5377 23.3644 24.6823 24.4156 24.6823ZM24.4156 31.6734C21.6122 31.6734 19.3312 29.3924 19.3312 26.589C19.3312 24.001 21.2766 21.863 23.7801 21.5484V23.4754C23.0629 23.6229 22.4185 24.013 21.9554 24.5802C21.4923 25.1473 21.2389 25.8568 21.2378 26.589C21.2378 28.3412 22.6634 29.7667 24.4156 29.7667C25.1477 29.7658 25.8572 29.5124 26.4242 29.0493C26.9913 28.5862 27.3813 27.9417 27.5286 27.2245H29.4556C29.1416 29.728 27.0036 31.6734 24.4156 31.6734Z" fill="white"/>
<path d="M42.6952 32.0889H40.3342L40.3491 30.3461H42.6952C43.2811 30.3461 43.7751 30.2145 44.1773 29.9513C44.5795 29.6832 44.8824 29.2934 45.0859 28.782C45.2945 28.2706 45.3987 27.6524 45.3987 26.9275V26.3987C45.3987 25.8425 45.3392 25.3535 45.22 24.9314C45.1058 24.5094 44.9345 24.1544 44.7061 23.8664C44.4777 23.5784 44.1971 23.3624 43.8645 23.2184C43.5318 23.0694 43.1495 22.995 42.7175 22.995H40.2895V21.2447H42.7175C43.4424 21.2447 44.1053 21.3688 44.7061 21.6171C45.3119 21.8604 45.8357 22.2104 46.2776 22.6673C46.7195 23.1241 47.0596 23.6702 47.298 24.3058C47.5413 24.9364 47.6629 25.639 47.6629 26.4136V26.9275C47.6629 27.6971 47.5413 28.3997 47.298 29.0352C47.0596 29.6708 46.7195 30.217 46.2776 30.6738C45.8407 31.1256 45.3168 31.4757 44.7061 31.7239C44.1003 31.9672 43.43 32.0889 42.6952 32.0889ZM41.6003 21.2447V32.0889H39.3659V21.2447H41.6003ZM48.8099 28.1415V27.9851C48.8099 27.3942 48.8943 26.8505 49.0631 26.354C49.2319 25.8525 49.4777 25.418 49.8005 25.0506C50.1232 24.6832 50.5204 24.3977 50.9921 24.1941C51.4638 23.9855 52.005 23.8813 52.6158 23.8813C53.2265 23.8813 53.7702 23.9855 54.2469 24.1941C54.7235 24.3977 55.1232 24.6832 55.446 25.0506C55.7737 25.418 56.022 25.8525 56.1908 26.354C56.3596 26.8505 56.444 27.3942 56.444 27.9851V28.1415C56.444 28.7274 56.3596 29.2711 56.1908 29.7726C56.022 30.2691 55.7737 30.7036 55.446 31.076C55.1232 31.4434 54.726 31.7289 54.2543 31.9325C53.7826 32.136 53.2414 32.2378 52.6307 32.2378C52.0199 32.2378 51.4762 32.136 50.9996 31.9325C50.5279 31.7289 50.1282 31.4434 49.8005 31.076C49.4777 30.7036 49.2319 30.2691 49.0631 29.7726C48.8943 29.2711 48.8099 28.7274 48.8099 28.1415ZM50.9549 27.9851V28.1415C50.9549 28.4791 50.9847 28.7944 51.0443 29.0874C51.1039 29.3803 51.1982 29.6385 51.3273 29.8619C51.4614 30.0804 51.6351 30.2517 51.8486 30.3758C52.0621 30.5 52.3228 30.562 52.6307 30.562C52.9286 30.562 53.1843 30.5 53.3978 30.3758C53.6113 30.2517 53.7826 30.0804 53.9117 29.8619C54.0408 29.6385 54.1352 29.3803 54.1947 29.0874C54.2593 28.7944 54.2916 28.4791 54.2916 28.1415V27.9851C54.2916 27.6574 54.2593 27.3495 54.1947 27.0615C54.1352 26.7686 54.0383 26.5104 53.9043 26.2869C53.7752 26.0585 53.6039 25.8798 53.3904 25.7507C53.1769 25.6216 52.9187 25.557 52.6158 25.557C52.3129 25.557 52.0547 25.6216 51.8412 25.7507C51.6327 25.8798 51.4614 26.0585 51.3273 26.2869C51.1982 26.5104 51.1039 26.7686 51.0443 27.0615C50.9847 27.3495 50.9549 27.6574 50.9549 27.9851ZM62.529 30.1599V24.0302H64.674V32.0889H62.6556L62.529 30.1599ZM62.7673 28.5064L63.4004 28.4915C63.4004 29.0278 63.3383 29.5268 63.2142 29.9886C63.09 30.4454 62.9038 30.8426 62.6556 31.1802C62.4073 31.5129 62.0945 31.7736 61.7171 31.9623C61.3398 32.146 60.8954 32.2378 60.384 32.2378C59.9917 32.2378 59.6292 32.1832 59.2966 32.074C58.9689 31.9598 58.6858 31.7835 58.4475 31.5452C58.2141 31.3019 58.0304 30.9915 57.8964 30.6142C57.7673 30.2319 57.7027 29.7726 57.7027 29.2363V24.0302H59.8477V29.2512C59.8477 29.4895 59.875 29.6906 59.9296 29.8545C59.9892 30.0183 60.0711 30.1524 60.1754 30.2567C60.2797 30.361 60.4013 30.4354 60.5404 30.4801C60.6844 30.5248 60.8432 30.5471 61.017 30.5471C61.4589 30.5471 61.8065 30.4578 62.0597 30.279C62.3179 30.1003 62.4992 29.857 62.6034 29.5491C62.7127 29.2363 62.7673 28.8887 62.7673 28.5064ZM71.4143 24.0302H73.3582V31.8207C73.3582 32.5556 73.1944 33.1787 72.8667 33.6902C72.5439 34.2066 72.0921 34.5963 71.5111 34.8595C70.9302 35.1276 70.2549 35.2617 69.4853 35.2617C69.1477 35.2617 68.7902 35.217 68.4128 35.1276C68.0404 35.0382 67.6829 34.8992 67.3403 34.7105C67.0027 34.5219 66.7196 34.2835 66.4912 33.9955L67.4371 32.7294C67.6854 33.0174 67.9734 33.2408 68.3011 33.3997C68.6288 33.5636 68.9913 33.6455 69.3885 33.6455C69.7758 33.6455 70.1035 33.5735 70.3716 33.4295C70.6397 33.2905 70.8458 33.0844 70.9898 32.8113C71.1338 32.5432 71.2058 32.218 71.2058 31.8356V25.8922L71.4143 24.0302ZM65.9922 28.1564V28C65.9922 27.3843 66.0667 26.8257 66.2157 26.3242C66.3696 25.8177 66.5856 25.3833 66.8636 25.0208C67.1467 24.6583 67.4893 24.3778 67.8915 24.1792C68.2936 23.9806 68.748 23.8813 69.2544 23.8813C69.7907 23.8813 70.24 23.9806 70.6025 24.1792C70.965 24.3778 71.2629 24.6608 71.4962 25.0282C71.7296 25.3907 71.9108 25.8202 72.0399 26.3167C72.174 26.8083 72.2783 27.347 72.3528 27.9329V28.2755C72.2783 28.8366 72.1666 29.358 72.0176 29.8396C71.8686 30.3212 71.6725 30.7433 71.4292 31.1057C71.1859 31.4632 70.883 31.7413 70.5206 31.9399C70.1631 32.1385 69.7361 32.2378 69.2395 32.2378C68.743 32.2378 68.2936 32.136 67.8915 31.9325C67.4942 31.7289 67.1541 31.4434 66.8711 31.076C66.5881 30.7085 66.3696 30.2765 66.2157 29.78C66.0667 29.2835 65.9922 28.7423 65.9922 28.1564ZM68.1372 28V28.1564C68.1372 28.489 68.1695 28.7994 68.2341 29.0874C68.2986 29.3753 68.3979 29.6311 68.532 29.8545C68.671 30.073 68.8423 30.2443 69.0459 30.3684C69.2544 30.4876 69.5002 30.5471 69.7832 30.5471C70.1755 30.5471 70.4957 30.4652 70.744 30.3014C70.9923 30.1325 71.1785 29.9017 71.3026 29.6087C71.4267 29.3158 71.4987 28.9781 71.5186 28.5958V27.6201C71.5087 27.3073 71.4665 27.0268 71.392 26.7785C71.3175 26.5253 71.2132 26.3093 71.0792 26.1305C70.9451 25.9518 70.7713 25.8128 70.5578 25.7135C70.3443 25.6141 70.0911 25.5645 69.7981 25.5645C69.5151 25.5645 69.2693 25.629 69.0608 25.7581C68.8572 25.8823 68.6859 26.0536 68.5469 26.272C68.4128 26.4905 68.311 26.7487 68.2415 27.0466C68.172 27.3396 68.1372 27.6574 68.1372 28ZM77.1194 20.6489V32.0889H74.9744V20.6489H77.1194ZM76.8141 27.7765H76.2257C76.2306 27.2154 76.3051 26.6991 76.4491 26.2274C76.5931 25.7507 76.7992 25.3386 77.0673 24.991C77.3354 24.6385 77.6557 24.3654 78.0281 24.1717C78.4054 23.9781 78.8225 23.8813 79.2793 23.8813C79.6765 23.8813 80.0365 23.9384 80.3593 24.0526C80.687 24.1618 80.9675 24.3406 81.2009 24.5888C81.4392 24.8321 81.6229 25.1524 81.752 25.5496C81.8811 25.9468 81.9457 26.4285 81.9457 26.9945V32.0889H79.7858V26.9796C79.7858 26.6221 79.7336 26.3416 79.6294 26.138C79.5301 25.9294 79.3836 25.783 79.1899 25.6986C79.0013 25.6092 78.7679 25.5645 78.4898 25.5645C78.182 25.5645 77.9188 25.6216 77.7004 25.7358C77.4869 25.85 77.3156 26.0089 77.1865 26.2125C77.0574 26.4111 76.963 26.6444 76.9034 26.9126C76.8438 27.1807 76.8141 27.4687 76.8141 27.7765ZM85.6771 25.7507V32.0889H83.5321V24.0302H85.543L85.6771 25.7507ZM85.3643 27.7765H84.7833C84.7833 27.1807 84.8603 26.6444 85.0142 26.1678C85.1681 25.6861 85.3841 25.2765 85.6622 24.9389C85.9402 24.5963 86.2704 24.3356 86.6528 24.1568C87.04 23.9731 87.472 23.8813 87.9487 23.8813C88.3261 23.8813 88.6711 23.9359 88.984 24.0451C89.2968 24.1544 89.5649 24.3281 89.7883 24.5665C90.0167 24.8048 90.1905 25.1201 90.3097 25.5124C90.4338 25.9046 90.4959 26.3838 90.4959 26.9498V32.0889H88.336V26.9424C88.336 26.5849 88.2863 26.3068 88.187 26.1082C88.0877 25.9096 87.9412 25.7706 87.7476 25.6911C87.5589 25.6067 87.3256 25.5645 87.0475 25.5645C86.7595 25.5645 86.5088 25.6216 86.2953 25.7358C86.0867 25.85 85.9129 26.0089 85.7739 26.2125C85.6398 26.4111 85.5381 26.6444 85.4685 26.9126C85.399 27.1807 85.3643 27.4687 85.3643 27.7765ZM96.8936 30.1599V24.0302H99.0386V32.0889H97.0203L96.8936 30.1599ZM97.132 28.5064L97.765 28.4915C97.765 29.0278 97.703 29.5268 97.5789 29.9886C97.4547 30.4454 97.2685 30.8426 97.0203 31.1802C96.772 31.5129 96.4592 31.7736 96.0818 31.9623C95.7045 32.146 95.2601 32.2378 94.7486 32.2378C94.3564 32.2378 93.9939 32.1832 93.6612 32.074C93.3335 31.9598 93.0505 31.7835 92.8122 31.5452C92.5788 31.3019 92.3951 30.9915 92.261 30.6142C92.1319 30.2319 92.0674 29.7726 92.0674 29.2363V24.0302H94.2124V29.2512C94.2124 29.4895 94.2397 29.6906 94.2943 29.8545C94.3539 30.0183 94.4358 30.1524 94.5401 30.2567C94.6444 30.361 94.766 30.4354 94.905 30.4801C95.049 30.5248 95.2079 30.5471 95.3817 30.5471C95.8236 30.5471 96.1712 30.4578 96.4244 30.279C96.6826 30.1003 96.8639 29.857 96.9681 29.5491C97.0774 29.2363 97.132 28.8887 97.132 28.5064ZM104.625 24.0302V25.5496H99.9324V24.0302H104.625ZM101.094 22.0416H103.239V29.6608C103.239 29.8942 103.269 30.073 103.329 30.1971C103.393 30.3212 103.488 30.4081 103.612 30.4578C103.736 30.5025 103.892 30.5248 104.081 30.5248C104.215 30.5248 104.334 30.5198 104.438 30.5099C104.548 30.495 104.639 30.4801 104.714 30.4652L104.721 32.0442C104.538 32.1038 104.339 32.1509 104.126 32.1857C103.912 32.2204 103.676 32.2378 103.418 32.2378C102.946 32.2378 102.534 32.1609 102.182 32.0069C101.834 31.8481 101.566 31.5948 101.377 31.2473C101.189 30.8997 101.094 30.4429 101.094 29.8768V22.0416Z" fill="white"/>
<path d="M20.2049 51.063H18.3727L18.3628 50.2934H20.0262C20.3009 50.2934 20.5409 50.247 20.7461 50.1543C20.9514 50.0617 21.1103 49.9292 21.2228 49.7571C21.3387 49.5817 21.3966 49.3731 21.3966 49.1315C21.3966 48.8667 21.3453 48.6515 21.2427 48.486C21.1434 48.3172 20.9894 48.1947 20.7809 48.1186C20.5757 48.0391 20.3142 47.9994 19.9964 47.9994H18.5862V54.4443H17.628V47.2149H19.9964C20.3671 47.2149 20.6981 47.253 20.9894 47.3291C21.2807 47.4019 21.5273 47.5178 21.7293 47.6767C21.9345 47.8322 22.0901 48.0309 22.196 48.2725C22.3019 48.5141 22.3549 48.8038 22.3549 49.1414C22.3549 49.4393 22.2788 49.7091 22.1265 49.9508C21.9742 50.1891 21.7624 50.3844 21.4909 50.5367C21.2228 50.6889 20.9083 50.7866 20.5475 50.8296L20.2049 51.063ZM20.1602 54.4443H17.9954L18.5366 53.6648H20.1602C20.4648 53.6648 20.723 53.6118 20.9348 53.5059C21.15 53.4 21.3138 53.251 21.4264 53.059C21.5389 52.8637 21.5952 52.6337 21.5952 52.3688C21.5952 52.1007 21.5472 51.869 21.4512 51.6737C21.3552 51.4784 21.2046 51.3278 20.9994 51.2219C20.7941 51.1159 20.5293 51.063 20.2049 51.063H18.8395L18.8494 50.2934H20.7164L20.9199 50.5714C21.2675 50.6012 21.5621 50.7005 21.8037 50.8693C22.0454 51.0348 22.2291 51.2467 22.3549 51.5049C22.484 51.7631 22.5485 52.0478 22.5485 52.3589C22.5485 52.8091 22.4492 53.1898 22.2506 53.5009C22.0553 53.8088 21.7789 54.0438 21.4214 54.206C21.0639 54.3649 20.6435 54.4443 20.1602 54.4443ZM25.061 49.916V54.4443H24.1424V49.0719H25.0361L25.061 49.916ZM26.7392 49.0421L26.7343 49.8961C26.6581 49.8796 26.5853 49.8697 26.5158 49.8663C26.4496 49.8597 26.3735 49.8564 26.2874 49.8564C26.0755 49.8564 25.8885 49.8895 25.7263 49.9557C25.5641 50.0219 25.4267 50.1146 25.3142 50.2338C25.2017 50.3529 25.1123 50.4953 25.0461 50.6608C24.9832 50.823 24.9418 51.0017 24.9219 51.197L24.6637 51.346C24.6637 51.0216 24.6952 50.7171 24.7581 50.4324C24.8243 50.1477 24.9253 49.8961 25.061 49.6777C25.1967 49.4559 25.3688 49.2838 25.5774 49.1613C25.7892 49.0355 26.0408 48.9726 26.3321 48.9726C26.3983 48.9726 26.4744 48.9809 26.5605 48.9974C26.6465 49.0107 26.7061 49.0256 26.7392 49.0421ZM27.5635 51.8177V51.7035C27.5635 51.3162 27.6197 50.9571 27.7323 50.626C27.8448 50.2917 28.007 50.0021 28.2189 49.7571C28.4307 49.5088 28.6873 49.3169 28.9885 49.1811C29.2897 49.0421 29.6274 48.9726 30.0014 48.9726C30.3788 48.9726 30.7181 49.0421 31.0193 49.1811C31.3238 49.3169 31.582 49.5088 31.7939 49.7571C32.009 50.0021 32.1729 50.2917 32.2855 50.626C32.398 50.9571 32.4543 51.3162 32.4543 51.7035V51.8177C32.4543 52.205 32.398 52.5642 32.2855 52.8952C32.1729 53.2262 32.009 53.5158 31.7939 53.7641C31.582 54.009 31.3255 54.201 31.0243 54.3401C30.7264 54.4758 30.3887 54.5436 30.0114 54.5436C29.634 54.5436 29.2947 54.4758 28.9935 54.3401C28.6922 54.201 28.434 54.009 28.2189 53.7641C28.007 53.5158 27.8448 53.2262 27.7323 52.8952C27.6197 52.5642 27.5635 52.205 27.5635 51.8177ZM28.482 51.7035V51.8177C28.482 52.0858 28.5135 52.3391 28.5764 52.5774C28.6393 52.8124 28.7336 53.021 28.8594 53.203C28.9885 53.3851 29.149 53.5291 29.341 53.635C29.533 53.7376 29.7565 53.7889 30.0114 53.7889C30.2629 53.7889 30.4831 53.7376 30.6717 53.635C30.8637 53.5291 31.0226 53.3851 31.1484 53.203C31.2742 53.021 31.3685 52.8124 31.4314 52.5774C31.4976 52.3391 31.5307 52.0858 31.5307 51.8177V51.7035C31.5307 51.4387 31.4976 51.1888 31.4314 50.9537C31.3685 50.7154 31.2725 50.5052 31.1434 50.3232C31.0176 50.1378 30.8588 49.9921 30.6668 49.8862C30.4781 49.7803 30.2563 49.7273 30.0014 49.7273C29.7498 49.7273 29.5281 49.7803 29.3361 49.8862C29.1474 49.9921 28.9885 50.1378 28.8594 50.3232C28.7336 50.5052 28.6393 50.7154 28.5764 50.9537C28.5135 51.1888 28.482 51.4387 28.482 51.7035ZM35.2845 53.491L36.6648 49.0719H37.2706L37.1514 49.9508L35.7462 54.4443H35.1554L35.2845 53.491ZM34.356 49.0719L35.5327 53.5407L35.6172 54.4443H34.9965L33.4374 49.0719H34.356ZM38.5914 53.5059L39.7135 49.0719H40.6271L39.068 54.4443H38.4523L38.5914 53.5059ZM37.4047 49.0719L38.7552 53.4165L38.9091 54.4443H38.3232L36.8783 49.9408L36.7592 49.0719H37.4047ZM45.0164 53.0193C45.0164 52.8869 44.9866 52.7644 44.927 52.6519C44.8708 52.536 44.7533 52.4317 44.5745 52.3391C44.3991 52.2431 44.1343 52.1603 43.7801 52.0908C43.4822 52.0279 43.2124 51.9534 42.9707 51.8674C42.7324 51.7813 42.5288 51.677 42.36 51.5545C42.1945 51.4321 42.067 51.2881 41.9777 51.1226C41.8883 50.9571 41.8436 50.7634 41.8436 50.5416C41.8436 50.3298 41.89 50.1295 41.9826 49.9408C42.0786 49.7521 42.2127 49.585 42.3848 49.4393C42.5603 49.2937 42.7705 49.1795 43.0154 49.0967C43.2604 49.014 43.5335 48.9726 43.8347 48.9726C44.265 48.9726 44.6324 49.0487 44.937 49.201C45.2415 49.3533 45.4749 49.5568 45.6371 49.8117C45.7993 50.0633 45.8804 50.343 45.8804 50.6509H44.9618C44.9618 50.5019 44.9171 50.3579 44.8277 50.2189C44.7417 50.0765 44.6142 49.959 44.4454 49.8663C44.2799 49.7737 44.0763 49.7273 43.8347 49.7273C43.5798 49.7273 43.3729 49.767 43.214 49.8465C43.0584 49.9226 42.9442 50.0203 42.8714 50.1394C42.8019 50.2586 42.7672 50.3844 42.7672 50.5168C42.7672 50.6161 42.7837 50.7055 42.8168 50.7849C42.8532 50.8611 42.9161 50.9322 43.0055 50.9984C43.0949 51.0613 43.2206 51.1209 43.3828 51.1772C43.545 51.2335 43.7519 51.2897 44.0035 51.346C44.4438 51.4453 44.8062 51.5645 45.0909 51.7035C45.3756 51.8425 45.5874 52.013 45.7265 52.2149C45.8655 52.4168 45.935 52.6618 45.935 52.9498C45.935 53.1848 45.8853 53.4 45.786 53.5953C45.69 53.7906 45.5494 53.9594 45.364 54.1017C45.1819 54.2408 44.9635 54.35 44.7086 54.4294C44.457 54.5056 44.174 54.5436 43.8595 54.5436C43.3862 54.5436 42.9856 54.4592 42.6579 54.2904C42.3302 54.1216 42.0819 53.9031 41.9131 53.635C41.7443 53.3669 41.6599 53.0838 41.6599 52.7859H42.5834C42.5967 53.0375 42.6695 53.2378 42.8019 53.3867C42.9343 53.5324 43.0965 53.6367 43.2885 53.6995C43.4805 53.7591 43.6708 53.7889 43.8595 53.7889C44.1111 53.7889 44.3213 53.7558 44.4901 53.6896C44.6622 53.6234 44.793 53.5324 44.8824 53.4165C44.9717 53.3007 45.0164 53.1683 45.0164 53.0193ZM49.6887 54.5436C49.3147 54.5436 48.9754 54.4807 48.6709 54.355C48.3696 54.2259 48.1098 54.0455 47.8913 53.8137C47.6762 53.582 47.5106 53.3073 47.3948 52.9895C47.2789 52.6717 47.221 52.3242 47.221 51.9468V51.7383C47.221 51.3013 47.2856 50.9124 47.4147 50.5714C47.5437 50.2272 47.7192 49.9359 47.941 49.6975C48.1628 49.4592 48.4143 49.2788 48.6957 49.1563C48.9771 49.0338 49.2684 48.9726 49.5696 48.9726C49.9536 48.9726 50.2846 49.0388 50.5626 49.1712C50.844 49.3036 51.0741 49.489 51.2528 49.7273C51.4316 49.9623 51.564 50.2404 51.65 50.5615C51.7361 50.8793 51.7791 51.2268 51.7791 51.6042V52.0163H47.7672V51.2666H50.8606V51.197C50.8473 50.9587 50.7977 50.727 50.7116 50.5019C50.6288 50.2768 50.4964 50.0914 50.3144 49.9458C50.1323 49.8001 49.8841 49.7273 49.5696 49.7273C49.361 49.7273 49.1691 49.772 48.9936 49.8614C48.8182 49.9474 48.6676 50.0765 48.5418 50.2487C48.416 50.4208 48.3183 50.631 48.2488 50.8793C48.1793 51.1275 48.1445 51.4139 48.1445 51.7383V51.9468C48.1445 52.2017 48.1793 52.4417 48.2488 52.6668C48.3216 52.8885 48.4259 53.0838 48.5616 53.2527C48.7007 53.4215 48.8678 53.5539 49.0631 53.6499C49.2617 53.7459 49.4868 53.7939 49.7384 53.7939C50.0628 53.7939 50.3375 53.7277 50.5626 53.5953C50.7877 53.4629 50.9847 53.2858 51.1535 53.064L51.7096 53.5059C51.5938 53.6813 51.4465 53.8485 51.2677 54.0074C51.089 54.1663 50.8688 54.2954 50.6073 54.3947C50.3491 54.494 50.0429 54.5436 49.6887 54.5436ZM54.088 49.916V54.4443H53.1694V49.0719H54.0632L54.088 49.916ZM55.7662 49.0421L55.7613 49.8961C55.6851 49.8796 55.6123 49.8697 55.5428 49.8663C55.4766 49.8597 55.4005 49.8564 55.3144 49.8564C55.1026 49.8564 54.9155 49.8895 54.7533 49.9557C54.5911 50.0219 54.4538 50.1146 54.3412 50.2338C54.2287 50.3529 54.1393 50.4953 54.0731 50.6608C54.0102 50.823 53.9688 51.0017 53.949 51.197L53.6908 51.346C53.6908 51.0216 53.7222 50.7171 53.7851 50.4324C53.8513 50.1477 53.9523 49.8961 54.088 49.6777C54.2237 49.4559 54.3958 49.2838 54.6044 49.1613C54.8162 49.0355 55.0678 48.9726 55.3591 48.9726C55.4253 48.9726 55.5014 48.9809 55.5875 48.9974C55.6736 49.0107 55.7331 49.0256 55.7662 49.0421ZM60.6868 50.1394V54.4443H59.7633V49.0719H60.6372L60.6868 50.1394ZM60.4982 51.5545L60.0711 51.5396C60.0745 51.1722 60.1225 50.8329 60.2151 50.5218C60.3078 50.2073 60.4452 49.9342 60.6273 49.7025C60.8093 49.4708 61.0361 49.292 61.3075 49.1662C61.5789 49.0371 61.8934 48.9726 62.2509 48.9726C62.5025 48.9726 62.7342 49.009 62.946 49.0818C63.1579 49.1513 63.3416 49.2622 63.4972 49.4145C63.6528 49.5668 63.7736 49.7621 63.8597 50.0004C63.9457 50.2387 63.9887 50.5267 63.9887 50.8644V54.4443H63.0702V50.9091C63.0702 50.6277 63.0222 50.4026 62.9262 50.2338C62.8335 50.065 62.7011 49.9425 62.529 49.8663C62.3568 49.7869 62.1549 49.7472 61.9232 49.7472C61.6518 49.7472 61.425 49.7952 61.243 49.8912C61.0609 49.9872 60.9152 50.1196 60.806 50.2884C60.6968 50.4572 60.6173 50.6509 60.5677 50.8693C60.5213 51.0845 60.4982 51.3129 60.4982 51.5545ZM63.9788 51.0481L63.3631 51.2368C63.3664 50.9422 63.4144 50.6591 63.5071 50.3877C63.6031 50.1163 63.7405 49.8746 63.9192 49.6628C64.1013 49.4509 64.3247 49.2838 64.5895 49.1613C64.8544 49.0355 65.1572 48.9726 65.4982 48.9726C65.7862 48.9726 66.0411 49.0107 66.2628 49.0868C66.4879 49.1629 66.6766 49.2804 66.8289 49.4393C66.9845 49.5949 67.102 49.7952 67.1814 50.0401C67.2609 50.2851 67.3006 50.5764 67.3006 50.914V54.4443H66.377V50.9041C66.377 50.6029 66.329 50.3695 66.2331 50.204C66.1404 50.0352 66.008 49.9177 65.8358 49.8515C65.667 49.7819 65.4651 49.7472 65.2301 49.7472C65.0281 49.7472 64.8494 49.7819 64.6938 49.8515C64.5382 49.921 64.4075 50.017 64.3016 50.1394C64.1956 50.2586 64.1145 50.396 64.0583 50.5516C64.0053 50.7071 63.9788 50.8726 63.9788 51.0481ZM72.1765 53.5258V50.7601C72.1765 50.5482 72.1335 50.3645 72.0474 50.209C71.9646 50.0501 71.8389 49.9276 71.67 49.8415C71.5012 49.7555 71.2927 49.7124 71.0444 49.7124C70.8127 49.7124 70.6091 49.7521 70.4337 49.8316C70.2615 49.911 70.1258 50.0153 70.0265 50.1444C69.9305 50.2735 69.8825 50.4125 69.8825 50.5615H68.964C68.964 50.3695 69.0136 50.1792 69.1129 49.9905C69.2122 49.8018 69.3546 49.6313 69.5399 49.4791C69.7286 49.3235 69.9537 49.201 70.2152 49.1116C70.48 49.0189 70.7746 48.9726 71.099 48.9726C71.4896 48.9726 71.8339 49.0388 72.1318 49.1712C72.433 49.3036 72.6681 49.5039 72.8369 49.772C73.009 50.0368 73.0951 50.3695 73.0951 50.77V53.2725C73.0951 53.4513 73.11 53.6416 73.1398 53.8435C73.1729 54.0455 73.2209 54.2192 73.2837 54.3649V54.4443H72.3255C72.2791 54.3384 72.2427 54.1977 72.2162 54.0223C72.1897 53.8435 72.1765 53.678 72.1765 53.5258ZM72.3354 51.1871L72.3453 51.8326H71.4168C71.1553 51.8326 70.9219 51.8541 70.7167 51.8971C70.5115 51.9369 70.3393 51.9981 70.2003 52.0809C70.0613 52.1636 69.9554 52.2679 69.8825 52.3937C69.8097 52.5162 69.7733 52.6601 69.7733 52.8257C69.7733 52.9945 69.8114 53.1484 69.8875 53.2874C69.9636 53.4265 70.0778 53.5373 70.2301 53.6201C70.3857 53.6995 70.576 53.7393 70.8011 53.7393C71.0825 53.7393 71.3307 53.6797 71.5459 53.5605C71.7611 53.4413 71.9315 53.2957 72.0573 53.1236C72.1864 52.9514 72.2559 52.7843 72.2659 52.6221L72.6581 53.064C72.635 53.203 72.5721 53.3569 72.4694 53.5258C72.3668 53.6946 72.2295 53.8568 72.0573 54.0124C71.8885 54.1646 71.6866 54.2921 71.4516 54.3947C71.2198 54.494 70.9583 54.5436 70.667 54.5436C70.3029 54.5436 69.9835 54.4725 69.7087 54.3301C69.4373 54.1878 69.2255 53.9975 69.0732 53.7591C68.9242 53.5175 68.8498 53.2477 68.8498 52.9498C68.8498 52.6618 68.906 52.4086 69.0186 52.1901C69.1311 51.9683 69.2933 51.7846 69.5052 51.639C69.717 51.49 69.9719 51.3774 70.2698 51.3013C70.5677 51.2252 70.9004 51.1871 71.2678 51.1871H72.3354ZM75.7763 49.916V54.4443H74.8577V49.0719H75.7515L75.7763 49.916ZM77.4546 49.0421L77.4496 49.8961C77.3735 49.8796 77.3007 49.8697 77.2311 49.8663C77.1649 49.8597 77.0888 49.8564 77.0027 49.8564C76.7909 49.8564 76.6039 49.8895 76.4417 49.9557C76.2795 50.0219 76.1421 50.1146 76.0295 50.2338C75.917 50.3529 75.8276 50.4953 75.7614 50.6608C75.6985 50.823 75.6572 51.0017 75.6373 51.197L75.3791 51.346C75.3791 51.0216 75.4105 50.7171 75.4734 50.4324C75.5396 50.1477 75.6406 49.8961 75.7763 49.6777C75.912 49.4559 76.0842 49.2838 76.2927 49.1613C76.5046 49.0355 76.7561 48.9726 77.0474 48.9726C77.1136 48.9726 77.1898 48.9809 77.2758 48.9974C77.3619 49.0107 77.4215 49.0256 77.4546 49.0421ZM79.545 46.8177V54.4443H78.6214V46.8177H79.545ZM82.827 49.0719L80.4834 51.5794L79.1726 52.9399L79.0981 51.9617L80.0365 50.8395L81.7049 49.0719H82.827ZM81.9879 54.4443L80.0713 51.8823L80.548 51.063L83.0703 54.4443H81.9879ZM86.2233 54.5436C85.8492 54.5436 85.5099 54.4807 85.2054 54.355C84.9042 54.2259 84.6443 54.0455 84.4258 53.8137C84.2107 53.582 84.0452 53.3073 83.9293 52.9895C83.8134 52.6717 83.7555 52.3242 83.7555 51.9468V51.7383C83.7555 51.3013 83.8201 50.9124 83.9492 50.5714C84.0783 50.2272 84.2537 49.9359 84.4755 49.6975C84.6973 49.4592 84.9488 49.2788 85.2302 49.1563C85.5116 49.0338 85.8029 48.9726 86.1041 48.9726C86.4881 48.9726 86.8191 49.0388 87.0971 49.1712C87.3785 49.3036 87.6086 49.489 87.7873 49.7273C87.9661 49.9623 88.0985 50.2404 88.1845 50.5615C88.2706 50.8793 88.3136 51.2268 88.3136 51.6042V52.0163H84.3017V51.2666H87.3951V51.197C87.3818 50.9587 87.3322 50.727 87.2461 50.5019C87.1634 50.2768 87.0309 50.0914 86.8489 49.9458C86.6668 49.8001 86.4186 49.7273 86.1041 49.7273C85.8956 49.7273 85.7036 49.772 85.5281 49.8614C85.3527 49.9474 85.2021 50.0765 85.0763 50.2487C84.9505 50.4208 84.8528 50.631 84.7833 50.8793C84.7138 51.1275 84.6791 51.4139 84.6791 51.7383V51.9468C84.6791 52.2017 84.7138 52.4417 84.7833 52.6668C84.8562 52.8885 84.9604 53.0838 85.0961 53.2527C85.2352 53.4215 85.4023 53.5539 85.5976 53.6499C85.7962 53.7459 86.0213 53.7939 86.2729 53.7939C86.5973 53.7939 86.8721 53.7277 87.0971 53.5953C87.3222 53.4629 87.5192 53.2858 87.688 53.064L88.2441 53.5059C88.1283 53.6813 87.981 53.8485 87.8022 54.0074C87.6235 54.1663 87.4033 54.2954 87.1418 54.3947C86.8836 54.494 86.5775 54.5436 86.2233 54.5436ZM91.9532 49.0719V49.777H89.0485V49.0719H91.9532ZM90.0316 47.766H90.9502V53.1136C90.9502 53.2957 90.9783 53.4331 91.0346 53.5258C91.0909 53.6184 91.1637 53.6797 91.2531 53.7095C91.3425 53.7393 91.4385 53.7542 91.5411 53.7542C91.6172 53.7542 91.6967 53.7475 91.7794 53.7343C91.8655 53.7178 91.93 53.7045 91.9731 53.6946L91.978 54.4443C91.9052 54.4675 91.8092 54.489 91.69 54.5089C91.5742 54.5321 91.4335 54.5436 91.268 54.5436C91.0429 54.5436 90.836 54.499 90.6473 54.4096C90.4586 54.3202 90.308 54.1712 90.1955 53.9627C90.0862 53.7509 90.0316 53.4662 90.0316 53.1087V47.766ZM99.3167 53.0193C99.3167 52.8869 99.2869 52.7644 99.2273 52.6519C99.1711 52.536 99.0535 52.4317 98.8748 52.3391C98.6994 52.2431 98.4345 52.1603 98.0803 52.0908C97.7824 52.0279 97.5127 51.9534 97.271 51.8674C97.0327 51.7813 96.8291 51.677 96.6603 51.5545C96.4948 51.4321 96.3673 51.2881 96.278 51.1226C96.1886 50.9571 96.1439 50.7634 96.1439 50.5416C96.1439 50.3298 96.1902 50.1295 96.2829 49.9408C96.3789 49.7521 96.513 49.585 96.6851 49.4393C96.8605 49.2937 97.0707 49.1795 97.3157 49.0967C97.5606 49.014 97.8337 48.9726 98.135 48.9726C98.5653 48.9726 98.9327 49.0487 99.2373 49.201C99.5418 49.3533 99.7752 49.5568 99.9374 49.8117C100.1 50.0633 100.181 50.343 100.181 50.6509H99.2621C99.2621 50.5019 99.2174 50.3579 99.128 50.2189C99.042 50.0765 98.9145 49.959 98.7457 49.8663C98.5802 49.7737 98.3766 49.7273 98.135 49.7273C97.8801 49.7273 97.6732 49.767 97.5143 49.8465C97.3587 49.9226 97.2445 50.0203 97.1717 50.1394C97.1022 50.2586 97.0674 50.3844 97.0674 50.5168C97.0674 50.6161 97.084 50.7055 97.1171 50.7849C97.1535 50.8611 97.2164 50.9322 97.3058 50.9984C97.3951 51.0613 97.5209 51.1209 97.6831 51.1772C97.8453 51.2335 98.0522 51.2897 98.3038 51.346C98.744 51.4453 99.1065 51.5645 99.3912 51.7035C99.6759 51.8425 99.8877 52.013 100.027 52.2149C100.166 52.4168 100.235 52.6618 100.235 52.9498C100.235 53.1848 100.186 53.4 100.086 53.5953C99.9903 53.7906 99.8496 53.9594 99.6643 54.1017C99.4822 54.2408 99.2637 54.35 99.0089 54.4294C98.7573 54.5056 98.4743 54.5436 98.1598 54.5436C97.6864 54.5436 97.2859 54.4592 96.9582 54.2904C96.6305 54.1216 96.3822 53.9031 96.2134 53.635C96.0446 53.3669 95.9602 53.0838 95.9602 52.7859H96.8837C96.897 53.0375 96.9698 53.2378 97.1022 53.3867C97.2346 53.5324 97.3968 53.6367 97.5888 53.6995C97.7808 53.7591 97.9711 53.7889 98.1598 53.7889C98.4114 53.7889 98.6216 53.7558 98.7904 53.6896C98.9625 53.6234 99.0933 53.5324 99.1826 53.4165C99.272 53.3007 99.3167 53.1683 99.3167 53.0193ZM102.678 46.8177V54.4443H101.76V46.8177H102.678ZM102.46 51.5545L102.077 51.5396C102.081 51.1722 102.135 50.8329 102.241 50.5218C102.347 50.2073 102.496 49.9342 102.688 49.7025C102.88 49.4708 103.109 49.292 103.373 49.1662C103.641 49.0371 103.938 48.9726 104.262 48.9726C104.527 48.9726 104.765 49.009 104.977 49.0818C105.189 49.1513 105.369 49.2639 105.518 49.4195C105.671 49.5751 105.786 49.777 105.866 50.0252C105.945 50.2702 105.985 50.5698 105.985 50.924V54.4443H105.062V50.914C105.062 50.6327 105.02 50.4076 104.937 50.2387C104.855 50.0666 104.734 49.9425 104.575 49.8663C104.416 49.7869 104.221 49.7472 103.989 49.7472C103.761 49.7472 103.552 49.7952 103.363 49.8912C103.178 49.9872 103.017 50.1196 102.882 50.2884C102.749 50.4572 102.645 50.6509 102.569 50.8693C102.496 51.0845 102.46 51.3129 102.46 51.5545ZM110.846 53.5258V50.7601C110.846 50.5482 110.803 50.3645 110.717 50.209C110.634 50.0501 110.508 49.9276 110.34 49.8415C110.171 49.7555 109.962 49.7124 109.714 49.7124C109.482 49.7124 109.279 49.7521 109.103 49.8316C108.931 49.911 108.795 50.0153 108.696 50.1444C108.6 50.2735 108.552 50.4125 108.552 50.5615H107.634C107.634 50.3695 107.683 50.1792 107.783 49.9905C107.882 49.8018 108.024 49.6313 108.21 49.4791C108.398 49.3235 108.623 49.201 108.885 49.1116C109.15 49.0189 109.444 48.9726 109.769 48.9726C110.159 48.9726 110.503 49.0388 110.801 49.1712C111.103 49.3036 111.338 49.5039 111.506 49.772C111.679 50.0368 111.765 50.3695 111.765 50.77V53.2725C111.765 53.4513 111.78 53.6416 111.809 53.8435C111.842 54.0455 111.89 54.2192 111.953 54.3649V54.4443H110.995C110.949 54.3384 110.912 54.1977 110.886 54.0223C110.859 53.8435 110.846 53.678 110.846 53.5258ZM111.005 51.1871L111.015 51.8326H110.086C109.825 51.8326 109.592 51.8541 109.386 51.8971C109.181 51.9369 109.009 51.9981 108.87 52.0809C108.731 52.1636 108.625 52.2679 108.552 52.3937C108.479 52.5162 108.443 52.6601 108.443 52.8257C108.443 52.9945 108.481 53.1484 108.557 53.2874C108.633 53.4265 108.747 53.5373 108.9 53.6201C109.055 53.6995 109.246 53.7393 109.471 53.7393C109.752 53.7393 110 53.6797 110.215 53.5605C110.431 53.4413 110.601 53.2957 110.727 53.1236C110.856 52.9514 110.926 52.7843 110.935 52.6221L111.328 53.064C111.305 53.203 111.242 53.3569 111.139 53.5258C111.036 53.6946 110.899 53.8568 110.727 54.0124C110.558 54.1646 110.356 54.2921 110.121 54.3947C109.889 54.494 109.628 54.5436 109.337 54.5436C108.973 54.5436 108.653 54.4725 108.378 54.3301C108.107 54.1878 107.895 53.9975 107.743 53.7591C107.594 53.5175 107.519 53.2477 107.519 52.9498C107.519 52.6618 107.576 52.4086 107.688 52.1901C107.801 51.9683 107.963 51.7846 108.175 51.639C108.387 51.49 108.641 51.3774 108.939 51.3013C109.237 51.2252 109.57 51.1871 109.937 51.1871H111.005ZM114.446 49.916V54.4443H113.527V49.0719H114.421L114.446 49.916ZM116.124 49.0421L116.119 49.8961C116.043 49.8796 115.97 49.8697 115.901 49.8663C115.835 49.8597 115.758 49.8564 115.672 49.8564C115.46 49.8564 115.273 49.8895 115.111 49.9557C114.949 50.0219 114.812 50.1146 114.699 50.2338C114.587 50.3529 114.497 50.4953 114.431 50.6608C114.368 50.823 114.327 51.0017 114.307 51.197L114.049 51.346C114.049 51.0216 114.08 50.7171 114.143 50.4324C114.209 50.1477 114.31 49.8961 114.446 49.6777C114.582 49.4559 114.754 49.2838 114.962 49.1613C115.174 49.0355 115.426 48.9726 115.717 48.9726C115.783 48.9726 115.859 48.9809 115.945 48.9974C116.031 49.0107 116.091 49.0256 116.124 49.0421ZM119.421 54.5436C119.047 54.5436 118.708 54.4807 118.403 54.355C118.102 54.2259 117.842 54.0455 117.624 53.8137C117.409 53.582 117.243 53.3073 117.127 52.9895C117.011 52.6717 116.953 52.3242 116.953 51.9468V51.7383C116.953 51.3013 117.018 50.9124 117.147 50.5714C117.276 50.2272 117.452 49.9359 117.673 49.6975C117.895 49.4592 118.147 49.2788 118.428 49.1563C118.709 49.0338 119.001 48.9726 119.302 48.9726C119.686 48.9726 120.017 49.0388 120.295 49.1712C120.576 49.3036 120.806 49.489 120.985 49.7273C121.164 49.9623 121.296 50.2404 121.382 50.5615C121.468 50.8793 121.511 51.2268 121.511 51.6042V52.0163H117.5V51.2666H120.593V51.197C120.58 50.9587 120.53 50.727 120.444 50.5019C120.361 50.2768 120.229 50.0914 120.047 49.9458C119.865 49.8001 119.616 49.7273 119.302 49.7273C119.093 49.7273 118.901 49.772 118.726 49.8614C118.551 49.9474 118.4 50.0765 118.274 50.2487C118.148 50.4208 118.051 50.631 117.981 50.8793C117.912 51.1275 117.877 51.4139 117.877 51.7383V51.9468C117.877 52.2017 117.912 52.4417 117.981 52.6668C118.054 52.8885 118.158 53.0838 118.294 53.2527C118.433 53.4215 118.6 53.5539 118.795 53.6499C118.994 53.7459 119.219 53.7939 119.471 53.7939C119.795 53.7939 120.07 53.7277 120.295 53.5953C120.52 53.4629 120.717 53.2858 120.886 53.064L121.442 53.5059C121.326 53.6813 121.179 53.8485 121 54.0074C120.821 54.1663 120.601 54.2954 120.34 54.3947C120.081 54.494 119.775 54.5436 119.421 54.5436ZM126.03 53.0193C126.03 52.8869 126 52.7644 125.941 52.6519C125.884 52.536 125.767 52.4317 125.588 52.3391C125.413 52.2431 125.148 52.1603 124.794 52.0908C124.496 52.0279 124.226 51.9534 123.984 51.8674C123.746 51.7813 123.542 51.677 123.373 51.5545C123.208 51.4321 123.081 51.2881 122.991 51.1226C122.902 50.9571 122.857 50.7634 122.857 50.5416C122.857 50.3298 122.903 50.1295 122.996 49.9408C123.092 49.7521 123.226 49.585 123.398 49.4393C123.574 49.2937 123.784 49.1795 124.029 49.0967C124.274 49.014 124.547 48.9726 124.848 48.9726C125.278 48.9726 125.646 49.0487 125.95 49.201C126.255 49.3533 126.488 49.5568 126.651 49.8117C126.813 50.0633 126.894 50.343 126.894 50.6509H125.975C125.975 50.5019 125.931 50.3579 125.841 50.2189C125.755 50.0765 125.628 49.959 125.459 49.8663C125.293 49.7737 125.09 49.7273 124.848 49.7273C124.593 49.7273 124.386 49.767 124.228 49.8465C124.072 49.9226 123.958 50.0203 123.885 50.1394C123.815 50.2586 123.781 50.3844 123.781 50.5168C123.781 50.6161 123.797 50.7055 123.83 50.7849C123.867 50.8611 123.93 50.9322 124.019 50.9984C124.108 51.0613 124.234 51.1209 124.396 51.1772C124.559 51.2335 124.765 51.2897 125.017 51.346C125.457 51.4453 125.82 51.5645 126.104 51.7035C126.389 51.8425 126.601 52.013 126.74 52.2149C126.879 52.4168 126.948 52.6618 126.948 52.9498C126.948 53.1848 126.899 53.4 126.8 53.5953C126.704 53.7906 126.563 53.9594 126.377 54.1017C126.195 54.2408 125.977 54.35 125.722 54.4294C125.47 54.5056 125.187 54.5436 124.873 54.5436C124.4 54.5436 123.999 54.4592 123.671 54.2904C123.344 54.1216 123.095 53.9031 122.927 53.635C122.758 53.3669 122.673 53.0838 122.673 52.7859H123.597C123.61 53.0375 123.683 53.2378 123.815 53.3867C123.948 53.5324 124.11 53.6367 124.302 53.6995C124.494 53.7591 124.684 53.7889 124.873 53.7889C125.125 53.7889 125.335 53.7558 125.504 53.6896C125.676 53.6234 125.806 53.5324 125.896 53.4165C125.985 53.3007 126.03 53.1683 126.03 53.0193ZM134.481 53.5258V50.7601C134.481 50.5482 134.438 50.3645 134.352 50.209C134.269 50.0501 134.143 49.9276 133.974 49.8415C133.806 49.7555 133.597 49.7124 133.349 49.7124C133.117 49.7124 132.913 49.7521 132.738 49.8316C132.566 49.911 132.43 50.0153 132.331 50.1444C132.235 50.2735 132.187 50.4125 132.187 50.5615H131.268C131.268 50.3695 131.318 50.1792 131.417 49.9905C131.517 49.8018 131.659 49.6313 131.844 49.4791C132.033 49.3235 132.258 49.201 132.52 49.1116C132.784 49.0189 133.079 48.9726 133.403 48.9726C133.794 48.9726 134.138 49.0388 134.436 49.1712C134.737 49.3036 134.972 49.5039 135.141 49.772C135.313 50.0368 135.399 50.3695 135.399 50.77V53.2725C135.399 53.4513 135.414 53.6416 135.444 53.8435C135.477 54.0455 135.525 54.2192 135.588 54.3649V54.4443H134.63C134.583 54.3384 134.547 54.1977 134.521 54.0223C134.494 53.8435 134.481 53.678 134.481 53.5258ZM134.64 51.1871L134.65 51.8326H133.721C133.46 51.8326 133.226 51.8541 133.021 51.8971C132.816 51.9369 132.644 51.9981 132.505 52.0809C132.366 52.1636 132.26 52.2679 132.187 52.3937C132.114 52.5162 132.078 52.6601 132.078 52.8257C132.078 52.9945 132.116 53.1484 132.192 53.2874C132.268 53.4265 132.382 53.5373 132.534 53.6201C132.69 53.6995 132.88 53.7393 133.105 53.7393C133.387 53.7393 133.635 53.6797 133.85 53.5605C134.065 53.4413 134.236 53.2957 134.362 53.1236C134.491 52.9514 134.56 52.7843 134.57 52.6221L134.962 53.064C134.939 53.203 134.876 53.3569 134.774 53.5258C134.671 53.6946 134.534 53.8568 134.362 54.0124C134.193 54.1646 133.991 54.2921 133.756 54.3947C133.524 54.494 133.263 54.5436 132.971 54.5436C132.607 54.5436 132.288 54.4725 132.013 54.3301C131.742 54.1878 131.53 53.9975 131.377 53.7591C131.229 53.5175 131.154 53.2477 131.154 52.9498C131.154 52.6618 131.21 52.4086 131.323 52.1901C131.435 51.9683 131.598 51.7846 131.809 51.639C132.021 51.49 132.276 51.3774 132.574 51.3013C132.872 51.2252 133.205 51.1871 133.572 51.1871H134.64ZM139.411 49.0719V49.777H136.507V49.0719H139.411ZM137.49 47.766H138.408V53.1136C138.408 53.2957 138.436 53.4331 138.493 53.5258C138.549 53.6184 138.622 53.6797 138.711 53.7095C138.801 53.7393 138.897 53.7542 138.999 53.7542C139.075 53.7542 139.155 53.7475 139.238 53.7343C139.324 53.7178 139.388 53.7045 139.431 53.6946L139.436 54.4443C139.363 54.4675 139.267 54.489 139.148 54.5089C139.032 54.5321 138.892 54.5436 138.726 54.5436C138.501 54.5436 138.294 54.499 138.105 54.4096C137.917 54.3202 137.766 54.1712 137.654 53.9627C137.544 53.7509 137.49 53.4662 137.49 53.1087V47.766ZM146.815 53.5258V50.7601C146.815 50.5482 146.772 50.3645 146.685 50.209C146.603 50.0501 146.477 49.9276 146.308 49.8415C146.139 49.7555 145.931 49.7124 145.682 49.7124C145.451 49.7124 145.247 49.7521 145.072 49.8316C144.9 49.911 144.764 50.0153 144.665 50.1444C144.569 50.2735 144.521 50.4125 144.521 50.5615H143.602C143.602 50.3695 143.652 50.1792 143.751 49.9905C143.85 49.8018 143.993 49.6313 144.178 49.4791C144.367 49.3235 144.592 49.201 144.853 49.1116C145.118 49.0189 145.413 48.9726 145.737 48.9726C146.128 48.9726 146.472 49.0388 146.77 49.1712C147.071 49.3036 147.306 49.5039 147.475 49.772C147.647 50.0368 147.733 50.3695 147.733 50.77V53.2725C147.733 53.4513 147.748 53.6416 147.778 53.8435C147.811 54.0455 147.859 54.2192 147.922 54.3649V54.4443H146.964C146.917 54.3384 146.881 54.1977 146.854 54.0223C146.828 53.8435 146.815 53.678 146.815 53.5258ZM146.973 51.1871L146.983 51.8326H146.055C145.793 51.8326 145.56 51.8541 145.355 51.8971C145.15 51.9369 144.977 51.9981 144.838 52.0809C144.699 52.1636 144.593 52.2679 144.521 52.3937C144.448 52.5162 144.411 52.6601 144.411 52.8257C144.411 52.9945 144.449 53.1484 144.526 53.2874C144.602 53.4265 144.716 53.5373 144.868 53.6201C145.024 53.6995 145.214 53.7393 145.439 53.7393C145.721 53.7393 145.969 53.6797 146.184 53.5605C146.399 53.4413 146.57 53.2957 146.695 53.1236C146.824 52.9514 146.894 52.7843 146.904 52.6221L147.296 53.064C147.273 53.203 147.21 53.3569 147.107 53.5258C147.005 53.6946 146.868 53.8568 146.695 54.0124C146.527 54.1646 146.325 54.2921 146.09 54.3947C145.858 54.494 145.596 54.5436 145.305 54.5436C144.941 54.5436 144.622 54.4725 144.347 54.3301C144.075 54.1878 143.864 53.9975 143.711 53.7591C143.562 53.5175 143.488 53.2477 143.488 52.9498C143.488 52.6618 143.544 52.4086 143.657 52.1901C143.769 51.9683 143.931 51.7846 144.143 51.639C144.355 51.49 144.61 51.3774 144.908 51.3013C145.206 51.2252 145.538 51.1871 145.906 51.1871H146.973ZM155.464 53.0193C155.464 52.8869 155.434 52.7644 155.375 52.6519C155.318 52.536 155.201 52.4317 155.022 52.3391C154.847 52.2431 154.582 52.1603 154.228 52.0908C153.93 52.0279 153.66 51.9534 153.418 51.8674C153.18 51.7813 152.976 51.677 152.808 51.5545C152.642 51.4321 152.515 51.2881 152.425 51.1226C152.336 50.9571 152.291 50.7634 152.291 50.5416C152.291 50.3298 152.338 50.1295 152.43 49.9408C152.526 49.7521 152.66 49.585 152.832 49.4393C153.008 49.2937 153.218 49.1795 153.463 49.0967C153.708 49.014 153.981 48.9726 154.282 48.9726C154.713 48.9726 155.08 49.0487 155.385 49.201C155.689 49.3533 155.923 49.5568 156.085 49.8117C156.247 50.0633 156.328 50.343 156.328 50.6509H155.409C155.409 50.5019 155.365 50.3579 155.275 50.2189C155.189 50.0765 155.062 49.959 154.893 49.8663C154.728 49.7737 154.524 49.7273 154.282 49.7273C154.027 49.7273 153.821 49.767 153.662 49.8465C153.506 49.9226 153.392 50.0203 153.319 50.1394C153.25 50.2586 153.215 50.3844 153.215 50.5168C153.215 50.6161 153.231 50.7055 153.264 50.7849C153.301 50.8611 153.364 50.9322 153.453 50.9984C153.543 51.0613 153.668 51.1209 153.83 51.1772C153.993 51.2335 154.2 51.2897 154.451 51.346C154.891 51.4453 155.254 51.5645 155.539 51.7035C155.823 51.8425 156.035 52.013 156.174 52.2149C156.313 52.4168 156.383 52.6618 156.383 52.9498C156.383 53.1848 156.333 53.4 156.234 53.5953C156.138 53.7906 155.997 53.9594 155.812 54.1017C155.63 54.2408 155.411 54.35 155.156 54.4294C154.905 54.5056 154.622 54.5436 154.307 54.5436C153.834 54.5436 153.433 54.4592 153.106 54.2904C152.778 54.1216 152.53 53.9031 152.361 53.635C152.192 53.3669 152.108 53.0838 152.108 52.7859H153.031C153.044 53.0375 153.117 53.2378 153.25 53.3867C153.382 53.5324 153.544 53.6367 153.736 53.6995C153.928 53.7591 154.118 53.7889 154.307 53.7889C154.559 53.7889 154.769 53.7558 154.938 53.6896C155.11 53.6234 155.241 53.5324 155.33 53.4165C155.419 53.3007 155.464 53.1683 155.464 53.0193ZM158.826 50.1047V56.5099H157.902V49.0719H158.746L158.826 50.1047ZM162.445 51.7134V51.8177C162.445 52.2083 162.399 52.5708 162.306 52.9051C162.214 53.2361 162.078 53.5241 161.899 53.7691C161.724 54.014 161.507 54.2043 161.249 54.3401C160.99 54.4758 160.694 54.5436 160.36 54.5436C160.019 54.5436 159.718 54.4874 159.456 54.3748C159.195 54.2623 158.973 54.0984 158.791 53.8833C158.609 53.6681 158.463 53.4099 158.354 53.1087C158.248 52.8074 158.175 52.4682 158.135 52.0908V51.5347C158.175 51.1375 158.25 50.7816 158.359 50.4671C158.468 50.1527 158.612 49.8846 158.791 49.6628C158.973 49.4377 159.193 49.2672 159.451 49.1513C159.709 49.0322 160.007 48.9726 160.345 48.9726C160.683 48.9726 160.982 49.0388 161.244 49.1712C161.505 49.3003 161.725 49.4857 161.904 49.7273C162.083 49.969 162.217 50.2586 162.306 50.5962C162.399 50.9306 162.445 51.303 162.445 51.7134ZM161.522 51.8177V51.7134C161.522 51.4453 161.494 51.1937 161.437 50.9587C161.381 50.7204 161.293 50.5118 161.174 50.3331C161.058 50.151 160.909 50.0087 160.727 49.9061C160.545 49.8001 160.328 49.7472 160.077 49.7472C159.845 49.7472 159.643 49.7869 159.471 49.8663C159.302 49.9458 159.158 50.0534 159.039 50.1891C158.92 50.3215 158.822 50.4738 158.746 50.6459C158.673 50.8147 158.619 50.9902 158.582 51.1722V52.4582C158.648 52.6899 158.741 52.9084 158.86 53.1136C158.979 53.3156 159.138 53.4794 159.337 53.6052C159.536 53.7277 159.786 53.7889 160.087 53.7889C160.335 53.7889 160.549 53.7376 160.727 53.635C160.909 53.5291 161.058 53.3851 161.174 53.203C161.293 53.021 161.381 52.8124 161.437 52.5774C161.494 52.3391 161.522 52.0858 161.522 51.8177ZM166.164 54.5436C165.79 54.5436 165.451 54.4807 165.146 54.355C164.845 54.2259 164.585 54.0455 164.367 53.8137C164.152 53.582 163.986 53.3073 163.87 52.9895C163.754 52.6717 163.696 52.3242 163.696 51.9468V51.7383C163.696 51.3013 163.761 50.9124 163.89 50.5714C164.019 50.2272 164.195 49.9359 164.416 49.6975C164.638 49.4592 164.89 49.2788 165.171 49.1563C165.453 49.0338 165.744 48.9726 166.045 48.9726C166.429 48.9726 166.76 49.0388 167.038 49.1712C167.319 49.3036 167.55 49.489 167.728 49.7273C167.907 49.9623 168.039 50.2404 168.126 50.5615C168.212 50.8793 168.255 51.2268 168.255 51.6042V52.0163H164.243V51.2666H167.336V51.197C167.323 50.9587 167.273 50.727 167.187 50.5019C167.104 50.2768 166.972 50.0914 166.79 49.9458C166.608 49.8001 166.36 49.7273 166.045 49.7273C165.837 49.7273 165.645 49.772 165.469 49.8614C165.294 49.9474 165.143 50.0765 165.017 50.2487C164.891 50.4208 164.794 50.631 164.724 50.8793C164.655 51.1275 164.62 51.4139 164.62 51.7383V51.9468C164.62 52.2017 164.655 52.4417 164.724 52.6668C164.797 52.8885 164.901 53.0838 165.037 53.2527C165.176 53.4215 165.343 53.5539 165.539 53.6499C165.737 53.7459 165.962 53.7939 166.214 53.7939C166.538 53.7939 166.813 53.7277 167.038 53.5953C167.263 53.4629 167.46 53.2858 167.629 53.064L168.185 53.5059C168.069 53.6813 167.922 53.8485 167.743 54.0074C167.564 54.1663 167.344 54.2954 167.083 54.3947C166.825 54.494 166.518 54.5436 166.164 54.5436ZM171.795 53.7889C172.013 53.7889 172.215 53.7442 172.401 53.6549C172.586 53.5655 172.738 53.443 172.857 53.2874C172.977 53.1285 173.044 52.9481 173.061 52.7462H173.935C173.918 53.064 173.811 53.3603 173.612 53.635C173.417 53.9064 173.16 54.1266 172.843 54.2954C172.525 54.4609 172.176 54.5436 171.795 54.5436C171.391 54.5436 171.038 54.4725 170.737 54.3301C170.439 54.1878 170.191 53.9925 169.992 53.7442C169.797 53.496 169.65 53.2113 169.551 52.8902C169.455 52.5658 169.407 52.2232 169.407 51.8624V51.6538C169.407 51.293 169.455 50.9521 169.551 50.631C169.65 50.3066 169.797 50.0203 169.992 49.772C170.191 49.5237 170.439 49.3284 170.737 49.1861C171.038 49.0438 171.391 48.9726 171.795 48.9726C172.215 48.9726 172.583 49.0587 172.897 49.2308C173.212 49.3996 173.458 49.6313 173.637 49.9259C173.819 50.2172 173.918 50.5482 173.935 50.919H173.061C173.044 50.6972 172.982 50.4969 172.872 50.3182C172.766 50.1394 172.621 49.9971 172.435 49.8912C172.253 49.7819 172.04 49.7273 171.795 49.7273C171.513 49.7273 171.277 49.7836 171.085 49.8961C170.896 50.0054 170.746 50.1543 170.633 50.343C170.524 50.5284 170.444 50.7353 170.395 50.9637C170.348 51.1888 170.325 51.4188 170.325 51.6538V51.8624C170.325 52.0974 170.348 52.3291 170.395 52.5575C170.441 52.7859 170.519 52.9928 170.628 53.1782C170.741 53.3636 170.891 53.5125 171.08 53.6251C171.272 53.7343 171.51 53.7889 171.795 53.7889ZM176.283 49.0719V54.4443H175.36V49.0719H176.283ZM175.29 47.6469C175.29 47.4979 175.335 47.3721 175.424 47.2695C175.517 47.1669 175.653 47.1156 175.832 47.1156C176.007 47.1156 176.141 47.1669 176.234 47.2695C176.33 47.3721 176.378 47.4979 176.378 47.6469C176.378 47.7892 176.33 47.9117 176.234 48.0143C176.141 48.1136 176.007 48.1633 175.832 48.1633C175.653 48.1633 175.517 48.1136 175.424 48.0143C175.335 47.9117 175.29 47.7892 175.29 47.6469ZM179.302 54.4443H178.384V48.6052C178.384 48.198 178.463 47.8538 178.622 47.5724C178.781 47.291 179.008 47.0775 179.302 46.9319C179.597 46.7862 179.946 46.7134 180.35 46.7134C180.588 46.7134 180.822 46.7432 181.05 46.8028C181.279 46.859 181.514 46.9302 181.755 47.0163L181.601 47.7909C181.449 47.7313 181.272 47.675 181.07 47.622C180.871 47.5658 180.653 47.5376 180.415 47.5376C180.021 47.5376 179.736 47.627 179.561 47.8058C179.388 47.9812 179.302 48.2477 179.302 48.6052V54.4443ZM180.4 49.0719V49.777H177.535V49.0719H180.4ZM182.207 49.0719V54.4443H181.288V49.0719H182.207ZM186.184 53.7889C186.403 53.7889 186.605 53.7442 186.79 53.6549C186.975 53.5655 187.128 53.443 187.247 53.2874C187.366 53.1285 187.434 52.9481 187.45 52.7462H188.324C188.308 53.064 188.2 53.3603 188.002 53.635C187.806 53.9064 187.55 54.1266 187.232 54.2954C186.914 54.4609 186.565 54.5436 186.184 54.5436C185.78 54.5436 185.428 54.4725 185.127 54.3301C184.829 54.1878 184.58 53.9925 184.382 53.7442C184.187 53.496 184.039 53.2113 183.94 52.8902C183.844 52.5658 183.796 52.2232 183.796 51.8624V51.6538C183.796 51.293 183.844 50.9521 183.94 50.631C184.039 50.3066 184.187 50.0203 184.382 49.772C184.58 49.5237 184.829 49.3284 185.127 49.1861C185.428 49.0438 185.78 48.9726 186.184 48.9726C186.605 48.9726 186.972 49.0587 187.287 49.2308C187.601 49.3996 187.848 49.6313 188.026 49.9259C188.208 50.2172 188.308 50.5482 188.324 50.919H187.45C187.434 50.6972 187.371 50.4969 187.262 50.3182C187.156 50.1394 187.01 49.9971 186.825 49.8912C186.643 49.7819 186.429 49.7273 186.184 49.7273C185.903 49.7273 185.666 49.7836 185.474 49.8961C185.286 50.0054 185.135 50.1543 185.022 50.343C184.913 50.5284 184.834 50.7353 184.784 50.9637C184.738 51.1888 184.715 51.4188 184.715 51.6538V51.8624C184.715 52.0974 184.738 52.3291 184.784 52.5575C184.83 52.7859 184.908 52.9928 185.017 53.1782C185.13 53.3636 185.281 53.5125 185.469 53.6251C185.661 53.7343 185.9 53.7889 186.184 53.7889ZM18.8494 67.491L20.2298 63.0719H20.8355L20.7164 63.9508L19.3112 68.4443H18.7203L18.8494 67.491ZM17.9209 63.0719L19.0977 67.5407L19.1821 68.4443H18.5614L17.0023 63.0719H17.9209ZM22.1563 67.5059L23.2784 63.0719H24.192L22.633 68.4443H22.0173L22.1563 67.5059ZM20.9696 63.0719L22.3201 67.4165L22.4741 68.4443H21.8882L20.4433 63.9408L20.3241 63.0719H20.9696ZM27.6826 68.5436C27.3086 68.5436 26.9693 68.4807 26.6648 68.355C26.3635 68.2259 26.1037 68.0455 25.8852 67.8137C25.67 67.582 25.5045 67.3073 25.3887 66.9895C25.2728 66.6717 25.2149 66.3242 25.2149 65.9468V65.7383C25.2149 65.3013 25.2794 64.9124 25.4085 64.5714C25.5376 64.2272 25.7131 63.9359 25.9349 63.6975C26.1566 63.4592 26.4082 63.2788 26.6896 63.1563C26.9709 63.0338 27.2622 62.9726 27.5635 62.9726C27.9475 62.9726 28.2785 63.0388 28.5565 63.1712C28.8379 63.3036 29.068 63.489 29.2467 63.7273C29.4255 63.9623 29.5579 64.2404 29.6439 64.5615C29.73 64.8793 29.773 65.2268 29.773 65.6042V66.0163H25.7611V65.2666H28.8544V65.197C28.8412 64.9587 28.7915 64.727 28.7055 64.5019C28.6227 64.2768 28.4903 64.0914 28.3083 63.9458C28.1262 63.8001 27.8779 63.7273 27.5635 63.7273C27.3549 63.7273 27.1629 63.772 26.9875 63.8614C26.8121 63.9474 26.6614 64.0765 26.5357 64.2487C26.4099 64.4208 26.3122 64.631 26.2427 64.8793C26.1732 65.1275 26.1384 65.4139 26.1384 65.7383V65.9468C26.1384 66.2017 26.1732 66.4417 26.2427 66.6668C26.3155 66.8885 26.4198 67.0838 26.5555 67.2527C26.6945 67.4215 26.8617 67.5539 27.057 67.6499C27.2556 67.7459 27.4807 67.7939 27.7323 67.7939C28.0567 67.7939 28.3314 67.7277 28.5565 67.5953C28.7816 67.4629 28.9786 67.2858 29.1474 67.064L29.7035 67.5059C29.5876 67.6813 29.4403 67.8485 29.2616 68.0074C29.0828 68.1663 28.8627 68.2954 28.6012 68.3947C28.343 68.494 28.0368 68.5436 27.6826 68.5436ZM31.1583 60.8177H32.0819V67.4016L32.0024 68.4443H31.1583V60.8177ZM35.7115 65.7134V65.8177C35.7115 66.2083 35.6651 66.5708 35.5725 66.9051C35.4798 67.2361 35.3441 67.5241 35.1653 67.7691C34.9866 68.014 34.7681 68.2043 34.5099 68.3401C34.2517 68.4758 33.9554 68.5436 33.6211 68.5436C33.2802 68.5436 32.9806 68.4857 32.7224 68.3699C32.4675 68.2507 32.2523 68.0802 32.0769 67.8584C31.9015 67.6367 31.7608 67.3685 31.6549 67.0541C31.5522 66.7396 31.4811 66.3854 31.4414 65.9915V65.5347C31.4811 65.1375 31.5522 64.7816 31.6549 64.4671C31.7608 64.1527 31.9015 63.8846 32.0769 63.6628C32.2523 63.4377 32.4675 63.2672 32.7224 63.1513C32.9773 63.0322 33.2735 62.9726 33.6112 62.9726C33.9488 62.9726 34.2484 63.0388 34.5099 63.1712C34.7714 63.3003 34.9899 63.4857 35.1653 63.7273C35.3441 63.969 35.4798 64.2586 35.5725 64.5962C35.6651 64.9306 35.7115 65.303 35.7115 65.7134ZM34.7879 65.8177V65.7134C34.7879 65.4453 34.7631 65.1937 34.7135 64.9587C34.6638 64.7204 34.5844 64.5118 34.4751 64.3331C34.3659 64.151 34.2219 64.0087 34.0432 63.9061C33.8644 63.8001 33.6443 63.7472 33.3828 63.7472C33.1511 63.7472 32.9491 63.7869 32.777 63.8663C32.6082 63.9458 32.4642 64.0534 32.345 64.1891C32.2259 64.3215 32.1282 64.4738 32.0521 64.6459C31.9793 64.8147 31.9246 64.9902 31.8882 65.1722V66.3688C31.9412 66.6006 32.0273 66.824 32.1464 67.0392C32.2689 67.251 32.4311 67.4248 32.633 67.5605C32.8383 67.6962 33.0915 67.7641 33.3927 67.7641C33.641 67.7641 33.8528 67.7144 34.0283 67.6151C34.207 67.5125 34.351 67.3718 34.4602 67.1931C34.5728 67.0143 34.6555 66.8074 34.7085 66.5724C34.7615 66.3374 34.7879 66.0858 34.7879 65.8177ZM40.3193 67.0193C40.3193 66.8869 40.2895 66.7644 40.2299 66.6519C40.1736 66.536 40.0561 66.4317 39.8774 66.3391C39.7019 66.2431 39.4371 66.1603 39.0829 66.0908C38.785 66.0279 38.5152 65.9534 38.2736 65.8674C38.0352 65.7813 37.8317 65.677 37.6628 65.5545C37.4973 65.4321 37.3699 65.2881 37.2805 65.1226C37.1911 64.9571 37.1465 64.7634 37.1465 64.5416C37.1465 64.3298 37.1928 64.1295 37.2855 63.9408C37.3815 63.7521 37.5155 63.585 37.6877 63.4393C37.8631 63.2937 38.0733 63.1795 38.3183 63.0967C38.5632 63.014 38.8363 62.9726 39.1375 62.9726C39.5679 62.9726 39.9353 63.0487 40.2398 63.201C40.5444 63.3533 40.7777 63.5568 40.9399 63.8117C41.1021 64.0633 41.1832 64.343 41.1832 64.6509H40.2647C40.2647 64.5019 40.22 64.3579 40.1306 64.2189C40.0445 64.0765 39.9171 63.959 39.7483 63.8663C39.5828 63.7737 39.3792 63.7273 39.1375 63.7273C38.8827 63.7273 38.6758 63.767 38.5169 63.8465C38.3613 63.9226 38.2471 64.0203 38.1743 64.1394C38.1048 64.2586 38.07 64.3844 38.07 64.5168C38.07 64.6161 38.0866 64.7055 38.1197 64.7849C38.1561 64.8611 38.219 64.9322 38.3083 64.9984C38.3977 65.0613 38.5235 65.1209 38.6857 65.1772C38.8479 65.2335 39.0548 65.2897 39.3064 65.346C39.7466 65.4453 40.1091 65.5645 40.3937 65.7035C40.6784 65.8425 40.8903 66.013 41.0293 66.2149C41.1683 66.4168 41.2378 66.6618 41.2378 66.9498C41.2378 67.1848 41.1882 67.4 41.0889 67.5953C40.9929 67.7906 40.8522 67.9594 40.6668 68.1017C40.4848 68.2408 40.2663 68.35 40.0114 68.4294C39.7598 68.5056 39.4768 68.5436 39.1624 68.5436C38.689 68.5436 38.2885 68.4592 37.9608 68.2904C37.6331 68.1216 37.3848 67.9031 37.216 67.635C37.0472 67.3669 36.9627 67.0838 36.9627 66.7859H37.8863C37.8995 67.0375 37.9723 67.2378 38.1048 67.3867C38.2372 67.5324 38.3994 67.6367 38.5914 67.6995C38.7833 67.7591 38.9737 67.7889 39.1624 67.7889C39.4139 67.7889 39.6241 67.7558 39.793 67.6896C39.9651 67.6234 40.0958 67.5324 40.1852 67.4165C40.2746 67.3007 40.3193 67.1683 40.3193 67.0193ZM43.7602 63.0719V68.4443H42.8367V63.0719H43.7602ZM42.7672 61.6469C42.7672 61.4979 42.8118 61.3721 42.9012 61.2695C42.9939 61.1669 43.1296 61.1156 43.3084 61.1156C43.4838 61.1156 43.6179 61.1669 43.7106 61.2695C43.8065 61.3721 43.8545 61.4979 43.8545 61.6469C43.8545 61.7892 43.8065 61.9117 43.7106 62.0143C43.6179 62.1136 43.4838 62.1633 43.3084 62.1633C43.1296 62.1633 42.9939 62.1136 42.9012 62.0143C42.8118 61.9117 42.7672 61.7892 42.7672 61.6469ZM47.8019 63.0719V63.777H44.8973V63.0719H47.8019ZM45.8804 61.766H46.799V67.1136C46.799 67.2957 46.8271 67.4331 46.8834 67.5258C46.9396 67.6184 47.0125 67.6797 47.1018 67.7095C47.1912 67.7393 47.2872 67.7542 47.3898 67.7542C47.466 67.7542 47.5454 67.7475 47.6282 67.7343C47.7142 67.7178 47.7788 67.7045 47.8218 67.6946L47.8268 68.4443C47.7539 68.4675 47.658 68.489 47.5388 68.5089C47.4229 68.5321 47.2822 68.5436 47.1167 68.5436C46.8916 68.5436 46.6848 68.499 46.4961 68.4096C46.3074 68.3202 46.1568 68.1712 46.0442 67.9627C45.935 67.7509 45.8804 67.4662 45.8804 67.1087V61.766ZM51.4266 68.5436C51.0525 68.5436 50.7133 68.4807 50.4087 68.355C50.1075 68.2259 49.8476 68.0455 49.6292 67.8137C49.414 67.582 49.2485 67.3073 49.1326 66.9895C49.0168 66.6717 48.9589 66.3242 48.9589 65.9468V65.7383C48.9589 65.3013 49.0234 64.9124 49.1525 64.5714C49.2816 64.2272 49.457 63.9359 49.6788 63.6975C49.9006 63.4592 50.1522 63.2788 50.4335 63.1563C50.7149 63.0338 51.0062 62.9726 51.3074 62.9726C51.6914 62.9726 52.0224 63.0388 52.3005 63.1712C52.5819 63.3036 52.8119 63.489 52.9907 63.7273C53.1694 63.9623 53.3018 64.2404 53.3879 64.5615C53.4739 64.8793 53.517 65.2268 53.517 65.6042V66.0163H49.505V65.2666H52.5984V65.197C52.5852 64.9587 52.5355 64.727 52.4494 64.5019C52.3667 64.2768 52.2343 64.0914 52.0522 63.9458C51.8702 63.8001 51.6219 63.7273 51.3074 63.7273C51.0989 63.7273 50.9069 63.772 50.7315 63.8614C50.556 63.9474 50.4054 64.0765 50.2796 64.2487C50.1538 64.4208 50.0562 64.631 49.9867 64.8793C49.9172 65.1275 49.8824 65.4139 49.8824 65.7383V65.9468C49.8824 66.2017 49.9172 66.4417 49.9867 66.6668C50.0595 66.8885 50.1638 67.0838 50.2995 67.2527C50.4385 67.4215 50.6057 67.5539 50.801 67.6499C50.9996 67.7459 51.2247 67.7939 51.4762 67.7939C51.8006 67.7939 52.0754 67.7277 52.3005 67.5953C52.5256 67.4629 52.7225 67.2858 52.8914 67.064L53.4475 67.5059C53.3316 67.6813 53.1843 67.8485 53.0056 68.0074C52.8268 68.1663 52.6067 68.2954 52.3452 68.3947C52.087 68.494 51.7808 68.5436 51.4266 68.5436ZM55.7414 67.352V68.0918C55.7414 68.393 55.6653 68.7108 55.513 69.0451C55.3608 69.3828 55.1472 69.6641 54.8725 69.8892L54.3511 69.5268C54.4571 69.3811 54.5464 69.2322 54.6193 69.0799C54.6921 68.9309 54.7467 68.7754 54.7831 68.6132C54.8228 68.4543 54.8427 68.2854 54.8427 68.1067V67.352H55.7414ZM64.7087 67.6896V68.4443H59.9768V67.784L62.3452 65.1474C62.6365 64.823 62.8616 64.5482 63.0205 64.3232C63.1827 64.0948 63.2953 63.8912 63.3582 63.7124C63.4244 63.5304 63.4575 63.345 63.4575 63.1563C63.4575 62.918 63.4078 62.7028 63.3085 62.5108C63.2125 62.3155 63.0702 62.1599 62.8815 62.0441C62.6928 61.9282 62.4644 61.8703 62.1963 61.8703C61.8752 61.8703 61.6071 61.9332 61.3919 62.059C61.1801 62.1815 61.0212 62.3536 60.9152 62.5754C60.8093 62.7972 60.7564 63.052 60.7564 63.34H59.8378C59.8378 62.9329 59.9272 62.5605 60.1059 62.2228C60.2847 61.8852 60.5495 61.6171 60.9003 61.4185C61.2512 61.2165 61.6832 61.1156 62.1963 61.1156C62.6531 61.1156 63.0437 61.1967 63.3681 61.3589C63.6925 61.5178 63.9408 61.7429 64.1129 62.0342C64.2883 62.3221 64.376 62.6598 64.376 63.0471C64.376 63.2589 64.3396 63.4741 64.2668 63.6926C64.1973 63.9077 64.0996 64.1229 63.9739 64.3381C63.8514 64.5532 63.7074 64.7651 63.5419 64.9736C63.3797 65.1821 63.2059 65.3874 63.0205 65.5893L61.0841 67.6896H64.7087ZM70.5479 64.2536V65.3559C70.5479 65.9485 70.4949 66.4483 70.389 66.8554C70.2831 67.2626 70.1308 67.5903 69.9322 67.8386C69.7336 68.0868 69.4936 68.2672 69.2122 68.3798C68.9342 68.489 68.6197 68.5436 68.2688 68.5436C67.9908 68.5436 67.7342 68.5089 67.4992 68.4394C67.2642 68.3699 67.0523 68.259 66.8636 68.1067C66.6783 67.9511 66.5194 67.7492 66.387 67.5009C66.2546 67.2527 66.1536 66.9514 66.0841 66.5973C66.0146 66.2431 65.9798 65.8293 65.9798 65.3559V64.2536C65.9798 63.6611 66.0328 63.1646 66.1387 62.7641C66.2479 62.3635 66.4019 62.0424 66.6005 61.8008C66.7991 61.5558 67.0374 61.3804 67.3155 61.2745C67.5968 61.1685 67.9113 61.1156 68.2589 61.1156C68.5403 61.1156 68.7984 61.1503 69.0335 61.2199C69.2718 61.2861 69.4837 61.3936 69.669 61.5426C69.8544 61.6882 70.0116 61.8835 70.1407 62.1285C70.2731 62.3701 70.3741 62.6664 70.4436 63.0173C70.5131 63.3682 70.5479 63.7803 70.5479 64.2536ZM69.6243 65.5049V64.0997C69.6243 63.7753 69.6045 63.4906 69.5648 63.2457C69.5283 62.9974 69.4737 62.7856 69.4009 62.6101C69.3281 62.4347 69.2354 62.2924 69.1228 62.1831C69.0136 62.0739 68.8862 61.9944 68.7405 61.9448C68.5982 61.8918 68.4376 61.8653 68.2589 61.8653C68.0404 61.8653 67.8468 61.9067 67.6779 61.9895C67.5091 62.0689 67.3668 62.1964 67.2509 62.3718C67.1384 62.5472 67.0523 62.7773 66.9927 63.062C66.9332 63.3467 66.9034 63.6926 66.9034 64.0997V65.5049C66.9034 65.8293 66.9216 66.1156 66.958 66.3639C66.9977 66.6121 67.0556 66.8273 67.1318 67.0094C67.2079 67.1881 67.3006 67.3354 67.4098 67.4513C67.5191 67.5671 67.6448 67.6532 67.7872 67.7095C67.9328 67.7624 68.0934 67.7889 68.2688 67.7889C68.4939 67.7889 68.6909 67.7459 68.8597 67.6598C69.0285 67.5738 69.1692 67.4397 69.2817 67.2576C69.3976 67.0723 69.4837 66.8356 69.5399 66.5476C69.5962 66.2563 69.6243 65.9087 69.6243 65.5049ZM75.0663 61.1752V68.4443H74.1477V62.3221L72.2957 62.9974V62.1682L74.9223 61.1752H75.0663ZM82.971 66.0113V66.7661H77.7475V66.2249L80.9849 61.2149H81.7347L80.9303 62.6648L78.7902 66.0113H82.971ZM81.9631 61.2149V68.4443H81.0445V61.2149H81.9631Z" fill="#CED8E1"/>
<g clip-path="url(#clip1_145_2372)">
<g clip-path="url(#clip2_145_2372)">
<path d="M16.7888 131.922C16.7888 129.641 18.6384 127.791 20.9199 127.791H29.8177C32.0993 127.791 33.9488 129.641 33.9488 131.922C33.9488 134.204 32.0993 136.053 29.8177 136.053H20.9199C18.6384 136.053 16.7888 134.204 16.7888 131.922Z" fill="#C4C4C4"/>
<path d="M42.9391 134.621C43.1222 134.621 43.2867 134.586 43.4326 134.514C43.5815 134.44 43.701 134.338 43.791 134.207C43.8841 134.077 43.9353 133.926 43.9446 133.756H45.0013C44.9951 134.081 44.8989 134.378 44.7127 134.645C44.5265 134.912 44.2798 135.124 43.9725 135.282C43.6653 135.438 43.3255 135.515 42.9531 135.515C42.5683 135.515 42.2331 135.45 41.9476 135.32C41.6621 135.186 41.4247 135.003 41.2354 134.77C41.0461 134.538 40.9034 134.269 40.8072 133.965C40.7141 133.661 40.6675 133.335 40.6675 132.988V132.825C40.6675 132.477 40.7141 132.151 40.8072 131.847C40.9034 131.54 41.0461 131.27 41.2354 131.037C41.4247 130.804 41.6621 130.623 41.9476 130.493C42.2331 130.359 42.5667 130.292 42.9485 130.292C43.3519 130.292 43.7057 130.373 44.0098 130.534C44.3139 130.693 44.5529 130.915 44.7266 131.2C44.9035 131.482 44.9951 131.811 45.0013 132.187H43.9446C43.9353 132.001 43.8888 131.833 43.805 131.684C43.7243 131.532 43.6095 131.411 43.4605 131.321C43.3146 131.231 43.1393 131.186 42.9345 131.186C42.7079 131.186 42.5202 131.233 42.3712 131.326C42.2223 131.416 42.1059 131.54 42.0221 131.698C41.9383 131.853 41.8778 132.029 41.8406 132.224C41.8064 132.417 41.7894 132.617 41.7894 132.825V132.988C41.7894 133.196 41.8064 133.397 41.8406 133.593C41.8747 133.788 41.9337 133.964 42.0175 134.119C42.1044 134.271 42.2223 134.393 42.3712 134.486C42.5202 134.576 42.7095 134.621 42.9391 134.621ZM49.0058 134.058C49.0058 133.947 48.9779 133.846 48.922 133.756C48.8661 133.663 48.7591 133.579 48.6008 133.504C48.4456 133.43 48.216 133.362 47.9119 133.299C47.645 133.241 47.3998 133.171 47.1764 133.09C46.9561 133.006 46.7668 132.905 46.6085 132.787C46.4502 132.669 46.3276 132.53 46.2407 132.368C46.1539 132.207 46.1104 132.021 46.1104 131.81C46.1104 131.605 46.1554 131.411 46.2454 131.228C46.3354 131.045 46.4642 130.884 46.6318 130.744C46.7993 130.604 47.0026 130.494 47.2416 130.413C47.4836 130.333 47.7536 130.292 48.0515 130.292C48.4736 130.292 48.8351 130.364 49.1361 130.506C49.4402 130.646 49.673 130.837 49.8344 131.079C49.9957 131.318 50.0764 131.588 50.0764 131.889H48.9546C48.9546 131.756 48.9204 131.631 48.8522 131.517C48.787 131.399 48.6877 131.304 48.5543 131.233C48.4208 131.158 48.2532 131.121 48.0515 131.121C47.8591 131.121 47.6993 131.152 47.5721 131.214C47.4479 131.273 47.3548 131.351 47.2928 131.447C47.2338 131.543 47.2043 131.649 47.2043 131.763C47.2043 131.847 47.2198 131.923 47.2509 131.991C47.285 132.057 47.3409 132.117 47.4184 132.173C47.496 132.226 47.6015 132.275 47.735 132.322C47.8715 132.368 48.0422 132.413 48.247 132.457C48.6318 132.538 48.9623 132.642 49.2385 132.769C49.5178 132.893 49.732 133.054 49.8809 133.253C50.0299 133.448 50.1044 133.697 50.1044 133.998C50.1044 134.221 50.0562 134.426 49.96 134.612C49.8669 134.795 49.7304 134.955 49.5504 135.092C49.3704 135.225 49.1547 135.329 48.9034 135.403C48.6551 135.478 48.3758 135.515 48.0655 135.515C47.6093 135.515 47.2229 135.435 46.9064 135.273C46.5899 135.109 46.3494 134.899 46.1849 134.645C46.0235 134.387 45.9428 134.12 45.9428 133.844H47.0274C47.0398 134.052 47.0973 134.218 47.1997 134.342C47.3052 134.463 47.4355 134.552 47.5907 134.608C47.7489 134.66 47.9119 134.687 48.0794 134.687C48.2812 134.687 48.4503 134.66 48.5868 134.608C48.7234 134.552 48.8273 134.477 48.8987 134.384C48.9701 134.288 49.0058 134.179 49.0058 134.058ZM54.2299 134.058C54.2299 133.947 54.2019 133.846 54.1461 133.756C54.0902 133.663 53.9832 133.579 53.8249 133.504C53.6697 133.43 53.4401 133.362 53.136 133.299C52.8691 133.241 52.6239 133.171 52.4005 133.09C52.1801 133.006 51.9908 132.905 51.8326 132.787C51.6743 132.669 51.5517 132.53 51.4648 132.368C51.3779 132.207 51.3345 132.021 51.3345 131.81C51.3345 131.605 51.3795 131.411 51.4695 131.228C51.5595 131.045 51.6883 130.884 51.8559 130.744C52.0234 130.604 52.2267 130.494 52.4657 130.413C52.7077 130.333 52.9777 130.292 53.2756 130.292C53.6977 130.292 54.0592 130.364 54.3602 130.506C54.6643 130.646 54.8971 130.837 55.0585 131.079C55.2198 131.318 55.3005 131.588 55.3005 131.889H54.1787C54.1787 131.756 54.1445 131.631 54.0763 131.517C54.0111 131.399 53.9118 131.304 53.7783 131.233C53.6449 131.158 53.4773 131.121 53.2756 131.121C53.0832 131.121 52.9234 131.152 52.7962 131.214C52.672 131.273 52.5789 131.351 52.5169 131.447C52.4579 131.543 52.4284 131.649 52.4284 131.763C52.4284 131.847 52.4439 131.923 52.475 131.991C52.5091 132.057 52.565 132.117 52.6425 132.173C52.7201 132.226 52.8256 132.275 52.9591 132.322C53.0956 132.368 53.2663 132.413 53.4711 132.457C53.8559 132.538 54.1864 132.642 54.4626 132.769C54.7419 132.893 54.956 133.054 55.105 133.253C55.254 133.448 55.3284 133.697 55.3284 133.998C55.3284 134.221 55.2803 134.426 55.1841 134.612C55.091 134.795 54.9545 134.955 54.7745 135.092C54.5945 135.225 54.3788 135.329 54.1275 135.403C53.8792 135.478 53.5999 135.515 53.2896 135.515C52.8334 135.515 52.447 135.435 52.1305 135.273C51.814 135.109 51.5735 134.899 51.409 134.645C51.2476 134.387 51.1669 134.12 51.1669 133.844H52.2515C52.2639 134.052 52.3213 134.218 52.4238 134.342C52.5293 134.463 52.6596 134.552 52.8148 134.608C52.973 134.66 53.136 134.687 53.3035 134.687C53.5053 134.687 53.6744 134.66 53.8109 134.608C53.9475 134.552 54.0514 134.477 54.1228 134.384C54.1942 134.288 54.2299 134.179 54.2299 134.058Z" fill="white"/>
<rect x="63.9312" y="127.791" width="17.16" height="8.26222" rx="4.13111" fill="#560BAD"/>
<path d="M89.1319 128.272V135.422H88.0147V128.272H89.1319ZM88.9364 132.718L88.5733 132.713C88.5764 132.365 88.6245 132.044 88.7176 131.749C88.8138 131.455 88.9472 131.199 89.1179 130.981C89.2917 130.761 89.4996 130.592 89.7417 130.474C89.9837 130.353 90.2522 130.292 90.547 130.292C90.7952 130.292 91.0187 130.327 91.2173 130.395C91.419 130.463 91.5928 130.573 91.7386 130.725C91.8845 130.874 91.9947 131.07 92.0691 131.312C92.1467 131.551 92.1855 131.842 92.1855 132.187V135.422H91.059V132.178C91.059 131.936 91.0233 131.743 90.952 131.6C90.8837 131.458 90.7828 131.355 90.6494 131.293C90.5159 131.228 90.353 131.195 90.1606 131.195C89.9589 131.195 89.7805 131.236 89.6253 131.316C89.4732 131.397 89.346 131.507 89.2436 131.647C89.1412 131.787 89.0636 131.948 89.0108 132.131C88.9612 132.314 88.9364 132.51 88.9364 132.718ZM95.948 130.385V131.205H93.1084V130.385H95.948ZM93.9277 129.152H95.0495V134.03C95.0495 134.185 95.0713 134.305 95.1147 134.389C95.1613 134.469 95.2249 134.524 95.3056 134.552C95.3863 134.58 95.4809 134.594 95.5895 134.594C95.6671 134.594 95.7416 134.589 95.813 134.58C95.8843 134.57 95.9417 134.561 95.9852 134.552L95.9898 135.408C95.8967 135.436 95.7881 135.461 95.664 135.483C95.543 135.504 95.4033 135.515 95.2451 135.515C94.9875 135.515 94.7594 135.47 94.5608 135.38C94.3622 135.287 94.207 135.137 94.0953 134.929C93.9836 134.721 93.9277 134.445 93.9277 134.1V129.152ZM98.2534 131.41V135.422H97.1316V130.385H98.1882L98.2534 131.41ZM98.0719 132.718L97.6901 132.713C97.6901 132.365 97.7336 132.044 97.8205 131.749C97.9074 131.455 98.0346 131.199 98.2022 130.981C98.3698 130.761 98.5777 130.592 98.826 130.474C99.0773 130.353 99.3675 130.292 99.6964 130.292C99.9261 130.292 100.136 130.327 100.325 130.395C100.517 130.46 100.683 130.564 100.823 130.707C100.966 130.849 101.074 131.033 101.149 131.256C101.226 131.479 101.265 131.749 101.265 132.066V135.422H100.143V132.164C100.143 131.918 100.106 131.726 100.032 131.586C99.9602 131.447 99.8562 131.347 99.7197 131.289C99.5863 131.226 99.4264 131.195 99.2402 131.195C99.0292 131.195 98.8492 131.236 98.7003 131.316C98.5544 131.397 98.4349 131.507 98.3418 131.647C98.2487 131.787 98.1805 131.948 98.137 132.131C98.0936 132.314 98.0719 132.51 98.0719 132.718ZM101.195 132.42L100.669 132.536C100.669 132.232 100.711 131.945 100.795 131.675C100.882 131.402 101.008 131.163 101.172 130.958C101.34 130.75 101.546 130.587 101.791 130.469C102.036 130.351 102.317 130.292 102.634 130.292C102.891 130.292 103.121 130.328 103.323 130.399C103.527 130.468 103.701 130.576 103.844 130.725C103.987 130.874 104.095 131.068 104.17 131.307C104.244 131.543 104.282 131.828 104.282 132.164V135.422H103.155V132.159C103.155 131.905 103.118 131.707 103.043 131.568C102.972 131.428 102.87 131.332 102.736 131.279C102.603 131.223 102.443 131.195 102.257 131.195C102.083 131.195 101.929 131.228 101.796 131.293C101.665 131.355 101.555 131.444 101.465 131.559C101.375 131.67 101.307 131.799 101.26 131.945C101.217 132.091 101.195 132.249 101.195 132.42ZM106.955 128.272V135.422H105.828V128.272H106.955Z" fill="white"/>
<rect x="116.073" y="127.791" width="17.16" height="8.26222" rx="4.13111" fill="#FFAFF5"/>
<path d="M142.992 134.058C142.992 133.947 142.964 133.846 142.908 133.756C142.852 133.663 142.745 133.579 142.587 133.504C142.431 133.43 142.202 133.362 141.898 133.299C141.631 133.241 141.386 133.171 141.162 133.09C140.942 133.006 140.753 132.905 140.594 132.787C140.436 132.669 140.313 132.53 140.227 132.368C140.14 132.207 140.096 132.021 140.096 131.81C140.096 131.605 140.141 131.411 140.231 131.228C140.321 131.045 140.45 130.884 140.618 130.744C140.785 130.604 140.988 130.494 141.227 130.413C141.469 130.333 141.739 130.292 142.037 130.292C142.459 130.292 142.821 130.364 143.122 130.506C143.426 130.646 143.659 130.837 143.82 131.079C143.982 131.318 144.062 131.588 144.062 131.889H142.94C142.94 131.756 142.906 131.631 142.838 131.517C142.773 131.399 142.674 131.304 142.54 131.233C142.407 131.158 142.239 131.121 142.037 131.121C141.845 131.121 141.685 131.152 141.558 131.214C141.434 131.273 141.341 131.351 141.279 131.447C141.22 131.543 141.19 131.649 141.19 131.763C141.19 131.847 141.206 131.923 141.237 131.991C141.271 132.057 141.327 132.117 141.404 132.173C141.482 132.226 141.587 132.275 141.721 132.322C141.857 132.368 142.028 132.413 142.233 132.457C142.618 132.538 142.948 132.642 143.224 132.769C143.504 132.893 143.718 133.054 143.867 133.253C144.016 133.448 144.09 133.697 144.09 133.998C144.09 134.221 144.042 134.426 143.946 134.612C143.853 134.795 143.716 134.955 143.536 135.092C143.356 135.225 143.141 135.329 142.889 135.403C142.641 135.478 142.362 135.515 142.051 135.515C141.595 135.515 141.209 135.435 140.892 135.273C140.576 135.109 140.335 134.899 140.171 134.645C140.009 134.387 139.929 134.12 139.929 133.844H141.013C141.026 134.052 141.083 134.218 141.186 134.342C141.291 134.463 141.421 134.552 141.577 134.608C141.735 134.66 141.898 134.687 142.065 134.687C142.267 134.687 142.436 134.66 142.573 134.608C142.709 134.552 142.813 134.477 142.885 134.384C142.956 134.288 142.992 134.179 142.992 134.058ZM148.23 134.412V132.01C148.23 131.83 148.197 131.675 148.132 131.545C148.067 131.414 147.967 131.313 147.834 131.242C147.704 131.171 147.539 131.135 147.341 131.135C147.158 131.135 146.999 131.166 146.866 131.228C146.732 131.29 146.628 131.374 146.554 131.479C146.479 131.585 146.442 131.704 146.442 131.838H145.325C145.325 131.639 145.373 131.447 145.469 131.261C145.566 131.074 145.705 130.908 145.888 130.763C146.071 130.617 146.29 130.502 146.545 130.418C146.799 130.334 147.085 130.292 147.401 130.292C147.78 130.292 148.115 130.356 148.407 130.483C148.701 130.61 148.933 130.803 149.1 131.06C149.271 131.315 149.356 131.635 149.356 132.019V134.258C149.356 134.488 149.372 134.694 149.403 134.877C149.437 135.057 149.485 135.214 149.547 135.348V135.422H148.397C148.345 135.301 148.303 135.147 148.272 134.961C148.244 134.772 148.23 134.589 148.23 134.412ZM148.393 132.359L148.402 133.053H147.597C147.389 133.053 147.206 133.073 147.047 133.113C146.889 133.151 146.757 133.206 146.652 133.281C146.546 133.355 146.467 133.445 146.414 133.551C146.362 133.656 146.335 133.776 146.335 133.909C146.335 134.043 146.366 134.165 146.428 134.277C146.49 134.386 146.58 134.471 146.698 134.533C146.819 134.595 146.965 134.626 147.136 134.626C147.365 134.626 147.566 134.58 147.736 134.486C147.91 134.39 148.047 134.274 148.146 134.137C148.245 133.998 148.298 133.866 148.304 133.742L148.667 134.24C148.63 134.367 148.566 134.504 148.476 134.649C148.386 134.795 148.268 134.935 148.123 135.068C147.98 135.199 147.808 135.306 147.606 135.39C147.407 135.473 147.178 135.515 146.917 135.515C146.588 135.515 146.295 135.45 146.037 135.32C145.78 135.186 145.578 135.008 145.432 134.784C145.286 134.558 145.213 134.302 145.213 134.016C145.213 133.749 145.263 133.514 145.362 133.309C145.465 133.101 145.614 132.927 145.809 132.787C146.008 132.648 146.25 132.542 146.535 132.471C146.821 132.396 147.147 132.359 147.513 132.359H148.393ZM153.673 134.058C153.673 133.947 153.645 133.846 153.589 133.756C153.533 133.663 153.426 133.579 153.268 133.504C153.112 133.43 152.883 133.362 152.579 133.299C152.312 133.241 152.067 133.171 151.843 133.09C151.623 133.006 151.434 132.905 151.275 132.787C151.117 132.669 150.994 132.53 150.908 132.368C150.821 132.207 150.777 132.021 150.777 131.81C150.777 131.605 150.822 131.411 150.912 131.228C151.002 131.045 151.131 130.884 151.299 130.744C151.466 130.604 151.669 130.494 151.908 130.413C152.15 130.333 152.42 130.292 152.718 130.292C153.14 130.292 153.502 130.364 153.803 130.506C154.107 130.646 154.34 130.837 154.501 131.079C154.663 131.318 154.743 131.588 154.743 131.889H153.621C153.621 131.756 153.587 131.631 153.519 131.517C153.454 131.399 153.354 131.304 153.221 131.233C153.088 131.158 152.92 131.121 152.718 131.121C152.526 131.121 152.366 131.152 152.239 131.214C152.115 131.273 152.022 131.351 151.96 131.447C151.901 131.543 151.871 131.649 151.871 131.763C151.871 131.847 151.887 131.923 151.918 131.991C151.952 132.057 152.008 132.117 152.085 132.173C152.163 132.226 152.268 132.275 152.402 132.322C152.538 132.368 152.709 132.413 152.914 132.457C153.299 132.538 153.629 132.642 153.905 132.769C154.185 132.893 154.399 133.054 154.548 133.253C154.697 133.448 154.771 133.697 154.771 133.998C154.771 134.221 154.723 134.426 154.627 134.612C154.534 134.795 154.397 134.955 154.217 135.092C154.037 135.225 153.822 135.329 153.57 135.403C153.322 135.478 153.043 135.515 152.732 135.515C152.276 135.515 151.89 135.435 151.573 135.273C151.257 135.109 151.016 134.899 150.852 134.645C150.69 134.387 150.61 134.12 150.61 133.844H151.694C151.707 134.052 151.764 134.218 151.866 134.342C151.972 134.463 152.102 134.552 152.257 134.608C152.416 134.66 152.579 134.687 152.746 134.687C152.948 134.687 153.117 134.66 153.254 134.608C153.39 134.552 153.494 134.477 153.566 134.384C153.637 134.288 153.673 134.179 153.673 134.058ZM158.897 134.058C158.897 133.947 158.869 133.846 158.813 133.756C158.757 133.663 158.65 133.579 158.492 133.504C158.337 133.43 158.107 133.362 157.803 133.299C157.536 133.241 157.291 133.171 157.067 133.09C156.847 133.006 156.658 132.905 156.499 132.787C156.341 132.669 156.219 132.53 156.132 132.368C156.045 132.207 156.001 132.021 156.001 131.81C156.001 131.605 156.046 131.411 156.136 131.228C156.226 131.045 156.355 130.884 156.523 130.744C156.69 130.604 156.893 130.494 157.132 130.413C157.374 130.333 157.644 130.292 157.942 130.292C158.364 130.292 158.726 130.364 159.027 130.506C159.331 130.646 159.564 130.837 159.725 131.079C159.887 131.318 159.967 131.588 159.967 131.889H158.845C158.845 131.756 158.811 131.631 158.743 131.517C158.678 131.399 158.579 131.304 158.445 131.233C158.312 131.158 158.144 131.121 157.942 131.121C157.75 131.121 157.59 131.152 157.463 131.214C157.339 131.273 157.246 131.351 157.184 131.447C157.125 131.543 157.095 131.649 157.095 131.763C157.095 131.847 157.111 131.923 157.142 131.991C157.176 132.057 157.232 132.117 157.309 132.173C157.387 132.226 157.492 132.275 157.626 132.322C157.762 132.368 157.933 132.413 158.138 132.457C158.523 132.538 158.853 132.642 159.129 132.769C159.409 132.893 159.623 133.054 159.772 133.253C159.921 133.448 159.995 133.697 159.995 133.998C159.995 134.221 159.947 134.426 159.851 134.612C159.758 134.795 159.621 134.955 159.441 135.092C159.261 135.225 159.046 135.329 158.794 135.403C158.546 135.478 158.267 135.515 157.956 135.515C157.5 135.515 157.114 135.435 156.797 135.273C156.481 135.109 156.24 134.899 156.076 134.645C155.914 134.387 155.834 134.12 155.834 133.844H156.918C156.931 134.052 156.988 134.218 157.091 134.342C157.196 134.463 157.326 134.552 157.482 134.608C157.64 134.66 157.803 134.687 157.97 134.687C158.172 134.687 158.341 134.66 158.478 134.608C158.614 134.552 158.718 134.477 158.79 134.384C158.861 134.288 158.897 134.179 158.897 134.058Z" fill="white"/>
</g>
</g>
<circle cx="112.906" cy="256.185" r="56.8665" fill="#33363F"/>
<path d="M61.562 226.54C60.0421 225.662 58.0907 226.18 57.2916 227.742C50.2666 241.478 48.5579 257.371 52.5704 272.345C56.8577 288.346 67.3255 301.988 81.6711 310.27C96.0167 318.553 113.065 320.797 129.065 316.51C144.04 312.497 156.949 303.071 165.332 290.12C166.286 288.646 165.758 286.698 164.238 285.82L112.9 256.18L61.562 226.54Z" fill="#C4C4C4"/>
<path d="M57.8322 287.973C56.3123 288.851 55.7852 290.799 56.734 292.275C65.6917 306.215 79.542 316.361 95.6201 320.669C112.724 325.252 130.948 322.853 146.282 314C161.617 305.146 172.807 290.563 177.39 273.46C181.698 257.381 179.836 240.314 172.243 225.586C171.439 224.026 169.488 223.509 167.968 224.386L112.9 256.18L57.8322 287.973Z" fill="#560BAD"/>
<path d="M112.906 324.276C112.906 326.031 114.33 327.461 116.083 327.383C133.829 326.591 150.685 319.194 163.3 306.579C176.665 293.214 184.174 275.087 184.174 256.186C184.174 237.284 176.665 219.157 163.3 205.792C150.685 193.177 133.829 185.78 116.083 184.989C114.33 184.91 112.906 186.34 112.906 188.095L112.906 256.186L112.906 324.276Z" fill="#FFAFF5"/>
<g filter="url(#filter0_d_145_2372)">
<circle cx="112.906" cy="256.186" r="40.6189" fill="#0A0D10"/>
</g>
<path d="M107.964 248.126V249.15L103.449 259.422H101.478L105.986 249.615H100.136V248.126H107.964ZM111.688 252.928H112.805C113.24 252.928 113.599 252.853 113.884 252.703C114.173 252.553 114.388 252.346 114.528 252.083C114.667 251.819 114.737 251.516 114.737 251.175C114.737 250.818 114.673 250.513 114.543 250.259C114.419 250.001 114.228 249.802 113.969 249.662C113.716 249.522 113.392 249.453 112.999 249.453C112.668 249.453 112.368 249.52 112.099 249.654C111.836 249.784 111.626 249.97 111.471 250.213C111.316 250.451 111.238 250.735 111.238 251.066H109.361C109.361 250.466 109.519 249.934 109.834 249.468C110.15 249.003 110.579 248.638 111.122 248.374C111.67 248.105 112.286 247.971 112.968 247.971C113.698 247.971 114.334 248.092 114.877 248.335C115.425 248.573 115.852 248.93 116.157 249.406C116.462 249.882 116.615 250.471 116.615 251.175C116.615 251.496 116.54 251.821 116.39 252.152C116.24 252.483 116.017 252.786 115.723 253.06C115.428 253.329 115.06 253.549 114.621 253.72C114.181 253.885 113.672 253.968 113.092 253.968H111.688V252.928ZM111.688 254.387V253.363H113.092C113.755 253.363 114.318 253.44 114.784 253.595C115.254 253.751 115.637 253.965 115.932 254.239C116.227 254.508 116.441 254.816 116.576 255.163C116.716 255.509 116.785 255.876 116.785 256.264C116.785 256.792 116.69 257.262 116.498 257.676C116.312 258.085 116.046 258.431 115.699 258.716C115.353 259 114.947 259.215 114.481 259.36C114.021 259.505 113.519 259.577 112.976 259.577C112.49 259.577 112.024 259.51 111.58 259.375C111.135 259.241 110.737 259.042 110.385 258.778C110.033 258.509 109.754 258.175 109.547 257.777C109.345 257.374 109.244 256.908 109.244 256.381H111.114C111.114 256.717 111.192 257.014 111.347 257.273C111.507 257.526 111.73 257.725 112.014 257.87C112.304 258.015 112.635 258.087 113.007 258.087C113.4 258.087 113.739 258.018 114.023 257.878C114.308 257.738 114.525 257.531 114.675 257.257C114.83 256.983 114.908 256.652 114.908 256.264C114.908 255.825 114.823 255.468 114.652 255.194C114.481 254.92 114.238 254.718 113.923 254.588C113.607 254.454 113.235 254.387 112.805 254.387H111.688ZM118.446 250.896V250.298C118.446 249.869 118.539 249.478 118.725 249.127C118.911 248.775 119.183 248.493 119.54 248.281C119.896 248.069 120.326 247.963 120.827 247.963C121.345 247.963 121.779 248.069 122.131 248.281C122.488 248.493 122.759 248.775 122.945 249.127C123.132 249.478 123.225 249.869 123.225 250.298V250.896C123.225 251.315 123.132 251.7 122.945 252.052C122.764 252.403 122.495 252.685 122.139 252.897C121.787 253.109 121.355 253.215 120.843 253.215C120.336 253.215 119.902 253.109 119.54 252.897C119.183 252.685 118.911 252.403 118.725 252.052C118.539 251.7 118.446 251.315 118.446 250.896ZM119.741 250.298V250.896C119.741 251.102 119.78 251.299 119.858 251.485C119.94 251.671 120.065 251.821 120.23 251.935C120.396 252.049 120.6 252.106 120.843 252.106C121.091 252.106 121.293 252.049 121.448 251.935C121.608 251.821 121.727 251.671 121.805 251.485C121.883 251.299 121.921 251.102 121.921 250.896V250.298C121.921 250.086 121.88 249.887 121.797 249.701C121.72 249.509 121.601 249.357 121.44 249.243C121.28 249.129 121.076 249.072 120.827 249.072C120.59 249.072 120.388 249.129 120.222 249.243C120.062 249.357 119.94 249.509 119.858 249.701C119.78 249.887 119.741 250.086 119.741 250.298ZM123.892 257.257V256.652C123.892 256.228 123.985 255.84 124.171 255.488C124.363 255.137 124.637 254.855 124.994 254.643C125.351 254.431 125.78 254.325 126.281 254.325C126.799 254.325 127.233 254.431 127.585 254.643C127.942 254.855 128.211 255.137 128.392 255.488C128.578 255.84 128.671 256.228 128.671 256.652V257.257C128.671 257.681 128.578 258.069 128.392 258.421C128.211 258.773 127.944 259.055 127.593 259.267C127.241 259.479 126.812 259.585 126.305 259.585C125.793 259.585 125.356 259.479 124.994 259.267C124.637 259.055 124.363 258.773 124.171 258.421C123.985 258.069 123.892 257.681 123.892 257.257ZM125.195 256.652V257.257C125.195 257.464 125.237 257.661 125.319 257.847C125.407 258.033 125.534 258.186 125.7 258.305C125.865 258.418 126.064 258.475 126.297 258.475C126.561 258.475 126.773 258.418 126.933 258.305C127.094 258.186 127.207 258.036 127.275 257.855C127.347 257.669 127.383 257.469 127.383 257.257V256.652C127.383 256.44 127.342 256.241 127.259 256.055C127.181 255.869 127.06 255.719 126.894 255.605C126.734 255.491 126.53 255.434 126.281 255.434C126.038 255.434 125.837 255.491 125.676 255.605C125.516 255.719 125.394 255.869 125.312 256.055C125.234 256.241 125.195 256.44 125.195 256.652ZM126.747 249.74L121.231 258.568L120.277 258.018L125.793 249.189L126.747 249.74Z" fill="white"/>
</g>
<defs>
<filter id="filter0_d_145_2372" x="64.0246" y="207.304" width="97.7622" height="97.7622" filterUnits="userSpaceOnUse" color-interpolation-filters="sRGB">
<feFlood flood-opacity="0" result="BackgroundImageFix"/>
<feColorMatrix in="SourceAlpha" type="matrix" values="0 0 0 0 0 0 0 0 0 0 0 0 0 0 0 0 0 0 127 0" result="hardAlpha"/>
<feMorphology radius="0.635556" operator="dilate" in="SourceAlpha" result="effect1_dropShadow_145_2372"/>
<feOffset/>
<feGaussianBlur stdDeviation="3.81333"/>
<feComposite in2="hardAlpha" operator="out"/>
<feColorMatrix type="matrix" values="0 0 0 0 0 0 0 0 0 0 0 0 0 0 0 0 0 0 0.08 0"/>
<feBlend mode="normal" in2="BackgroundImageFix" result="effect1_dropShadow_145_2372"/>
<feBlend mode="normal" in="SourceGraphic" in2="effect1_dropShadow_145_2372" result="shape"/>
</filter>
<clipPath id="clip0_145_2372">
<rect x="0.899902" y="0.199951" width="224" height="353.6" rx="12.7111" fill="white"/>
</clipPath>
<clipPath id="clip1_145_2372">
<rect width="224" height="30.8889" fill="white" transform="translate(0.899902 108.533)"/>
</clipPath>
<clipPath id="clip2_145_2372">
<rect width="192.222" height="15" fill="white" transform="translate(16.7888 124.422)"/>
</clipPath>
</defs>
</svg>
