<svg width="445" height="266" viewBox="0 0 445 266" fill="none" xmlns="http://www.w3.org/2000/svg">
<g clip-path="url(#clip0_145_2371)">
<rect x="0.100098" y="0.199951" width="444.8" height="265.089" rx="11.9409" fill="#2E2B43"/>
<path d="M204.226 48.3673V49.0081H201.079V48.3673H204.226ZM201.238 43.0656V49.0081H200.451V43.0656H201.238ZM203.81 45.6205V46.2613H201.079V45.6205H203.81ZM204.185 43.0656V43.7104H201.079V43.0656H204.185ZM205.43 44.592L206.397 46.2001L207.377 44.592H208.262L206.818 46.7715L208.307 49.0081H207.434L206.414 47.351L205.393 49.0081H204.516L206.001 46.7715L204.561 44.592H205.43ZM209.654 45.4409V50.7059H208.895V44.592H209.589L209.654 45.4409ZM212.63 46.7633V46.849C212.63 47.1701 212.592 47.468 212.515 47.7428C212.439 48.0149 212.328 48.2516 212.181 48.453C212.037 48.6543 211.858 48.8108 211.646 48.9223C211.434 49.0339 211.19 49.0897 210.916 49.0897C210.635 49.0897 210.388 49.0434 210.173 48.9509C209.958 48.8584 209.775 48.7237 209.626 48.5469C209.476 48.37 209.356 48.1578 209.267 47.9102C209.18 47.6626 209.12 47.3837 209.087 47.0735V46.6164C209.12 46.2899 209.181 45.9974 209.271 45.7389C209.361 45.4804 209.479 45.26 209.626 45.0777C209.775 44.8927 209.956 44.7525 210.169 44.6573C210.381 44.5594 210.626 44.5104 210.903 44.5104C211.181 44.5104 211.427 44.5648 211.642 44.6736C211.857 44.7798 212.038 44.9321 212.185 45.1307C212.332 45.3294 212.442 45.5675 212.515 45.845C212.592 46.1198 212.63 46.4259 212.63 46.7633ZM211.871 46.849V46.7633C211.871 46.5429 211.847 46.3361 211.801 46.1429C211.755 45.947 211.683 45.7756 211.585 45.6287C211.49 45.479 211.367 45.362 211.218 45.2777C211.068 45.1906 210.89 45.1471 210.683 45.1471C210.492 45.1471 210.326 45.1797 210.185 45.245C210.046 45.3103 209.928 45.3988 209.83 45.5103C209.732 45.6192 209.652 45.7443 209.589 45.8858C209.529 46.0246 209.484 46.1688 209.454 46.3184V47.3755C209.509 47.566 209.585 47.7456 209.683 47.9142C209.781 48.0802 209.911 48.2149 210.075 48.3183C210.238 48.419 210.443 48.4693 210.691 48.4693C210.895 48.4693 211.071 48.4271 211.218 48.3428C211.367 48.2557 211.49 48.1374 211.585 47.9877C211.683 47.8381 211.755 47.6666 211.801 47.4735C211.847 47.2776 211.871 47.0694 211.871 46.849ZM215.258 49.0897C214.951 49.0897 214.672 49.038 214.422 48.9346C214.174 48.8285 213.96 48.6802 213.781 48.4897C213.604 48.2993 213.468 48.0734 213.373 47.8122C213.277 47.551 213.23 47.2653 213.23 46.9551V46.7837C213.23 46.4245 213.283 46.1048 213.389 45.8246C213.495 45.5416 213.639 45.3022 213.822 45.1063C214.004 44.9104 214.211 44.7621 214.442 44.6614C214.673 44.5607 214.913 44.5104 215.16 44.5104C215.476 44.5104 215.748 44.5648 215.977 44.6736C216.208 44.7825 216.397 44.9348 216.544 45.1307C216.691 45.3239 216.8 45.5525 216.87 45.8164C216.941 46.0776 216.977 46.3633 216.977 46.6735V47.0123H213.679V46.396H216.221V46.3388C216.211 46.1429 216.17 45.9525 216.099 45.7674C216.031 45.5824 215.922 45.4301 215.773 45.3103C215.623 45.1906 215.419 45.1307 215.16 45.1307C214.989 45.1307 214.831 45.1675 214.687 45.2409C214.543 45.3117 214.419 45.4178 214.315 45.5593C214.212 45.7008 214.132 45.8736 214.075 46.0776C214.018 46.2817 213.989 46.5171 213.989 46.7837V46.9551C213.989 47.1646 214.018 47.3619 214.075 47.5469C214.135 47.7292 214.22 47.8898 214.332 48.0285C214.446 48.1673 214.583 48.2761 214.744 48.355C214.907 48.4339 215.092 48.4734 215.299 48.4734C215.566 48.4734 215.792 48.419 215.977 48.3101C216.162 48.2013 216.324 48.0557 216.462 47.8734L216.919 48.2367C216.824 48.3809 216.703 48.5183 216.556 48.6489C216.409 48.7795 216.228 48.8856 216.013 48.9672C215.801 49.0489 215.549 49.0897 215.258 49.0897ZM219.458 48.4693C219.638 48.4693 219.804 48.4326 219.956 48.3591C220.108 48.2857 220.234 48.185 220.332 48.0571C220.43 47.9265 220.485 47.7782 220.499 47.6122H221.217C221.204 47.8734 221.115 48.117 220.952 48.3428C220.791 48.5659 220.581 48.7468 220.319 48.8856C220.058 49.0217 219.771 49.0897 219.458 49.0897C219.126 49.0897 218.836 49.0312 218.589 48.9142C218.344 48.7972 218.14 48.6367 217.977 48.4326C217.816 48.2285 217.695 47.9945 217.613 47.7306C217.534 47.4639 217.495 47.1823 217.495 46.8857V46.7143C217.495 46.4177 217.534 46.1375 217.613 45.8736C217.695 45.6069 217.816 45.3716 217.977 45.1675C218.14 44.9634 218.344 44.8029 218.589 44.6859C218.836 44.5689 219.126 44.5104 219.458 44.5104C219.804 44.5104 220.106 44.5811 220.364 44.7226C220.623 44.8614 220.825 45.0518 220.972 45.294C221.122 45.5334 221.204 45.8055 221.217 46.1103H220.499C220.485 45.928 220.434 45.7634 220.344 45.6164C220.257 45.4695 220.137 45.3525 219.985 45.2654C219.835 45.1756 219.66 45.1307 219.458 45.1307C219.227 45.1307 219.032 45.177 218.875 45.2695C218.719 45.3593 218.596 45.4817 218.503 45.6368C218.413 45.7892 218.348 45.9593 218.307 46.147C218.269 46.332 218.25 46.5211 218.25 46.7143V46.8857C218.25 47.0789 218.269 47.2694 218.307 47.4571C218.345 47.6449 218.409 47.8149 218.499 47.9673C218.592 48.1197 218.715 48.2421 218.87 48.3346C219.028 48.4244 219.224 48.4693 219.458 48.4693ZM223.748 44.592V45.1716H221.36V44.592H223.748ZM222.168 43.5186H222.923V47.9142C222.923 48.0639 222.947 48.1768 222.993 48.253C223.039 48.3292 223.099 48.3795 223.172 48.404C223.246 48.4285 223.325 48.4407 223.409 48.4407C223.472 48.4407 223.537 48.4353 223.605 48.4244C223.676 48.4108 223.729 48.3999 223.764 48.3918L223.768 49.0081C223.708 49.0271 223.629 49.0448 223.532 49.0611C223.436 49.0802 223.321 49.0897 223.185 49.0897C223 49.0897 222.83 49.053 222.674 48.9795C222.519 48.906 222.396 48.7836 222.303 48.6122C222.213 48.438 222.168 48.204 222.168 47.9102V43.5186ZM226.299 49.0897C225.991 49.0897 225.713 49.038 225.462 48.9346C225.215 48.8285 225.001 48.6802 224.821 48.4897C224.645 48.2993 224.509 48.0734 224.413 47.8122C224.318 47.551 224.27 47.2653 224.27 46.9551V46.7837C224.27 46.4245 224.323 46.1048 224.43 45.8246C224.536 45.5416 224.68 45.3022 224.862 45.1063C225.045 44.9104 225.251 44.7621 225.483 44.6614C225.714 44.5607 225.953 44.5104 226.201 44.5104C226.517 44.5104 226.789 44.5648 227.017 44.6736C227.248 44.7825 227.438 44.9348 227.585 45.1307C227.731 45.3239 227.84 45.5525 227.911 45.8164C227.982 46.0776 228.017 46.3633 228.017 46.6735V47.0123H224.719V46.396H227.262V46.3388C227.251 46.1429 227.21 45.9525 227.14 45.7674C227.072 45.5824 226.963 45.4301 226.813 45.3103C226.663 45.1906 226.459 45.1307 226.201 45.1307C226.03 45.1307 225.872 45.1675 225.727 45.2409C225.583 45.3117 225.459 45.4178 225.356 45.5593C225.253 45.7008 225.172 45.8736 225.115 46.0776C225.058 46.2817 225.03 46.5171 225.03 46.7837V46.9551C225.03 47.1646 225.058 47.3619 225.115 47.5469C225.175 47.7292 225.261 47.8898 225.372 48.0285C225.487 48.1673 225.624 48.2761 225.785 48.355C225.948 48.4339 226.133 48.4734 226.34 48.4734C226.606 48.4734 226.832 48.419 227.017 48.3101C227.202 48.2013 227.364 48.0557 227.503 47.8734L227.96 48.2367C227.865 48.3809 227.744 48.5183 227.597 48.6489C227.45 48.7795 227.269 48.8856 227.054 48.9672C226.842 49.0489 226.59 49.0897 226.299 49.0897ZM231.515 48.151V42.7391H232.274V49.0081H231.58L231.515 48.151ZM228.544 46.849V46.7633C228.544 46.4259 228.585 46.1198 228.666 45.845C228.751 45.5675 228.869 45.3294 229.021 45.1307C229.176 44.9321 229.36 44.7798 229.572 44.6736C229.787 44.5648 230.027 44.5104 230.291 44.5104C230.568 44.5104 230.81 44.5594 231.017 44.6573C231.227 44.7525 231.403 44.8927 231.548 45.0777C231.695 45.26 231.81 45.4804 231.895 45.7389C231.979 45.9974 232.037 46.2899 232.07 46.6164V46.9919C232.04 47.3156 231.982 47.6068 231.895 47.8653C231.81 48.1238 231.695 48.3442 231.548 48.5265C231.403 48.7088 231.227 48.8489 231.017 48.9468C230.808 49.0421 230.563 49.0897 230.282 49.0897C230.024 49.0897 229.787 49.0339 229.572 48.9223C229.36 48.8108 229.176 48.6543 229.021 48.453C228.869 48.2516 228.751 48.0149 228.666 47.7428C228.585 47.468 228.544 47.1701 228.544 46.849ZM229.303 46.7633V46.849C229.303 47.0694 229.325 47.2762 229.368 47.4694C229.414 47.6626 229.485 47.8326 229.58 47.9795C229.676 48.1265 229.797 48.2421 229.944 48.3265C230.091 48.4081 230.266 48.4489 230.47 48.4489C230.721 48.4489 230.926 48.3959 231.086 48.2897C231.25 48.1836 231.38 48.0435 231.478 47.8694C231.576 47.6952 231.652 47.5061 231.707 47.302V46.3184C231.674 46.1688 231.627 46.0246 231.564 45.8858C231.504 45.7443 231.425 45.6192 231.327 45.5103C231.232 45.3988 231.114 45.3103 230.972 45.245C230.833 45.1797 230.669 45.1471 230.478 45.1471C230.272 45.1471 230.093 45.1906 229.944 45.2777C229.797 45.362 229.676 45.479 229.58 45.6287C229.485 45.7756 229.414 45.947 229.368 46.1429C229.325 46.3361 229.303 46.5429 229.303 46.7633ZM237.021 49.0897C236.714 49.0897 236.435 49.038 236.184 48.9346C235.937 48.8285 235.723 48.6802 235.544 48.4897C235.367 48.2993 235.231 48.0734 235.136 47.8122C235.04 47.551 234.993 47.2653 234.993 46.9551V46.7837C234.993 46.4245 235.046 46.1048 235.152 45.8246C235.258 45.5416 235.402 45.3022 235.584 45.1063C235.767 44.9104 235.974 44.7621 236.205 44.6614C236.436 44.5607 236.676 44.5104 236.923 44.5104C237.239 44.5104 237.511 44.5648 237.739 44.6736C237.971 44.7825 238.16 44.9348 238.307 45.1307C238.454 45.3239 238.563 45.5525 238.633 45.8164C238.704 46.0776 238.739 46.3633 238.739 46.6735V47.0123H235.442V46.396H237.984V46.3388C237.973 46.1429 237.933 45.9525 237.862 45.7674C237.794 45.5824 237.685 45.4301 237.535 45.3103C237.386 45.1906 237.182 45.1307 236.923 45.1307C236.752 45.1307 236.594 45.1675 236.45 45.2409C236.306 45.3117 236.182 45.4178 236.078 45.5593C235.975 45.7008 235.895 45.8736 235.838 46.0776C235.78 46.2817 235.752 46.5171 235.752 46.7837V46.9551C235.752 47.1646 235.78 47.3619 235.838 47.5469C235.897 47.7292 235.983 47.8898 236.095 48.0285C236.209 48.1673 236.346 48.2761 236.507 48.355C236.67 48.4339 236.855 48.4734 237.062 48.4734C237.329 48.4734 237.554 48.419 237.739 48.3101C237.924 48.2013 238.086 48.0557 238.225 47.8734L238.682 48.2367C238.587 48.3809 238.466 48.5183 238.319 48.6489C238.172 48.7795 237.991 48.8856 237.776 48.9672C237.564 49.0489 237.312 49.0897 237.021 49.0897ZM242.058 48.253V45.9797C242.058 45.8055 242.022 45.6545 241.952 45.5266C241.884 45.396 241.78 45.2954 241.641 45.2246C241.503 45.1539 241.331 45.1185 241.127 45.1185C240.937 45.1185 240.769 45.1512 240.625 45.2165C240.484 45.2818 240.372 45.3675 240.29 45.4736C240.212 45.5797 240.172 45.694 240.172 45.8164H239.417C239.417 45.6586 239.458 45.5022 239.54 45.3471C239.621 45.192 239.738 45.0518 239.891 44.9267C240.046 44.7988 240.231 44.6981 240.446 44.6247C240.663 44.5485 240.905 44.5104 241.172 44.5104C241.493 44.5104 241.776 44.5648 242.021 44.6736C242.269 44.7825 242.462 44.9471 242.601 45.1675C242.742 45.3852 242.813 45.6586 242.813 45.9878V48.0449C242.813 48.1918 242.825 48.3482 242.85 48.5142C242.877 48.6802 242.916 48.823 242.968 48.9428V49.0081H242.18C242.142 48.921 242.112 48.8053 242.09 48.6611C242.069 48.5142 242.058 48.3782 242.058 48.253ZM242.188 46.3307L242.196 46.8613H241.433C241.218 46.8613 241.026 46.8789 240.858 46.9143C240.689 46.947 240.548 46.9973 240.433 47.0653C240.319 47.1333 240.232 47.2191 240.172 47.3224C240.112 47.4231 240.082 47.5415 240.082 47.6775C240.082 47.8163 240.114 47.9428 240.176 48.0571C240.239 48.1714 240.333 48.2625 240.458 48.3305C240.586 48.3959 240.742 48.4285 240.927 48.4285C241.158 48.4285 241.363 48.3795 241.539 48.2816C241.716 48.1836 241.856 48.0639 241.96 47.9224C242.066 47.7809 242.123 47.6435 242.131 47.5102L242.454 47.8734C242.435 47.9877 242.383 48.1142 242.299 48.253C242.214 48.3918 242.101 48.5251 241.96 48.653C241.821 48.7781 241.655 48.8829 241.462 48.9672C241.271 49.0489 241.056 49.0897 240.817 49.0897C240.518 49.0897 240.255 49.0312 240.029 48.9142C239.806 48.7972 239.632 48.6407 239.507 48.4448C239.384 48.2462 239.323 48.0244 239.323 47.7796C239.323 47.5428 239.369 47.3347 239.462 47.1551C239.554 46.9728 239.688 46.8218 239.862 46.7021C240.036 46.5796 240.246 46.4871 240.49 46.4245C240.735 46.362 241.009 46.3307 241.311 46.3307H242.188ZM244.588 45.2858V49.0081H243.833V44.592H244.568L244.588 45.2858ZM245.968 44.5675L245.964 45.2695C245.901 45.2559 245.841 45.2477 245.784 45.245C245.73 45.2396 245.667 45.2369 245.596 45.2369C245.422 45.2369 245.269 45.2641 245.135 45.3185C245.002 45.3729 244.889 45.4491 244.796 45.547C244.704 45.645 244.631 45.762 244.576 45.898C244.524 46.0314 244.49 46.1783 244.474 46.3388L244.262 46.4613C244.262 46.1946 244.288 45.9443 244.339 45.7103C244.394 45.4763 244.477 45.2695 244.588 45.0899C244.7 44.9076 244.841 44.7661 245.013 44.6655C245.187 44.5621 245.394 44.5104 245.633 44.5104C245.688 44.5104 245.75 44.5172 245.821 44.5308C245.892 44.5417 245.941 44.5539 245.968 44.5675ZM247.254 45.5348V49.0081H246.499V44.592H247.213L247.254 45.5348ZM247.074 46.6327L246.76 46.6205C246.763 46.3184 246.807 46.0395 246.894 45.7838C246.982 45.5253 247.104 45.3008 247.262 45.1103C247.42 44.9199 247.607 44.7729 247.825 44.6696C248.045 44.5634 248.289 44.5104 248.556 44.5104C248.773 44.5104 248.969 44.5403 249.143 44.6002C249.317 44.6573 249.466 44.7498 249.588 44.8777C249.713 45.0056 249.809 45.1716 249.874 45.3756C249.939 45.577 249.972 45.8232 249.972 46.1144V49.0081H249.213V46.1062C249.213 45.8749 249.179 45.6899 249.111 45.5511C249.043 45.4096 248.943 45.3076 248.813 45.245C248.682 45.1797 248.522 45.1471 248.331 45.1471C248.143 45.1471 247.972 45.1865 247.817 45.2654C247.664 45.3443 247.533 45.4532 247.421 45.5919C247.312 45.7307 247.226 45.8899 247.164 46.0695C247.104 46.2463 247.074 46.4341 247.074 46.6327ZM251.772 44.592V49.0081H251.013V44.592H251.772ZM250.956 43.4207C250.956 43.2982 250.992 43.1948 251.066 43.1105C251.142 43.0261 251.254 42.9839 251.4 42.9839C251.545 42.9839 251.655 43.0261 251.731 43.1105C251.81 43.1948 251.849 43.2982 251.849 43.4207C251.849 43.5377 251.81 43.6383 251.731 43.7227C251.655 43.8043 251.545 43.8451 251.4 43.8451C251.254 43.8451 251.142 43.8043 251.066 43.7227C250.992 43.6383 250.956 43.5377 250.956 43.4207ZM253.572 45.5348V49.0081H252.817V44.592H253.531L253.572 45.5348ZM253.392 46.6327L253.078 46.6205C253.081 46.3184 253.126 46.0395 253.213 45.7838C253.3 45.5253 253.422 45.3008 253.58 45.1103C253.738 44.9199 253.926 44.7729 254.143 44.6696C254.364 44.5634 254.607 44.5104 254.874 44.5104C255.092 44.5104 255.287 44.5403 255.462 44.6002C255.636 44.6573 255.784 44.7498 255.906 44.8777C256.032 45.0056 256.127 45.1716 256.192 45.3756C256.257 45.577 256.29 45.8232 256.29 46.1144V49.0081H255.531V46.1062C255.531 45.8749 255.497 45.6899 255.429 45.5511C255.361 45.4096 255.262 45.3076 255.131 45.245C255 45.1797 254.84 45.1471 254.649 45.1471C254.462 45.1471 254.29 45.1865 254.135 45.2654C253.983 45.3443 253.851 45.4532 253.739 45.5919C253.63 45.7307 253.545 45.8899 253.482 46.0695C253.422 46.2463 253.392 46.4341 253.392 46.6327ZM260.131 44.592H260.817V48.9142C260.817 49.3033 260.738 49.6352 260.58 49.91C260.422 50.1849 260.202 50.393 259.919 50.5345C259.638 50.6787 259.315 50.7508 258.947 50.7508C258.795 50.7508 258.615 50.7263 258.409 50.6773C258.204 50.6311 258.003 50.5508 257.804 50.4365C257.609 50.325 257.444 50.174 257.311 49.9835L257.707 49.5346C257.892 49.7577 258.085 49.9128 258.286 49.9998C258.49 50.0869 258.692 50.1304 258.89 50.1304C259.13 50.1304 259.336 50.0855 259.511 49.9957C259.685 49.906 259.819 49.7726 259.915 49.5958C260.013 49.4216 260.061 49.2067 260.061 48.9509V45.5634L260.131 44.592ZM257.09 46.849V46.7633C257.09 46.4259 257.13 46.1198 257.209 45.845C257.29 45.5675 257.406 45.3294 257.556 45.1307C257.708 44.9321 257.892 44.7798 258.107 44.6736C258.321 44.5648 258.564 44.5104 258.833 44.5104C259.111 44.5104 259.353 44.5594 259.559 44.6573C259.769 44.7525 259.946 44.8927 260.09 45.0777C260.237 45.26 260.353 45.4804 260.437 45.7389C260.521 45.9974 260.58 46.2899 260.612 46.6164V46.9919C260.583 47.3156 260.524 47.6068 260.437 47.8653C260.353 48.1238 260.237 48.3442 260.09 48.5265C259.946 48.7088 259.769 48.8489 259.559 48.9468C259.35 49.0421 259.105 49.0897 258.825 49.0897C258.561 49.0897 258.321 49.0339 258.107 48.9223C257.894 48.8108 257.712 48.6543 257.56 48.453C257.407 48.2516 257.29 48.0149 257.209 47.7428C257.13 47.468 257.09 47.1701 257.09 46.849ZM257.845 46.7633V46.849C257.845 47.0694 257.867 47.2762 257.911 47.4694C257.957 47.6626 258.026 47.8326 258.119 47.9795C258.214 48.1265 258.335 48.2421 258.482 48.3265C258.629 48.4081 258.804 48.4489 259.008 48.4489C259.259 48.4489 259.466 48.3959 259.629 48.2897C259.792 48.1836 259.921 48.0435 260.017 47.8694C260.115 47.6952 260.191 47.5061 260.245 47.302V46.3184C260.215 46.1688 260.169 46.0246 260.106 45.8858C260.047 45.7443 259.968 45.6192 259.87 45.5103C259.774 45.3988 259.656 45.3103 259.515 45.245C259.373 45.1797 259.207 45.1471 259.017 45.1471C258.81 45.1471 258.632 45.1906 258.482 45.2777C258.335 45.362 258.214 45.479 258.119 45.6287C258.026 45.7756 257.957 45.947 257.911 46.1429C257.867 46.3361 257.845 46.5429 257.845 46.7633ZM264.368 47.8367C264.368 47.7279 264.343 47.6272 264.294 47.5347C264.248 47.4394 264.151 47.3537 264.004 47.2776C263.86 47.1986 263.642 47.1306 263.351 47.0735C263.106 47.0218 262.885 46.9606 262.686 46.8898C262.49 46.8191 262.323 46.7334 262.184 46.6327C262.048 46.532 261.943 46.4137 261.87 46.2776C261.796 46.1416 261.76 45.9824 261.76 45.8001C261.76 45.626 261.798 45.4613 261.874 45.3062C261.953 45.1512 262.063 45.0137 262.204 44.894C262.349 44.7743 262.521 44.6804 262.723 44.6124C262.924 44.5444 263.149 44.5104 263.396 44.5104C263.75 44.5104 264.052 44.573 264.302 44.6981C264.553 44.8233 264.744 44.9906 264.878 45.2001C265.011 45.4069 265.078 45.6368 265.078 45.8899H264.323C264.323 45.7674 264.286 45.6491 264.212 45.5348C264.142 45.4178 264.037 45.3212 263.898 45.245C263.762 45.1688 263.595 45.1307 263.396 45.1307C263.187 45.1307 263.017 45.1634 262.886 45.2287C262.758 45.2913 262.664 45.3716 262.604 45.4695C262.547 45.5675 262.519 45.6709 262.519 45.7797C262.519 45.8613 262.532 45.9348 262.559 46.0001C262.589 46.0627 262.641 46.1212 262.715 46.1756C262.788 46.2273 262.891 46.2763 263.025 46.3225C263.158 46.3688 263.328 46.415 263.535 46.4613C263.897 46.5429 264.195 46.6409 264.429 46.7551C264.663 46.8694 264.837 47.0095 264.951 47.1755C265.065 47.3415 265.123 47.5428 265.123 47.7796C265.123 47.9727 265.082 48.1496 265 48.3101C264.921 48.4707 264.806 48.6094 264.653 48.7264C264.504 48.8407 264.324 48.9305 264.114 48.9958C263.908 49.0584 263.675 49.0897 263.417 49.0897C263.027 49.0897 262.698 49.0203 262.429 48.8815C262.159 48.7428 261.955 48.5632 261.817 48.3428C261.678 48.1224 261.608 47.8898 261.608 47.6449H262.368C262.379 47.8517 262.438 48.0163 262.547 48.1387C262.656 48.2584 262.789 48.3442 262.947 48.3959C263.105 48.4448 263.261 48.4693 263.417 48.4693C263.623 48.4693 263.796 48.4421 263.935 48.3877C264.076 48.3333 264.184 48.2584 264.257 48.1632C264.331 48.068 264.368 47.9591 264.368 47.8367Z" fill="#CED8E1"/>
<path d="M212.325 67.1997V69.1098H207.5V67.1997H212.325ZM213.476 70.1709H215.924C215.875 70.9763 215.655 71.6892 215.263 72.3096C214.871 72.9245 214.327 73.4088 213.631 73.7625C212.94 74.1108 212.11 74.2849 211.141 74.2849C210.379 74.2849 209.694 74.1516 209.084 73.885C208.48 73.6183 207.966 73.2401 207.541 72.7503C207.117 72.2551 206.79 71.6565 206.562 70.9545C206.339 70.2525 206.227 69.4635 206.227 68.5873V67.7792C206.227 66.9031 206.341 66.114 206.57 65.412C206.804 64.71 207.136 64.1087 207.566 63.6081C208.001 63.1074 208.521 62.7265 209.125 62.4653C209.729 62.1986 210.406 62.0653 211.157 62.0653C212.153 62.0653 212.991 62.2449 213.672 62.604C214.352 62.9632 214.88 63.4584 215.255 64.0897C215.636 64.7155 215.862 65.4338 215.933 66.2446H213.5C213.462 65.7658 213.361 65.3576 213.198 65.0202C213.04 64.6828 212.795 64.4271 212.463 64.2529C212.137 64.0733 211.702 63.9835 211.157 63.9835C210.755 63.9835 210.398 64.0625 210.088 64.2203C209.778 64.3726 209.517 64.6066 209.304 64.9223C209.098 65.2379 208.94 65.6324 208.831 66.1059C208.728 66.5739 208.676 67.1262 208.676 67.7629V68.5873C208.676 69.0825 208.706 69.5315 208.766 69.9342C208.826 70.3314 208.918 70.6824 209.043 70.9872C209.168 71.2919 209.326 71.5477 209.517 71.7545C209.713 71.9613 209.944 72.1191 210.21 72.2279C210.483 72.3313 210.793 72.383 211.141 72.383C211.653 72.383 212.074 72.2987 212.406 72.13C212.738 71.9613 212.991 71.7137 213.165 71.3872C213.34 71.0607 213.443 70.6552 213.476 70.1709ZM223.41 62.1061H223.753V63.9835H223.614C222.993 63.9835 222.441 64.0761 221.957 64.2611C221.472 64.4461 221.062 64.71 220.724 65.0529C220.392 65.3903 220.136 65.7984 219.957 66.2773C219.783 66.7562 219.696 67.2922 219.696 67.8853V69.8607C219.696 70.2852 219.736 70.6607 219.818 70.9872C219.905 71.3083 220.028 71.5776 220.185 71.7953C220.349 72.0075 220.539 72.1681 220.757 72.2769C220.974 72.3803 221.219 72.432 221.491 72.432C221.747 72.432 221.978 72.3776 222.185 72.2687C222.397 72.1599 222.577 72.0075 222.724 71.8116C222.876 71.6103 222.991 71.3763 223.067 71.1096C223.148 70.8375 223.189 70.541 223.189 70.2199C223.189 69.8988 223.148 69.6022 223.067 69.3302C222.991 69.0581 222.876 68.8241 222.724 68.6282C222.572 68.4268 222.387 68.2717 222.169 68.1629C221.951 68.054 221.706 67.9996 221.434 67.9996C221.064 67.9996 220.738 68.0867 220.455 68.2608C220.177 68.4295 219.96 68.6472 219.802 68.9139C219.644 69.1805 219.56 69.4608 219.549 69.7546L218.839 69.2975C218.855 68.8785 218.942 68.4812 219.1 68.1057C219.263 67.7303 219.486 67.3983 219.769 67.1099C220.057 66.816 220.403 66.5875 220.806 66.4242C221.208 66.2555 221.663 66.1712 222.169 66.1712C222.724 66.1712 223.211 66.2773 223.63 66.4895C224.055 66.7017 224.408 66.9929 224.691 67.3629C224.974 67.733 225.186 68.1602 225.328 68.6445C225.469 69.1288 225.54 69.6458 225.54 70.1954C225.54 70.7722 225.445 71.3083 225.254 71.8035C225.069 72.2987 224.8 72.7313 224.446 73.1013C224.098 73.4714 223.679 73.7598 223.189 73.9666C222.7 74.1734 222.15 74.2768 221.54 74.2768C220.909 74.2768 220.335 74.1625 219.818 73.9339C219.307 73.6999 218.866 73.3734 218.496 72.9544C218.126 72.5354 217.84 72.0375 217.639 71.4606C217.443 70.8838 217.345 70.2525 217.345 69.5669V68.6526C217.345 67.6949 217.484 66.8187 217.761 66.0242C218.044 65.2243 218.449 64.5332 218.977 63.9509C219.505 63.3632 220.142 62.9088 220.887 62.5877C221.633 62.2667 222.474 62.1061 223.41 62.1061ZM234.952 70.8566C234.952 71.6021 234.778 72.2307 234.429 72.7422C234.081 73.2483 233.602 73.6319 232.993 73.8931C232.389 74.1489 231.703 74.2768 230.936 74.2768C230.168 74.2768 229.48 74.1489 228.871 73.8931C228.261 73.6319 227.779 73.2483 227.426 72.7422C227.072 72.2307 226.895 71.6021 226.895 70.8566C226.895 70.3559 226.996 69.9043 227.197 69.5016C227.399 69.0934 227.679 68.7452 228.038 68.4567C228.403 68.1629 228.83 67.9398 229.319 67.7874C229.809 67.6296 230.343 67.5507 230.919 67.5507C231.692 67.5507 232.383 67.6867 232.993 67.9588C233.602 68.2309 234.081 68.6146 234.429 69.1098C234.778 69.605 234.952 70.1872 234.952 70.8566ZM232.585 70.7015C232.585 70.3369 232.514 70.024 232.372 69.7628C232.236 69.4961 232.043 69.2921 231.793 69.1506C231.542 69.0091 231.251 68.9383 230.919 68.9383C230.587 68.9383 230.296 69.0091 230.046 69.1506C229.796 69.2921 229.6 69.4961 229.458 69.7628C229.322 70.024 229.254 70.3369 229.254 70.7015C229.254 71.0607 229.322 71.3708 229.458 71.632C229.6 71.8933 229.796 72.0946 230.046 72.2361C230.302 72.3721 230.598 72.4402 230.936 72.4402C231.273 72.4402 231.564 72.3721 231.809 72.2361C232.059 72.0946 232.25 71.8933 232.381 71.632C232.517 71.3708 232.585 71.0607 232.585 70.7015ZM234.699 65.3794C234.699 65.9834 234.538 66.5194 234.217 66.9874C233.896 67.45 233.45 67.8119 232.878 68.0731C232.313 68.3343 231.665 68.4649 230.936 68.4649C230.201 68.4649 229.548 68.3343 228.977 68.0731C228.405 67.8119 227.959 67.45 227.638 66.9874C227.317 66.5194 227.156 65.9834 227.156 65.3794C227.156 64.6611 227.317 64.057 227.638 63.5672C227.964 63.072 228.411 62.6966 228.977 62.4408C229.548 62.185 230.196 62.0571 230.919 62.0571C231.654 62.0571 232.304 62.185 232.87 62.4408C233.442 62.6966 233.888 63.072 234.209 63.5672C234.535 64.057 234.699 64.6611 234.699 65.3794ZM232.348 65.4855C232.348 65.1644 232.291 64.8869 232.176 64.6529C232.062 64.4135 231.899 64.2284 231.687 64.0978C231.48 63.9672 231.224 63.9019 230.919 63.9019C230.626 63.9019 230.372 63.9645 230.16 64.0897C229.953 64.2148 229.793 64.3971 229.679 64.6366C229.57 64.8706 229.515 65.1535 229.515 65.4855C229.515 65.8066 229.57 66.0895 229.679 66.3344C229.793 66.5739 229.956 66.7616 230.168 66.8977C230.381 67.0337 230.636 67.1017 230.936 67.1017C231.235 67.1017 231.488 67.0337 231.695 66.8977C231.907 66.7616 232.068 66.5739 232.176 66.3344C232.291 66.0895 232.348 65.8066 232.348 65.4855ZM244.674 72.2769V74.1135H236.544V72.5463L240.388 68.4241C240.775 67.9942 241.079 67.616 241.302 67.2895C241.526 66.9575 241.686 66.6609 241.784 66.3997C241.887 66.1331 241.939 65.88 241.939 65.6406C241.939 65.2814 241.879 64.974 241.76 64.7182C241.64 64.457 241.463 64.2556 241.229 64.1142C241 63.9727 240.717 63.9019 240.38 63.9019C240.021 63.9019 239.711 63.989 239.449 64.1631C239.194 64.3373 238.998 64.5794 238.862 64.8896C238.731 65.1998 238.666 65.5508 238.666 65.9426H236.307C236.307 65.2352 236.476 64.5876 236.813 63.9999C237.15 63.4067 237.626 62.936 238.241 62.5877C238.856 62.234 239.586 62.0571 240.429 62.0571C241.262 62.0571 241.964 62.1932 242.535 62.4653C243.112 62.7319 243.547 63.1183 243.841 63.6244C244.14 64.125 244.29 64.7236 244.29 65.4202C244.29 65.812 244.227 66.1957 244.102 66.5711C243.977 66.9412 243.798 67.3112 243.564 67.6813C243.335 68.0459 243.057 68.4159 242.731 68.7914C242.404 69.1669 242.043 69.556 241.645 69.9587L239.58 72.2769H244.674ZM246.355 72.9789C246.355 72.6306 246.475 72.3395 246.714 72.1055C246.959 71.8715 247.283 71.7545 247.686 71.7545C248.088 71.7545 248.409 71.8715 248.649 72.1055C248.894 72.3395 249.016 72.6306 249.016 72.9789C249.016 73.3272 248.894 73.6183 248.649 73.8523C248.409 74.0863 248.088 74.2033 247.686 74.2033C247.283 74.2033 246.959 74.0863 246.714 73.8523C246.475 73.6183 246.355 73.3272 246.355 72.9789ZM253.204 68.7016L251.326 68.2527L252.004 62.2286H258.681V64.1305H253.938L253.645 66.767C253.802 66.6745 254.042 66.5766 254.363 66.4732C254.684 66.3644 255.043 66.3099 255.44 66.3099C256.017 66.3099 256.529 66.3997 256.975 66.5793C257.421 66.7589 257.799 67.0201 258.11 67.3629C258.425 67.7058 258.665 68.1248 258.828 68.62C258.991 69.1152 259.073 69.6757 259.073 70.3015C259.073 70.8294 258.991 71.3327 258.828 71.8116C258.665 72.2851 258.417 72.7095 258.085 73.085C257.753 73.4551 257.337 73.7462 256.836 73.9584C256.335 74.1707 255.742 74.2768 255.057 74.2768C254.545 74.2768 254.05 74.2006 253.571 74.0482C253.098 73.8959 252.67 73.67 252.289 73.3707C251.914 73.0714 251.612 72.7095 251.383 72.2851C251.16 71.8552 251.043 71.3654 251.032 70.8158H253.367C253.4 71.1532 253.487 71.4443 253.628 71.6892C253.775 71.9286 253.968 72.1137 254.208 72.2443C254.447 72.3749 254.727 72.4402 255.048 72.4402C255.348 72.4402 255.604 72.383 255.816 72.2687C256.028 72.1545 256.199 71.9967 256.33 71.7953C256.461 71.5885 256.556 71.3491 256.616 71.077C256.681 70.7994 256.714 70.5001 256.714 70.1791C256.714 69.858 256.676 69.5669 256.599 69.3057C256.523 69.0445 256.406 68.8186 256.248 68.6282C256.091 68.4377 255.889 68.2908 255.644 68.1874C255.405 68.084 255.125 68.0323 254.804 68.0323C254.368 68.0323 254.031 68.1003 253.791 68.2363C253.557 68.3724 253.362 68.5275 253.204 68.7016Z" fill="white"/>
<rect x="211.156" y="84.084" width="42.9874" height="17.9114" rx="8.95571" fill="#FFAFF5"/>
<path d="M224.885 92.2027V93.0807H221.394V92.2027H224.885ZM223.619 90.8208V94.529H222.664V90.8208H223.619ZM228.793 94.2527V95.0398H225.308V94.3681L226.956 92.6015C227.122 92.4172 227.252 92.2551 227.348 92.1152C227.444 91.9729 227.512 91.8458 227.554 91.7339C227.599 91.6196 227.621 91.5112 227.621 91.4085C227.621 91.2546 227.595 91.1228 227.544 91.0132C227.493 90.9013 227.417 90.815 227.316 90.7544C227.219 90.6937 227.097 90.6634 226.953 90.6634C226.799 90.6634 226.666 90.7007 226.554 90.7753C226.444 90.85 226.36 90.9538 226.302 91.0867C226.246 91.2196 226.218 91.3701 226.218 91.538H225.207C225.207 91.2348 225.279 90.9573 225.424 90.7054C225.569 90.4512 225.773 90.2494 226.036 90.1002C226.3 89.9486 226.612 89.8728 226.974 89.8728C227.33 89.8728 227.631 89.9311 227.876 90.0477C228.123 90.162 228.31 90.3276 228.436 90.5445C228.564 90.759 228.628 91.0156 228.628 91.3141C228.628 91.482 228.602 91.6464 228.548 91.8073C228.494 91.9659 228.417 92.1245 228.317 92.2831C228.219 92.4394 228.1 92.598 227.96 92.7589C227.82 92.9198 227.665 93.0866 227.495 93.2591L226.61 94.2527H228.793ZM229.37 94.5535C229.37 94.4043 229.421 94.2795 229.524 94.1792C229.629 94.0789 229.768 94.0288 229.94 94.0288C230.113 94.0288 230.251 94.0789 230.353 94.1792C230.458 94.2795 230.511 94.4043 230.511 94.5535C230.511 94.7028 230.458 94.8276 230.353 94.9278C230.251 95.0281 230.113 95.0783 229.94 95.0783C229.768 95.0783 229.629 95.0281 229.524 94.9278C229.421 94.8276 229.37 94.7028 229.37 94.5535ZM234.782 93.1367V93.9273H231.112L231.063 93.3151L233.187 89.9462H233.988L233.12 91.398L232.064 93.1367H234.782ZM234.205 89.9462V95.0398H233.197V89.9462H234.205ZM236.133 92.7204L235.328 92.528L235.618 89.9462H238.48V90.7613H236.448L236.322 91.8913C236.389 91.8517 236.492 91.8097 236.629 91.7654C236.767 91.7187 236.921 91.6954 237.091 91.6954C237.338 91.6954 237.558 91.7339 237.749 91.8108C237.94 91.8878 238.102 91.9998 238.235 92.1467C238.37 92.2936 238.473 92.4732 238.543 92.6854C238.613 92.8977 238.648 93.1379 238.648 93.4061C238.648 93.6323 238.613 93.848 238.543 94.0533C238.473 94.2562 238.367 94.4381 238.225 94.599C238.082 94.7576 237.904 94.8824 237.689 94.9733C237.475 95.0643 237.221 95.1098 236.927 95.1098C236.708 95.1098 236.495 95.0771 236.29 95.0118C236.087 94.9465 235.904 94.8497 235.741 94.7214C235.58 94.5932 235.451 94.4381 235.353 94.2562C235.257 94.0719 235.207 93.862 235.202 93.6265H236.203C236.217 93.7711 236.254 93.8958 236.315 94.0008C236.378 94.1034 236.46 94.1827 236.563 94.2387C236.666 94.2947 236.786 94.3226 236.923 94.3226C237.052 94.3226 237.161 94.2982 237.252 94.2492C237.343 94.2002 237.417 94.1326 237.473 94.0463C237.529 93.9576 237.569 93.855 237.595 93.7384C237.623 93.6195 237.637 93.4912 237.637 93.3536C237.637 93.216 237.621 93.0912 237.588 92.9793C237.555 92.8673 237.505 92.7705 237.438 92.6889C237.37 92.6073 237.284 92.5443 237.179 92.5C237.076 92.4557 236.956 92.4335 236.818 92.4335C236.632 92.4335 236.487 92.4627 236.385 92.521C236.284 92.5793 236.2 92.6458 236.133 92.7204ZM239.141 91.1951V90.9258C239.141 90.7322 239.183 90.5561 239.267 90.3975C239.351 90.2389 239.475 90.1118 239.638 90.0162C239.801 89.9206 240.002 89.8728 240.24 89.8728C240.485 89.8728 240.689 89.9206 240.852 90.0162C241.018 90.1118 241.141 90.2389 241.223 90.3975C241.307 90.5561 241.349 90.7322 241.349 90.9258V91.1951C241.349 91.384 241.307 91.5578 241.223 91.7164C241.141 91.875 241.019 92.0021 240.856 92.0977C240.692 92.1933 240.491 92.2411 240.25 92.2411C240.008 92.2411 239.804 92.1933 239.638 92.0977C239.475 92.0021 239.351 91.875 239.267 91.7164C239.183 91.5578 239.141 91.384 239.141 91.1951ZM239.81 90.9258V91.1951C239.81 91.2768 239.825 91.3549 239.855 91.4295C239.888 91.5018 239.937 91.5613 240.002 91.6079C240.07 91.6523 240.151 91.6744 240.247 91.6744C240.347 91.6744 240.429 91.6523 240.492 91.6079C240.555 91.5613 240.601 91.5018 240.632 91.4295C240.662 91.3549 240.677 91.2768 240.677 91.1951V90.9258C240.677 90.8395 240.661 90.7602 240.628 90.6879C240.598 90.6133 240.55 90.5538 240.485 90.5095C240.422 90.4628 240.34 90.4395 240.24 90.4395C240.147 90.4395 240.067 90.4628 240.002 90.5095C239.937 90.5538 239.888 90.6133 239.855 90.6879C239.825 90.7602 239.81 90.8395 239.81 90.9258ZM241.576 94.0603V93.7909C241.576 93.5997 241.618 93.4247 241.702 93.2661C241.788 93.1076 241.913 92.9804 242.076 92.8848C242.242 92.7892 242.445 92.7414 242.685 92.7414C242.928 92.7414 243.131 92.7892 243.294 92.8848C243.457 92.9804 243.581 93.1076 243.665 93.2661C243.749 93.4247 243.791 93.5997 243.791 93.7909V94.0603C243.791 94.2515 243.749 94.4264 243.665 94.585C243.583 94.7436 243.461 94.8707 243.297 94.9663C243.134 95.062 242.932 95.1098 242.692 95.1098C242.45 95.1098 242.246 95.062 242.08 94.9663C241.914 94.8707 241.788 94.7436 241.702 94.585C241.618 94.4264 241.576 94.2515 241.576 94.0603ZM242.248 93.7909V94.0603C242.248 94.1442 242.267 94.2235 242.304 94.2982C242.341 94.3728 242.392 94.4323 242.458 94.4766C242.525 94.5209 242.604 94.543 242.692 94.543C242.804 94.543 242.892 94.5209 242.955 94.4766C243.018 94.4323 243.061 94.3728 243.084 94.2982C243.11 94.2235 243.122 94.1442 243.122 94.0603V93.7909C243.122 93.7069 243.106 93.6288 243.074 93.5565C243.041 93.4819 242.992 93.4224 242.927 93.3781C242.864 93.3314 242.783 93.3081 242.685 93.3081C242.587 93.3081 242.506 93.3314 242.44 93.3781C242.377 93.4224 242.33 93.4819 242.297 93.5565C242.264 93.6288 242.248 93.7069 242.248 93.7909ZM242.934 90.6739L240.446 94.655L239.956 94.3961L242.444 90.415L242.934 90.6739Z" fill="black"/>
<rect x="405.695" y="13.335" width="25.673" height="25.673" rx="4.17933" fill="#2E2B43"/>
<path d="M413.994 23.9027H414.156C414.78 23.9027 415.29 24.4132 415.29 25.0371V30.709C415.29 31.3329 414.78 31.8434 414.156 31.8434H413.994C413.37 31.8434 412.86 31.3329 412.86 30.709V25.0371C412.86 24.4132 413.37 23.9027 413.994 23.9027ZM418.532 20.4995C419.155 20.4995 419.666 21.01 419.666 21.6339V30.709C419.666 31.3329 419.155 31.8434 418.532 31.8434C417.908 31.8434 417.397 31.3329 417.397 30.709V21.6339C417.397 21.01 417.908 20.4995 418.532 20.4995ZM423.069 26.9817C423.693 26.9817 424.204 27.4922 424.204 28.1161V30.709C424.204 31.3329 423.693 31.8434 423.069 31.8434C422.445 31.8434 421.935 31.3329 421.935 30.709V28.1161C421.935 27.4922 422.445 26.9817 423.069 26.9817Z" fill="#FFAFF5"/>
<path d="M54.7349 184.577L0.100098 165.677V265.289H465.797V130.429L459.293 128.897L424.17 160.058L409.861 156.993L365.633 186.11L360.43 188.664L315.551 154.438L301.892 160.058L277.177 128.897H272.624L244.005 154.438H240.753L221.241 173.85L198.476 196.837L192.623 199.902L179.614 188.153L152.297 127.875L145.793 123.789L135.386 127.875L116.524 161.079L109.37 165.677L95.0606 158.525L82.0523 161.079L54.7349 184.577Z" fill="url(#paint0_linear_145_2371)"/>
<path d="M0.100098 165.752L54.3813 184.587C55.8876 185.109 57.551 184.591 58.5321 183.334C64.5163 175.667 86.0419 150.579 103.298 162.212C123.546 175.863 124.726 120.229 148.365 124.295C160.122 126.317 162.599 152.224 173.185 173.841C181.211 190.228 184.628 198.367 195.153 199.07C196.135 199.135 197.082 198.715 197.758 198.001L238.292 155.217C239.189 154.27 240.604 154.03 241.764 154.628V154.628C242.925 155.227 244.343 154.985 245.24 154.035L270.768 126.971C272.321 125.325 274.991 125.513 276.298 127.359L298.263 158.388C299.221 159.741 300.982 160.26 302.521 159.643L315.532 154.421C316.762 153.927 318.165 154.153 319.178 155.008L358.544 188.25C359.78 189.294 361.564 189.379 362.894 188.458L408.748 156.701C409.708 156.036 410.931 155.881 412.026 156.284L421.83 159.898C423.148 160.384 424.629 160.054 425.617 159.054L455.914 128.387C457.106 127.181 458.979 126.975 460.404 127.894L465.797 131.373" stroke="url(#paint1_linear_145_2371)" stroke-width="2.38819"/>
</g>
<defs>
<linearGradient id="paint0_linear_145_2371" x1="232.948" y1="123.789" x2="232.948" y2="265.289" gradientUnits="userSpaceOnUse">
<stop stop-color="#D473F1" stop-opacity="0.2"/>
<stop offset="1" stop-color="#D473F1" stop-opacity="0"/>
</linearGradient>
<linearGradient id="paint1_linear_145_2371" x1="465.797" y1="123.789" x2="6.20553" y2="210.581" gradientUnits="userSpaceOnUse">
<stop stop-color="#FFAFF5"/>
<stop offset="1" stop-color="#FFAFF5"/>
</linearGradient>
<clipPath id="clip0_145_2371">
<rect x="0.100098" y="0.199951" width="444.8" height="265.089" rx="11.9409" fill="white"/>
</clipPath>
</defs>
</svg>
