<svg width="97" height="96" viewBox="0 0 97 96" fill="none" xmlns="http://www.w3.org/2000/svg">
<g id="Speed_alt">
<path id="Subtract" fill-rule="evenodd" clip-rule="evenodd" d="M22.6234 73.028C17.8183 68.0601 14.5418 61.8103 13.1917 55.0233C11.8027 48.0399 12.5156 40.8015 15.2404 34.2234C17.9651 27.6453 22.5793 22.0228 28.4995 18.0671C34.4197 14.1114 41.3799 12 48.5 12C55.6201 12 62.5804 14.1114 68.5005 18.0671C74.4207 22.0228 79.0349 27.6453 81.7597 34.2234C84.4844 40.8015 85.1974 48.0399 83.8083 55.0233C82.4583 61.8103 79.1817 68.0601 74.3766 73.028C74.1462 73.2662 73.7659 73.2659 73.5316 73.0316L57.4096 56.9095C57.1752 56.6752 56.7963 56.6765 56.5507 56.8988C54.4217 58.8261 51.5979 60 48.5 60C45.4021 60 42.5784 58.8261 40.4494 56.8988C40.2037 56.6765 39.8248 56.6752 39.5905 56.9095L23.4684 73.0316C23.2341 73.2659 22.8538 73.2662 22.6234 73.028ZM70.558 39.43C72.4523 38.2934 73.0666 35.8363 71.93 33.942C70.7934 32.0477 68.3363 31.4334 66.442 32.57L46.442 44.57C44.5477 45.7066 43.9334 48.1637 45.07 50.058C46.2066 51.9523 48.6637 52.5666 50.558 51.43L70.558 39.43Z" fill="white"/>
</g>
</svg>
