<svg width="487" height="416" viewBox="0 0 487 416" fill="none" xmlns="http://www.w3.org/2000/svg">
<g clip-path="url(#clip0_53_423)">
<path d="M128.019 120.79V189.658C128.019 195.644 131.473 201.63 138.627 206.182C152.779 215.211 175.745 215.211 189.897 206.182C196.895 201.729 200.438 195.916 200.528 190.078V121.211L128.019 120.79Z" fill="#6D00BA"/>
<path d="M130.082 120.79H127.839V189.658C127.861 192.506 128.641 195.284 130.082 197.648V120.79Z" fill="#6D00BA"/>
<path d="M192.342 121.211L153.968 120.988V211.995C166.303 214.32 180.164 212.391 189.852 206.182C190.693 205.659 191.509 205.089 192.297 204.475L192.342 121.211Z" fill="#E29700"/>
<path d="M186.533 121.211V208.087C187.699 207.493 188.776 206.874 189.897 206.182C196.895 201.729 200.438 195.916 200.528 190.078V121.211H186.533Z" fill="#D66EE5"/>
<path d="M164.262 120.815L186.488 139.194C176.266 143.973 164.991 145.316 154.08 143.053L164.262 120.815Z" fill="#FFD03B"/>
<path d="M189.83 104.39C198.958 110.203 202.973 118.935 199.115 127.37C196.872 132.318 192.835 136.078 186.488 139.194L164.262 120.815L147.15 119.232L129.387 114.284C134.994 101.916 155.156 94.9648 174.422 98.6012C179.826 99.5188 185.042 101.478 189.83 104.39Z" fill="url(#paint0_linear_53_423)"/>
<path d="M164.262 120.815L154.08 143.078C148.656 142.183 143.417 140.241 138.605 137.339C135.16 135.25 132.233 132.26 130.082 128.632L164.262 120.815Z" fill="#8A18ED"/>
<path d="M164.262 120.815L130.082 128.632C128.775 126.544 128.019 124.097 127.9 121.563C127.782 119.03 128.304 116.509 129.409 114.284L164.262 120.815Z" fill="#8A18ED"/>
<path d="M122.255 185.131V241.531C128.779 241.798 135.253 240.168 141.027 236.806C145.916 233.689 148.383 229.608 148.45 225.526V185.279L122.255 185.131Z" fill="#E29700"/>
<path d="M103.348 185.007V235.569C103.886 235.99 104.492 236.41 105.12 236.806C111.882 240.696 119.543 242.272 127.121 241.333V185.155L103.348 185.007Z" fill="#D66EE5"/>
<path d="M145.602 185.254V232.799C147.324 230.839 148.338 228.252 148.45 225.526V185.279L145.602 185.254Z" fill="#E29700"/>
<path d="M105.411 185.032H97.7858V225.229C97.7858 229.41 100.208 233.615 105.232 236.806H105.411V185.032Z" fill="#6D00BA"/>
<path d="M123.062 184.933L127.099 200.888C119.562 201.889 111.927 200.309 105.232 196.361L123.062 184.933Z" fill="#FFACF6"/>
<path d="M140.892 173.504C148.832 178.452 150.693 185.873 145.647 192.255L123.062 184.834L140.892 173.504Z" fill="#FFD03B"/>
<path d="M145.647 192.255C141.857 197.029 135.375 200.047 127.099 200.888L123.062 184.933L145.647 192.255Z" fill="#FFD03B"/>
<path d="M123.062 184.933L105.232 196.361C97.3148 191.414 95.4308 183.993 100.477 177.586L123.062 184.933Z" fill="#8A18ED"/>
<path d="M126.942 168.953L123.062 184.933L100.477 177.512C105.523 171.229 115.908 167.84 126.942 168.953Z" fill="#E467E8"/>
<path d="M140.892 173.504L122.95 184.933L126.942 168.953C131.839 169.318 136.603 170.872 140.892 173.504Z" fill="#9E5BF4"/>
<path style="mix-blend-mode:screen" d="M148.316 186.318C148.218 186.991 148.045 187.647 147.8 188.272C146.884 190.482 145.499 192.416 143.763 193.912C141.34 196.041 138.568 197.637 135.599 198.612C132.191 199.756 128.663 200.405 125.103 200.542C121.55 200.8 117.981 200.526 114.495 199.726C111.445 199.07 108.499 197.928 105.748 196.337C103.78 195.255 101.991 193.816 100.455 192.082C99.8685 191.412 99.3496 190.673 98.9072 189.88C99.3106 190.701 99.7917 191.472 100.343 192.181C101.767 194.052 103.483 195.627 105.411 196.831C108.207 198.584 111.234 199.844 114.382 200.567C117.931 201.417 121.566 201.741 125.193 201.531C128.82 201.352 132.409 200.645 135.868 199.429C138.913 198.369 141.729 196.635 144.144 194.333C145.873 192.728 147.207 190.67 148.024 188.347C148.237 187.691 148.38 187.01 148.45 186.318C148.466 186.079 148.466 185.84 148.45 185.601C148.45 185.601 148.406 185.848 148.316 186.318Z" fill="url(#paint1_radial_53_423)"/>
<path style="mix-blend-mode:screen" d="M181.405 212.1C187.809 183.856 172.241 155.234 146.634 148.172C121.027 141.109 95.0767 158.279 88.6731 186.523C82.2695 214.766 97.8371 243.388 123.444 250.451C149.052 257.513 175.002 240.343 181.405 212.1Z" fill="url(#paint2_radial_53_423)"/>
<path style="mix-blend-mode:screen" d="M200.259 123.684C200.052 124.614 199.758 125.517 199.384 126.381C198.033 129.449 196.024 132.106 193.531 134.123C189.975 136.924 186.028 139.063 181.846 140.456C177.084 142.144 172.132 143.085 167.133 143.251C162.126 143.49 157.111 143.066 152.196 141.99C147.895 141.143 143.722 139.645 139.793 137.537C137.019 136.035 134.494 134.028 132.325 131.6C131.711 130.911 131.141 130.176 130.62 129.399L130.082 128.632L130.575 129.498C131.03 130.367 131.548 131.194 132.123 131.971C134.189 134.606 136.675 136.803 139.457 138.452C143.388 140.783 147.614 142.451 151.994 143.4C156.992 144.553 162.096 145.051 167.2 144.884C172.322 144.642 177.387 143.609 182.249 141.816C186.513 140.3 190.499 137.963 194.024 134.915C196.511 132.689 198.435 129.792 199.609 126.504C199.95 125.6 200.191 124.653 200.326 123.684C200.388 123.349 200.433 123.011 200.461 122.67C200.461 122.67 200.416 123.041 200.259 123.684Z" fill="url(#paint3_radial_53_423)"/>
<path style="mix-blend-mode:screen" d="M216.487 157.514C223.221 129.364 207.99 100.523 182.467 93.0962C156.945 85.6692 130.796 102.468 124.062 130.618C117.328 158.768 132.56 187.609 158.082 195.036C183.604 202.463 209.753 185.664 216.487 157.514Z" fill="url(#paint4_radial_53_423)"/>
<g style="mix-blend-mode:screen" opacity="0.2">
<path d="M235.134 255.977C210.464 240.319 210.464 214.84 234.843 199.082C259.222 183.325 299.144 183.424 323.747 199.082C348.351 214.741 348.418 240.22 324.016 255.977C299.615 271.735 259.715 271.636 235.134 255.977Z" fill="#DB4DFF"/>
</g>
<g style="mix-blend-mode:multiply" opacity="0.6">
<path d="M412.786 302.309L349.293 261.889C348.577 261.487 347.785 261.278 346.982 261.278C346.18 261.278 345.388 261.487 344.672 261.889L344.291 262.112L330.969 253.627C351.333 237.177 349.562 213.133 325.698 197.92C300.018 181.569 258.415 181.569 232.869 197.92C207.324 214.271 207.503 240.888 233.183 257.288C256.957 272.452 294.456 273.54 320.114 260.603L333.436 269.088L333.077 269.335C332.8 269.441 332.56 269.64 332.39 269.904C332.22 270.168 332.129 270.483 332.129 270.807C332.129 271.131 332.22 271.446 332.39 271.71C332.56 271.974 332.8 272.172 333.077 272.279L396.548 312.724C397.268 313.126 398.063 313.335 398.869 313.335C399.676 313.335 400.471 313.126 401.191 312.724L412.786 305.302C413.08 305.208 413.338 305.012 413.522 304.742C413.706 304.472 413.805 304.143 413.805 303.806C413.805 303.468 413.706 303.14 413.522 302.87C413.338 302.6 413.08 302.403 412.786 302.309ZM235.134 255.977C210.464 240.319 210.464 214.84 234.843 199.082C259.222 183.325 299.144 183.424 323.747 199.082C348.351 214.741 348.418 240.22 324.016 255.977C299.615 271.735 259.715 271.636 235.134 255.977Z" fill="#3A0155"/>
</g>
<path d="M283.175 332.513L132.504 236.583V246.379L283.175 342.309V332.513Z" fill="#C6A1CE"/>
<path d="M143.763 243.757L132.504 236.583V246.379L143.763 253.553V243.757Z" fill="#962DCC"/>
<path d="M383.54 278.414L283.175 342.309V332.513L383.54 268.618V278.414Z" fill="#E8BDF1"/>
<path d="M283.175 332.513L132.504 236.583L232.869 172.663L383.54 268.618L283.175 332.513Z" fill="#FFEBFF"/>
<path d="M143.741 243.732L132.504 236.583L232.869 172.663L244.106 179.837L143.741 243.732Z" fill="#FFBBFA"/>
<path d="M238.813 179.293L234.888 181.791L228.855 177.957L232.779 175.459L238.813 179.293Z" fill="#D473F1"/>
<path d="M222.395 179.342L223.763 178.477C223.456 177.918 223.179 177.34 222.934 176.745C222.496 175.87 222.242 174.898 222.192 173.9C222.141 172.902 222.295 171.904 222.642 170.981C222.847 170.649 223.126 170.382 223.452 170.204C223.778 170.026 224.14 169.945 224.504 169.967C227.172 169.967 230.783 173.381 232.376 177.388C232.795 178.42 233.046 179.525 233.116 180.653L234.708 181.643C234.787 179.937 234.479 178.237 233.811 176.695C231.95 171.921 227.845 168.161 224.504 168.161C223.877 168.136 223.255 168.288 222.697 168.605C222.139 168.921 221.665 169.39 221.319 169.967C220.8 171.126 220.544 172.407 220.571 173.699C220.599 174.991 220.909 176.257 221.476 177.388C221.745 178.06 222.052 178.713 222.395 179.342Z" fill="#FFEBFF"/>
<g style="mix-blend-mode:screen">
<path d="M226.746 169.349C226.746 169.67 227.06 169.794 227.24 169.868C227.857 170.189 228.443 170.579 228.989 171.031C230.489 172.35 231.681 174.047 232.465 175.978C232.465 176.225 233.071 175.978 232.959 175.706C231.008 170.882 226.993 168.73 226.746 169.349Z" fill="white"/>
</g>
<path d="M231.793 183.745L227.89 186.244L221.857 182.41L225.782 179.911L231.793 183.745Z" fill="#D473F1"/>
<path d="M215.308 183.82L216.699 182.929C216.383 182.376 216.105 181.797 215.869 181.198C215.42 180.327 215.16 179.354 215.109 178.354C215.058 177.354 215.219 176.354 215.577 175.434C215.782 175.102 216.061 174.834 216.387 174.657C216.713 174.479 217.075 174.397 217.439 174.42C220.108 174.42 223.696 177.833 225.289 181.841C225.71 182.873 225.968 183.978 226.051 185.106L227.621 186.12C227.703 184.417 227.403 182.717 226.746 181.173C224.862 176.399 220.78 172.639 217.439 172.639C216.812 172.613 216.19 172.766 215.632 173.082C215.074 173.398 214.6 173.867 214.254 174.444C213.736 175.604 213.479 176.884 213.507 178.176C213.534 179.468 213.844 180.734 214.411 181.865C214.673 182.537 214.973 183.189 215.308 183.82Z" fill="#FFEBFF"/>
<g style="mix-blend-mode:screen">
<path d="M219.794 173.801C219.659 174.123 220.085 174.247 220.265 174.321C220.883 174.64 221.469 175.03 222.014 175.483C223.521 176.796 224.714 178.494 225.49 180.431C225.49 180.678 226.096 180.431 226.006 180.183C223.898 175.335 219.996 173.158 219.794 173.801Z" fill="white"/>
</g>
<path d="M224.795 188.223L220.893 190.697L214.86 186.862L218.762 184.364L224.795 188.223Z" fill="#D473F1"/>
<path d="M208.378 188.272L209.746 187.382C209.441 186.826 209.172 186.247 208.939 185.65C208.479 184.786 208.207 183.815 208.145 182.815C208.082 181.815 208.231 180.812 208.58 179.887C208.779 179.549 209.057 179.277 209.385 179.099C209.712 178.92 210.077 178.842 210.441 178.872C213.11 178.872 216.699 182.311 218.291 186.293C218.706 187.32 218.964 188.415 219.054 189.534L220.624 190.548C220.695 188.846 220.395 187.149 219.749 185.601C217.865 180.827 213.783 177.091 210.441 177.091C209.814 177.063 209.191 177.215 208.633 177.531C208.075 177.848 207.601 178.318 207.256 178.897C206.733 180.055 206.473 181.336 206.5 182.629C206.528 183.922 206.841 185.189 207.413 186.318C207.692 186.994 208.014 187.647 208.378 188.272Z" fill="#FFEBFF"/>
<g style="mix-blend-mode:screen">
<path d="M212.751 178.254C212.617 178.575 213.043 178.699 213.222 178.798C213.85 179.098 214.438 179.489 214.972 179.961C216.482 181.269 217.676 182.968 218.448 184.908C218.448 185.131 219.054 184.908 218.964 184.636C216.878 179.812 213.065 177.66 212.751 178.254Z" fill="white"/>
</g>
<path d="M217.798 192.676L213.873 195.174L207.84 191.34L211.764 188.841L217.798 192.676Z" fill="#D473F1"/>
<path d="M201.38 192.725L202.748 191.859C202.441 191.301 202.164 190.722 201.919 190.128C201.481 189.253 201.227 188.28 201.177 187.282C201.126 186.285 201.28 185.287 201.627 184.364C201.832 184.032 202.111 183.764 202.437 183.587C202.763 183.409 203.125 183.327 203.489 183.35C206.158 183.35 209.768 186.763 211.361 190.771C211.78 191.802 212.031 192.908 212.101 194.036L213.693 195.026C213.772 193.32 213.464 191.619 212.796 190.078C210.935 185.279 206.83 181.544 203.489 181.544C202.863 181.523 202.242 181.678 201.685 181.994C201.128 182.309 200.653 182.776 200.304 183.35C199.783 184.509 199.528 185.791 199.559 187.085C199.59 188.378 199.907 189.644 200.483 190.771C200.735 191.447 201.035 192.101 201.38 192.725Z" fill="#FFEBFF"/>
<g style="mix-blend-mode:screen">
<path d="M205.731 182.731C205.731 183.053 206.045 183.177 206.225 183.251C206.849 183.557 207.437 183.947 207.974 184.413C209.474 185.733 210.666 187.429 211.45 189.361C211.45 189.608 212.056 189.361 211.966 189.089C209.881 184.265 205.978 182.113 205.731 182.731Z" fill="white"/>
</g>
<path d="M210.778 197.128L206.875 199.627L200.842 195.792L204.767 193.294L210.778 197.128Z" fill="#D473F1"/>
<path d="M194.36 197.178L195.751 196.312C195.435 195.759 195.158 195.18 194.921 194.58C194.472 193.71 194.212 192.736 194.161 191.736C194.111 190.736 194.271 189.737 194.63 188.817C194.834 188.485 195.113 188.217 195.439 188.039C195.765 187.861 196.128 187.78 196.491 187.802C199.16 187.802 202.748 191.216 204.341 195.223C204.763 196.256 205.02 197.36 205.103 198.489L206.696 199.503C206.769 197.798 206.461 196.099 205.799 194.556C203.915 189.781 199.833 186.021 196.491 186.021C195.864 185.996 195.242 186.148 194.684 186.465C194.127 186.781 193.652 187.25 193.306 187.827C192.788 188.986 192.532 190.267 192.559 191.559C192.586 192.851 192.897 194.117 193.463 195.248C193.721 195.914 194.021 196.559 194.36 197.178Z" fill="#FFEBFF"/>
<g style="mix-blend-mode:screen">
<path d="M198.734 187.184C198.734 187.506 199.048 187.629 199.205 187.703C199.823 188.023 200.409 188.412 200.954 188.866C202.467 190.172 203.661 191.872 204.431 193.813C204.431 194.061 205.036 193.813 204.946 193.541C202.883 188.718 198.981 186.59 198.734 187.184Z" fill="white"/>
</g>
<path d="M203.78 201.606L199.878 204.079L193.845 200.245L197.747 197.747L203.78 201.606Z" fill="#D473F1"/>
<path d="M187.363 201.655L188.731 200.764C188.426 200.208 188.157 199.63 187.924 199.033C187.475 198.162 187.214 197.189 187.164 196.189C187.113 195.189 187.274 194.189 187.632 193.269C187.832 192.932 188.11 192.66 188.437 192.481C188.765 192.303 189.129 192.225 189.494 192.255C192.162 192.255 195.751 195.693 197.343 199.676C197.756 200.712 198.014 201.814 198.106 202.941L199.676 203.956C199.747 202.253 199.447 200.556 198.801 199.008C196.917 194.259 192.88 190.474 189.494 190.474C188.869 190.448 188.249 190.598 187.692 190.91C187.135 191.221 186.659 191.684 186.309 192.255C185.785 193.412 185.525 194.694 185.553 195.987C185.58 197.28 185.893 198.547 186.466 199.676C186.718 200.36 187.018 201.022 187.363 201.655Z" fill="#FFEBFF"/>
<g style="mix-blend-mode:screen">
<path d="M191.736 191.637C191.602 191.958 192.028 192.082 192.207 192.181C192.835 192.481 193.423 192.872 193.957 193.343C195.473 194.645 196.669 196.346 197.433 198.291C197.433 198.513 198.039 198.291 197.949 198.019C195.886 193.17 191.961 191.043 191.736 191.637Z" fill="white"/>
</g>
<path d="M196.783 206.058L192.858 208.557L186.847 204.698L190.75 202.224L196.783 206.058Z" fill="#D473F1"/>
<path d="M180.365 206.108L181.666 205.316C181.359 204.757 181.082 204.179 180.836 203.584C180.398 202.71 180.145 201.737 180.094 200.739C180.044 199.742 180.198 198.744 180.545 197.821C180.748 197.482 181.03 197.208 181.361 197.03C181.693 196.852 182.061 196.775 182.429 196.807C185.075 196.807 188.686 200.22 190.279 204.228C190.694 205.262 190.952 206.366 191.041 207.493L192.611 208.482C192.688 206.779 192.387 205.081 191.736 203.535C189.852 198.736 185.77 195.001 182.429 195.001C181.799 194.976 181.174 195.128 180.613 195.444C180.051 195.76 179.573 196.229 179.222 196.807C178.701 197.966 178.445 199.248 178.477 200.542C178.508 201.835 178.825 203.1 179.401 204.228C179.682 204.878 180.005 205.506 180.365 206.108Z" fill="#FFEBFF"/>
<g style="mix-blend-mode:screen">
<path d="M184.739 196.089C184.604 196.436 185.03 196.559 185.21 196.633C185.837 196.934 186.425 197.325 186.959 197.796C188.464 199.11 189.657 200.808 190.436 202.743C190.436 202.991 191.041 202.743 190.951 202.471C188.866 197.648 184.963 195.421 184.739 196.089Z" fill="white"/>
</g>
<path d="M189.763 210.511L185.86 213.009L179.827 209.175L183.752 206.677L189.763 210.511Z" fill="#D473F1"/>
<path d="M173.345 210.56L174.736 209.694C174.429 209.136 174.152 208.558 173.906 207.963C173.457 207.092 173.197 206.119 173.146 205.119C173.096 204.119 173.256 203.119 173.615 202.199C173.819 201.867 174.098 201.6 174.424 201.422C174.75 201.244 175.113 201.163 175.476 201.185C178.145 201.185 181.733 204.599 183.326 208.606C183.748 209.638 184.005 210.743 184.088 211.871L185.681 212.861C185.758 211.155 185.449 209.455 184.784 207.913C182.922 203.139 178.818 199.379 175.476 199.379C174.849 199.354 174.227 199.506 173.67 199.823C173.112 200.139 172.637 200.608 172.291 201.185C171.773 202.344 171.517 203.625 171.544 204.917C171.571 206.209 171.882 207.475 172.448 208.606C172.705 209.28 173.005 209.933 173.345 210.56Z" fill="#FFEBFF"/>
<g style="mix-blend-mode:screen">
<path d="M177.719 200.567C177.719 200.888 178.033 201.012 178.19 201.086C178.808 201.405 179.394 201.795 179.939 202.249C181.452 203.555 182.646 205.255 183.416 207.196C183.416 207.443 184.021 207.196 183.931 206.924C181.868 202.1 177.966 199.973 177.719 200.567Z" fill="white"/>
</g>
<path d="M182.765 214.988L178.863 217.462L172.83 213.628L176.732 211.129L182.765 214.988Z" fill="#D473F1"/>
<path d="M166.348 215.038L167.738 214.147C167.418 213.597 167.14 213.018 166.909 212.416C166.46 211.545 166.199 210.572 166.149 209.571C166.098 208.571 166.259 207.572 166.617 206.652C166.822 206.32 167.101 206.052 167.427 205.874C167.753 205.697 168.115 205.615 168.479 205.638C171.148 205.638 174.736 209.076 176.328 213.059C176.786 214.1 177.074 215.222 177.181 216.373L178.751 217.388C178.822 215.685 178.522 213.989 177.876 212.44C175.992 207.666 171.91 203.931 168.568 203.931C167.943 203.898 167.321 204.044 166.762 204.357C166.204 204.669 165.729 205.136 165.384 205.712C164.86 206.869 164.6 208.15 164.627 209.444C164.655 210.737 164.968 212.004 165.541 213.133C165.775 213.785 166.045 214.421 166.348 215.038Z" fill="#FFEBFF"/>
<g style="mix-blend-mode:screen">
<path d="M170.721 205.019C170.587 205.341 171.013 205.464 171.192 205.563C171.814 205.865 172.402 206.247 172.942 206.701C174.451 208.011 175.645 209.71 176.418 211.649C176.418 211.871 177.024 211.649 176.934 211.377C174.938 206.553 170.946 204.426 170.721 205.019Z" fill="white"/>
</g>
<path d="M175.768 219.441L171.843 221.939L165.832 218.105L169.735 215.607L175.768 219.441Z" fill="#D473F1"/>
<path d="M159.35 219.49L160.719 218.624C160.41 218.071 160.14 217.492 159.911 216.893C159.465 216.017 159.204 215.041 159.15 214.039C159.095 213.036 159.248 212.032 159.597 211.104C159.805 210.772 160.088 210.505 160.419 210.331C160.75 210.158 161.116 210.083 161.481 210.115C164.128 210.115 167.738 213.529 169.331 217.536C169.746 218.562 170.004 219.657 170.093 220.777L171.663 221.791C171.74 220.088 171.44 218.39 170.789 216.843C168.905 212.044 164.823 208.309 161.481 208.309C160.851 208.284 160.226 208.437 159.665 208.753C159.104 209.069 158.625 209.538 158.274 210.115C157.753 211.275 157.498 212.557 157.529 213.85C157.56 215.143 157.877 216.409 158.453 217.536C158.71 218.21 159.01 218.863 159.35 219.49Z" fill="#FFEBFF"/>
<g style="mix-blend-mode:screen">
<path d="M163.724 209.472C163.589 209.818 164.015 209.942 164.195 210.016C164.822 210.316 165.41 210.707 165.944 211.179C167.449 212.493 168.642 214.191 169.421 216.126C169.421 216.373 170.026 216.126 169.936 215.854C167.851 211.03 163.948 208.878 163.724 209.472Z" fill="white"/>
</g>
<path d="M168.77 223.893L164.845 226.392L158.812 222.558L162.737 220.059L168.77 223.893Z" fill="#D473F1"/>
<path d="M152.353 223.943L153.721 223.077C153.414 222.518 153.137 221.94 152.891 221.346C152.428 220.483 152.152 219.513 152.086 218.513C152.02 217.513 152.165 216.51 152.51 215.582C152.714 215.25 152.993 214.982 153.32 214.804C153.646 214.627 154.008 214.545 154.371 214.568C157.04 214.568 160.651 217.981 162.221 221.989C162.655 223.016 162.913 224.123 162.984 225.254L164.576 226.243C164.653 224.538 164.345 222.838 163.679 221.296C161.907 216.571 157.803 212.737 154.461 212.737C153.834 212.712 153.212 212.864 152.655 213.18C152.097 213.497 151.622 213.966 151.276 214.543C150.758 215.702 150.502 216.982 150.529 218.275C150.556 219.567 150.867 220.833 151.433 221.964C151.702 222.644 152.009 223.305 152.353 223.943Z" fill="#FFEBFF"/>
<g style="mix-blend-mode:screen">
<path d="M156.704 213.949C156.592 214.271 157.018 214.394 157.175 214.469C157.802 214.784 158.396 215.174 158.947 215.631C160.446 216.945 161.632 218.644 162.401 220.579C162.401 220.826 163.006 220.579 162.916 220.307C160.853 215.483 156.995 213.331 156.704 213.949Z" fill="white"/>
</g>
<path d="M161.75 228.346L157.848 230.844L151.815 227.01L155.74 224.512L161.75 228.346Z" fill="#D473F1"/>
<path d="M145.333 228.42L146.723 227.53C146.403 226.979 146.125 226.4 145.894 225.798C145.462 224.943 145.212 223.992 145.161 223.015C145.111 222.038 145.262 221.062 145.602 220.158C145.807 219.826 146.086 219.559 146.412 219.381C146.738 219.203 147.1 219.121 147.464 219.144C150.133 219.144 153.721 222.582 155.313 226.565C155.735 227.597 155.993 228.702 156.076 229.83L157.646 230.845C157.717 229.142 157.417 227.445 156.771 225.897C154.887 221.123 150.805 217.388 147.464 217.388C146.839 217.359 146.218 217.508 145.661 217.82C145.103 218.132 144.627 218.596 144.279 219.169C143.755 220.326 143.495 221.607 143.523 222.901C143.55 224.194 143.864 225.46 144.436 226.59C144.702 227.219 145.002 227.83 145.333 228.42Z" fill="#FFEBFF"/>
<g style="mix-blend-mode:screen">
<path d="M149.706 218.402C149.572 218.723 149.998 218.847 150.177 218.946C150.799 219.247 151.387 219.629 151.927 220.084C153.436 221.394 154.63 223.093 155.403 225.031C155.403 225.254 156.009 225.031 155.919 224.759C153.856 219.936 149.931 217.808 149.706 218.402Z" fill="white"/>
</g>
<path d="M154.753 232.823L150.828 235.322L144.817 231.463L148.72 228.989L154.753 232.823Z" fill="#D473F1"/>
<path d="M138.335 232.873L139.704 231.982C139.399 231.435 139.129 230.864 138.896 230.276C138.45 229.4 138.189 228.424 138.135 227.421C138.081 226.418 138.233 225.415 138.582 224.487C138.79 224.154 139.073 223.888 139.404 223.714C139.735 223.54 140.101 223.466 140.466 223.498C143.135 223.498 146.723 226.911 148.316 230.919C148.731 231.945 148.989 233.04 149.078 234.159L150.648 235.173C150.725 233.471 150.425 231.773 149.774 230.226C147.89 225.427 143.808 221.692 140.466 221.692C139.836 221.667 139.211 221.819 138.65 222.135C138.089 222.452 137.61 222.92 137.259 223.498C136.738 224.657 136.483 225.939 136.514 227.233C136.545 228.526 136.863 229.791 137.438 230.919C137.695 231.593 137.995 232.246 138.335 232.873Z" fill="#FFEBFF"/>
<g style="mix-blend-mode:screen">
<path d="M142.709 222.854C142.574 223.176 143 223.3 143.18 223.399C143.807 223.699 144.395 224.09 144.929 224.561C146.434 225.875 147.627 227.573 148.406 229.509C148.406 229.756 149.011 229.509 148.921 229.237C146.836 224.413 142.933 222.261 142.709 222.854Z" fill="white"/>
</g>
<path d="M147.755 237.276L143.83 239.775L137.797 235.94L141.722 233.442L147.755 237.276Z" fill="#D473F1"/>
<path d="M130.441 235.446C130.932 236.563 131.566 237.596 132.325 238.513L132.616 238.909V236.583H132.818C132.511 236.025 132.234 235.447 131.988 234.852C131.55 233.977 131.297 233.005 131.246 232.007C131.196 231.009 131.35 230.011 131.697 229.088C131.901 228.756 132.18 228.489 132.506 228.311C132.833 228.133 133.195 228.051 133.558 228.074C136.227 228.074 139.838 231.488 141.431 235.495C141.85 236.527 142.101 237.632 142.171 238.76L143.763 239.75C143.842 238.044 143.533 236.344 142.866 234.802C140.892 230.053 136.81 226.194 133.446 226.194C132.819 226.168 132.197 226.321 131.64 226.637C131.082 226.954 130.607 227.423 130.261 228C129.743 229.159 129.487 230.439 129.514 231.732C129.541 233.024 129.852 234.289 130.418 235.421L130.441 235.446Z" fill="#FFEBFF"/>
<g style="mix-blend-mode:screen">
<path d="M135.689 227.332C135.689 227.653 136.003 227.777 136.182 227.851C136.8 228.173 137.386 228.562 137.932 229.014C139.432 230.333 140.624 232.03 141.408 233.961C141.408 234.209 142.014 233.961 141.901 233.689C139.838 228.866 135.936 226.713 135.689 227.332Z" fill="white"/>
</g>
<path d="M208.266 245.464C209.414 245.906 210.656 245.958 211.832 245.612C211.832 245.612 211.832 245.415 211.832 245.241C211.76 245.078 211.678 244.921 211.585 244.771C211.585 244.573 210.576 243.485 208.871 241.556C210.378 240.303 211.441 238.509 211.877 236.485C212.012 235.696 211.907 234.88 211.579 234.165C211.25 233.449 210.716 232.873 210.06 232.527C208.793 231.732 207.342 231.371 205.888 231.488C204.193 231.652 202.557 232.254 201.111 233.244C200.199 233.804 199.392 234.551 198.734 235.446C198.083 236.336 197.971 236.93 198.397 237.202C198.993 237.448 199.623 237.582 200.259 237.598C202.654 239.32 204.82 241.401 206.696 243.782C207.144 244.422 207.673 244.988 208.266 245.464ZM202.771 236.262C203.12 235.642 203.606 235.132 204.184 234.778C204.737 234.413 205.358 234.193 206.001 234.135C206.638 234.092 207.271 234.265 207.817 234.629C208.102 234.823 208.323 235.113 208.448 235.456C208.573 235.798 208.596 236.176 208.512 236.534C208.302 237.632 207.83 238.648 207.144 239.478C206.228 238.428 205.204 237.498 204.094 236.707C203.688 236.454 203.236 236.302 202.771 236.262Z" fill="#BFACBF"/>
<path d="M206.83 226.417C206.427 226.664 206.449 226.936 206.83 227.208C208.943 228.551 210.954 230.081 212.841 231.785C214.725 233.516 216.25 235 217.327 236.237C218.013 237.036 218.764 237.765 219.569 238.414C220.133 238.66 220.735 238.778 221.341 238.76C221.934 238.838 222.535 238.753 223.091 238.513C223.517 238.241 221.924 236.262 218.313 232.551C217.394 231.611 216.228 230.548 214.77 229.336C213.685 228.44 212.554 227.614 211.383 226.862C210.625 226.474 209.797 226.279 208.961 226.293C208.252 226.145 207.521 226.187 206.83 226.417Z" fill="#BFACBF"/>
<path d="M225.401 223.869C224.269 223.827 223.145 224.091 222.126 224.636C221.769 224.859 221.46 225.164 221.22 225.532C220.98 225.899 220.815 226.319 220.736 226.763C220.49 227.709 220.49 228.711 220.736 229.657C221.03 230.683 221.469 231.651 222.036 232.527C222.481 233.284 223.071 233.926 223.763 234.407C224.707 234.865 225.741 235.053 226.769 234.951C227.809 235.022 228.849 234.81 229.797 234.332C230.336 233.922 230.759 233.35 231.013 232.684C231.267 232.018 231.343 231.285 231.232 230.572C231.953 230.882 232.706 231.09 233.475 231.191C233.95 231.348 234.457 231.348 234.933 231.191C235.202 231.018 235.202 230.795 234.933 230.473L234.506 230.028C234.299 229.818 234.082 229.62 233.856 229.434L232.959 228.643C232.667 228.371 232.286 227.95 231.815 227.431C231.531 227.075 231.215 226.752 230.873 226.466C230.543 226.33 230.193 226.263 229.841 226.268C229.554 225.572 229.075 224.992 228.473 224.611C227.524 224.076 226.466 223.82 225.401 223.869ZM227.217 226.986C227.836 227.588 228.261 228.395 228.428 229.286C228.555 230.002 228.484 230.742 228.227 231.413C228.023 231.908 227.696 232.328 227.285 232.626C227.133 232.728 226.958 232.783 226.78 232.783C226.602 232.783 226.427 232.728 226.275 232.626C225.3 231.821 224.642 230.635 224.436 229.311C223.988 227.629 224.212 226.491 225.109 225.922C225.49 225.674 226.208 225.922 227.352 226.491C227.06 226.664 227.038 226.837 227.217 226.986Z" fill="#BFACBF"/>
<path d="M230.604 219.861C229.874 219.824 229.148 219.995 228.496 220.356C228.482 220.387 228.475 220.421 228.475 220.455C228.475 220.489 228.482 220.523 228.496 220.554C229.229 221.388 230.077 222.089 231.008 222.632C232.268 223.506 233.441 224.526 234.506 225.674C234.759 225.96 234.991 226.266 235.202 226.59C235.398 226.882 235.607 227.163 235.83 227.431C235.981 227.637 236.163 227.813 236.368 227.95C236.906 228.128 237.467 228.203 238.028 228.173C238.618 228.273 239.222 228.196 239.777 227.95C239.925 227.843 240.039 227.688 240.103 227.506C240.167 227.325 240.179 227.125 240.136 226.936C240.117 226.479 240.034 226.029 239.889 225.6L239.441 224.413C239.291 224.017 239.134 223.646 238.97 223.3L238.656 222.508C238.656 222.335 238.476 222.088 238.342 221.766C238.236 221.526 238.146 221.278 238.072 221.024L237.848 220.356C237.781 220.148 237.736 219.932 237.714 219.713C237.714 219.564 237.714 219.367 237.714 219.119C237.711 219.001 237.74 218.885 237.795 218.784C237.851 218.683 237.931 218.602 238.028 218.55C238.229 218.55 238.656 218.55 239.306 218.971C240.301 219.715 241.205 220.596 241.997 221.593C242.673 222.448 243.424 223.227 244.24 223.918C244.466 224.114 244.738 224.235 245.025 224.266C245.311 224.296 245.599 224.236 245.855 224.091C246.774 223.522 246.236 222.013 244.195 219.589C243.263 218.451 242.173 217.482 240.966 216.72C240.048 216.179 239.023 215.899 237.983 215.903C236.982 215.782 235.97 215.979 235.067 216.472C234.103 217.091 234.484 219.416 236.211 223.498C235.114 222.212 233.87 221.089 232.51 220.158C231.909 219.88 231.252 219.778 230.604 219.861Z" fill="#BFACBF"/>
<path d="M209.006 220.406C208.221 220.826 207.952 222.31 209.342 221.568C217.596 217.165 236.502 205.514 249.242 208.557C255.835 210.115 256.822 215.285 255.97 219.119C254.153 226.689 246.348 233.566 238.028 238.909C229.056 244.697 204.229 256.645 191.4 248.309C184.672 244.005 187.811 237.078 191.221 232.255C196.536 224.833 205.911 218.526 216.228 213.702C216.923 213.38 217.596 211.723 216.362 212.292C202.502 218.773 178.481 234.407 186.914 246.923C195.729 260.083 226.5 246.923 236.076 241.358C246.034 235.47 268.956 217.363 254.019 208.359C241.885 201.037 217.237 216.027 209.006 220.406Z" fill="#BFACBF"/>
<path d="M250.094 249.645L273.082 235C274.024 234.431 274.024 233.467 273.082 232.873C272.566 232.58 271.993 232.427 271.412 232.427C270.83 232.427 270.258 232.58 269.741 232.873L246.707 247.492C246.504 247.569 246.328 247.715 246.203 247.908C246.078 248.1 246.011 248.331 246.011 248.568C246.011 248.805 246.078 249.037 246.203 249.229C246.328 249.422 246.504 249.567 246.707 249.645C247.234 249.929 247.814 250.076 248.4 250.076C248.987 250.076 249.567 249.929 250.094 249.645Z" fill="#BFACBF"/>
<path d="M236.031 254.32L226.051 260.652C225.848 260.729 225.672 260.875 225.547 261.067C225.422 261.26 225.355 261.491 225.355 261.728C225.355 261.965 225.422 262.197 225.547 262.389C225.672 262.582 225.848 262.727 226.051 262.805C226.572 263.098 227.148 263.251 227.733 263.251C228.318 263.251 228.894 263.098 229.415 262.805L239.396 256.447C239.602 256.377 239.782 256.236 239.91 256.044C240.038 255.853 240.107 255.621 240.107 255.383C240.107 255.146 240.038 254.914 239.91 254.722C239.782 254.531 239.602 254.39 239.396 254.32C238.875 254.027 238.298 253.874 237.714 253.874C237.129 253.874 236.552 254.027 236.031 254.32Z" fill="#BFACBF"/>
<path d="M215.308 271.858L220.04 268.84C220.247 268.77 220.427 268.629 220.555 268.438C220.683 268.246 220.752 268.015 220.752 267.777C220.752 267.539 220.683 267.307 220.555 267.116C220.427 266.924 220.247 266.783 220.04 266.713C219.523 266.42 218.951 266.267 218.369 266.267C217.788 266.267 217.216 266.42 216.699 266.713L211.832 269.632C211.626 269.702 211.445 269.843 211.317 270.035C211.189 270.226 211.12 270.458 211.12 270.696C211.12 270.934 211.189 271.165 211.317 271.357C211.445 271.548 211.626 271.689 211.832 271.759C212.36 272.089 212.953 272.27 213.559 272.287C214.165 272.304 214.766 272.157 215.308 271.858Z" fill="#BFACBF"/>
<path d="M262.676 249.249C263.193 249.542 263.766 249.695 264.347 249.695C264.928 249.695 265.501 249.542 266.018 249.249L280.528 239.948C280.732 239.871 280.908 239.725 281.033 239.533C281.158 239.34 281.225 239.109 281.225 238.872C281.225 238.635 281.158 238.404 281.033 238.211C280.908 238.018 280.732 237.873 280.528 237.796C280.008 237.502 279.431 237.35 278.846 237.35C278.262 237.35 277.685 237.502 277.164 237.796L262.676 247.047C261.734 247.69 261.734 248.655 262.676 249.249Z" fill="#BFACBF"/>
<path d="M256.441 255.359C256.644 255.282 256.82 255.137 256.945 254.944C257.07 254.751 257.137 254.52 257.137 254.283C257.137 254.046 257.07 253.815 256.945 253.622C256.82 253.429 256.644 253.284 256.441 253.207C255.92 252.913 255.344 252.761 254.759 252.761C254.174 252.761 253.598 252.913 253.077 253.207L247.851 256.546C247.645 256.616 247.465 256.757 247.336 256.949C247.208 257.14 247.139 257.372 247.139 257.61C247.139 257.848 247.208 258.079 247.336 258.271C247.465 258.462 247.645 258.603 247.851 258.673C248.372 258.967 248.948 259.119 249.533 259.119C250.118 259.119 250.694 258.967 251.215 258.673L256.441 255.359Z" fill="#BFACBF"/>
<path d="M222.844 276.731L242.065 264.511C242.268 264.434 242.444 264.289 242.569 264.096C242.694 263.903 242.761 263.672 242.761 263.435C242.761 263.198 242.694 262.967 242.569 262.774C242.444 262.581 242.268 262.436 242.065 262.359C241.544 262.066 240.967 261.913 240.383 261.913C239.798 261.913 239.221 262.066 238.7 262.359L219.502 274.728C218.56 275.321 218.56 276.261 219.502 276.855C220.028 277.129 220.605 277.261 221.187 277.239C221.768 277.218 222.336 277.044 222.844 276.731Z" fill="#BFACBF"/>
<path d="M262.048 257.263C261.842 257.334 261.661 257.475 261.533 257.666C261.405 257.858 261.336 258.089 261.336 258.327C261.336 258.565 261.405 258.797 261.533 258.988C261.661 259.18 261.842 259.321 262.048 259.391C262.569 259.684 263.145 259.837 263.73 259.837C264.315 259.837 264.891 259.684 265.412 259.391L277.568 251.648C278.51 251.055 278.51 250.09 277.568 249.521C277.051 249.228 276.478 249.075 275.897 249.075C275.316 249.075 274.743 249.228 274.226 249.521L262.048 257.263Z" fill="#BFACBF"/>
<path d="M251.35 264.066L246.371 267.158C246.165 267.228 245.984 267.369 245.856 267.561C245.728 267.752 245.659 267.984 245.659 268.222C245.659 268.46 245.728 268.691 245.856 268.883C245.984 269.074 246.165 269.215 246.371 269.286C246.892 269.579 247.468 269.732 248.053 269.732C248.638 269.732 249.214 269.579 249.735 269.286L254.714 266.119C254.917 266.042 255.093 265.897 255.218 265.704C255.343 265.511 255.41 265.28 255.41 265.043C255.41 264.806 255.343 264.575 255.218 264.382C255.093 264.189 254.917 264.044 254.714 263.967C254.186 263.689 253.606 263.553 253.021 263.57C252.436 263.588 251.864 263.758 251.35 264.066Z" fill="#BFACBF"/>
<path d="M237.13 273.12L227.15 279.527C226.947 279.604 226.771 279.749 226.646 279.942C226.521 280.135 226.454 280.366 226.454 280.603C226.454 280.84 226.521 281.071 226.646 281.264C226.771 281.457 226.947 281.602 227.15 281.679C227.674 281.959 228.249 282.105 228.832 282.105C229.415 282.105 229.99 281.959 230.514 281.679L240.495 275.321C240.698 275.244 240.874 275.099 240.999 274.906C241.124 274.713 241.191 274.482 241.191 274.245C241.191 274.008 241.124 273.777 240.999 273.584C240.874 273.391 240.698 273.246 240.495 273.169C239.974 272.881 239.4 272.727 238.818 272.719C238.235 272.71 237.658 272.847 237.13 273.12Z" fill="#BFACBF"/>
<path d="M254.041 272.106L248.95 275.297C248.744 275.367 248.564 275.508 248.435 275.699C248.307 275.891 248.238 276.122 248.238 276.36C248.238 276.598 248.307 276.83 248.435 277.021C248.564 277.213 248.744 277.354 248.95 277.424C249.471 277.717 250.047 277.87 250.632 277.87C251.217 277.87 251.793 277.717 252.314 277.424L257.293 274.258C258.235 273.664 258.235 272.724 257.293 272.13C256.79 271.85 256.234 271.701 255.67 271.697C255.106 271.693 254.548 271.833 254.041 272.106Z" fill="#BFACBF"/>
<path d="M239.553 281.332L234.82 284.474C234.617 284.551 234.441 284.696 234.316 284.889C234.191 285.082 234.124 285.313 234.124 285.55C234.124 285.787 234.191 286.018 234.316 286.211C234.441 286.404 234.617 286.549 234.82 286.626C235.341 286.919 235.918 287.072 236.503 287.072C237.087 287.072 237.664 286.919 238.185 286.626L242.917 283.608C243.12 283.531 243.296 283.386 243.421 283.193C243.546 283 243.613 282.769 243.613 282.532C243.613 282.295 243.546 282.064 243.421 281.871C243.296 281.678 243.12 281.533 242.917 281.456C242.405 281.144 241.833 280.969 241.248 280.948C240.663 280.926 240.082 281.058 239.553 281.332Z" fill="#BFACBF"/>
<path d="M280.551 269.038L298.314 257.733C298.517 257.656 298.693 257.511 298.818 257.318C298.943 257.126 299.01 256.894 299.01 256.657C299.01 256.42 298.943 256.189 298.818 255.996C298.693 255.804 298.517 255.658 298.314 255.581C297.793 255.288 297.217 255.135 296.632 255.135C296.047 255.135 295.471 255.288 294.95 255.581L277.209 266.886C277.006 266.963 276.83 267.108 276.705 267.301C276.58 267.494 276.513 267.725 276.513 267.962C276.513 268.199 276.58 268.43 276.705 268.623C276.83 268.816 277.006 268.961 277.209 269.038C277.726 269.331 278.299 269.484 278.88 269.484C279.461 269.484 280.034 269.331 280.551 269.038Z" fill="#BFACBF"/>
<path d="M266.489 273.713L256.531 280.071C255.589 280.64 255.589 281.605 256.531 282.198C257.048 282.491 257.62 282.644 258.201 282.644C258.783 282.644 259.355 282.491 259.872 282.198L269.853 275.841C270.059 275.771 270.239 275.63 270.367 275.438C270.495 275.247 270.565 275.015 270.565 274.777C270.565 274.539 270.495 274.308 270.367 274.116C270.239 273.925 270.059 273.784 269.853 273.713C269.332 273.42 268.756 273.267 268.171 273.267C267.586 273.267 267.01 273.42 266.489 273.713Z" fill="#BFACBF"/>
<path d="M245.653 291.252L250.385 288.234C251.327 287.64 251.327 286.7 250.385 286.107C249.868 285.814 249.296 285.661 248.714 285.661C248.133 285.661 247.561 285.814 247.044 286.107L242.222 289.125C242.015 289.195 241.835 289.336 241.707 289.527C241.579 289.719 241.51 289.95 241.51 290.188C241.51 290.426 241.579 290.658 241.707 290.849C241.835 291.041 242.015 291.182 242.222 291.252C242.751 291.558 243.34 291.717 243.937 291.717C244.535 291.717 245.124 291.558 245.653 291.252Z" fill="#BFACBF"/>
<path d="M293.133 268.642C293.654 268.936 294.23 269.088 294.815 269.088C295.4 269.088 295.976 268.936 296.497 268.642L306.029 262.557C306.971 261.963 306.971 261.023 306.029 260.43C305.508 260.137 304.932 259.984 304.347 259.984C303.762 259.984 303.186 260.137 302.665 260.43L293.111 266.515C292.905 266.588 292.726 266.731 292.6 266.924C292.474 267.117 292.407 267.35 292.41 267.588C292.412 267.826 292.484 268.057 292.614 268.246C292.744 268.436 292.926 268.575 293.133 268.642Z" fill="#BFACBF"/>
<path d="M286.898 274.752C287.101 274.675 287.278 274.53 287.402 274.337C287.527 274.144 287.594 273.913 287.594 273.676C287.594 273.439 287.527 273.208 287.402 273.015C287.278 272.822 287.101 272.677 286.898 272.6C286.378 272.32 285.806 272.175 285.227 272.175C284.648 272.175 284.077 272.32 283.556 272.6L278.308 275.94C278.102 276.01 277.922 276.151 277.794 276.342C277.666 276.534 277.596 276.766 277.596 277.003C277.596 277.241 277.666 277.473 277.794 277.664C277.922 277.856 278.102 277.997 278.308 278.067C278.829 278.36 279.405 278.513 279.99 278.513C280.575 278.513 281.151 278.36 281.672 278.067L286.898 274.752Z" fill="#BFACBF"/>
<path d="M253.436 296.15L272.634 283.781C273.576 283.188 273.576 282.223 272.634 281.654C272.117 281.361 271.544 281.208 270.963 281.208C270.382 281.208 269.809 281.361 269.292 281.654L250.071 293.874C249.868 293.951 249.692 294.096 249.567 294.289C249.442 294.482 249.375 294.713 249.375 294.95C249.375 295.187 249.442 295.418 249.567 295.611C249.692 295.804 249.868 295.949 250.071 296.026C250.587 296.326 251.158 296.493 251.741 296.514C252.323 296.535 252.903 296.411 253.436 296.15Z" fill="#BFACBF"/>
<path d="M292.527 276.657C291.585 277.251 291.585 278.191 292.527 278.785C293.044 279.078 293.617 279.23 294.198 279.23C294.78 279.23 295.352 279.078 295.869 278.785L308.048 271.042C308.254 270.972 308.434 270.831 308.562 270.639C308.69 270.448 308.759 270.216 308.759 269.978C308.759 269.74 308.69 269.509 308.562 269.317C308.434 269.126 308.254 268.985 308.048 268.915C307.527 268.621 306.95 268.469 306.365 268.469C305.781 268.469 305.204 268.621 304.683 268.915L292.527 276.657Z" fill="#BFACBF"/>
<path d="M267.588 292.538L257.63 298.871C257.426 298.948 257.25 299.093 257.125 299.286C257 299.479 256.933 299.71 256.933 299.947C256.933 300.184 257 300.415 257.125 300.608C257.25 300.801 257.426 300.946 257.63 301.023C258.147 301.316 258.719 301.469 259.3 301.469C259.882 301.469 260.454 301.316 260.971 301.023L270.952 294.666C271.158 294.595 271.338 294.454 271.466 294.263C271.594 294.071 271.664 293.84 271.664 293.602C271.664 293.364 271.594 293.132 271.466 292.941C271.338 292.75 271.158 292.608 270.952 292.538C270.431 292.245 269.854 292.092 269.27 292.092C268.685 292.092 268.108 292.245 267.588 292.538Z" fill="#BFACBF"/>
<path d="M300.175 281.53L294.95 284.87C294.744 284.94 294.563 285.081 294.435 285.273C294.307 285.464 294.238 285.696 294.238 285.933C294.238 286.171 294.307 286.403 294.435 286.594C294.563 286.786 294.744 286.927 294.95 286.997C295.471 287.29 296.047 287.443 296.632 287.443C297.217 287.443 297.793 287.29 298.314 286.997L303.54 283.682C303.743 283.605 303.919 283.46 304.044 283.267C304.169 283.074 304.236 282.843 304.236 282.606C304.236 282.369 304.169 282.138 304.044 281.945C303.919 281.753 303.743 281.607 303.54 281.53C303.019 281.237 302.442 281.084 301.857 281.084C301.273 281.084 300.696 281.237 300.175 281.53Z" fill="#BFACBF"/>
<path d="M284.498 291.524L279.519 294.69C279.316 294.767 279.14 294.913 279.015 295.105C278.89 295.298 278.823 295.529 278.823 295.766C278.823 296.003 278.89 296.234 279.015 296.427C279.14 296.62 279.316 296.765 279.519 296.842C280.036 297.135 280.609 297.288 281.19 297.288C281.771 297.288 282.344 297.135 282.861 296.842L287.862 293.651C288.069 293.581 288.249 293.44 288.377 293.249C288.505 293.057 288.574 292.826 288.574 292.588C288.574 292.35 288.505 292.118 288.377 291.927C288.249 291.735 288.069 291.594 287.862 291.524C287.342 291.231 286.765 291.078 286.18 291.078C285.596 291.078 285.019 291.231 284.498 291.524Z" fill="#BFACBF"/>
<path d="M270.032 300.751L265.278 303.769C265.071 303.839 264.891 303.98 264.763 304.171C264.635 304.363 264.566 304.595 264.566 304.832C264.566 305.07 264.635 305.302 264.763 305.493C264.891 305.685 265.071 305.826 265.278 305.896C265.798 306.189 266.375 306.342 266.96 306.342C267.544 306.342 268.121 306.189 268.642 305.896L273.374 302.878C274.316 302.285 274.316 301.32 273.374 300.751C272.857 300.458 272.284 300.305 271.703 300.305C271.122 300.305 270.549 300.458 270.032 300.751Z" fill="#BFACBF"/>
<path d="M311.03 288.432L328.771 277.127C329.713 276.533 329.713 275.569 328.771 275C328.254 274.707 327.681 274.554 327.1 274.554C326.519 274.554 325.946 274.707 325.429 275L307.666 286.305C307.46 286.375 307.28 286.516 307.152 286.707C307.024 286.899 306.955 287.13 306.955 287.368C306.955 287.606 307.024 287.838 307.152 288.029C307.28 288.221 307.46 288.362 307.666 288.432C308.187 288.725 308.764 288.878 309.348 288.878C309.933 288.878 310.51 288.725 311.03 288.432Z" fill="#BFACBF"/>
<path d="M296.968 293.107L287.077 299.465C286.871 299.535 286.691 299.676 286.563 299.867C286.435 300.059 286.366 300.29 286.366 300.528C286.366 300.766 286.435 300.998 286.563 301.189C286.691 301.381 286.871 301.522 287.077 301.592C287.598 301.885 288.175 302.038 288.76 302.038C289.344 302.038 289.921 301.885 290.442 301.592L300.4 295.259C300.603 295.182 300.779 295.037 300.904 294.844C301.029 294.651 301.096 294.42 301.096 294.183C301.096 293.946 301.029 293.715 300.904 293.522C300.779 293.329 300.603 293.184 300.4 293.107C299.871 292.797 299.282 292.636 298.684 292.636C298.086 292.636 297.497 292.797 296.968 293.107Z" fill="#BFACBF"/>
<path d="M276.11 310.67L280.865 307.628C281.071 307.558 281.251 307.416 281.379 307.225C281.508 307.034 281.577 306.802 281.577 306.564C281.577 306.326 281.508 306.095 281.379 305.903C281.251 305.712 281.071 305.571 280.865 305.5C280.344 305.207 279.768 305.054 279.183 305.054C278.598 305.054 278.022 305.207 277.501 305.5L272.768 308.518C272.565 308.595 272.389 308.74 272.264 308.933C272.139 309.126 272.072 309.357 272.072 309.594C272.072 309.831 272.139 310.062 272.264 310.255C272.389 310.448 272.565 310.593 272.768 310.67C273.289 310.95 273.86 311.096 274.439 311.096C275.018 311.096 275.59 310.95 276.11 310.67Z" fill="#BFACBF"/>
<path d="M283.781 315.544L303.001 303.175C303.207 303.105 303.388 302.964 303.516 302.772C303.644 302.581 303.713 302.349 303.713 302.111C303.713 301.873 303.644 301.642 303.516 301.45C303.388 301.259 303.207 301.118 303.001 301.048C302.48 300.755 301.904 300.602 301.319 300.602C300.734 300.602 300.158 300.755 299.637 301.048L280.349 313.391C280.146 313.469 279.97 313.614 279.845 313.807C279.72 313.999 279.653 314.231 279.653 314.467C279.653 314.704 279.72 314.936 279.845 315.128C279.97 315.321 280.146 315.466 280.349 315.544C280.879 315.849 281.467 316.009 282.065 316.009C282.662 316.009 283.251 315.849 283.781 315.544Z" fill="#BFACBF"/>
<path d="M278.241 226.491L286.292 231.636L294.367 226.491L286.292 221.346L278.241 226.491ZM292.729 226.491L286.292 230.572L279.878 226.491L286.292 222.409L292.729 226.491Z" fill="#BFACBF"/>
<path d="M294.411 236.806L302.485 241.927L310.537 236.806L302.485 231.661L294.411 236.806ZM308.9 236.806L302.485 240.888L296.049 236.806L302.485 232.7L308.9 236.806Z" fill="#BFACBF"/>
<path d="M310.582 247.097L318.656 252.242L326.73 247.097L318.656 241.951L310.582 247.097ZM325.07 247.097L318.656 251.178L312.219 247.097L318.656 243.015L325.07 247.097Z" fill="#BFACBF"/>
<path d="M326.752 257.387L334.827 262.532L342.901 257.387L334.827 252.242L326.752 257.387ZM341.241 257.387L334.827 261.469L328.412 257.387L334.827 253.306L341.241 257.387Z" fill="#BFACBF"/>
<path d="M342.923 267.702L350.997 272.823L359.071 267.702L350.997 262.557L342.923 267.702ZM357.411 267.702L350.997 271.784L344.583 267.702L350.997 263.596L357.411 267.702Z" fill="#BFACBF"/>
<mask id="mask0_53_423" style="mask-type:luminance" maskUnits="userSpaceOnUse" x="132" y="172" width="252" height="161">
<path d="M283.175 332.513L132.504 236.583L232.869 172.663L383.54 268.618L283.175 332.513Z" fill="white"/>
</mask>
<g mask="url(#mask0_53_423)">
<g style="mix-blend-mode:screen" opacity="0.2">
<path d="M232.465 244.499C207.795 228.841 207.795 203.362 232.151 187.604C256.508 171.847 296.475 171.946 321.078 187.604C345.682 203.263 345.749 228.742 321.347 244.499C296.946 260.257 257.046 260.158 232.465 244.499Z" fill="#DB4DFF"/>
</g>
<g style="mix-blend-mode:multiply" opacity="0.3">
<path d="M410.117 290.831L346.624 250.411C345.904 250.009 345.109 249.8 344.302 249.8C343.496 249.8 342.7 250.009 341.981 250.411L341.622 250.634L328.3 242.149C348.665 225.699 346.893 201.655 323.029 186.442C297.349 170.091 255.746 170.091 230.2 186.442C204.655 202.793 204.834 229.41 230.514 245.81C254.288 260.974 291.765 262.038 317.445 249.125L330.767 257.61L330.408 257.857C329.107 258.673 329.107 259.985 330.408 260.801L393.879 301.246C394.602 301.637 395.396 301.84 396.201 301.84C397.005 301.84 397.799 301.637 398.522 301.246L410.117 293.825C410.411 293.73 410.669 293.534 410.853 293.264C411.037 292.994 411.136 292.666 411.136 292.328C411.136 291.991 411.037 291.662 410.853 291.392C410.669 291.122 410.411 290.926 410.117 290.831ZM232.465 244.499C207.795 228.841 207.795 203.362 232.151 187.604C256.508 171.847 296.475 171.946 321.078 187.604C345.682 203.263 345.749 228.742 321.347 244.499C296.946 260.257 257.046 260.158 232.465 244.499Z" fill="#3A0155"/>
</g>
</g>
<path d="M339.604 164.005V178.848C339.604 168.483 333.458 158.118 321.078 150.252C296.407 134.593 256.598 134.593 232.174 150.252C220.04 158.019 213.962 168.211 213.94 178.452V163.61C213.94 153.393 220.04 143.202 232.174 135.41C256.62 119.751 296.497 119.751 321.101 135.41C333.458 143.301 339.648 153.665 339.626 164.005H339.604Z" fill="url(#paint5_linear_53_423)"/>
<path d="M232.151 144.389C256.598 128.706 296.475 128.706 321.078 144.389C332.427 151.612 338.55 160.913 339.469 170.412C340.523 159.281 334.4 147.902 321.078 139.417C296.407 123.759 256.598 123.759 232.151 139.417C219.009 147.852 212.998 159.207 214.052 170.19C214.949 160.79 220.982 151.538 232.151 144.389Z" fill="#6C0099"/>
<path style="mix-blend-mode:screen" opacity="0.2" d="M232.465 201.185C257.136 216.843 296.923 216.843 321.347 201.185C345.771 185.527 345.659 160.048 321.078 144.29C296.497 128.533 256.598 128.607 232.151 144.29C207.705 159.973 207.862 185.403 232.465 201.185Z" fill="url(#paint6_linear_53_423)"/>
<path d="M342.362 164.03V178.872C342.362 189.534 335.993 200.196 323.321 208.309C297.82 224.66 256.172 224.66 230.514 208.309C217.596 200.097 211.137 189.262 211.159 178.452V163.61C211.159 174.42 217.596 185.23 230.514 193.467C256.172 209.818 297.798 209.818 323.321 193.467C335.993 185.353 342.34 174.692 342.362 164.03Z" fill="url(#paint7_linear_53_423)"/>
<path d="M322.962 134.173C348.62 150.499 348.754 177.116 323.254 193.541C297.753 209.967 256.104 209.892 230.447 193.541C204.789 177.19 204.632 150.598 230.133 134.173C255.634 117.748 297.349 117.822 322.962 134.173ZM232.465 192.206C257.136 207.864 296.923 207.864 321.347 192.206C345.771 176.547 345.659 151.068 321.078 135.311C296.497 119.553 256.598 119.652 232.151 135.311C207.705 150.969 207.862 176.448 232.465 192.206Z" fill="url(#paint8_linear_53_423)"/>
<path d="M335.118 215.334C335.118 219.02 337.473 220.529 340.389 218.674C341.923 217.571 343.201 216.085 344.116 214.336C345.032 212.586 345.561 210.623 345.659 208.606C345.659 204.896 343.304 203.387 340.389 205.242C338.853 206.35 337.576 207.841 336.661 209.594C335.745 211.347 335.217 213.314 335.118 215.334Z" fill="#8712BA"/>
<path d="M344.157 204.871L327.089 194.011C326.49 193.688 325.822 193.552 325.158 193.617C324.494 193.683 323.859 193.947 323.321 194.382C321.786 195.485 320.509 196.971 319.593 198.721C318.677 200.47 318.149 202.433 318.05 204.45C317.984 205.169 318.09 205.895 318.358 206.555C318.625 207.215 319.045 207.785 319.576 208.21L336.621 219.07C336.098 218.644 335.685 218.076 335.421 217.421C335.158 216.767 335.053 216.047 335.118 215.334C335.227 213.327 335.76 211.375 336.675 209.635C337.591 207.896 338.862 206.417 340.389 205.316C340.92 204.869 341.552 204.591 342.216 204.513C342.88 204.434 343.552 204.558 344.157 204.871Z" fill="url(#paint9_linear_53_423)"/>
<path d="M396.974 259.49C396.974 265.798 400.989 268.346 405.945 265.204C408.558 263.321 410.732 260.785 412.291 257.802C413.849 254.82 414.749 251.474 414.917 248.037C414.917 243.906 413.167 241.358 410.566 241.011C408.929 240.933 407.313 241.427 405.945 242.421C403.343 244.293 401.176 246.813 399.618 249.778C398.06 252.742 397.154 256.069 396.974 259.49Z" fill="#442A44"/>
<path d="M412.427 241.679L348.283 200.839C347.265 200.297 346.132 200.07 345.007 200.183C343.881 200.297 342.804 200.746 341.891 201.482C339.28 203.361 337.107 205.893 335.549 208.871C333.99 211.849 333.09 215.191 332.92 218.624C332.784 219.858 332.95 221.109 333.399 222.249C333.849 223.388 334.566 224.374 335.477 225.106L399.621 265.946C398.695 265.231 397.961 264.254 397.496 263.118C397.03 261.982 396.85 260.729 396.974 259.49C397.154 256.069 398.06 252.742 399.618 249.778C401.176 246.813 403.343 244.294 405.945 242.421C406.861 241.655 407.949 241.181 409.092 241.05C410.235 240.92 411.389 241.137 412.427 241.679Z" fill="#563156"/>
<path style="mix-blend-mode:screen" d="M396.974 259.49C399.217 247.369 406.618 240.962 410.588 241.011C405.542 239.057 395.92 249.175 396.974 259.49Z" fill="url(#paint10_radial_53_423)"/>
<path style="mix-blend-mode:screen" d="M318.746 224.833C364.279 224.833 401.191 184.121 401.191 133.901C401.191 83.6799 364.279 42.9679 318.746 42.9679C273.213 42.9679 236.301 83.6799 236.301 133.901C236.301 184.121 273.213 224.833 318.746 224.833Z" fill="url(#paint11_radial_53_423)"/>
<path style="mix-blend-mode:screen" d="M328.502 299.341C379.782 299.341 421.353 253.49 421.353 196.93C421.353 140.37 379.782 94.5196 328.502 94.5196C277.221 94.5196 235.65 140.37 235.65 196.93C235.65 253.49 277.221 299.341 328.502 299.341Z" fill="url(#paint12_radial_53_423)"/>
<path style="mix-blend-mode:color-dodge" d="M318.746 155.496C329.559 155.496 338.325 145.827 338.325 133.901C338.325 121.974 329.559 112.305 318.746 112.305C307.932 112.305 299.166 121.974 299.166 133.901C299.166 145.827 307.932 155.496 318.746 155.496Z" fill="url(#paint13_radial_53_423)"/>
<path style="mix-blend-mode:color-dodge" d="M408.413 262.582C419.226 262.582 427.992 252.913 427.992 240.987C427.992 229.06 419.226 219.391 408.413 219.391C397.599 219.391 388.833 229.06 388.833 240.987C388.833 252.913 397.599 262.582 408.413 262.582Z" fill="url(#paint14_radial_53_423)"/>
<g style="mix-blend-mode:multiply" opacity="0.6">
<path d="M363.198 281.555V291.351L379.436 281.036V271.215L363.198 281.555Z" fill="#3A0155"/>
</g>
<path style="mix-blend-mode:screen" d="M404.555 181.865C450.088 181.865 487 141.154 487 90.9327C487 40.712 450.088 0 404.555 0C359.022 0 322.11 40.712 322.11 90.9327C322.11 141.154 359.022 181.865 404.555 181.865Z" fill="url(#paint15_radial_53_423)"/>
<path style="mix-blend-mode:screen" opacity="0.7" d="M288.961 89.3496L299.435 96.0285V129.869L288.961 123.19V89.3496ZM313.206 94.0001L302.777 87.3212L302.665 131.848L313.094 138.526L313.206 94.0001ZM285.642 106.566L275.168 99.8875V114.433L285.665 121.112L285.642 106.566ZM340.568 156.04L340.703 97.1912L330.229 90.5122L330.072 149.361L340.568 156.04ZM354.473 98.1806L343.977 91.5264L343.82 158.118L354.294 164.797L354.473 98.1806ZM326.932 105.602L316.436 98.9475V140.58L326.909 147.259L326.932 105.602ZM261.398 105.602L271.871 112.281V93.0848L261.442 86.579L261.398 105.602ZM368.222 97.5127L357.748 90.8338L357.546 166.825L368.042 173.504L368.222 97.5127ZM409.242 202.348C408.48 201.853 407.852 202.076 407.605 202.793L244.846 99.1454L245.025 70.8464C245.698 70.9701 246.191 70.4753 246.191 69.5353C246.166 68.8801 245.998 68.2412 245.701 67.6728C245.404 67.1044 244.988 66.6233 244.487 66.2701C243.545 65.6517 242.76 66.1464 242.76 67.3338C242.818 68.4009 243.233 69.4061 243.926 70.1538L243.747 99.1454C243.76 99.3519 243.816 99.5525 243.909 99.7323C244.002 99.9121 244.131 100.067 244.285 100.184L407.605 204.079C407.85 205.094 408.425 205.975 409.22 206.553C410.184 207.147 410.947 206.553 410.947 205.464C410.897 204.836 410.718 204.228 410.423 203.688C410.127 203.148 409.723 202.689 409.242 202.348ZM258.168 92.6891L247.672 86.0101V96.9438L258.168 103.623V92.6891ZM409.534 90.4133L399.038 83.7343L398.769 193.17L409.242 199.849L409.534 90.4133ZM395.763 94.9401L385.267 88.2612L385.02 184.413L395.517 191.092L395.763 94.9401ZM381.992 98.3538L371.496 91.6748L371.294 175.78L381.768 182.459L381.992 98.3538Z" fill="url(#paint16_linear_53_423)"/>
<path d="M282.031 359.402L163.769 283.806V280.986L282.009 356.557L282.031 359.402Z" fill="#CE7819"/>
<path d="M165.324 277.949L163.749 280.945L282.007 356.523L283.581 353.527L165.324 277.949Z" fill="#EF9830"/>
<path d="M283.579 353.564L165.339 277.968L167.559 276.558L285.822 352.129L283.579 353.564Z" fill="#FFAC48"/>
<path d="M285.821 352.129C286.982 352.899 287.976 353.937 288.737 355.172L294.142 362.915L293.469 363.558C293.469 363.558 288.76 362.222 285.665 361.084C284.4 360.664 283.182 360.092 282.031 359.377L280.73 355.716L282.188 352.649L285.821 352.129Z" fill="#FFD671"/>
<path d="M293.469 361.752C292.079 361.084 291.698 362.692 292.46 363.31L295.959 364.819L293.469 361.752Z" fill="#442A44"/>
<path d="M156.681 322.371C156.668 322.283 156.634 322.2 156.583 322.131C156.532 322.062 156.465 322.008 156.39 321.975C156.319 321.927 156.238 321.901 156.154 321.901C156.071 321.901 155.99 321.927 155.919 321.975L154.842 322.866L69.6163 268.593V190.474L70.7153 189.781C70.7764 189.743 70.8285 189.69 70.8674 189.625C70.9064 189.561 70.9311 189.487 70.9395 189.41C70.9675 189.344 70.9821 189.273 70.9821 189.2C70.9821 189.127 70.9675 189.056 70.9395 188.99L69.5266 187.308C69.477 187.237 69.4117 187.182 69.337 187.147C69.2624 187.112 69.1809 187.1 69.1004 187.11C69.018 187.125 68.9402 187.163 68.8738 187.219C68.8074 187.275 68.7543 187.348 68.7192 187.431L67.2838 190.944C67.2237 191.033 67.1913 191.142 67.1913 191.253C67.1913 191.364 67.2237 191.473 67.2838 191.562C67.3861 191.597 67.4954 191.597 67.5978 191.562C67.6784 191.588 67.7639 191.588 67.8445 191.562L68.5397 191.117V268.939C68.5416 269.031 68.5654 269.12 68.6087 269.199C68.6521 269.277 68.7134 269.341 68.7864 269.385L153.878 323.558L153.003 324.276C152.926 324.345 152.869 324.44 152.841 324.546C152.813 324.652 152.815 324.765 152.846 324.869C152.88 324.991 152.951 325.096 153.048 325.166C153.129 325.192 153.214 325.192 153.295 325.166H156.48C156.549 325.164 156.617 325.146 156.679 325.112C156.741 325.077 156.796 325.028 156.838 324.968C156.883 324.906 156.916 324.835 156.935 324.758C156.955 324.682 156.96 324.602 156.951 324.523L156.681 322.371Z" fill="#EA82F5"/>
<path d="M92.6498 210.016V263.844C92.5803 264.837 92.2713 265.792 91.7547 266.61C91.2381 267.428 90.5328 268.078 89.7117 268.494C87.4785 269.749 85.0076 270.404 82.5011 270.404C79.9946 270.404 77.5237 269.749 75.2905 268.494C74.4766 268.095 73.7723 267.467 73.2486 266.672C72.7249 265.877 72.4004 264.944 72.3076 263.967V210.115L92.6498 210.016Z" fill="url(#paint17_linear_53_423)"/>
<path d="M75.2906 205.316C77.0148 204.263 78.9302 203.646 80.8975 203.51C82.7915 203.174 84.7298 203.311 86.5696 203.91C88.4094 204.509 90.1039 205.556 91.5284 206.973C93.5469 209.447 92.7843 212.465 89.622 214.394C86.9298 215.981 83.8616 216.62 80.8303 216.225C78.0443 216.131 75.3897 214.897 73.3842 212.762C71.3657 210.387 72.1058 207.419 75.2906 205.316Z" fill="#FFACF6"/>
<path d="M111.198 231.537V275.668C111.129 276.668 110.815 277.629 110.29 278.448C109.764 279.267 109.047 279.914 108.215 280.318C105.978 281.562 103.509 282.21 101.004 282.21C98.4996 282.21 96.0299 281.562 93.7936 280.318C92.9836 279.913 92.2828 279.283 91.7599 278.489C91.237 277.696 90.91 276.766 90.8107 275.791V231.661L111.198 231.537Z" fill="url(#paint18_linear_53_423)"/>
<path d="M93.8609 226.911C95.5769 225.857 97.4851 225.24 99.4454 225.106C101.339 224.778 103.276 224.919 105.114 225.518C106.953 226.117 108.647 227.159 110.076 228.569C112.095 231.042 111.355 234.085 108.17 235.99C105.482 237.59 102.41 238.23 99.3781 237.82C96.6066 237.776 93.9535 236.574 91.9545 234.456C89.9136 231.908 90.6761 228.94 93.8609 226.911Z" fill="#FFACF6"/>
<path d="M129.768 252.737V287.368C129.694 288.367 129.379 289.326 128.854 290.144C128.329 290.962 127.615 291.61 126.785 292.019C124.549 293.263 122.079 293.911 119.574 293.911C117.07 293.911 114.6 293.263 112.364 292.019C111.548 291.616 110.843 290.983 110.319 290.184C109.796 289.385 109.472 288.448 109.381 287.467V252.836L129.768 252.737Z" fill="url(#paint19_linear_53_423)"/>
<path d="M112.409 248.136C114.131 247.073 116.047 246.448 118.016 246.305C119.906 245.98 121.838 246.122 123.673 246.721C125.508 247.32 127.199 248.361 128.624 249.768C130.665 252.242 129.903 255.285 126.718 257.189C124.032 258.77 120.97 259.4 117.948 258.995C115.157 258.931 112.493 257.692 110.502 255.532C108.484 253.108 109.224 250.164 112.409 248.136Z" fill="#FFACF6"/>
<path d="M148.607 277.325V299.588C148.542 300.593 148.23 301.559 147.705 302.383C147.179 303.207 146.46 303.857 145.625 304.264C143.388 305.507 140.919 306.155 138.414 306.155C135.909 306.155 133.44 305.507 131.203 304.264C130.391 303.863 129.688 303.233 129.164 302.439C128.641 301.645 128.315 300.713 128.22 299.737V277.474L148.607 277.325Z" fill="url(#paint20_linear_53_423)"/>
<path d="M131.248 272.724C132.971 271.662 134.886 271.037 136.855 270.893C138.749 270.566 140.685 270.707 142.524 271.306C144.362 271.905 146.057 272.947 147.486 274.357C149.505 276.83 148.764 279.873 145.58 281.778C142.885 283.356 139.817 283.986 136.788 283.584C133.996 283.519 131.332 282.28 129.342 280.12C127.323 277.696 128.063 274.752 131.248 272.724Z" fill="#FFACF6"/>
<path d="M167.447 300.528V311.487C167.378 312.487 167.064 313.448 166.539 314.267C166.013 315.086 165.296 315.733 164.464 316.137C162.228 317.381 159.758 318.029 157.253 318.029C154.749 318.029 152.279 317.381 150.043 316.137C149.242 315.739 148.547 315.12 148.025 314.34C147.502 313.561 147.17 312.646 147.06 311.685V300.726L167.447 300.528Z" fill="url(#paint21_linear_53_423)"/>
<path d="M150.11 295.927C151.826 294.869 153.733 294.243 155.695 294.097C157.589 293.769 159.525 293.91 161.363 294.509C163.202 295.108 164.897 296.15 166.326 297.56C168.344 300.034 167.604 303.076 164.419 304.981C161.726 306.564 158.657 307.194 155.627 306.787C152.841 306.728 150.182 305.488 148.204 303.324C146.163 300.899 146.925 297.956 150.11 295.927Z" fill="#FFACF6"/>
<path d="M238.7 340.553C238.419 339.821 238.033 339.145 237.557 338.549C237.181 338.065 236.734 337.655 236.233 337.337L208.737 319.798C208.427 319.568 208.069 319.428 207.697 319.389C207.325 319.35 206.95 319.414 206.606 319.576L193.149 328.135L224.907 358.215L238.364 349.68C238.667 349.448 238.908 349.131 239.062 348.761C239.215 348.391 239.277 347.983 239.239 347.578V343.002C239.219 342.152 239.035 341.317 238.7 340.553Z" fill="url(#paint22_linear_53_423)"/>
<path d="M222.889 345.871L195.37 328.357C193.732 327.318 192.387 328.135 192.364 330.237V334.789C192.422 335.929 192.722 337.038 193.24 338.026C193.758 339.015 194.48 339.855 195.347 340.478L222.866 357.992C224.526 359.056 225.849 358.215 225.849 356.112V351.56C225.794 350.423 225.498 349.315 224.984 348.327C224.469 347.338 223.752 346.497 222.889 345.871Z" fill="#C6A1CE"/>
<g style="mix-blend-mode:screen">
<path d="M80.92 133.752L66.8352 142.732V144.884L80.92 136.053V133.752ZM101.912 120.394L83.5665 132.07V134.247L101.912 122.571V120.394ZM74.9093 143.474L66.8352 148.619V150.895L74.9093 145.774V143.474ZM90.6088 133.579L77.6231 141.866V144.018L90.6088 135.756V133.579ZM93.2553 134.074L101.98 128.508V126.356L93.2553 131.897V134.074ZM80.9872 145.601L66.8352 154.507V156.659L80.92 147.704L80.9872 145.601ZM101.98 132.243L83.6337 143.919V145.948L101.98 134.272V132.243ZM75.0663 155.323L66.9922 160.468V162.62L75.0663 157.5V155.323ZM77.7128 155.793L90.6985 147.531V145.354L77.7128 153.641V155.793ZM93.4123 145.898L102.137 140.332V138.18L93.4123 143.721V145.898ZM81.1442 157.425L66.8352 166.281V168.433L80.92 159.479L81.1442 157.425ZM102.137 144.068L83.7907 155.743V157.92L102.137 146.244V144.068ZM66.8352 174.321L74.9093 169.175V167.023L66.8352 172.169V174.321ZM77.5558 167.493L90.5415 159.231V157.054L77.5558 165.341V167.493ZM93.2553 157.599L101.98 152.033V149.881L93.2553 155.422V157.599Z" fill="#FDC5FF"/>
</g>
<path style="mix-blend-mode:screen" d="M250.434 121.126C261.064 72.2926 233.789 23.2014 189.514 11.4776C145.239 -0.246194 100.73 29.8369 90.1 78.6701C79.4705 127.503 106.746 176.594 151.021 188.318C195.296 200.042 239.805 169.959 250.434 121.126Z" fill="url(#paint23_radial_53_423)"/>
<path style="mix-blend-mode:screen" d="M82.4451 297.881C127.978 297.881 164.89 257.169 164.89 206.949C164.89 156.728 127.978 116.016 82.4451 116.016C36.9119 116.016 0 156.728 0 206.949C0 257.169 36.9119 297.881 82.4451 297.881Z" fill="url(#paint24_radial_53_423)"/>
<path style="mix-blend-mode:screen" d="M119.563 284.227C165.096 284.227 202.008 243.515 202.008 193.294C202.008 143.073 165.096 102.361 119.563 102.361C74.0301 102.361 37.1182 143.073 37.1182 193.294C37.1182 243.515 74.0301 284.227 119.563 284.227Z" fill="url(#paint25_radial_53_423)"/>
<path style="mix-blend-mode:screen" d="M232.981 416C269.447 416 299.009 383.395 299.009 343.175C299.009 302.954 269.447 270.349 232.981 270.349C196.515 270.349 166.953 302.954 166.953 343.175C166.953 383.395 196.515 416 232.981 416Z" fill="url(#paint26_radial_53_423)"/>
</g>
<defs>
<linearGradient id="paint0_linear_53_423" x1="129.387" y1="118.391" x2="200.573" y2="118.391" gradientUnits="userSpaceOnUse">
<stop stop-color="#FF98FF"/>
<stop offset="1" stop-color="#FFAFF5"/>
</linearGradient>
<radialGradient id="paint1_radial_53_423" cx="0" cy="0" r="1" gradientUnits="userSpaceOnUse" gradientTransform="translate(125.372 200.715) scale(34.382 37.9216)">
<stop stop-color="#FF9412"/>
<stop offset="0.24" stop-color="#BF6F0D"/>
<stop offset="0.77" stop-color="#372004"/>
<stop offset="1"/>
</radialGradient>
<radialGradient id="paint2_radial_53_423" cx="0" cy="0" r="1" gradientUnits="userSpaceOnUse" gradientTransform="translate(135.052 199.306) scale(47.7939 52.7143)">
<stop stop-color="#FF9412"/>
<stop offset="0.07" stop-color="#D27A0F"/>
<stop offset="0.17" stop-color="#A15D0B"/>
<stop offset="0.26" stop-color="#764408"/>
<stop offset="0.36" stop-color="#512F06"/>
<stop offset="0.47" stop-color="#341E04"/>
<stop offset="0.58" stop-color="#1D1102"/>
<stop offset="0.69" stop-color="#0D0701"/>
<stop offset="0.83" stop-color="#030200"/>
<stop offset="1"/>
</radialGradient>
<radialGradient id="paint3_radial_53_423" cx="0" cy="0" r="1" gradientUnits="userSpaceOnUse" gradientTransform="translate(165.271 133.752) scale(25.8818 28.5464)">
<stop stop-color="#FF9412"/>
<stop offset="0.24" stop-color="#BF6F0D"/>
<stop offset="0.77" stop-color="#372004"/>
<stop offset="1"/>
</radialGradient>
<radialGradient id="paint4_radial_53_423" cx="0" cy="0" r="1" gradientUnits="userSpaceOnUse" gradientTransform="translate(170.268 144.052) scale(47.7939 52.7143)">
<stop stop-color="#FF9412"/>
<stop offset="0.07" stop-color="#D27A0F"/>
<stop offset="0.17" stop-color="#A15D0B"/>
<stop offset="0.26" stop-color="#764408"/>
<stop offset="0.36" stop-color="#512F06"/>
<stop offset="0.47" stop-color="#341E04"/>
<stop offset="0.58" stop-color="#1D1102"/>
<stop offset="0.69" stop-color="#0D0701"/>
<stop offset="0.83" stop-color="#030200"/>
<stop offset="1"/>
</radialGradient>
<linearGradient id="paint5_linear_53_423" x1="213.895" y1="151.315" x2="339.604" y2="151.315" gradientUnits="userSpaceOnUse">
<stop stop-color="#D473F1"/>
<stop offset="1" stop-color="#962DCC"/>
</linearGradient>
<linearGradient id="paint6_linear_53_423" x1="213.918" y1="172.787" x2="339.604" y2="172.787" gradientUnits="userSpaceOnUse">
<stop stop-color="#FFC5FF"/>
<stop offset="1" stop-color="#FFDEFF"/>
</linearGradient>
<linearGradient id="paint7_linear_53_423" x1="211.114" y1="192.131" x2="342.362" y2="192.131" gradientUnits="userSpaceOnUse">
<stop stop-color="#962DCC"/>
<stop offset="1" stop-color="#D473F1"/>
</linearGradient>
<linearGradient id="paint8_linear_53_423" x1="211.159" y1="163.808" x2="342.362" y2="163.808" gradientUnits="userSpaceOnUse">
<stop stop-color="#F5ABFF"/>
<stop offset="0.46" stop-color="#FFC5FF"/>
<stop offset="1" stop-color="#FFDEFF"/>
</linearGradient>
<linearGradient id="paint9_linear_53_423" x1="333.728" y1="198.241" x2="325.133" y2="211.76" gradientUnits="userSpaceOnUse">
<stop stop-color="#FFDEFA"/>
<stop offset="0.52" stop-color="#FFBBFA"/>
<stop offset="0.78" stop-color="#F0ADF6"/>
<stop offset="1" stop-color="#E09DF1"/>
</linearGradient>
<radialGradient id="paint10_radial_53_423" cx="0" cy="0" r="1" gradientUnits="userSpaceOnUse" gradientTransform="translate(408.143 240.789) scale(22.0691 24.3411)">
<stop stop-color="#FFA962"/>
<stop offset="0.01" stop-color="#F6A35E"/>
<stop offset="0.05" stop-color="#C8854D"/>
<stop offset="0.09" stop-color="#9D683C"/>
<stop offset="0.14" stop-color="#774F2E"/>
<stop offset="0.2" stop-color="#573921"/>
<stop offset="0.25" stop-color="#3B2717"/>
<stop offset="0.32" stop-color="#25190E"/>
<stop offset="0.4" stop-color="#140E08"/>
<stop offset="0.49" stop-color="#090603"/>
<stop offset="0.63" stop-color="#020101"/>
<stop offset="1"/>
</radialGradient>
<radialGradient id="paint11_radial_53_423" cx="0" cy="0" r="1" gradientUnits="userSpaceOnUse" gradientTransform="translate(318.746 133.901) scale(82.4451 90.9327)">
<stop stop-color="#D74CFA"/>
<stop offset="0.05" stop-color="#AF3DCB"/>
<stop offset="0.1" stop-color="#8A30A0"/>
<stop offset="0.15" stop-color="#69257A"/>
<stop offset="0.21" stop-color="#4C1B59"/>
<stop offset="0.27" stop-color="#34123D"/>
<stop offset="0.34" stop-color="#210C26"/>
<stop offset="0.42" stop-color="#120615"/>
<stop offset="0.52" stop-color="#080309"/>
<stop offset="0.65" stop-color="#020102"/>
<stop offset="1"/>
</radialGradient>
<radialGradient id="paint12_radial_53_423" cx="0" cy="0" r="1" gradientUnits="userSpaceOnUse" gradientTransform="translate(328.502 196.93) scale(92.8516 102.411)">
<stop stop-color="#DB4DFF"/>
<stop offset="0.01" stop-color="#D34AF6"/>
<stop offset="0.05" stop-color="#AC3CC8"/>
<stop offset="0.09" stop-color="#872F9D"/>
<stop offset="0.14" stop-color="#662477"/>
<stop offset="0.2" stop-color="#4A1A57"/>
<stop offset="0.25" stop-color="#33123B"/>
<stop offset="0.32" stop-color="#200B25"/>
<stop offset="0.4" stop-color="#120614"/>
<stop offset="0.49" stop-color="#070309"/>
<stop offset="0.63" stop-color="#020102"/>
<stop offset="1"/>
</radialGradient>
<radialGradient id="paint13_radial_53_423" cx="0" cy="0" r="1" gradientUnits="userSpaceOnUse" gradientTransform="translate(318.75 133.907) rotate(-47.8027) scale(20.6121 20.5135)">
<stop stop-color="#FFA962"/>
<stop offset="0.01" stop-color="#F6A35E"/>
<stop offset="0.04" stop-color="#C8854D"/>
<stop offset="0.07" stop-color="#9D683C"/>
<stop offset="0.1" stop-color="#774F2E"/>
<stop offset="0.14" stop-color="#573921"/>
<stop offset="0.19" stop-color="#3B2717"/>
<stop offset="0.24" stop-color="#25190E"/>
<stop offset="0.29" stop-color="#140E08"/>
<stop offset="0.36" stop-color="#090603"/>
<stop offset="0.46" stop-color="#020101"/>
<stop offset="0.74"/>
</radialGradient>
<radialGradient id="paint14_radial_53_423" cx="0" cy="0" r="1" gradientUnits="userSpaceOnUse" gradientTransform="translate(408.416 240.991) rotate(-47.8026) scale(20.6121 20.5135)">
<stop stop-color="#FFA962"/>
<stop offset="0.01" stop-color="#F6A35E"/>
<stop offset="0.04" stop-color="#C8854D"/>
<stop offset="0.07" stop-color="#9D683C"/>
<stop offset="0.1" stop-color="#774F2E"/>
<stop offset="0.14" stop-color="#573921"/>
<stop offset="0.19" stop-color="#3B2717"/>
<stop offset="0.24" stop-color="#25190E"/>
<stop offset="0.29" stop-color="#140E08"/>
<stop offset="0.36" stop-color="#090603"/>
<stop offset="0.46" stop-color="#020101"/>
<stop offset="0.74"/>
</radialGradient>
<radialGradient id="paint15_radial_53_423" cx="0" cy="0" r="1" gradientUnits="userSpaceOnUse" gradientTransform="translate(404.555 90.9327) scale(82.4451 90.9327)">
<stop stop-color="#FFEC3D"/>
<stop offset="0.13" stop-color="#E53DFF"/>
<stop offset="0.14" stop-color="#D739EF"/>
<stop offset="0.15" stop-color="#C835DE"/>
<stop offset="0.2" stop-color="#A12BB3"/>
<stop offset="0.26" stop-color="#7B2189"/>
<stop offset="0.33" stop-color="#5A1864"/>
<stop offset="0.4" stop-color="#3E1045"/>
<stop offset="0.47" stop-color="#270A2C"/>
<stop offset="0.56" stop-color="#160618"/>
<stop offset="0.66" stop-color="#09020A"/>
<stop offset="0.78" stop-color="#020102"/>
<stop offset="1"/>
</radialGradient>
<linearGradient id="paint16_linear_53_423" x1="362.099" y1="69.1396" x2="314.63" y2="143.694" gradientUnits="userSpaceOnUse">
<stop stop-color="#FFAFF3"/>
<stop offset="0.17" stop-color="#F5A2ED"/>
<stop offset="0.49" stop-color="#D97FDE"/>
<stop offset="0.91" stop-color="#AE47C6"/>
<stop offset="1" stop-color="#A43AC1"/>
</linearGradient>
<linearGradient id="paint17_linear_53_423" x1="72.2628" y1="240.195" x2="92.6498" y2="240.195" gradientUnits="userSpaceOnUse">
<stop stop-color="#D66EE5"/>
<stop offset="1" stop-color="#EA82F5"/>
</linearGradient>
<linearGradient id="paint18_linear_53_423" x1="90.8107" y1="256.868" x2="111.198" y2="256.868" gradientUnits="userSpaceOnUse">
<stop stop-color="#D66EE5"/>
<stop offset="1" stop-color="#EA82F5"/>
</linearGradient>
<linearGradient id="paint19_linear_53_423" x1="109.381" y1="273.392" x2="129.768" y2="273.392" gradientUnits="userSpaceOnUse">
<stop stop-color="#D66EE5"/>
<stop offset="1" stop-color="#EA82F5"/>
</linearGradient>
<linearGradient id="paint20_linear_53_423" x1="128.22" y1="291.672" x2="148.607" y2="291.672" gradientUnits="userSpaceOnUse">
<stop stop-color="#D66EE5"/>
<stop offset="1" stop-color="#EA82F5"/>
</linearGradient>
<linearGradient id="paint21_linear_53_423" x1="147.06" y1="309.285" x2="167.447" y2="309.285" gradientUnits="userSpaceOnUse">
<stop stop-color="#D66EE5"/>
<stop offset="1" stop-color="#EA82F5"/>
</linearGradient>
<linearGradient id="paint22_linear_53_423" x1="223.18" y1="348.048" x2="225.898" y2="352.319" gradientUnits="userSpaceOnUse">
<stop stop-color="#FFEBFF"/>
<stop offset="1" stop-color="#E8BDF1"/>
</linearGradient>
<radialGradient id="paint23_radial_53_423" cx="0" cy="0" r="1" gradientUnits="userSpaceOnUse" gradientTransform="translate(170.269 99.8759) scale(82.4451 90.9328)">
<stop stop-color="#FFEC3D"/>
<stop offset="0.13" stop-color="#E53DFF"/>
<stop offset="0.14" stop-color="#D739EF"/>
<stop offset="0.15" stop-color="#C835DE"/>
<stop offset="0.2" stop-color="#A12BB3"/>
<stop offset="0.26" stop-color="#7B2189"/>
<stop offset="0.33" stop-color="#5A1864"/>
<stop offset="0.4" stop-color="#3E1045"/>
<stop offset="0.47" stop-color="#270A2C"/>
<stop offset="0.56" stop-color="#160618"/>
<stop offset="0.66" stop-color="#09020A"/>
<stop offset="0.78" stop-color="#020102"/>
<stop offset="1"/>
</radialGradient>
<radialGradient id="paint24_radial_53_423" cx="0" cy="0" r="1" gradientUnits="userSpaceOnUse" gradientTransform="translate(82.4451 206.949) scale(82.4451 90.9328)">
<stop stop-color="#DB4DFF"/>
<stop offset="0.01" stop-color="#D34AF6"/>
<stop offset="0.09" stop-color="#A83BC3"/>
<stop offset="0.17" stop-color="#802D95"/>
<stop offset="0.26" stop-color="#5D216D"/>
<stop offset="0.35" stop-color="#40174B"/>
<stop offset="0.44" stop-color="#290E30"/>
<stop offset="0.54" stop-color="#17081A"/>
<stop offset="0.66" stop-color="#0A030B"/>
<stop offset="0.79" stop-color="#020103"/>
<stop offset="1"/>
</radialGradient>
<radialGradient id="paint25_radial_53_423" cx="0" cy="0" r="1" gradientUnits="userSpaceOnUse" gradientTransform="translate(119.563 193.294) scale(82.4451 90.9328)">
<stop stop-color="#DB4DFF"/>
<stop offset="0.01" stop-color="#D34AF6"/>
<stop offset="0.09" stop-color="#A83BC3"/>
<stop offset="0.17" stop-color="#802D95"/>
<stop offset="0.26" stop-color="#5D216D"/>
<stop offset="0.35" stop-color="#40174B"/>
<stop offset="0.44" stop-color="#290E30"/>
<stop offset="0.54" stop-color="#17081A"/>
<stop offset="0.66" stop-color="#0A030B"/>
<stop offset="0.79" stop-color="#020103"/>
<stop offset="1"/>
</radialGradient>
<radialGradient id="paint26_radial_53_423" cx="0" cy="0" r="1" gradientUnits="userSpaceOnUse" gradientTransform="translate(232.981 343.175) scale(66.0278 72.8253)">
<stop stop-color="#DB4DFF"/>
<stop offset="0.01" stop-color="#D34AF6"/>
<stop offset="0.09" stop-color="#A83BC3"/>
<stop offset="0.17" stop-color="#802D95"/>
<stop offset="0.26" stop-color="#5D216D"/>
<stop offset="0.35" stop-color="#40174B"/>
<stop offset="0.44" stop-color="#290E30"/>
<stop offset="0.54" stop-color="#17081A"/>
<stop offset="0.66" stop-color="#0A030B"/>
<stop offset="0.79" stop-color="#020103"/>
<stop offset="1"/>
</radialGradient>
<clipPath id="clip0_53_423">
<rect width="487" height="416" fill="white"/>
</clipPath>
</defs>
</svg>
