<svg width="97" height="96" viewBox="0 0 97 96" fill="none" xmlns="http://www.w3.org/2000/svg">
<g id="Chield_check_fill">
<path id="Subtract" fill-rule="evenodd" clip-rule="evenodd" d="M74.0757 22.9601L53.227 14.0249C50.2084 12.7313 46.7916 12.7313 43.773 14.0249L22.9243 22.9601C21.4536 23.5904 20.5 25.0365 20.5 26.6367V47.6482C20.5 55.3991 24.2432 62.6728 30.5503 67.1778L43.8501 76.6777C46.6317 78.6646 50.3683 78.6646 53.1499 76.6777L66.4497 67.1778C72.7568 62.6728 76.5 55.3991 76.5 47.6482V26.6367C76.5 25.0365 75.5464 23.5904 74.0757 22.9601ZM63.6235 38.4988C65.0035 36.7737 64.7238 34.2566 62.9988 32.8765C61.2737 31.4965 58.7566 31.7762 57.3765 33.5012L44.1683 50.0115L39.3284 45.1716C37.7663 43.6095 35.2337 43.6095 33.6716 45.1716C32.1095 46.7337 32.1095 49.2663 33.6716 50.8284L40.0915 57.2484C42.6202 59.777 46.7854 59.5463 49.0194 56.7539L63.6235 38.4988Z" fill="white"/>
</g>
</svg>
