<svg width="213" height="354" viewBox="0 0 213 354" fill="none" xmlns="http://www.w3.org/2000/svg">
<g clip-path="url(#clip0_145_2392)">
<rect x="0.100098" y="0.199951" width="212" height="353.6" rx="11.4222" fill="#2E2B43"/>
<path d="M18.0901 26.7618H16.234V29.5459H18.0901V26.7618ZM22.7304 23.0495H20.8742V29.5459H22.7304V23.0495ZM27.3706 18.4093V29.5459H25.5145V18.4093H27.3706ZM25.5145 17.4812C25.2684 17.4812 25.0323 17.579 24.8583 17.753C24.6842 17.9271 24.5865 18.1631 24.5865 18.4093V29.5459C24.5865 29.7921 24.6842 30.0281 24.8583 30.2022C25.0323 30.3762 25.2684 30.474 25.5145 30.474H27.3706C27.6168 30.474 27.8528 30.3762 28.0269 30.2022C28.2009 30.0281 28.2987 29.7921 28.2987 29.5459V18.4093C28.2987 18.1631 28.2009 17.9271 28.0269 17.753C27.8528 17.579 27.6168 17.4812 27.3706 17.4812H25.5145ZM19.9462 23.0495C19.9462 22.8034 20.044 22.5673 20.218 22.3933C20.3921 22.2193 20.6281 22.1215 20.8742 22.1215H22.7304C22.9765 22.1215 23.2125 22.2193 23.3866 22.3933C23.5606 22.5673 23.6584 22.8034 23.6584 23.0495V29.5459C23.6584 29.7921 23.5606 30.0281 23.3866 30.2022C23.2125 30.3762 22.9765 30.474 22.7304 30.474H20.8742C20.6281 30.474 20.3921 30.3762 20.218 30.2022C20.044 30.0281 19.9462 29.7921 19.9462 29.5459V23.0495ZM15.3059 26.7618C15.3059 26.5156 15.4037 26.2796 15.5777 26.1055C15.7518 25.9315 15.9878 25.8337 16.234 25.8337H18.0901C18.3362 25.8337 18.5723 25.9315 18.7463 26.1055C18.9204 26.2796 19.0181 26.5156 19.0181 26.7618V29.5459C19.0181 29.7921 18.9204 30.0281 18.7463 30.2022C18.5723 30.3762 18.3362 30.474 18.0901 30.474H16.234C15.9878 30.474 15.7518 30.3762 15.5777 30.2022C15.4037 30.0281 15.3059 29.7921 15.3059 29.5459V26.7618Z" fill="white"/>
<path d="M40.0523 27.1041L42.7305 18.1091H45.3385L41.3797 29.4778H39.6619L40.0523 27.1041ZM37.585 18.1091L40.2553 27.1041L40.6614 29.4778H38.928L34.9926 18.1091H37.585ZM48.6335 21.0294V29.4778H46.3769V21.0294H48.6335ZM46.2364 18.8275C46.2364 18.4995 46.3509 18.2288 46.58 18.0154C46.809 17.802 47.1161 17.6953 47.5013 17.6953C47.8813 17.6953 48.1858 17.802 48.4149 18.0154C48.6491 18.2288 48.7662 18.4995 48.7662 18.8275C48.7662 19.1554 48.6491 19.4261 48.4149 19.6395C48.1858 19.8529 47.8813 19.9596 47.5013 19.9596C47.1161 19.9596 46.809 19.8529 46.58 19.6395C46.3509 19.4261 46.2364 19.1554 46.2364 18.8275ZM55.0596 27.1431C55.0596 26.9818 55.0128 26.836 54.9191 26.7059C54.8254 26.5758 54.651 26.456 54.3959 26.3467C54.1461 26.2322 53.7843 26.1281 53.3106 26.0344C52.8837 25.9407 52.4855 25.8236 52.1159 25.683C51.7516 25.5373 51.434 25.3629 51.1633 25.1599C50.8979 24.9569 50.6896 24.7174 50.5387 24.4415C50.3877 24.1604 50.3123 23.8403 50.3123 23.4811C50.3123 23.1271 50.3877 22.794 50.5387 22.4817C50.6949 22.1693 50.9161 21.8935 51.2024 21.654C51.4939 21.4094 51.8479 21.2194 52.2643 21.084C52.6859 20.9435 53.1596 20.8732 53.6854 20.8732C54.4193 20.8732 55.0492 20.9903 55.575 21.2246C56.1059 21.4588 56.5119 21.7815 56.793 22.1928C57.0793 22.5988 57.2225 23.0621 57.2225 23.5826H54.9737C54.9737 23.364 54.9269 23.1688 54.8332 22.997C54.7447 22.82 54.6041 22.6821 54.4115 22.5832C54.2241 22.4791 53.9795 22.427 53.6776 22.427C53.4277 22.427 53.2117 22.4713 53.0295 22.5598C52.8473 22.643 52.7068 22.7576 52.6079 22.9033C52.5142 23.0439 52.4673 23.2 52.4673 23.3718C52.4673 23.5019 52.4933 23.6191 52.5454 23.7232C52.6026 23.8221 52.6937 23.9132 52.8187 23.9965C52.9436 24.0797 53.105 24.1578 53.3028 24.2307C53.5058 24.2984 53.7557 24.3608 54.0524 24.4181C54.6614 24.543 55.2054 24.707 55.6843 24.91C56.1632 25.1078 56.5432 25.3785 56.8243 25.7221C57.1054 26.0604 57.2459 26.5055 57.2459 27.0573C57.2459 27.432 57.1626 27.7756 56.996 28.0879C56.8295 28.4003 56.59 28.6735 56.2777 28.9078C55.9654 29.1368 55.5906 29.3164 55.1533 29.4466C54.7213 29.5715 54.2346 29.6339 53.6932 29.6339C52.9072 29.6339 52.2409 29.4934 51.6943 29.2123C51.1529 28.9312 50.7417 28.5746 50.4606 28.1426C50.1847 27.7053 50.0468 27.2577 50.0468 26.7996H52.1784C52.1888 27.1067 52.2669 27.354 52.4126 27.5414C52.5636 27.7288 52.7536 27.8641 52.9826 27.9474C53.2169 28.0307 53.4694 28.0723 53.74 28.0723C54.0315 28.0723 54.2736 28.0333 54.4662 27.9552C54.6588 27.8719 54.8045 27.7626 54.9035 27.6272C55.0076 27.4867 55.0596 27.3253 55.0596 27.1431ZM61.0797 21.0294V29.4778H58.8231V21.0294H61.0797ZM58.6826 18.8275C58.6826 18.4995 58.7971 18.2288 59.0262 18.0154C59.2552 17.802 59.5623 17.6953 59.9475 17.6953C60.3275 17.6953 60.632 17.802 60.8611 18.0154C61.0953 18.2288 61.2124 18.4995 61.2124 18.8275C61.2124 19.1554 61.0953 19.4261 60.8611 19.6395C60.632 19.8529 60.3275 19.9596 59.9475 19.9596C59.5623 19.9596 59.2552 19.8529 59.0262 19.6395C58.7971 19.4261 58.6826 19.1554 58.6826 18.8275ZM67.0764 21.0294V22.6222H62.1572V21.0294H67.0764ZM63.3753 18.9446H65.6241V26.9323C65.6241 27.177 65.6553 27.3644 65.7178 27.4945C65.7854 27.6246 65.8843 27.7157 66.0145 27.7678C66.1446 27.8146 66.3086 27.8381 66.5064 27.8381C66.6469 27.8381 66.7719 27.8329 66.8812 27.8225C66.9957 27.8068 67.092 27.7912 67.1701 27.7756L67.1779 29.4309C66.9853 29.4934 66.7771 29.5429 66.5532 29.5793C66.3294 29.6157 66.0821 29.6339 65.8115 29.6339C65.3169 29.6339 64.8849 29.5533 64.5153 29.3919C64.1509 29.2253 63.8698 28.9598 63.672 28.5955C63.4742 28.2311 63.3753 27.7522 63.3753 27.1588V18.9446ZM67.7947 25.3395V25.1755C67.7947 24.556 67.8832 23.986 68.0602 23.4655C68.2372 22.9398 68.4949 22.4843 68.8332 22.0991C69.1716 21.7139 69.588 21.4146 70.0825 21.2011C70.577 20.9825 71.1444 20.8732 71.7847 20.8732C72.425 20.8732 72.995 20.9825 73.4947 21.2011C73.9944 21.4146 74.4134 21.7139 74.7518 22.0991C75.0954 22.4843 75.3556 22.9398 75.5326 23.4655C75.7096 23.986 75.7981 24.556 75.7981 25.1755V25.3395C75.7981 25.9537 75.7096 26.5237 75.5326 27.0494C75.3556 27.57 75.0954 28.0255 74.7518 28.4159C74.4134 28.8011 73.997 29.1004 73.5025 29.3138C73.008 29.5272 72.4406 29.6339 71.8003 29.6339C71.16 29.6339 70.59 29.5272 70.0903 29.3138C69.5958 29.1004 69.1768 28.8011 68.8332 28.4159C68.4949 28.0255 68.2372 27.57 68.0602 27.0494C67.8832 26.5237 67.7947 25.9537 67.7947 25.3395ZM70.0435 25.1755V25.3395C70.0435 25.6934 70.0747 26.024 70.1372 26.3311C70.1996 26.6382 70.2985 26.9089 70.4339 27.1431C70.5744 27.3722 70.7566 27.5518 70.9805 27.6819C71.2043 27.812 71.4776 27.8771 71.8003 27.8771C72.1126 27.8771 72.3807 27.812 72.6045 27.6819C72.8284 27.5518 73.008 27.3722 73.1433 27.1431C73.2787 26.9089 73.3776 26.6382 73.44 26.3311C73.5077 26.024 73.5415 25.6934 73.5415 25.3395V25.1755C73.5415 24.8319 73.5077 24.5092 73.44 24.2073C73.3776 23.9002 73.2761 23.6295 73.1355 23.3952C73.0002 23.1558 72.8206 22.9684 72.5967 22.833C72.3729 22.6977 72.1022 22.63 71.7847 22.63C71.4672 22.63 71.1965 22.6977 70.9726 22.833C70.754 22.9684 70.5744 23.1558 70.4339 23.3952C70.2985 23.6295 70.1996 23.9002 70.1372 24.2073C70.0747 24.5092 70.0435 24.8319 70.0435 25.1755ZM79.4289 22.8721V29.4778H77.1801V21.0294H79.2961L79.4289 22.8721ZM81.9743 20.9747L81.9353 23.0595C81.826 23.0439 81.6932 23.0308 81.5371 23.0204C81.3861 23.0048 81.2482 22.997 81.1233 22.997C80.8057 22.997 80.5298 23.0387 80.2956 23.1219C80.0665 23.2 79.8739 23.3171 79.7178 23.4733C79.5668 23.6295 79.4523 23.8195 79.3742 24.0433C79.3013 24.2671 79.2597 24.5222 79.2493 24.8085L78.7964 24.668C78.7964 24.1214 78.8511 23.6191 78.9604 23.161C79.0697 22.6977 79.2285 22.2943 79.4367 21.9507C79.6501 21.6072 79.9104 21.3417 80.2175 21.1543C80.5246 20.9669 80.876 20.8732 81.2716 20.8732C81.3965 20.8732 81.5241 20.8836 81.6542 20.9044C81.7843 20.92 81.8911 20.9435 81.9743 20.9747ZM87.604 27.1431C87.604 26.9818 87.5572 26.836 87.4635 26.7059C87.3698 26.5758 87.1954 26.456 86.9403 26.3467C86.6905 26.2322 86.3287 26.1281 85.855 26.0344C85.4281 25.9407 85.0299 25.8236 84.6603 25.683C84.296 25.5373 83.9784 25.3629 83.7078 25.1599C83.4423 24.9569 83.2341 24.7174 83.0831 24.4415C82.9321 24.1604 82.8567 23.8403 82.8567 23.4811C82.8567 23.1271 82.9321 22.794 83.0831 22.4817C83.2393 22.1693 83.4605 21.8935 83.7468 21.654C84.0383 21.4094 84.3923 21.2194 84.8087 21.084C85.2303 20.9435 85.704 20.8732 86.2298 20.8732C86.9638 20.8732 87.5936 20.9903 88.1194 21.2246C88.6503 21.4588 89.0563 21.7815 89.3374 22.1928C89.6237 22.5988 89.7669 23.0621 89.7669 23.5826H87.5181C87.5181 23.364 87.4713 23.1688 87.3776 22.997C87.2891 22.82 87.1485 22.6821 86.9559 22.5832C86.7685 22.4791 86.5239 22.427 86.222 22.427C85.9721 22.427 85.7561 22.4713 85.5739 22.5598C85.3917 22.643 85.2512 22.7576 85.1523 22.9033C85.0586 23.0439 85.0117 23.2 85.0117 23.3718C85.0117 23.5019 85.0377 23.6191 85.0898 23.7232C85.1471 23.8221 85.2382 23.9132 85.3631 23.9965C85.488 24.0797 85.6494 24.1578 85.8472 24.2307C86.0502 24.2984 86.3001 24.3608 86.5968 24.4181C87.2058 24.543 87.7498 24.707 88.2287 24.91C88.7076 25.1078 89.0876 25.3785 89.3687 25.7221C89.6498 26.0604 89.7903 26.5055 89.7903 27.0573C89.7903 27.432 89.707 27.7756 89.5404 28.0879C89.3739 28.4003 89.1344 28.6735 88.8221 28.9078C88.5098 29.1368 88.135 29.3164 87.6977 29.4466C87.2657 29.5715 86.779 29.6339 86.2376 29.6339C85.4516 29.6339 84.7853 29.4934 84.2387 29.2123C83.6973 28.9312 83.2861 28.5746 83.005 28.1426C82.7291 27.7053 82.5912 27.2577 82.5912 26.7996H84.7228C84.7332 27.1067 84.8113 27.354 84.9571 27.5414C85.108 27.7288 85.298 27.8641 85.5271 27.9474C85.7613 28.0307 86.0138 28.0723 86.2844 28.0723C86.5759 28.0723 86.818 28.0333 87.0106 27.9552C87.2032 27.8719 87.349 27.7626 87.4479 27.6272C87.552 27.4867 87.604 27.3253 87.604 27.1431Z" fill="white"/>
<path d="M15.4041 42.6923H16.2385L18.3668 47.9885L20.4906 42.6923H21.3294L18.688 49.1887H18.0366L15.4041 42.6923ZM15.132 42.6923H15.8682L15.9886 46.6544V49.1887H15.132V42.6923ZM20.8609 42.6923H21.5971V49.1887H20.7405V46.6544L20.8609 42.6923ZM24.1671 44.361V49.1887H23.3372V44.361H24.1671ZM23.2748 43.0805C23.2748 42.9467 23.3149 42.8336 23.3952 42.7414C23.4785 42.6492 23.6005 42.6031 23.7611 42.6031C23.9188 42.6031 24.0392 42.6492 24.1225 42.7414C24.2088 42.8336 24.2519 42.9467 24.2519 43.0805C24.2519 43.2084 24.2088 43.3185 24.1225 43.4107C24.0392 43.4999 23.9188 43.5445 23.7611 43.5445C23.6005 43.5445 23.4785 43.4999 23.3952 43.4107C23.3149 43.3185 23.2748 43.2084 23.2748 43.0805ZM26.6033 45.3917V49.1887H25.7778V44.361H26.5587L26.6033 45.3917ZM26.407 46.5919L26.0634 46.5786C26.0664 46.2484 26.1155 45.9435 26.2106 45.6639C26.3058 45.3813 26.4397 45.1359 26.6122 44.9277C26.7847 44.7195 26.99 44.5589 27.2279 44.4458C27.4689 44.3298 27.7351 44.2718 28.0266 44.2718C28.2646 44.2718 28.4787 44.3045 28.6691 44.37C28.8595 44.4324 29.0216 44.5336 29.1554 44.6734C29.2923 44.8132 29.3964 44.9946 29.4678 45.2177C29.5391 45.4378 29.5748 45.707 29.5748 46.0253V49.1887H28.7449V46.0164C28.7449 45.7635 28.7078 45.5613 28.6334 45.4096C28.559 45.2549 28.4505 45.1434 28.3077 45.0749C28.1649 45.0035 27.9894 44.9679 27.7812 44.9679C27.576 44.9679 27.3886 45.011 27.219 45.0972C27.0524 45.1835 26.9082 45.3025 26.7862 45.4542C26.6672 45.6059 26.5735 45.7799 26.5051 45.9762C26.4397 46.1696 26.407 46.3748 26.407 46.5919ZM32.011 44.361V49.1887H31.1811V44.361H32.011ZM31.1186 43.0805C31.1186 42.9467 31.1588 42.8336 31.2391 42.7414C31.3224 42.6492 31.4443 42.6031 31.605 42.6031C31.7626 42.6031 31.8831 42.6492 31.9664 42.7414C32.0526 42.8336 32.0958 42.9467 32.0958 43.0805C32.0958 43.2084 32.0526 43.3185 31.9664 43.4107C31.8831 43.4999 31.7626 43.5445 31.605 43.5445C31.4443 43.5445 31.3224 43.4999 31.2391 43.4107C31.1588 43.3185 31.1186 43.2084 31.1186 43.0805ZM34.4427 45.3203V49.1887H33.6128V44.361H34.3981L34.4427 45.3203ZM34.2731 46.5919L33.8894 46.5786C33.8924 46.2484 33.9355 45.9435 34.0188 45.6639C34.1021 45.3813 34.2255 45.1359 34.3891 44.9277C34.5527 44.7195 34.7565 44.5589 35.0004 44.4458C35.2443 44.3298 35.5269 44.2718 35.8481 44.2718C36.0742 44.2718 36.2824 44.3045 36.4728 44.37C36.6632 44.4324 36.8282 44.5321 36.9681 44.6689C37.1079 44.8057 37.2164 44.9812 37.2938 45.1954C37.3711 45.4096 37.4098 45.6684 37.4098 45.9718V49.1887H36.5843V46.0119C36.5843 45.7591 36.5412 45.5568 36.4549 45.4051C36.3717 45.2534 36.2527 45.1434 36.098 45.0749C35.9433 45.0035 35.7619 44.9679 35.5537 44.9679C35.3097 44.9679 35.106 45.011 34.9424 45.0972C34.7788 45.1835 34.6479 45.3025 34.5498 45.4542C34.4516 45.6059 34.3802 45.7799 34.3356 45.9762C34.2939 46.1696 34.2731 46.3748 34.2731 46.5919ZM37.4008 46.1368L36.8476 46.3064C36.8506 46.0417 36.8937 45.7873 36.977 45.5434C37.0632 45.2995 37.1867 45.0824 37.3473 44.892C37.5109 44.7016 37.7117 44.5514 37.9497 44.4414C38.1876 44.3283 38.4598 44.2718 38.7662 44.2718C39.0249 44.2718 39.254 44.306 39.4533 44.3744C39.6555 44.4428 39.8251 44.5484 39.9619 44.6912C40.1017 44.831 40.2073 45.011 40.2787 45.2311C40.3501 45.4512 40.3858 45.713 40.3858 46.0164V49.1887H39.5559V46.0075C39.5559 45.7368 39.5128 45.5271 39.4265 45.3783C39.3432 45.2266 39.2242 45.121 39.0696 45.0616C38.9179 44.9991 38.7364 44.9679 38.5252 44.9679C38.3438 44.9679 38.1832 44.9991 38.0433 45.0616C37.9035 45.124 37.7861 45.2103 37.6909 45.3203C37.5957 45.4274 37.5228 45.5509 37.4722 45.6907C37.4246 45.8305 37.4008 45.9792 37.4008 46.1368ZM47.5158 48.2517V42.3354H48.3457V49.1887H47.5871L47.5158 48.2517ZM44.2676 46.8284V46.7347C44.2676 46.3659 44.3122 46.0312 44.4014 45.7308C44.4936 45.4274 44.623 45.1671 44.7896 44.95C44.9591 44.7329 45.1599 44.5663 45.3919 44.4503C45.6269 44.3313 45.8887 44.2718 46.1772 44.2718C46.4806 44.2718 46.7454 44.3254 46.9714 44.4324C47.2005 44.5365 47.3938 44.6897 47.5515 44.892C47.7121 45.0913 47.8385 45.3322 47.9307 45.6148C48.0229 45.8974 48.0869 46.2172 48.1226 46.5741V46.9846C48.0898 47.3386 48.0259 47.6568 47.9307 47.9394C47.8385 48.222 47.7121 48.4629 47.5515 48.6622C47.3938 48.8615 47.2005 49.0147 46.9714 49.1218C46.7424 49.2259 46.4747 49.278 46.1683 49.278C45.8857 49.278 45.6269 49.217 45.3919 49.095C45.1599 48.9731 44.9591 48.802 44.7896 48.5819C44.623 48.3618 44.4936 48.103 44.4014 47.8056C44.3122 47.5051 44.2676 47.1794 44.2676 46.8284ZM45.0975 46.7347V46.8284C45.0975 47.0694 45.1213 47.2954 45.1689 47.5066C45.2194 47.7178 45.2968 47.9037 45.4009 48.0643C45.505 48.225 45.6373 48.3514 45.798 48.4436C45.9586 48.5328 46.1504 48.5775 46.3735 48.5775C46.6472 48.5775 46.8718 48.5194 47.0473 48.4034C47.2257 48.2874 47.3685 48.1342 47.4756 47.9439C47.5827 47.7535 47.666 47.5468 47.7255 47.3237V46.2484C47.6898 46.0848 47.6377 45.9271 47.5693 45.7754C47.5039 45.6208 47.4176 45.4839 47.3105 45.365C47.2064 45.243 47.077 45.1463 46.9223 45.0749C46.7706 45.0035 46.5907 44.9679 46.3825 44.9679C46.1564 44.9679 45.9616 45.0154 45.798 45.1106C45.6373 45.2028 45.505 45.3307 45.4009 45.4943C45.2968 45.655 45.2194 45.8424 45.1689 46.0565C45.1213 46.2677 45.0975 46.4938 45.0975 46.7347ZM49.6976 46.8284V46.7258C49.6976 46.3778 49.7482 46.055 49.8493 45.7576C49.9504 45.4572 50.0962 45.1969 50.2865 44.9768C50.4769 44.7537 50.7074 44.5812 50.9781 44.4592C51.2488 44.3343 51.5522 44.2718 51.8883 44.2718C52.2274 44.2718 52.5323 44.3343 52.803 44.4592C53.0767 44.5812 53.3087 44.7537 53.499 44.9768C53.6924 45.1969 53.8396 45.4572 53.9408 45.7576C54.0419 46.055 54.0925 46.3778 54.0925 46.7258V46.8284C54.0925 47.1764 54.0419 47.4992 53.9408 47.7966C53.8396 48.0941 53.6924 48.3544 53.499 48.5775C53.3087 48.7976 53.0781 48.9701 52.8075 49.095C52.5398 49.217 52.2364 49.278 51.8973 49.278C51.5582 49.278 51.2533 49.217 50.9826 49.095C50.7119 48.9701 50.4799 48.7976 50.2865 48.5775C50.0962 48.3544 49.9504 48.0941 49.8493 47.7966C49.7482 47.4992 49.6976 47.1764 49.6976 46.8284ZM50.523 46.7258V46.8284C50.523 47.0694 50.5513 47.2969 50.6078 47.5111C50.6643 47.7223 50.7491 47.9097 50.8621 48.0733C50.9781 48.2369 51.1224 48.3663 51.2949 48.4614C51.4674 48.5537 51.6682 48.5998 51.8973 48.5998C52.1233 48.5998 52.3211 48.5537 52.4907 48.4614C52.6632 48.3663 52.806 48.2369 52.919 48.0733C53.032 47.9097 53.1168 47.7223 53.1733 47.5111C53.2328 47.2969 53.2626 47.0694 53.2626 46.8284V46.7258C53.2626 46.4878 53.2328 46.2633 53.1733 46.0521C53.1168 45.8379 53.0306 45.649 52.9145 45.4854C52.8015 45.3188 52.6587 45.188 52.4862 45.0928C52.3167 44.9976 52.1174 44.95 51.8883 44.95C51.6623 44.95 51.463 44.9976 51.2904 45.0928C51.1209 45.188 50.9781 45.3188 50.8621 45.4854C50.7491 45.649 50.6643 45.8379 50.6078 46.0521C50.5513 46.2633 50.523 46.4878 50.523 46.7258ZM56.31 42.3354V49.1887H55.4801V42.3354H56.31ZM57.7021 46.8284V46.7258C57.7021 46.3778 57.7526 46.055 57.8538 45.7576C57.9549 45.4572 58.1007 45.1969 58.291 44.9768C58.4814 44.7537 58.7119 44.5812 58.9826 44.4592C59.2533 44.3343 59.5567 44.2718 59.8928 44.2718C60.2319 44.2718 60.5368 44.3343 60.8075 44.4592C61.0811 44.5812 61.3132 44.7537 61.5035 44.9768C61.6969 45.1969 61.8441 45.4572 61.9452 45.7576C62.0464 46.055 62.0969 46.3778 62.0969 46.7258V46.8284C62.0969 47.1764 62.0464 47.4992 61.9452 47.7966C61.8441 48.0941 61.6969 48.3544 61.5035 48.5775C61.3132 48.7976 61.0826 48.9701 60.8119 49.095C60.5442 49.217 60.2408 49.278 59.9017 49.278C59.5626 49.278 59.2577 49.217 58.9871 49.095C58.7164 48.9701 58.4844 48.7976 58.291 48.5775C58.1007 48.3544 57.9549 48.0941 57.8538 47.7966C57.7526 47.4992 57.7021 47.1764 57.7021 46.8284ZM58.5275 46.7258V46.8284C58.5275 47.0694 58.5558 47.2969 58.6123 47.5111C58.6688 47.7223 58.7536 47.9097 58.8666 48.0733C58.9826 48.2369 59.1269 48.3663 59.2994 48.4614C59.4719 48.5537 59.6727 48.5998 59.9017 48.5998C60.1278 48.5998 60.3256 48.5537 60.4952 48.4614C60.6677 48.3663 60.8105 48.2369 60.9235 48.0733C61.0365 47.9097 61.1213 47.7223 61.1778 47.5111C61.2373 47.2969 61.267 47.0694 61.267 46.8284V46.7258C61.267 46.4878 61.2373 46.2633 61.1778 46.0521C61.1213 45.8379 61.035 45.649 60.919 45.4854C60.806 45.3188 60.6632 45.188 60.4907 45.0928C60.3211 44.9976 60.1218 44.95 59.8928 44.95C59.6667 44.95 59.4675 44.9976 59.2949 45.0928C59.1254 45.188 58.9826 45.3188 58.8666 45.4854C58.7536 45.649 58.6688 45.8379 58.6123 46.0521C58.5558 46.2633 58.5275 46.4878 58.5275 46.7258ZM64.2431 45.1196V49.1887H63.4176V44.361H64.2208L64.2431 45.1196ZM65.7512 44.3343L65.7467 45.1017C65.6783 45.0868 65.6128 45.0779 65.5504 45.0749C65.4909 45.069 65.4225 45.066 65.3451 45.066C65.1548 45.066 64.9867 45.0958 64.841 45.1552C64.6952 45.2147 64.5718 45.298 64.4706 45.4051C64.3695 45.5122 64.2892 45.6401 64.2297 45.7888C64.1732 45.9346 64.136 46.0952 64.1181 46.2707L63.8861 46.4046C63.8861 46.113 63.9144 45.8394 63.9709 45.5836C64.0304 45.3278 64.1211 45.1017 64.2431 44.9054C64.365 44.7061 64.5197 44.5514 64.7071 44.4414C64.8975 44.3283 65.1235 44.2718 65.3853 44.2718C65.4448 44.2718 65.5132 44.2792 65.5905 44.2941C65.6679 44.306 65.7214 44.3194 65.7512 44.3343ZM70.2487 44.361V49.1887H69.4188V44.361H70.2487ZM69.3563 43.0805C69.3563 42.9467 69.3965 42.8336 69.4768 42.7414C69.5601 42.6492 69.682 42.6031 69.8426 42.6031C70.0003 42.6031 70.1208 42.6492 70.204 42.7414C70.2903 42.8336 70.3334 42.9467 70.3334 43.0805C70.3334 43.2084 70.2903 43.3185 70.204 43.4107C70.1208 43.4999 70.0003 43.5445 69.8426 43.5445C69.682 43.5445 69.5601 43.4999 69.4768 43.4107C69.3965 43.3185 69.3563 43.2084 69.3563 43.0805ZM72.6848 45.3917V49.1887H71.8594V44.361H72.6402L72.6848 45.3917ZM72.4885 46.5919L72.1449 46.5786C72.1479 46.2484 72.197 45.9435 72.2922 45.6639C72.3874 45.3813 72.5212 45.1359 72.6937 44.9277C72.8663 44.7195 73.0715 44.5589 73.3095 44.4458C73.5504 44.3298 73.8166 44.2718 74.1081 44.2718C74.3461 44.2718 74.5603 44.3045 74.7506 44.37C74.941 44.4324 75.1031 44.5336 75.237 44.6734C75.3738 44.8132 75.4779 44.9946 75.5493 45.2177C75.6207 45.4378 75.6564 45.707 75.6564 46.0253V49.1887H74.8265V46.0164C74.8265 45.7635 74.7893 45.5613 74.7149 45.4096C74.6406 45.2549 74.532 45.1434 74.3892 45.0749C74.2464 45.0035 74.0709 44.9679 73.8627 44.9679C73.6575 44.9679 73.4701 45.011 73.3005 45.0972C73.134 45.1835 72.9897 45.3025 72.8677 45.4542C72.7488 45.6059 72.6551 45.7799 72.5866 45.9762C72.5212 46.1696 72.4885 46.3748 72.4885 46.5919ZM82.5945 48.3633V45.8781C82.5945 45.6877 82.5558 45.5226 82.4785 45.3828C82.4041 45.24 82.2911 45.13 82.1394 45.0526C81.9877 44.9753 81.8003 44.9366 81.5772 44.9366C81.369 44.9366 81.186 44.9723 81.0284 45.0437C80.8737 45.1151 80.7517 45.2088 80.6625 45.3248C80.5763 45.4408 80.5331 45.5657 80.5331 45.6996H79.7077C79.7077 45.5271 79.7523 45.356 79.8415 45.1865C79.9308 45.0169 80.0587 44.8637 80.2253 44.7269C80.3948 44.5871 80.5971 44.4771 80.8321 44.3967C81.07 44.3135 81.3348 44.2718 81.6263 44.2718C81.9773 44.2718 82.2866 44.3313 82.5543 44.4503C82.825 44.5693 83.0362 44.7492 83.1879 44.9902C83.3426 45.2281 83.4199 45.5271 83.4199 45.887V48.1357C83.4199 48.2964 83.4333 48.4674 83.4601 48.6488C83.4898 48.8303 83.5329 48.9865 83.5895 49.1173V49.1887H82.7283C82.6867 49.0935 82.654 48.9671 82.6302 48.8095C82.6064 48.6488 82.5945 48.5001 82.5945 48.3633ZM82.7373 46.2618L82.7462 46.8418H81.9118C81.6768 46.8418 81.4671 46.8611 81.2827 46.8998C81.0983 46.9355 80.9436 46.9905 80.8187 47.0649C80.6937 47.1393 80.5986 47.233 80.5331 47.346C80.4677 47.4561 80.435 47.5854 80.435 47.7342C80.435 47.8859 80.4692 48.0242 80.5376 48.1491C80.606 48.2741 80.7086 48.3737 80.8454 48.4481C80.9853 48.5194 81.1563 48.5551 81.3586 48.5551C81.6114 48.5551 81.8345 48.5016 82.0278 48.3945C82.2212 48.2874 82.3744 48.1566 82.4874 48.0019C82.6034 47.8472 82.6659 47.697 82.6748 47.5512L83.0273 47.9483C83.0064 48.0733 82.9499 48.2116 82.8577 48.3633C82.7655 48.515 82.6421 48.6607 82.4874 48.8005C82.3357 48.9374 82.1542 49.0519 81.9431 49.1441C81.7348 49.2333 81.4998 49.278 81.2381 49.278C80.9109 49.278 80.6238 49.214 80.377 49.0861C80.133 48.9582 79.9427 48.7872 79.8058 48.573C79.672 48.3559 79.6051 48.1134 79.6051 47.8457C79.6051 47.5869 79.6556 47.3594 79.7568 47.1631C79.8579 46.9638 80.0037 46.7987 80.194 46.6678C80.3844 46.5339 80.6134 46.4328 80.8811 46.3644C81.1489 46.296 81.4478 46.2618 81.778 46.2618H82.7373ZM85.8248 45.3203V49.1887H84.9949V44.361H85.7802L85.8248 45.3203ZM85.6553 46.5919L85.2716 46.5786C85.2745 46.2484 85.3177 45.9435 85.401 45.6639C85.4842 45.3813 85.6077 45.1359 85.7713 44.9277C85.9349 44.7195 86.1386 44.5589 86.3826 44.4458C86.6265 44.3298 86.909 44.2718 87.2303 44.2718C87.4564 44.2718 87.6646 44.3045 87.8549 44.37C88.0453 44.4324 88.2104 44.5321 88.3502 44.6689C88.49 44.8057 88.5986 44.9812 88.6759 45.1954C88.7533 45.4096 88.7919 45.6684 88.7919 45.9718V49.1887H87.9665V46.0119C87.9665 45.7591 87.9234 45.5568 87.8371 45.4051C87.7538 45.2534 87.6348 45.1434 87.4802 45.0749C87.3255 45.0035 87.144 44.9679 86.9358 44.9679C86.6919 44.9679 86.4881 45.011 86.3245 45.0972C86.161 45.1835 86.0301 45.3025 85.9319 45.4542C85.8338 45.6059 85.7624 45.7799 85.7177 45.9762C85.6761 46.1696 85.6553 46.3748 85.6553 46.5919ZM88.783 46.1368L88.2297 46.3064C88.2327 46.0417 88.2758 45.7873 88.3591 45.5434C88.4454 45.2995 88.5688 45.0824 88.7295 44.892C88.8931 44.7016 89.0938 44.5514 89.3318 44.4414C89.5698 44.3283 89.8419 44.2718 90.1483 44.2718C90.4071 44.2718 90.6361 44.306 90.8354 44.3744C91.0377 44.4428 91.2073 44.5484 91.3441 44.6912C91.4839 44.831 91.5895 45.011 91.6609 45.2311C91.7323 45.4512 91.768 45.713 91.768 46.0164V49.1887H90.9381V46.0075C90.9381 45.7368 90.8949 45.5271 90.8087 45.3783C90.7254 45.2266 90.6064 45.121 90.4517 45.0616C90.3 44.9991 90.1186 44.9679 89.9074 44.9679C89.7259 44.9679 89.5653 44.9991 89.4255 45.0616C89.2857 45.124 89.1682 45.2103 89.073 45.3203C88.9778 45.4274 88.905 45.5509 88.8544 45.6907C88.8068 45.8305 88.783 45.9792 88.783 46.1368ZM95.3062 49.278C94.97 49.278 94.6652 49.2214 94.3915 49.1084C94.1208 48.9924 93.8873 48.8303 93.691 48.6221C93.4976 48.4139 93.3489 48.167 93.2448 47.8814C93.1407 47.5959 93.0886 47.2835 93.0886 46.9444V46.757C93.0886 46.3644 93.1466 46.0149 93.2627 45.7085C93.3787 45.3992 93.5363 45.1374 93.7356 44.9232C93.9349 44.7091 94.161 44.547 94.4138 44.4369C94.6666 44.3268 94.9284 44.2718 95.1991 44.2718C95.5441 44.2718 95.8416 44.3313 96.0914 44.4503C96.3443 44.5693 96.551 44.7358 96.7116 44.95C96.8723 45.1612 96.9912 45.4111 97.0686 45.6996C97.1459 45.9851 97.1846 46.2975 97.1846 46.6366V47.0069H93.5794V46.3332H96.3592V46.2707C96.3473 46.0565 96.3026 45.8483 96.2253 45.646C96.1509 45.4438 96.032 45.2772 95.8684 45.1463C95.7048 45.0154 95.4817 44.95 95.1991 44.95C95.0117 44.95 94.8392 44.9902 94.6815 45.0705C94.5239 45.1478 94.3885 45.2638 94.2755 45.4185C94.1625 45.5732 94.0747 45.7621 94.0122 45.9851C93.9498 46.2082 93.9185 46.4655 93.9185 46.757V46.9444C93.9185 47.1735 93.9498 47.3891 94.0122 47.5914C94.0777 47.7907 94.1714 47.9662 94.2933 48.1179C94.4183 48.2696 94.5685 48.3886 94.744 48.4748C94.9224 48.5611 95.1247 48.6042 95.3508 48.6042C95.6423 48.6042 95.8892 48.5447 96.0914 48.4258C96.2937 48.3068 96.4707 48.1476 96.6224 47.9483L97.1221 48.3454C97.018 48.5031 96.8856 48.6533 96.725 48.7961C96.5644 48.9389 96.3666 49.0549 96.1316 49.1441C95.8996 49.2333 95.6244 49.278 95.3062 49.278ZM100.455 44.361V44.9946H97.8449V44.361H100.455ZM98.7284 43.1876H99.5538V47.993C99.5538 48.1566 99.5791 48.28 99.6296 48.3633C99.6802 48.4466 99.7457 48.5016 99.826 48.5284C99.9063 48.5551 99.9925 48.5685 100.085 48.5685C100.153 48.5685 100.225 48.5626 100.299 48.5507C100.376 48.5358 100.434 48.5239 100.473 48.515L100.477 49.1887C100.412 49.2095 100.326 49.2289 100.219 49.2467C100.114 49.2675 99.9881 49.278 99.8394 49.278C99.6371 49.278 99.4512 49.2378 99.2816 49.1575C99.1121 49.0772 98.9767 48.9433 98.8756 48.7559C98.7774 48.5656 98.7284 48.3097 98.7284 47.9885V43.1876ZM105.086 45.3917V49.1887H104.261V44.361H105.042L105.086 45.3917ZM104.89 46.5919L104.547 46.5786C104.55 46.2484 104.599 45.9435 104.694 45.6639C104.789 45.3813 104.923 45.1359 105.095 44.9277C105.268 44.7195 105.473 44.5589 105.711 44.4458C105.952 44.3298 106.218 44.2718 106.51 44.2718C106.748 44.2718 106.962 44.3045 107.152 44.37C107.343 44.4324 107.505 44.5336 107.639 44.6734C107.775 44.8132 107.88 44.9946 107.951 45.2177C108.022 45.4378 108.058 45.707 108.058 46.0253V49.1887H107.228V46.0164C107.228 45.7635 107.191 45.5613 107.117 45.4096C107.042 45.2549 106.934 45.1434 106.791 45.0749C106.648 45.0035 106.473 44.9679 106.264 44.9679C106.059 44.9679 105.872 45.011 105.702 45.0972C105.536 45.1835 105.391 45.3025 105.269 45.4542C105.15 45.6059 105.057 45.7799 104.988 45.9762C104.923 46.1696 104.89 46.3748 104.89 46.5919ZM112.551 48.0733V44.361H113.381V49.1887H112.591L112.551 48.0733ZM112.707 47.056L113.051 47.0471C113.051 47.3683 113.017 47.6658 112.948 47.9394C112.883 48.2101 112.776 48.4451 112.627 48.6444C112.478 48.8437 112.283 48.9998 112.042 49.1129C111.801 49.2229 111.508 49.278 111.163 49.278C110.928 49.278 110.713 49.2437 110.516 49.1753C110.323 49.1069 110.157 49.0013 110.017 48.8585C109.877 48.7158 109.768 48.5299 109.691 48.3008C109.617 48.0718 109.579 47.7966 109.579 47.4754V44.361H110.405V47.4843C110.405 47.7015 110.429 47.8814 110.476 48.0242C110.527 48.164 110.594 48.2755 110.677 48.3588C110.763 48.4391 110.859 48.4957 110.963 48.5284C111.07 48.5611 111.18 48.5775 111.293 48.5775C111.644 48.5775 111.922 48.5105 112.127 48.3767C112.332 48.2398 112.48 48.0569 112.569 47.8279C112.661 47.5959 112.707 47.3386 112.707 47.056ZM115.822 42.3354V49.1887H114.992V42.3354H115.822ZM118.329 42.3354V49.1887H117.499V42.3354H118.329ZM122.786 48.3633V45.8781C122.786 45.6877 122.748 45.5226 122.67 45.3828C122.596 45.24 122.483 45.13 122.331 45.0526C122.18 44.9753 121.992 44.9366 121.769 44.9366C121.561 44.9366 121.378 44.9723 121.22 45.0437C121.066 45.1151 120.944 45.2088 120.854 45.3248C120.768 45.4408 120.725 45.5657 120.725 45.6996H119.9C119.9 45.5271 119.944 45.356 120.033 45.1865C120.123 45.0169 120.251 44.8637 120.417 44.7269C120.587 44.5871 120.789 44.4771 121.024 44.3967C121.262 44.3135 121.527 44.2718 121.818 44.2718C122.169 44.2718 122.479 44.3313 122.746 44.4503C123.017 44.5693 123.228 44.7492 123.38 44.9902C123.535 45.2281 123.612 45.5271 123.612 45.887V48.1357C123.612 48.2964 123.625 48.4674 123.652 48.6488C123.682 48.8303 123.725 48.9865 123.781 49.1173V49.1887H122.92C122.879 49.0935 122.846 48.9671 122.822 48.8095C122.798 48.6488 122.786 48.5001 122.786 48.3633ZM122.929 46.2618L122.938 46.8418H122.104C121.869 46.8418 121.659 46.8611 121.475 46.8998C121.29 46.9355 121.136 46.9905 121.011 47.0649C120.886 47.1393 120.791 47.233 120.725 47.346C120.66 47.4561 120.627 47.5854 120.627 47.7342C120.627 47.8859 120.661 48.0242 120.73 48.1491C120.798 48.2741 120.901 48.3737 121.037 48.4481C121.177 48.5194 121.348 48.5551 121.551 48.5551C121.803 48.5551 122.026 48.5016 122.22 48.3945C122.413 48.2874 122.566 48.1566 122.679 48.0019C122.795 47.8472 122.858 47.697 122.867 47.5512L123.219 47.9483C123.198 48.0733 123.142 48.2116 123.05 48.3633C122.957 48.515 122.834 48.6607 122.679 48.8005C122.528 48.9374 122.346 49.0519 122.135 49.1441C121.927 49.2333 121.692 49.278 121.43 49.278C121.103 49.278 120.816 49.214 120.569 49.0861C120.325 48.9582 120.135 48.7872 119.998 48.573C119.864 48.3559 119.797 48.1134 119.797 47.8457C119.797 47.5869 119.848 47.3594 119.949 47.1631C120.05 46.9638 120.196 46.7987 120.386 46.6678C120.576 46.5339 120.805 46.4328 121.073 46.3644C121.341 46.296 121.64 46.2618 121.97 46.2618H122.929ZM128.645 42.3354V49.1887H127.815V42.3354H128.645ZM133.102 48.3633V45.8781C133.102 45.6877 133.063 45.5226 132.986 45.3828C132.912 45.24 132.799 45.13 132.647 45.0526C132.495 44.9753 132.308 44.9366 132.085 44.9366C131.877 44.9366 131.694 44.9723 131.536 45.0437C131.381 45.1151 131.259 45.2088 131.17 45.3248C131.084 45.4408 131.041 45.5657 131.041 45.6996H130.215C130.215 45.5271 130.26 45.356 130.349 45.1865C130.438 45.0169 130.566 44.8637 130.733 44.7269C130.902 44.5871 131.105 44.4771 131.34 44.3967C131.578 44.3135 131.842 44.2718 132.134 44.2718C132.485 44.2718 132.794 44.3313 133.062 44.4503C133.333 44.5693 133.544 44.7492 133.696 44.9902C133.85 45.2281 133.928 45.5271 133.928 45.887V48.1357C133.928 48.2964 133.941 48.4674 133.968 48.6488C133.997 48.8303 134.041 48.9865 134.097 49.1173V49.1887H133.236C133.194 49.0935 133.162 48.9671 133.138 48.8095C133.114 48.6488 133.102 48.5001 133.102 48.3633ZM133.245 46.2618L133.254 46.8418H132.419C132.184 46.8418 131.975 46.8611 131.79 46.8998C131.606 46.9355 131.451 46.9905 131.326 47.0649C131.201 47.1393 131.106 47.233 131.041 47.346C130.975 47.4561 130.943 47.5854 130.943 47.7342C130.943 47.8859 130.977 48.0242 131.045 48.1491C131.114 48.2741 131.216 48.3737 131.353 48.4481C131.493 48.5194 131.664 48.5551 131.866 48.5551C132.119 48.5551 132.342 48.5016 132.535 48.3945C132.729 48.2874 132.882 48.1566 132.995 48.0019C133.111 47.8472 133.174 47.697 133.182 47.5512L133.535 47.9483C133.514 48.0733 133.458 48.2116 133.365 48.3633C133.273 48.515 133.15 48.6607 132.995 48.8005C132.843 48.9374 132.662 49.0519 132.451 49.1441C132.242 49.2333 132.007 49.278 131.746 49.278C131.419 49.278 131.131 49.214 130.885 49.0861C130.641 48.9582 130.45 48.7872 130.313 48.573C130.18 48.3559 130.113 48.1134 130.113 47.8457C130.113 47.5869 130.163 47.3594 130.264 47.1631C130.366 46.9638 130.511 46.7987 130.702 46.6678C130.892 46.5339 131.121 46.4328 131.389 46.3644C131.656 46.296 131.955 46.2618 132.286 46.2618H133.245ZM135.507 42.3354H136.337V48.2517L136.266 49.1887H135.507V42.3354ZM139.599 46.7347V46.8284C139.599 47.1794 139.557 47.5051 139.474 47.8056C139.39 48.103 139.268 48.3618 139.108 48.5819C138.947 48.802 138.751 48.9731 138.519 49.095C138.287 49.217 138.021 49.278 137.72 49.278C137.414 49.278 137.145 49.2259 136.912 49.1218C136.683 49.0147 136.49 48.8615 136.332 48.6622C136.175 48.4629 136.048 48.222 135.953 47.9394C135.861 47.6568 135.797 47.3386 135.761 46.9846V46.5741C135.797 46.2172 135.861 45.8974 135.953 45.6148C136.048 45.3322 136.175 45.0913 136.332 44.892C136.49 44.6897 136.683 44.5365 136.912 44.4324C137.142 44.3254 137.408 44.2718 137.711 44.2718C138.015 44.2718 138.284 44.3313 138.519 44.4503C138.754 44.5663 138.95 44.7329 139.108 44.95C139.268 45.1671 139.39 45.4274 139.474 45.7308C139.557 46.0312 139.599 46.3659 139.599 46.7347ZM138.769 46.8284V46.7347C138.769 46.4938 138.746 46.2677 138.702 46.0565C138.657 45.8424 138.586 45.655 138.488 45.4943C138.389 45.3307 138.26 45.2028 138.099 45.1106C137.939 45.0154 137.741 44.9679 137.506 44.9679C137.298 44.9679 137.116 45.0035 136.962 45.0749C136.81 45.1463 136.68 45.243 136.573 45.365C136.466 45.4839 136.379 45.6208 136.31 45.7754C136.245 45.9271 136.196 46.0848 136.163 46.2484V47.3237C136.211 47.5319 136.288 47.7327 136.395 47.926C136.505 48.1164 136.651 48.2726 136.832 48.3945C137.017 48.5165 137.244 48.5775 137.515 48.5775C137.738 48.5775 137.928 48.5328 138.086 48.4436C138.247 48.3514 138.376 48.225 138.474 48.0643C138.575 47.9037 138.65 47.7178 138.697 47.5066C138.745 47.2954 138.769 47.0694 138.769 46.8284ZM140.709 46.8284V46.7258C140.709 46.3778 140.76 46.055 140.861 45.7576C140.962 45.4572 141.108 45.1969 141.298 44.9768C141.489 44.7537 141.719 44.5812 141.99 44.4592C142.261 44.3343 142.564 44.2718 142.9 44.2718C143.239 44.2718 143.544 44.3343 143.815 44.4592C144.089 44.5812 144.321 44.7537 144.511 44.9768C144.704 45.1969 144.852 45.4572 144.953 45.7576C145.054 46.055 145.104 46.3778 145.104 46.7258V46.8284C145.104 47.1764 145.054 47.4992 144.953 47.7966C144.852 48.0941 144.704 48.3544 144.511 48.5775C144.321 48.7976 144.09 48.9701 143.819 49.095C143.552 49.217 143.248 49.278 142.909 49.278C142.57 49.278 142.265 49.217 141.994 49.095C141.724 48.9701 141.492 48.7976 141.298 48.5775C141.108 48.3544 140.962 48.0941 140.861 47.7966C140.76 47.4992 140.709 47.1764 140.709 46.8284ZM141.535 46.7258V46.8284C141.535 47.0694 141.563 47.2969 141.62 47.5111C141.676 47.7223 141.761 47.9097 141.874 48.0733C141.99 48.2369 142.134 48.3663 142.307 48.4614C142.479 48.5537 142.68 48.5998 142.909 48.5998C143.135 48.5998 143.333 48.5537 143.503 48.4614C143.675 48.3663 143.818 48.2369 143.931 48.0733C144.044 47.9097 144.129 47.7223 144.185 47.5111C144.245 47.2969 144.274 47.0694 144.274 46.8284V46.7258C144.274 46.4878 144.245 46.2633 144.185 46.0521C144.129 45.8379 144.042 45.649 143.926 45.4854C143.813 45.3188 143.671 45.188 143.498 45.0928C143.329 44.9976 143.129 44.95 142.9 44.95C142.674 44.95 142.475 44.9976 142.302 45.0928C142.133 45.188 141.99 45.3188 141.874 45.4854C141.761 45.649 141.676 45.8379 141.62 46.0521C141.563 46.2633 141.535 46.4878 141.535 46.7258ZM147.251 45.1196V49.1887H146.425V44.361H147.228L147.251 45.1196ZM148.759 44.3343L148.754 45.1017C148.686 45.0868 148.62 45.0779 148.558 45.0749C148.498 45.069 148.43 45.066 148.353 45.066C148.162 45.066 147.994 45.0958 147.848 45.1552C147.703 45.2147 147.579 45.298 147.478 45.4051C147.377 45.5122 147.297 45.6401 147.237 45.7888C147.181 45.9346 147.143 46.0952 147.126 46.2707L146.894 46.4046C146.894 46.113 146.922 45.8394 146.978 45.5836C147.038 45.3278 147.129 45.1017 147.251 44.9054C147.372 44.7061 147.527 44.5514 147.715 44.4414C147.905 44.3283 148.131 44.2718 148.393 44.2718C148.452 44.2718 148.521 44.2792 148.598 44.2941C148.675 44.306 148.729 44.3194 148.759 44.3343ZM150.704 44.361V49.1887H149.874V44.361H150.704ZM149.812 43.0805C149.812 42.9467 149.852 42.8336 149.932 42.7414C150.015 42.6492 150.137 42.6031 150.298 42.6031C150.456 42.6031 150.576 42.6492 150.659 42.7414C150.746 42.8336 150.789 42.9467 150.789 43.0805C150.789 43.2084 150.746 43.3185 150.659 43.4107C150.576 43.4999 150.456 43.5445 150.298 43.5445C150.137 43.5445 150.015 43.4999 149.932 43.4107C149.852 43.3185 149.812 43.2084 149.812 43.0805ZM155.126 47.9082C155.126 47.7892 155.099 47.6791 155.045 47.578C154.995 47.4739 154.889 47.3802 154.728 47.2969C154.571 47.2107 154.333 47.1363 154.015 47.0738C153.747 47.0173 153.504 46.9504 153.287 46.873C153.073 46.7957 152.89 46.702 152.739 46.5919C152.59 46.4819 152.475 46.3525 152.395 46.2038C152.315 46.055 152.275 45.881 152.275 45.6817C152.275 45.4914 152.316 45.3114 152.399 45.1419C152.486 44.9723 152.606 44.8221 152.761 44.6912C152.918 44.5603 153.107 44.4577 153.327 44.3834C153.548 44.309 153.793 44.2718 154.064 44.2718C154.45 44.2718 154.781 44.3402 155.054 44.4771C155.328 44.6139 155.538 44.7968 155.683 45.0259C155.829 45.2519 155.902 45.5033 155.902 45.7799H155.077C155.077 45.646 155.036 45.5167 154.956 45.3917C154.879 45.2638 154.764 45.1582 154.612 45.0749C154.464 44.9916 154.281 44.95 154.064 44.95C153.835 44.95 153.649 44.9857 153.506 45.0571C153.366 45.1255 153.264 45.2133 153.198 45.3203C153.136 45.4274 153.104 45.5405 153.104 45.6594C153.104 45.7487 153.119 45.829 153.149 45.9004C153.182 45.9688 153.238 46.0327 153.319 46.0922C153.399 46.1487 153.512 46.2023 153.658 46.2529C153.803 46.3034 153.989 46.354 154.215 46.4046C154.611 46.4938 154.937 46.6009 155.193 46.7258C155.448 46.8507 155.639 47.0039 155.764 47.1854C155.889 47.3668 155.951 47.5869 155.951 47.8457C155.951 48.0569 155.906 48.2503 155.817 48.4258C155.731 48.6012 155.604 48.753 155.438 48.8809C155.274 49.0058 155.078 49.1039 154.849 49.1753C154.623 49.2437 154.369 49.278 154.086 49.278C153.661 49.278 153.301 49.2021 153.006 49.0504C152.712 48.8987 152.489 48.7024 152.337 48.4614C152.185 48.2205 152.109 47.9662 152.109 47.6985H152.939C152.951 47.9245 153.017 48.1045 153.136 48.2384C153.255 48.3692 153.4 48.4629 153.573 48.5194C153.745 48.573 153.916 48.5998 154.086 48.5998C154.312 48.5998 154.501 48.57 154.653 48.5105C154.807 48.451 154.925 48.3692 155.005 48.2651C155.085 48.161 155.126 48.042 155.126 47.9082ZM161.876 49.278C161.54 49.278 161.235 49.2214 160.962 49.1084C160.691 48.9924 160.457 48.8303 160.261 48.6221C160.068 48.4139 159.919 48.167 159.815 47.8814C159.711 47.5959 159.659 47.2835 159.659 46.9444V46.757C159.659 46.3644 159.717 46.0149 159.833 45.7085C159.949 45.3992 160.106 45.1374 160.306 44.9232C160.505 44.7091 160.731 44.547 160.984 44.4369C161.237 44.3268 161.499 44.2718 161.769 44.2718C162.114 44.2718 162.412 44.3313 162.662 44.4503C162.914 44.5693 163.121 44.7358 163.282 44.95C163.442 45.1612 163.561 45.4111 163.639 45.6996C163.716 45.9851 163.755 46.2975 163.755 46.6366V47.0069H160.15V46.3332H162.929V46.2707C162.917 46.0565 162.873 45.8483 162.795 45.646C162.721 45.4438 162.602 45.2772 162.438 45.1463C162.275 45.0154 162.052 44.95 161.769 44.95C161.582 44.95 161.409 44.9902 161.252 45.0705C161.094 45.1478 160.959 45.2638 160.846 45.4185C160.733 45.5732 160.645 45.7621 160.582 45.9851C160.52 46.2082 160.489 46.4655 160.489 46.757V46.9444C160.489 47.1735 160.52 47.3891 160.582 47.5914C160.648 47.7907 160.742 47.9662 160.863 48.1179C160.988 48.2696 161.139 48.3886 161.314 48.4748C161.493 48.5611 161.695 48.6042 161.921 48.6042C162.212 48.6042 162.459 48.5447 162.662 48.4258C162.864 48.3068 163.041 48.1476 163.193 47.9483L163.692 48.3454C163.588 48.5031 163.456 48.6533 163.295 48.7961C163.135 48.9389 162.937 49.0549 162.702 49.1441C162.47 49.2333 162.195 49.278 161.876 49.278ZM165.829 45.3917V49.1887H165.004V44.361H165.785L165.829 45.3917ZM165.633 46.5919L165.29 46.5786C165.293 46.2484 165.342 45.9435 165.437 45.6639C165.532 45.3813 165.666 45.1359 165.838 44.9277C166.011 44.7195 166.216 44.5589 166.454 44.4458C166.695 44.3298 166.961 44.2718 167.253 44.2718C167.491 44.2718 167.705 44.3045 167.895 44.37C168.086 44.4324 168.248 44.5336 168.382 44.6734C168.518 44.8132 168.623 44.9946 168.694 45.2177C168.765 45.4378 168.801 45.707 168.801 46.0253V49.1887H167.971V46.0164C167.971 45.7635 167.934 45.5613 167.86 45.4096C167.785 45.2549 167.677 45.1434 167.534 45.0749C167.391 45.0035 167.216 44.9679 167.007 44.9679C166.802 44.9679 166.615 45.011 166.445 45.0972C166.279 45.1835 166.134 45.3025 166.012 45.4542C165.893 45.6059 165.8 45.7799 165.731 45.9762C165.666 46.1696 165.633 46.3748 165.633 46.5919ZM171.237 44.361V49.1887H170.407V44.361H171.237ZM170.345 43.0805C170.345 42.9467 170.385 42.8336 170.465 42.7414C170.549 42.6492 170.671 42.6031 170.831 42.6031C170.989 42.6031 171.109 42.6492 171.193 42.7414C171.279 42.8336 171.322 42.9467 171.322 43.0805C171.322 43.2084 171.279 43.3185 171.193 43.4107C171.109 43.4999 170.989 43.5445 170.831 43.5445C170.671 43.5445 170.549 43.4999 170.465 43.4107C170.385 43.3185 170.345 43.2084 170.345 43.0805ZM173.669 45.3203V49.1887H172.839V44.361H173.624L173.669 45.3203ZM173.499 46.5919L173.116 46.5786C173.119 46.2484 173.162 45.9435 173.245 45.6639C173.328 45.3813 173.452 45.1359 173.615 44.9277C173.779 44.7195 173.983 44.5589 174.227 44.4458C174.47 44.3298 174.753 44.2718 175.074 44.2718C175.3 44.2718 175.509 44.3045 175.699 44.37C175.889 44.4324 176.054 44.5321 176.194 44.6689C176.334 44.8057 176.443 44.9812 176.52 45.1954C176.597 45.4096 176.636 45.6684 176.636 45.9718V49.1887H175.811V46.0119C175.811 45.7591 175.767 45.5568 175.681 45.4051C175.598 45.2534 175.479 45.1434 175.324 45.0749C175.17 45.0035 174.988 44.9679 174.78 44.9679C174.536 44.9679 174.332 45.011 174.169 45.0972C174.005 45.1835 173.874 45.3025 173.776 45.4542C173.678 45.6059 173.606 45.7799 173.562 45.9762C173.52 46.1696 173.499 46.3748 173.499 46.5919ZM176.627 46.1368L176.074 46.3064C176.077 46.0417 176.12 45.7873 176.203 45.5434C176.289 45.2995 176.413 45.0824 176.573 44.892C176.737 44.7016 176.938 44.5514 177.176 44.4414C177.414 44.3283 177.686 44.2718 177.992 44.2718C178.251 44.2718 178.48 44.306 178.679 44.3744C178.882 44.4428 179.051 44.5484 179.188 44.6912C179.328 44.831 179.434 45.011 179.505 45.2311C179.576 45.4512 179.612 45.713 179.612 46.0164V49.1887H178.782V46.0075C178.782 45.7368 178.739 45.5271 178.653 45.3783C178.569 45.2266 178.45 45.121 178.296 45.0616C178.144 44.9991 177.963 44.9679 177.751 44.9679C177.57 44.9679 177.409 44.9991 177.27 45.0616C177.13 45.124 177.012 45.2103 176.917 45.3203C176.822 45.4274 176.749 45.5509 176.698 45.6907C176.651 45.8305 176.627 45.9792 176.627 46.1368ZM18.05 61.2517V55.3354H18.8799V62.1887H18.1214L18.05 61.2517ZM14.8018 59.8284V59.7347C14.8018 59.3659 14.8464 59.0312 14.9357 58.7308C15.0279 58.4274 15.1573 58.1671 15.3238 57.95C15.4934 57.7329 15.6942 57.5663 15.9262 57.4503C16.1612 57.3313 16.4229 57.2718 16.7115 57.2718C17.0149 57.2718 17.2796 57.3254 17.5057 57.4324C17.7347 57.5365 17.928 57.6897 18.0857 57.892C18.2463 58.0913 18.3727 58.3322 18.4649 58.6148C18.5572 58.8974 18.6211 59.2172 18.6568 59.5741V59.9846C18.6241 60.3386 18.5601 60.6568 18.4649 60.9394C18.3727 61.222 18.2463 61.4629 18.0857 61.6622C17.928 61.8615 17.7347 62.0147 17.5057 62.1218C17.2766 62.2259 17.0089 62.278 16.7025 62.278C16.4199 62.278 16.1612 62.217 15.9262 62.095C15.6942 61.9731 15.4934 61.802 15.3238 61.5819C15.1573 61.3618 15.0279 61.103 14.9357 60.8056C14.8464 60.5051 14.8018 60.1794 14.8018 59.8284ZM15.6317 59.7347V59.8284C15.6317 60.0694 15.6555 60.2954 15.7031 60.5066C15.7537 60.7178 15.831 60.9037 15.9351 61.0643C16.0392 61.225 16.1716 61.3514 16.3322 61.4436C16.4928 61.5328 16.6847 61.5775 16.9078 61.5775C17.1814 61.5775 17.406 61.5194 17.5815 61.4034C17.76 61.2874 17.9028 61.1342 18.0098 60.9439C18.1169 60.7535 18.2002 60.5468 18.2597 60.3237V59.2484C18.224 59.0848 18.172 58.9271 18.1035 58.7754C18.0381 58.6208 17.9518 58.4839 17.8448 58.365C17.7406 58.243 17.6113 58.1463 17.4566 58.0749C17.3049 58.0035 17.1249 57.9679 16.9167 57.9679C16.6906 57.9679 16.4958 58.0154 16.3322 58.1106C16.1716 58.2028 16.0392 58.3307 15.9351 58.4943C15.831 58.655 15.7537 58.8424 15.7031 59.0565C15.6555 59.2677 15.6317 59.4938 15.6317 59.7347ZM20.2318 59.8284V59.7258C20.2318 59.3778 20.2824 59.055 20.3835 58.7576C20.4847 58.4572 20.6304 58.1969 20.8208 57.9768C21.0111 57.7537 21.2417 57.5812 21.5124 57.4592C21.783 57.3343 22.0864 57.2718 22.4226 57.2718C22.7617 57.2718 23.0666 57.3343 23.3372 57.4592C23.6109 57.5812 23.8429 57.7537 24.0333 57.9768C24.2266 58.1969 24.3739 58.4572 24.475 58.7576C24.5761 59.055 24.6267 59.3778 24.6267 59.7258V59.8284C24.6267 60.1764 24.5761 60.4992 24.475 60.7966C24.3739 61.0941 24.2266 61.3544 24.0333 61.5775C23.8429 61.7976 23.6124 61.9701 23.3417 62.095C23.074 62.217 22.7706 62.278 22.4315 62.278C22.0924 62.278 21.7875 62.217 21.5168 62.095C21.2461 61.9701 21.0141 61.7976 20.8208 61.5775C20.6304 61.3544 20.4847 61.0941 20.3835 60.7966C20.2824 60.4992 20.2318 60.1764 20.2318 59.8284ZM21.0573 59.7258V59.8284C21.0573 60.0694 21.0855 60.2969 21.142 60.5111C21.1985 60.7223 21.2833 60.9097 21.3963 61.0733C21.5124 61.2369 21.6566 61.3663 21.8291 61.4614C22.0017 61.5537 22.2024 61.5998 22.4315 61.5998C22.6576 61.5998 22.8554 61.5537 23.0249 61.4614C23.1974 61.3663 23.3402 61.2369 23.4532 61.0733C23.5663 60.9097 23.651 60.7223 23.7076 60.5111C23.7671 60.2969 23.7968 60.0694 23.7968 59.8284V59.7258C23.7968 59.4878 23.7671 59.2633 23.7076 59.0521C23.651 58.8379 23.5648 58.649 23.4488 58.4854C23.3357 58.3188 23.193 58.188 23.0204 58.0928C22.8509 57.9976 22.6516 57.95 22.4226 57.95C22.1965 57.95 21.9972 57.9976 21.8247 58.0928C21.6551 58.188 21.5124 58.3188 21.3963 58.4854C21.2833 58.649 21.1985 58.8379 21.142 59.0521C21.0855 59.2633 21.0573 59.4878 21.0573 59.7258ZM26.8442 55.3354V62.1887H26.0143V55.3354H26.8442ZM28.2363 59.8284V59.7258C28.2363 59.3778 28.2869 59.055 28.388 58.7576C28.4891 58.4572 28.6349 58.1969 28.8253 57.9768C29.0156 57.7537 29.2462 57.5812 29.5168 57.4592C29.7875 57.3343 30.0909 57.2718 30.427 57.2718C30.7661 57.2718 31.071 57.3343 31.3417 57.4592C31.6154 57.5812 31.8474 57.7537 32.0378 57.9768C32.2311 58.1969 32.3783 58.4572 32.4795 58.7576C32.5806 59.055 32.6312 59.3778 32.6312 59.7258V59.8284C32.6312 60.1764 32.5806 60.4992 32.4795 60.7966C32.3783 61.0941 32.2311 61.3544 32.0378 61.5775C31.8474 61.7976 31.6169 61.9701 31.3462 62.095C31.0785 62.217 30.7751 62.278 30.436 62.278C30.0969 62.278 29.792 62.217 29.5213 62.095C29.2506 61.9701 29.0186 61.7976 28.8253 61.5775C28.6349 61.3544 28.4891 61.0941 28.388 60.7966C28.2869 60.4992 28.2363 60.1764 28.2363 59.8284ZM29.0617 59.7258V59.8284C29.0617 60.0694 29.09 60.2969 29.1465 60.5111C29.203 60.7223 29.2878 60.9097 29.4008 61.0733C29.5168 61.2369 29.6611 61.3663 29.8336 61.4614C30.0061 61.5537 30.2069 61.5998 30.436 61.5998C30.662 61.5998 30.8598 61.5537 31.0294 61.4614C31.2019 61.3663 31.3447 61.2369 31.4577 61.0733C31.5708 60.9097 31.6555 60.7223 31.712 60.5111C31.7715 60.2969 31.8013 60.0694 31.8013 59.8284V59.7258C31.8013 59.4878 31.7715 59.2633 31.712 59.0521C31.6555 58.8379 31.5693 58.649 31.4533 58.4854C31.3402 58.3188 31.1975 58.188 31.0249 58.0928C30.8554 57.9976 30.6561 57.95 30.427 57.95C30.201 57.95 30.0017 57.9976 29.8292 58.0928C29.6596 58.188 29.5168 58.3188 29.4008 58.4854C29.2878 58.649 29.203 58.8379 29.1465 59.0521C29.09 59.2633 29.0617 59.4878 29.0617 59.7258ZM34.7773 58.1196V62.1887H33.9519V57.361H34.755L34.7773 58.1196ZM36.2854 57.3343L36.2809 58.1017C36.2125 58.0868 36.1471 58.0779 36.0846 58.0749C36.0251 58.069 35.9567 58.066 35.8794 58.066C35.689 58.066 35.5209 58.0958 35.3752 58.1552C35.2294 58.2147 35.106 58.298 35.0049 58.4051C34.9037 58.5122 34.8234 58.6401 34.7639 58.7888C34.7074 58.9346 34.6702 59.0952 34.6524 59.2707L34.4204 59.4046C34.4204 59.113 34.4486 58.8394 34.5051 58.5836C34.5646 58.3278 34.6554 58.1017 34.7773 57.9054C34.8993 57.7061 35.0539 57.5514 35.2413 57.4414C35.4317 57.3283 35.6578 57.2718 35.9195 57.2718C35.979 57.2718 36.0474 57.2792 36.1248 57.2941C36.2021 57.306 36.2557 57.3194 36.2854 57.3343ZM39.248 62.278C38.9119 62.278 38.607 62.2214 38.3334 62.1084C38.0627 61.9924 37.8292 61.8303 37.6329 61.6221C37.4395 61.4139 37.2908 61.167 37.1867 60.8814C37.0826 60.5959 37.0305 60.2835 37.0305 59.9444V59.757C37.0305 59.3644 37.0885 59.0149 37.2045 58.7085C37.3205 58.3992 37.4782 58.1374 37.6775 57.9232C37.8768 57.7091 38.1028 57.547 38.3557 57.4369C38.6085 57.3268 38.8703 57.2718 39.141 57.2718C39.486 57.2718 39.7835 57.3313 40.0333 57.4503C40.2861 57.5693 40.4929 57.7358 40.6535 57.95C40.8141 58.1612 40.9331 58.4111 41.0104 58.6996C41.0878 58.9851 41.1265 59.2975 41.1265 59.6366V60.0069H37.5213V59.3332H40.301V59.2707C40.2891 59.0565 40.2445 58.8483 40.1672 58.646C40.0928 58.4438 39.9738 58.2772 39.8102 58.1463C39.6466 58.0154 39.4235 57.95 39.141 57.95C38.9536 57.95 38.781 57.9902 38.6234 58.0705C38.4657 58.1478 38.3304 58.2638 38.2174 58.4185C38.1043 58.5732 38.0166 58.7621 37.9541 58.9851C37.8916 59.2082 37.8604 59.4655 37.8604 59.757V59.9444C37.8604 60.1735 37.8916 60.3891 37.9541 60.5914C38.0196 60.7907 38.1132 60.9662 38.2352 61.1179C38.3601 61.2696 38.5104 61.3886 38.6858 61.4748C38.8643 61.5611 39.0666 61.6042 39.2927 61.6042C39.5842 61.6042 39.831 61.5447 40.0333 61.4258C40.2356 61.3068 40.4126 61.1476 40.5643 60.9483L41.064 61.3454C40.9599 61.5031 40.8275 61.6533 40.6669 61.7961C40.5063 61.9389 40.3085 62.0549 40.0735 62.1441C39.8415 62.2333 39.5663 62.278 39.248 62.278ZM46.8599 61.5998C47.0562 61.5998 47.2376 61.5596 47.4042 61.4793C47.5708 61.399 47.7076 61.2889 47.8147 61.1491C47.9218 61.0063 47.9828 60.8442 47.9976 60.6628H48.7829C48.768 60.9483 48.6714 61.2146 48.4929 61.4614C48.3174 61.7054 48.0869 61.9032 47.8013 62.0549C47.5158 62.2036 47.2019 62.278 46.8599 62.278C46.497 62.278 46.1802 62.214 45.9095 62.0861C45.6418 61.9582 45.4187 61.7827 45.2402 61.5596C45.0647 61.3365 44.9324 61.0807 44.8431 60.7922C44.7569 60.5007 44.7137 60.1928 44.7137 59.8686V59.6812C44.7137 59.357 44.7569 59.0506 44.8431 58.7621C44.9324 58.4705 45.0647 58.2133 45.2402 57.9902C45.4187 57.7671 45.6418 57.5916 45.9095 57.4637C46.1802 57.3358 46.497 57.2718 46.8599 57.2718C47.2376 57.2718 47.5678 57.3491 47.8504 57.5038C48.133 57.6555 48.3546 57.8637 48.5152 58.1285C48.6788 58.3902 48.768 58.6877 48.7829 59.0208H47.9976C47.9828 58.8215 47.9262 58.6416 47.8281 58.481C47.7329 58.3203 47.602 58.1924 47.4354 58.0972C47.2718 57.9991 47.08 57.95 46.8599 57.95C46.607 57.95 46.3944 58.0006 46.2218 58.1017C46.0523 58.1999 45.9169 58.3337 45.8158 58.5033C45.7177 58.6698 45.6463 58.8558 45.6016 59.061C45.56 59.2633 45.5392 59.47 45.5392 59.6812V59.8686C45.5392 60.0798 45.56 60.288 45.6016 60.4932C45.6433 60.6985 45.7132 60.8844 45.8114 61.051C45.9125 61.2175 46.0478 61.3514 46.2174 61.4525C46.3899 61.5507 46.6041 61.5998 46.8599 61.5998ZM49.7779 59.8284V59.7258C49.7779 59.3778 49.8285 59.055 49.9296 58.7576C50.0307 58.4572 50.1765 58.1969 50.3669 57.9768C50.5572 57.7537 50.7878 57.5812 51.0584 57.4592C51.3291 57.3343 51.6325 57.2718 51.9686 57.2718C52.3077 57.2718 52.6126 57.3343 52.8833 57.4592C53.157 57.5812 53.389 57.7537 53.5794 57.9768C53.7727 58.1969 53.9199 58.4572 54.0211 58.7576C54.1222 59.055 54.1728 59.3778 54.1728 59.7258V59.8284C54.1728 60.1764 54.1222 60.4992 54.0211 60.7966C53.9199 61.0941 53.7727 61.3544 53.5794 61.5775C53.389 61.7976 53.1585 61.9701 52.8878 62.095C52.6201 62.217 52.3167 62.278 51.9776 62.278C51.6385 62.278 51.3336 62.217 51.0629 62.095C50.7922 61.9701 50.5602 61.7976 50.3669 61.5775C50.1765 61.3544 50.0307 61.0941 49.9296 60.7966C49.8285 60.4992 49.7779 60.1764 49.7779 59.8284ZM50.6033 59.7258V59.8284C50.6033 60.0694 50.6316 60.2969 50.6881 60.5111C50.7446 60.7223 50.8294 60.9097 50.9424 61.0733C51.0584 61.2369 51.2027 61.3663 51.3752 61.4614C51.5477 61.5537 51.7485 61.5998 51.9776 61.5998C52.2036 61.5998 52.4014 61.5537 52.571 61.4614C52.7435 61.3663 52.8863 61.2369 52.9993 61.0733C53.1124 60.9097 53.1971 60.7223 53.2536 60.5111C53.3131 60.2969 53.3429 60.0694 53.3429 59.8284V59.7258C53.3429 59.4878 53.3131 59.2633 53.2536 59.0521C53.1971 58.8379 53.1109 58.649 52.9949 58.4854C52.8818 58.3188 52.739 58.188 52.5665 58.0928C52.397 57.9976 52.1977 57.95 51.9686 57.95C51.7426 57.95 51.5433 57.9976 51.3708 58.0928C51.2012 58.188 51.0584 58.3188 50.9424 58.4854C50.8294 58.649 50.7446 58.8379 50.6881 59.0521C50.6316 59.2633 50.6033 59.4878 50.6033 59.7258ZM56.3189 58.3917V62.1887H55.4935V57.361H56.2743L56.3189 58.3917ZM56.1226 59.5919L55.779 59.5786C55.782 59.2484 55.8311 58.9435 55.9263 58.6639C56.0214 58.3813 56.1553 58.1359 56.3278 57.9277C56.5003 57.7195 56.7056 57.5589 56.9436 57.4458C57.1845 57.3298 57.4507 57.2718 57.7422 57.2718C57.9802 57.2718 58.1943 57.3045 58.3847 57.37C58.5751 57.4324 58.7372 57.5336 58.8711 57.6734C59.0079 57.8132 59.112 57.9946 59.1834 58.2177C59.2548 58.4378 59.2905 58.707 59.2905 59.0253V62.1887H58.4606V59.0164C58.4606 58.7635 58.4234 58.5613 58.349 58.4096C58.2747 58.2549 58.1661 58.1434 58.0233 58.0749C57.8805 58.0035 57.705 57.9679 57.4968 57.9679C57.2916 57.9679 57.1042 58.011 56.9346 58.0972C56.7681 58.1835 56.6238 58.3025 56.5018 58.4542C56.3829 58.6059 56.2892 58.7799 56.2207 58.9762C56.1553 59.1696 56.1226 59.3748 56.1226 59.5919ZM63.6407 60.9082C63.6407 60.7892 63.614 60.6791 63.5604 60.578C63.5098 60.4739 63.4043 60.3802 63.2436 60.2969C63.086 60.2107 62.848 60.1363 62.5297 60.0738C62.262 60.0173 62.0196 59.9504 61.8025 59.873C61.5883 59.7957 61.4054 59.702 61.2537 59.5919C61.1049 59.4819 60.9904 59.3525 60.9101 59.2038C60.8298 59.055 60.7896 58.881 60.7896 58.6817C60.7896 58.4914 60.8313 58.3114 60.9146 58.1419C61.0008 57.9723 61.1213 57.8221 61.276 57.6912C61.4336 57.5603 61.6225 57.4577 61.8426 57.3834C62.0627 57.309 62.3081 57.2718 62.5788 57.2718C62.9655 57.2718 63.2957 57.3402 63.5693 57.4771C63.843 57.6139 64.0527 57.7968 64.1985 58.0259C64.3442 58.2519 64.4171 58.5033 64.4171 58.7799H63.5916C63.5916 58.646 63.5515 58.5167 63.4712 58.3917C63.3938 58.2638 63.2793 58.1582 63.1276 58.0749C62.9789 57.9916 62.796 57.95 62.5788 57.95C62.3498 57.95 62.1639 57.9857 62.0211 58.0571C61.8813 58.1255 61.7787 58.2133 61.7132 58.3203C61.6508 58.4274 61.6195 58.5405 61.6195 58.6594C61.6195 58.7487 61.6344 58.829 61.6641 58.9004C61.6969 58.9688 61.7534 59.0327 61.8337 59.0922C61.914 59.1487 62.027 59.2023 62.1728 59.2529C62.3185 59.3034 62.5045 59.354 62.7305 59.4046C63.1261 59.4938 63.4518 59.6009 63.7077 59.7258C63.9635 59.8507 64.1538 60.0039 64.2788 60.1854C64.4037 60.3668 64.4662 60.5869 64.4662 60.8457C64.4662 61.0569 64.4215 61.2503 64.3323 61.4258C64.246 61.6012 64.1196 61.753 63.9531 61.8809C63.7895 62.0058 63.5931 62.1039 63.3641 62.1753C63.138 62.2437 62.8837 62.278 62.6011 62.278C62.1758 62.278 61.8158 62.2021 61.5214 62.0504C61.2269 61.8987 61.0038 61.7024 60.8521 61.4614C60.7004 61.2205 60.6245 60.9662 60.6245 60.6985H61.4544C61.4663 60.9245 61.5318 61.1045 61.6508 61.2384C61.7697 61.3692 61.9155 61.4629 62.088 61.5194C62.2605 61.573 62.4316 61.5998 62.6011 61.5998C62.8272 61.5998 63.0161 61.57 63.1678 61.5105C63.3225 61.451 63.4399 61.3692 63.5203 61.2651C63.6006 61.161 63.6407 61.042 63.6407 60.9082ZM67.8393 62.278C67.5032 62.278 67.1983 62.2214 66.9246 62.1084C66.6539 61.9924 66.4204 61.8303 66.2241 61.6221C66.0308 61.4139 65.882 61.167 65.7779 60.8814C65.6738 60.5959 65.6218 60.2835 65.6218 59.9444V59.757C65.6218 59.3644 65.6798 59.0149 65.7958 58.7085C65.9118 58.3992 66.0694 58.1374 66.2687 57.9232C66.468 57.7091 66.6941 57.547 66.9469 57.4369C67.1998 57.3268 67.4615 57.2718 67.7322 57.2718C68.0772 57.2718 68.3747 57.3313 68.6246 57.4503C68.8774 57.5693 69.0841 57.7358 69.2448 57.95C69.4054 58.1612 69.5244 58.4111 69.6017 58.6996C69.679 58.9851 69.7177 59.2975 69.7177 59.6366V60.0069H66.1126V59.3332H68.8923V59.2707C68.8804 59.0565 68.8358 58.8483 68.7584 58.646C68.6841 58.4438 68.5651 58.2772 68.4015 58.1463C68.2379 58.0154 68.0148 57.95 67.7322 57.95C67.5448 57.95 67.3723 57.9902 67.2146 58.0705C67.057 58.1478 66.9216 58.2638 66.8086 58.4185C66.6956 58.5732 66.6078 58.7621 66.5454 58.9851C66.4829 59.2082 66.4517 59.4655 66.4517 59.757V59.9444C66.4517 60.1735 66.4829 60.3891 66.5454 60.5914C66.6108 60.7907 66.7045 60.9662 66.8265 61.1179C66.9514 61.2696 67.1016 61.3886 67.2771 61.4748C67.4556 61.5611 67.6578 61.6042 67.8839 61.6042C68.1754 61.6042 68.4223 61.5447 68.6246 61.4258C68.8268 61.3068 69.0038 61.1476 69.1555 60.9483L69.6552 61.3454C69.5511 61.5031 69.4188 61.6533 69.2581 61.7961C69.0975 61.9389 68.8997 62.0549 68.6647 62.1441C68.4327 62.2333 68.1576 62.278 67.8393 62.278ZM74.0055 64.0448V58.2891L74.0769 57.361H74.8354V64.0448H74.0055ZM70.7618 59.8284V59.7347C70.7618 59.3659 70.8049 59.0312 70.8912 58.7308C70.9774 58.4274 71.1038 58.1671 71.2704 57.95C71.437 57.7329 71.6378 57.5663 71.8728 57.4503C72.1107 57.3313 72.3814 57.2718 72.6848 57.2718C72.9882 57.2718 73.2544 57.3254 73.4835 57.4324C73.7155 57.5365 73.9118 57.6897 74.0724 57.892C74.236 58.0913 74.3654 58.3322 74.4606 58.6148C74.5558 58.8974 74.6212 59.2172 74.6569 59.5741V59.9846C74.6242 60.3386 74.5603 60.6568 74.4651 60.9394C74.3699 61.222 74.2405 61.4629 74.0769 61.6622C73.9163 61.8615 73.7185 62.0147 73.4835 62.1218C73.2515 62.2259 72.9823 62.278 72.6759 62.278C72.3784 62.278 72.1107 62.217 71.8728 62.095C71.6378 61.9731 71.437 61.802 71.2704 61.5819C71.1068 61.3618 70.9804 61.103 70.8912 60.8056C70.8049 60.5051 70.7618 60.1794 70.7618 59.8284ZM71.5917 59.7347V59.8284C71.5917 60.0694 71.6169 60.2969 71.6675 60.5111C71.7181 60.7223 71.7954 60.9097 71.8995 61.0733C72.0066 61.2369 72.1405 61.3663 72.3011 61.4614C72.4647 61.5537 72.658 61.5998 72.8811 61.5998C73.1548 61.5998 73.3823 61.5403 73.5638 61.4213C73.7482 61.3023 73.8954 61.1461 74.0055 60.9528C74.1156 60.7565 74.2003 60.5468 74.2598 60.3237V59.2484C74.2271 59.0848 74.1751 58.9257 74.1037 58.771C74.0352 58.6163 73.946 58.478 73.836 58.356C73.7259 58.2311 73.592 58.1329 73.4344 58.0616C73.2797 57.9872 73.0983 57.95 72.8901 57.95C72.664 57.95 72.4692 57.9976 72.3056 58.0928C72.142 58.188 72.0066 58.3188 71.8995 58.4854C71.7954 58.649 71.7181 58.8379 71.6675 59.0521C71.6169 59.2662 71.5917 59.4938 71.5917 59.7347ZM79.3998 61.0733V57.361H80.2297V62.1887H79.44L79.3998 61.0733ZM79.556 60.056L79.8995 60.0471C79.8995 60.3683 79.8653 60.6658 79.7969 60.9394C79.7315 61.2101 79.6244 61.4451 79.4757 61.6444C79.3269 61.8437 79.1321 61.9998 78.8912 62.1129C78.6502 62.2229 78.3572 62.278 78.0122 62.278C77.7772 62.278 77.5616 62.2437 77.3652 62.1753C77.1719 62.1069 77.0053 62.0013 76.8655 61.8585C76.7257 61.7158 76.6171 61.5299 76.5398 61.3008C76.4654 61.0718 76.4283 60.7966 76.4283 60.4754V57.361H77.2537V60.4843C77.2537 60.7015 77.2775 60.8814 77.3251 61.0242C77.3757 61.164 77.4426 61.2755 77.5259 61.3588C77.6121 61.4391 77.7073 61.4957 77.8114 61.5284C77.9185 61.5611 78.0286 61.5775 78.1416 61.5775C78.4926 61.5775 78.7707 61.5105 78.976 61.3767C79.1812 61.2398 79.3284 61.0569 79.4177 60.8279C79.5099 60.5959 79.556 60.3386 79.556 60.056ZM84.6201 61.3633V58.8781C84.6201 58.6877 84.5815 58.5226 84.5041 58.3828C84.4298 58.24 84.3167 58.13 84.165 58.0526C84.0133 57.9753 83.8259 57.9366 83.6028 57.9366C83.3946 57.9366 83.2117 57.9723 83.054 58.0437C82.8994 58.1151 82.7774 58.2088 82.6882 58.3248C82.6019 58.4408 82.5588 58.5657 82.5588 58.6996H81.7334C81.7334 58.5271 81.778 58.356 81.8672 58.1865C81.9564 58.0169 82.0843 57.8637 82.2509 57.7269C82.4205 57.5871 82.6227 57.4771 82.8577 57.3967C83.0957 57.3135 83.3604 57.2718 83.6519 57.2718C84.0029 57.2718 84.3123 57.3313 84.58 57.4503C84.8507 57.5693 85.0619 57.7492 85.2136 57.9902C85.3682 58.2281 85.4456 58.5271 85.4456 58.887V61.1357C85.4456 61.2964 85.459 61.4674 85.4857 61.6488C85.5155 61.8303 85.5586 61.9865 85.6151 62.1173V62.1887H84.754C84.7124 62.0935 84.6796 61.9671 84.6558 61.8095C84.632 61.6488 84.6201 61.5001 84.6201 61.3633ZM84.7629 59.2618L84.7718 59.8418H83.9375C83.7025 59.8418 83.4928 59.8611 83.3084 59.8998C83.1239 59.9355 82.9693 59.9905 82.8443 60.0649C82.7194 60.1393 82.6242 60.233 82.5588 60.346C82.4933 60.4561 82.4606 60.5854 82.4606 60.7342C82.4606 60.8859 82.4948 61.0242 82.5632 61.1491C82.6317 61.2741 82.7343 61.3737 82.8711 61.4481C83.0109 61.5194 83.182 61.5551 83.3842 61.5551C83.6371 61.5551 83.8601 61.5016 84.0535 61.3945C84.2468 61.2874 84.4 61.1566 84.5131 61.0019C84.6291 60.8472 84.6915 60.697 84.7005 60.5512L85.0529 60.9483C85.0321 61.0733 84.9756 61.2116 84.8834 61.3633C84.7912 61.515 84.6677 61.6607 84.5131 61.8005C84.3614 61.9374 84.1799 62.0519 83.9687 62.1441C83.7605 62.2333 83.5255 62.278 83.2638 62.278C82.9366 62.278 82.6495 62.214 82.4026 62.0861C82.1587 61.9582 81.9683 61.7872 81.8315 61.573C81.6977 61.3559 81.6307 61.1134 81.6307 60.8457C81.6307 60.5869 81.6813 60.3594 81.7824 60.1631C81.8836 59.9638 82.0293 59.7987 82.2197 59.6678C82.4101 59.5339 82.6391 59.4328 82.9068 59.3644C83.1745 59.296 83.4735 59.2618 83.8036 59.2618H84.7629ZM89.0507 57.361V57.9946H86.4406V57.361H89.0507ZM87.324 56.1876H88.1494V60.993C88.1494 61.1566 88.1747 61.28 88.2253 61.3633C88.2758 61.4466 88.3413 61.5016 88.4216 61.5284C88.5019 61.5551 88.5882 61.5685 88.6804 61.5685C88.7488 61.5685 88.8202 61.5626 88.8945 61.5507C88.9719 61.5358 89.0299 61.5239 89.0686 61.515L89.073 62.1887C89.0076 62.2095 88.9213 62.2289 88.8142 62.2467C88.7101 62.2675 88.5837 62.278 88.435 62.278C88.2327 62.278 88.0468 62.2378 87.8773 62.1575C87.7077 62.0772 87.5724 61.9433 87.4712 61.7559C87.3731 61.5656 87.324 61.3097 87.324 60.9885V56.1876ZM92.3257 57.361V57.9946H89.7155V57.361H92.3257ZM90.599 56.1876H91.4244V60.993C91.4244 61.1566 91.4497 61.28 91.5002 61.3633C91.5508 61.4466 91.6162 61.5016 91.6966 61.5284C91.7769 61.5551 91.8631 61.5685 91.9553 61.5685C92.0238 61.5685 92.0951 61.5626 92.1695 61.5507C92.2468 61.5358 92.3049 61.5239 92.3435 61.515L92.348 62.1887C92.2825 62.2095 92.1963 62.2289 92.0892 62.2467C91.9851 62.2675 91.8587 62.278 91.7099 62.278C91.5077 62.278 91.3218 62.2378 91.1522 62.1575C90.9827 62.0772 90.8473 61.9433 90.7462 61.7559C90.648 61.5656 90.599 61.3097 90.599 60.9885V56.1876ZM93.5928 61.7515C93.5928 61.6117 93.636 61.4942 93.7222 61.399C93.8115 61.3008 93.9394 61.2517 94.1059 61.2517C94.2725 61.2517 94.3989 61.3008 94.4852 61.399C94.5744 61.4942 94.619 61.6117 94.619 61.7515C94.619 61.8883 94.5744 62.0043 94.4852 62.0995C94.3989 62.1947 94.2725 62.2423 94.1059 62.2423C93.9394 62.2423 93.8115 62.1947 93.7222 62.0995C93.636 62.0043 93.5928 61.8883 93.5928 61.7515Z" fill="#CED8E1"/>
<rect opacity="0.5" x="14.3779" y="113.944" width="11.2469" height="195.32" rx="5.62343" fill="black"/>
<rect x="14.4248" y="258.033" width="11.06" height="51.2315" rx="5.52999" fill="#D473F1"/>
<rect opacity="0.5" x="43.2881" y="113.944" width="11.2469" height="195.32" rx="5.62343" fill="black"/>
<rect x="43.0549" y="232.951" width="11.2469" height="76.3136" rx="5.62343" fill="#D473F1"/>
<rect opacity="0.5" x="71.9651" y="113.944" width="11.06" height="195.32" rx="5.52999" fill="black"/>
<rect x="72.2014" y="196.128" width="11.06" height="113.136" rx="5.52999" fill="#D473F1"/>
<rect opacity="0.5" x="100.692" y="113.944" width="11.2469" height="195.32" rx="5.62343" fill="black"/>
<rect x="100.827" y="258.033" width="11.06" height="51.2315" rx="5.52999" fill="#D473F1"/>
<rect opacity="0.5" x="129.369" y="113.944" width="11.06" height="195.32" rx="5.52999" fill="black"/>
<rect x="129.412" y="180.652" width="11.06" height="128.612" rx="5.52999" fill="#D473F1"/>
<rect opacity="0.5" x="157.902" y="113.944" width="11.06" height="195.32" rx="5.52999" fill="black"/>
<rect x="157.902" y="150.767" width="11.06" height="158.497" rx="5.52999" fill="#D473F1"/>
<rect opacity="0.5" x="186.392" y="113.944" width="11.06" height="195.32" rx="5.52999" fill="black"/>
<rect x="186.552" y="232.951" width="11.2706" height="76.3136" rx="5.63532" fill="#D473F1"/>
<path opacity="0.5" d="M15.3135 316.509H15.8871L17.3503 320.15L18.8104 316.509H19.3871L17.5712 320.976H17.1233L15.3135 316.509ZM15.1264 316.509H15.6325L15.7153 319.233V320.976H15.1264V316.509ZM19.065 316.509H19.5712V320.976H18.9822V319.233L19.065 316.509ZM20.3749 319.353V319.282C20.3749 319.043 20.4096 318.821 20.4792 318.617C20.5487 318.41 20.6489 318.231 20.7798 318.08C20.9106 317.926 21.0691 317.808 21.2552 317.724C21.4413 317.638 21.6499 317.595 21.881 317.595C22.1141 317.595 22.3237 317.638 22.5098 317.724C22.698 317.808 22.8575 317.926 22.9884 318.08C23.1213 318.231 23.2225 318.41 23.292 318.617C23.3616 318.821 23.3963 319.043 23.3963 319.282V319.353C23.3963 319.592 23.3616 319.814 23.292 320.019C23.2225 320.223 23.1213 320.402 22.9884 320.555C22.8575 320.707 22.699 320.825 22.5129 320.911C22.3289 320.995 22.1203 321.037 21.8871 321.037C21.654 321.037 21.4444 320.995 21.2583 320.911C21.0722 320.825 20.9127 320.707 20.7798 320.555C20.6489 320.402 20.5487 320.223 20.4792 320.019C20.4096 319.814 20.3749 319.592 20.3749 319.353ZM20.9423 319.282V319.353C20.9423 319.519 20.9618 319.675 21.0006 319.822C21.0395 319.967 21.0978 320.096 21.1755 320.209C21.2552 320.321 21.3544 320.41 21.473 320.476C21.5916 320.539 21.7297 320.571 21.8871 320.571C22.0426 320.571 22.1785 320.539 22.2951 320.476C22.4137 320.41 22.5119 320.321 22.5896 320.209C22.6673 320.096 22.7256 319.967 22.7644 319.822C22.8053 319.675 22.8258 319.519 22.8258 319.353V319.282C22.8258 319.119 22.8053 318.964 22.7644 318.819C22.7256 318.672 22.6663 318.542 22.5865 318.43C22.5088 318.315 22.4107 318.225 22.292 318.16C22.1755 318.094 22.0385 318.061 21.881 318.061C21.7256 318.061 21.5886 318.094 21.47 318.16C21.3534 318.225 21.2552 318.315 21.1755 318.43C21.0978 318.542 21.0395 318.672 21.0006 318.819C20.9618 318.964 20.9423 319.119 20.9423 319.282ZM24.6755 318.365V320.976H24.108V317.657H24.6448L24.6755 318.365ZM24.5405 319.19L24.3043 319.181C24.3064 318.954 24.3401 318.744 24.4055 318.552C24.471 318.358 24.563 318.189 24.6816 318.046C24.8002 317.903 24.9413 317.793 25.1049 317.715C25.2706 317.635 25.4536 317.595 25.654 317.595C25.8176 317.595 25.9649 317.618 26.0957 317.663C26.2266 317.706 26.3381 317.775 26.4301 317.871C26.5242 317.967 26.5957 318.092 26.6448 318.246C26.6939 318.397 26.7184 318.582 26.7184 318.801V320.976H26.1479V318.795C26.1479 318.621 26.1223 318.482 26.0712 318.377C26.0201 318.271 25.9454 318.194 25.8473 318.147C25.7491 318.098 25.6285 318.074 25.4853 318.074C25.3442 318.074 25.2154 318.103 25.0988 318.163C24.9843 318.222 24.8851 318.304 24.8013 318.408C24.7195 318.512 24.655 318.632 24.608 318.767C24.563 318.9 24.5405 319.041 24.5405 319.19Z" fill="white"/>
<path opacity="0.5" d="M47.6616 316.509V320.976H47.0788V316.509H47.6616ZM49.0972 316.509V316.994H45.6462V316.509H49.0972ZM51.4101 320.209V317.657H51.9806V320.976H51.4377L51.4101 320.209ZM51.5174 319.509L51.7536 319.503C51.7536 319.724 51.7301 319.929 51.6831 320.117C51.6381 320.303 51.5645 320.464 51.4622 320.601C51.36 320.738 51.226 320.846 51.0604 320.923C50.8947 320.999 50.6933 321.037 50.4561 321.037C50.2945 321.037 50.1463 321.013 50.0113 320.966C49.8784 320.919 49.7638 320.847 49.6677 320.749C49.5716 320.65 49.497 320.523 49.4438 320.365C49.3927 320.208 49.3671 320.019 49.3671 319.798V317.657H49.9346V319.804C49.9346 319.953 49.951 320.077 49.9837 320.175C50.0184 320.271 50.0645 320.348 50.1217 320.405C50.181 320.46 50.2465 320.499 50.318 320.522C50.3917 320.544 50.4673 320.555 50.545 320.555C50.7863 320.555 50.9775 320.509 51.1187 320.417C51.2598 320.323 51.361 320.197 51.4223 320.04C51.4857 319.88 51.5174 319.704 51.5174 319.509ZM54.223 321.037C53.9919 321.037 53.7823 320.998 53.5941 320.92C53.408 320.841 53.2475 320.729 53.1125 320.586C52.9796 320.443 52.8773 320.273 52.8058 320.077C52.7342 319.88 52.6984 319.666 52.6984 319.433V319.304C52.6984 319.034 52.7383 318.794 52.818 318.583C52.8978 318.37 53.0062 318.19 53.1432 318.043C53.2802 317.896 53.4356 317.784 53.6095 317.709C53.7833 317.633 53.9632 317.595 54.1493 317.595C54.3866 317.595 54.5911 317.636 54.7628 317.718C54.9367 317.8 55.0788 317.914 55.1892 318.061C55.2996 318.207 55.3814 318.378 55.4346 318.577C55.4878 318.773 55.5144 318.988 55.5144 319.221V319.476H53.0358V319.012H54.9469V318.969C54.9387 318.822 54.908 318.679 54.8549 318.54C54.8037 318.401 54.7219 318.286 54.6095 318.196C54.497 318.106 54.3436 318.061 54.1493 318.061C54.0205 318.061 53.9019 318.089 53.7935 318.144C53.6851 318.197 53.5921 318.277 53.5144 318.384C53.4367 318.49 53.3763 318.62 53.3334 318.773C53.2904 318.927 53.269 319.103 53.269 319.304V319.433C53.269 319.59 53.2904 319.738 53.3334 319.877C53.3784 320.014 53.4428 320.135 53.5266 320.239C53.6125 320.344 53.7158 320.425 53.8365 320.485C53.9592 320.544 54.0982 320.574 54.2536 320.574C54.454 320.574 54.6238 320.533 54.7628 320.451C54.9019 320.369 55.0236 320.26 55.1279 320.123L55.4714 320.396C55.3998 320.504 55.3088 320.607 55.1984 320.706C55.088 320.804 54.952 320.884 54.7904 320.945C54.6309 321.006 54.4418 321.037 54.223 321.037Z" fill="white"/>
<path opacity="0.5" d="M75.8747 319.626L76.7612 316.509H77.1907L76.9422 317.721L75.9882 320.976H75.5618L75.8747 319.626ZM74.9575 316.509L75.663 319.565L75.8747 320.976H75.4514L74.3686 316.509H74.9575ZM78.3379 319.561L79.0281 316.509H79.6201L78.5404 320.976H78.117L78.3379 319.561ZM77.2551 316.509L78.117 319.626L78.4299 320.976H78.0035L77.0833 317.721L76.8318 316.509H77.2551ZM81.4698 321.037C81.2387 321.037 81.0291 320.998 80.841 320.92C80.6549 320.841 80.4943 320.729 80.3594 320.586C80.2265 320.443 80.1242 320.273 80.0526 320.077C79.9811 319.88 79.9453 319.666 79.9453 319.433V319.304C79.9453 319.034 79.9851 318.794 80.0649 318.583C80.1447 318.37 80.253 318.19 80.39 318.043C80.5271 317.896 80.6825 317.784 80.8563 317.709C81.0301 317.633 81.2101 317.595 81.3962 317.595C81.6334 317.595 81.8379 317.636 82.0097 317.718C82.1835 317.8 82.3256 317.914 82.4361 318.061C82.5465 318.207 82.6283 318.378 82.6815 318.577C82.7346 318.773 82.7612 318.988 82.7612 319.221V319.476H80.2827V319.012H82.1937V318.969C82.1856 318.822 82.1549 318.679 82.1017 318.54C82.0506 318.401 81.9688 318.286 81.8563 318.196C81.7438 318.106 81.5905 318.061 81.3962 318.061C81.2674 318.061 81.1487 318.089 81.0404 318.144C80.932 318.197 80.8389 318.277 80.7612 318.384C80.6835 318.49 80.6232 318.62 80.5802 318.773C80.5373 318.927 80.5158 319.103 80.5158 319.304V319.433C80.5158 319.59 80.5373 319.738 80.5802 319.877C80.6252 320.014 80.6896 320.135 80.7735 320.239C80.8594 320.344 80.9626 320.425 81.0833 320.485C81.206 320.544 81.3451 320.574 81.5005 320.574C81.7009 320.574 81.8706 320.533 82.0097 320.451C82.1487 320.369 82.2704 320.26 82.3747 320.123L82.7183 320.396C82.6467 320.504 82.5557 320.607 82.4453 320.706C82.3348 320.804 82.1988 320.884 82.0373 320.945C81.8778 321.006 81.6886 321.037 81.4698 321.037ZM85.5158 320.331V316.264H86.0864V320.976H85.5649L85.5158 320.331ZM83.2827 319.353V319.288C83.2827 319.035 83.3134 318.805 83.3747 318.598C83.4381 318.39 83.5271 318.211 83.6416 318.061C83.7582 317.912 83.8962 317.798 84.0557 317.718C84.2173 317.636 84.3972 317.595 84.5956 317.595C84.8042 317.595 84.9862 317.632 85.1416 317.706C85.2991 317.777 85.432 317.883 85.5404 318.022C85.6508 318.159 85.7377 318.324 85.8011 318.519C85.8645 318.713 85.9085 318.933 85.933 319.178V319.46C85.9105 319.704 85.8665 319.922 85.8011 320.117C85.7377 320.311 85.6508 320.477 85.5404 320.614C85.432 320.751 85.2991 320.856 85.1416 320.93C84.9841 321.001 84.8001 321.037 84.5894 321.037C84.3952 321.037 84.2173 320.995 84.0557 320.911C83.8962 320.827 83.7582 320.71 83.6416 320.558C83.5271 320.407 83.4381 320.229 83.3747 320.025C83.3134 319.818 83.2827 319.594 83.2827 319.353ZM83.8532 319.288V319.353C83.8532 319.519 83.8696 319.674 83.9023 319.819C83.9371 319.964 83.9903 320.092 84.0618 320.203C84.1334 320.313 84.2244 320.4 84.3348 320.463C84.4453 320.525 84.5772 320.555 84.7306 320.555C84.9187 320.555 85.0731 320.515 85.1937 320.436C85.3164 320.356 85.4146 320.251 85.4882 320.12C85.5618 319.989 85.6191 319.847 85.66 319.693V318.954C85.6355 318.842 85.5997 318.733 85.5526 318.629C85.5076 318.523 85.4483 318.429 85.3747 318.347C85.3031 318.263 85.2142 318.196 85.1079 318.147C85.0036 318.098 84.8798 318.074 84.7367 318.074C84.5813 318.074 84.4473 318.106 84.3348 318.172C84.2244 318.235 84.1334 318.323 84.0618 318.436C83.9903 318.546 83.9371 318.675 83.9023 318.822C83.8696 318.967 83.8532 319.123 83.8532 319.288Z" fill="white"/>
<path opacity="0.5" d="M106.931 316.509V320.976H106.349V316.509H106.931ZM108.367 316.509V316.994H104.916V316.509H108.367ZM109.511 316.264V320.976H108.944V316.264H109.511ZM109.376 319.19L109.14 319.181C109.142 318.954 109.176 318.744 109.241 318.552C109.307 318.358 109.399 318.189 109.517 318.046C109.636 317.903 109.777 317.793 109.941 317.715C110.106 317.635 110.289 317.595 110.49 317.595C110.653 317.595 110.801 317.618 110.931 317.663C111.062 317.706 111.174 317.775 111.266 317.871C111.36 317.967 111.431 318.092 111.48 318.246C111.53 318.397 111.554 318.582 111.554 318.801V320.976H110.984V318.795C110.984 318.621 110.958 318.482 110.907 318.377C110.856 318.271 110.781 318.194 110.683 318.147C110.585 318.098 110.464 318.074 110.321 318.074C110.18 318.074 110.051 318.103 109.934 318.163C109.82 318.222 109.721 318.304 109.637 318.408C109.555 318.512 109.491 318.632 109.444 318.767C109.399 318.9 109.376 319.041 109.376 319.19ZM114.434 320.209V317.657H115.005V320.976H114.462L114.434 320.209ZM114.542 319.509L114.778 319.503C114.778 319.724 114.755 319.929 114.707 320.117C114.662 320.303 114.589 320.464 114.487 320.601C114.384 320.738 114.25 320.846 114.085 320.923C113.919 320.999 113.718 321.037 113.48 321.037C113.319 321.037 113.171 321.013 113.036 320.966C112.903 320.919 112.788 320.847 112.692 320.749C112.596 320.65 112.521 320.523 112.468 320.365C112.417 320.208 112.392 320.019 112.392 319.798V317.657H112.959V319.804C112.959 319.953 112.975 320.077 113.008 320.175C113.043 320.271 113.089 320.348 113.146 320.405C113.205 320.46 113.271 320.499 113.342 320.522C113.416 320.544 113.492 320.555 113.569 320.555C113.811 320.555 114.002 320.509 114.143 320.417C114.284 320.323 114.385 320.197 114.447 320.04C114.51 319.88 114.542 319.704 114.542 319.509Z" fill="white"/>
<path opacity="0.5" d="M134.927 316.509V320.976H134.335V316.509H134.927ZM136.798 318.519V319.003H134.798V318.519H136.798ZM137.102 316.509V316.994H134.798V316.509H137.102ZM138.209 318.178V320.976H137.641V317.657H138.194L138.209 318.178ZM139.246 317.638L139.243 318.166C139.196 318.156 139.151 318.149 139.108 318.147C139.067 318.143 139.02 318.141 138.967 318.141C138.836 318.141 138.72 318.162 138.62 318.203C138.52 318.243 138.435 318.301 138.365 318.374C138.296 318.448 138.241 318.536 138.2 318.638C138.161 318.738 138.135 318.849 138.123 318.969L137.964 319.061C137.964 318.861 137.983 318.673 138.022 318.497C138.063 318.321 138.125 318.166 138.209 318.031C138.293 317.894 138.399 317.787 138.528 317.712C138.659 317.634 138.814 317.595 138.994 317.595C139.035 317.595 139.082 317.6 139.135 317.611C139.188 317.619 139.225 317.628 139.246 317.638ZM140.387 317.657V320.976H139.816V317.657H140.387ZM139.773 316.776C139.773 316.684 139.801 316.606 139.856 316.543C139.913 316.48 139.997 316.448 140.108 316.448C140.216 316.448 140.299 316.48 140.356 316.543C140.415 316.606 140.445 316.684 140.445 316.776C140.445 316.864 140.415 316.94 140.356 317.003C140.299 317.065 140.216 317.095 140.108 317.095C139.997 317.095 139.913 317.065 139.856 317.003C139.801 316.94 139.773 316.864 139.773 316.776Z" fill="white"/>
<path d="M162.379 319.847C162.379 319.742 162.363 319.65 162.33 319.571C162.299 319.489 162.244 319.415 162.164 319.35C162.087 319.284 161.978 319.222 161.839 319.163C161.702 319.103 161.528 319.043 161.318 318.982C161.097 318.916 160.897 318.844 160.72 318.764C160.542 318.682 160.389 318.589 160.263 318.485C160.136 318.38 160.039 318.261 159.971 318.126C159.904 317.991 159.87 317.837 159.87 317.663C159.87 317.489 159.906 317.328 159.977 317.181C160.049 317.034 160.151 316.906 160.284 316.798C160.419 316.687 160.579 316.601 160.766 316.54C160.952 316.479 161.159 316.448 161.388 316.448C161.724 316.448 162.008 316.512 162.241 316.641C162.476 316.768 162.655 316.935 162.778 317.141C162.901 317.346 162.962 317.565 162.962 317.798H162.373C162.373 317.63 162.337 317.482 162.266 317.353C162.194 317.222 162.086 317.12 161.94 317.046C161.795 316.97 161.611 316.933 161.388 316.933C161.178 316.933 161.004 316.964 160.867 317.028C160.73 317.091 160.628 317.177 160.56 317.285C160.495 317.394 160.462 317.518 160.462 317.657C160.462 317.751 160.481 317.837 160.52 317.914C160.561 317.99 160.623 318.06 160.707 318.126C160.793 318.191 160.902 318.252 161.032 318.307C161.165 318.362 161.324 318.415 161.508 318.466C161.761 318.538 161.98 318.618 162.164 318.706C162.348 318.794 162.5 318.893 162.618 319.003C162.739 319.112 162.828 319.235 162.885 319.374C162.945 319.511 162.974 319.667 162.974 319.841C162.974 320.023 162.937 320.187 162.864 320.334C162.79 320.482 162.685 320.607 162.548 320.712C162.411 320.816 162.246 320.897 162.054 320.954C161.864 321.009 161.651 321.037 161.416 321.037C161.209 321.037 161.006 321.008 160.805 320.951C160.607 320.894 160.426 320.808 160.263 320.693C160.101 320.579 159.971 320.438 159.873 320.27C159.777 320.1 159.729 319.904 159.729 319.681H160.318C160.318 319.834 160.347 319.966 160.407 320.077C160.466 320.185 160.547 320.275 160.649 320.347C160.753 320.418 160.871 320.471 161.002 320.506C161.135 320.539 161.273 320.555 161.416 320.555C161.622 320.555 161.797 320.527 161.94 320.469C162.084 320.412 162.192 320.33 162.266 320.224C162.341 320.118 162.379 319.992 162.379 319.847ZM165.6 320.408V318.7C165.6 318.569 165.573 318.455 165.52 318.359C165.469 318.261 165.391 318.185 165.287 318.132C165.183 318.079 165.054 318.052 164.901 318.052C164.757 318.052 164.632 318.077 164.523 318.126C164.417 318.175 164.333 318.239 164.272 318.319C164.212 318.399 164.183 318.485 164.183 318.577H163.615C163.615 318.458 163.646 318.341 163.707 318.224C163.769 318.107 163.857 318.002 163.971 317.908C164.088 317.812 164.227 317.736 164.388 317.681C164.552 317.624 164.734 317.595 164.934 317.595C165.176 317.595 165.388 317.636 165.572 317.718C165.758 317.8 165.904 317.923 166.008 318.089C166.114 318.253 166.167 318.458 166.167 318.706V320.252C166.167 320.362 166.177 320.48 166.195 320.604C166.215 320.729 166.245 320.837 166.284 320.927V320.976H165.692C165.663 320.91 165.641 320.823 165.624 320.715C165.608 320.604 165.6 320.502 165.6 320.408ZM165.698 318.963L165.704 319.362H165.131C164.969 319.362 164.825 319.375 164.698 319.402C164.571 319.427 164.465 319.464 164.379 319.515C164.293 319.567 164.228 319.631 164.183 319.709C164.138 319.784 164.115 319.873 164.115 319.976C164.115 320.08 164.139 320.175 164.186 320.261C164.233 320.347 164.303 320.415 164.397 320.466C164.494 320.515 164.611 320.54 164.75 320.54C164.924 320.54 165.077 320.503 165.21 320.43C165.343 320.356 165.449 320.266 165.526 320.16C165.606 320.053 165.649 319.95 165.655 319.85L165.897 320.123C165.883 320.209 165.844 320.304 165.781 320.408C165.718 320.512 165.633 320.613 165.526 320.709C165.422 320.803 165.297 320.882 165.152 320.945C165.009 321.006 164.847 321.037 164.667 321.037C164.442 321.037 164.245 320.993 164.075 320.905C163.908 320.817 163.777 320.7 163.683 320.552C163.591 320.403 163.545 320.236 163.545 320.052C163.545 319.874 163.579 319.718 163.649 319.583C163.719 319.446 163.819 319.332 163.95 319.242C164.081 319.15 164.238 319.081 164.422 319.034C164.606 318.987 164.812 318.963 165.039 318.963H165.698ZM168.45 317.657V318.092H166.655V317.657H168.45ZM167.263 316.85H167.83V320.153C167.83 320.266 167.847 320.351 167.882 320.408C167.917 320.465 167.962 320.503 168.017 320.522C168.072 320.54 168.132 320.549 168.195 320.549C168.242 320.549 168.291 320.545 168.342 320.537C168.395 320.527 168.435 320.519 168.462 320.512L168.465 320.976C168.42 320.99 168.361 321.003 168.287 321.015C168.215 321.03 168.129 321.037 168.026 321.037C167.887 321.037 167.759 321.009 167.643 320.954C167.526 320.899 167.433 320.807 167.364 320.678C167.296 320.547 167.263 320.371 167.263 320.15V316.85Z" fill="white"/>
<path opacity="0.5" d="M189.887 319.847C189.887 319.742 189.87 319.65 189.838 319.571C189.807 319.489 189.752 319.415 189.672 319.35C189.594 319.284 189.486 319.222 189.347 319.163C189.21 319.103 189.036 319.043 188.825 318.982C188.604 318.916 188.405 318.844 188.227 318.764C188.049 318.682 187.897 318.589 187.77 318.485C187.643 318.38 187.546 318.261 187.479 318.126C187.411 317.991 187.377 317.837 187.377 317.663C187.377 317.489 187.413 317.328 187.485 317.181C187.556 317.034 187.659 316.906 187.792 316.798C187.927 316.687 188.087 316.601 188.273 316.54C188.459 316.479 188.667 316.448 188.896 316.448C189.231 316.448 189.516 316.512 189.749 316.641C189.984 316.768 190.163 316.935 190.285 317.141C190.408 317.346 190.47 317.565 190.47 317.798H189.881C189.881 317.63 189.845 317.482 189.773 317.353C189.702 317.222 189.593 317.12 189.448 317.046C189.303 316.97 189.119 316.933 188.896 316.933C188.685 316.933 188.511 316.964 188.374 317.028C188.237 317.091 188.135 317.177 188.068 317.285C188.002 317.394 187.969 317.518 187.969 317.657C187.969 317.751 187.989 317.837 188.028 317.914C188.069 317.99 188.131 318.06 188.215 318.126C188.301 318.191 188.409 318.252 188.54 318.307C188.673 318.362 188.831 318.415 189.016 318.466C189.269 318.538 189.488 318.618 189.672 318.706C189.856 318.794 190.007 318.893 190.126 319.003C190.247 319.112 190.336 319.235 190.393 319.374C190.452 319.511 190.482 319.667 190.482 319.841C190.482 320.023 190.445 320.187 190.371 320.334C190.298 320.482 190.192 320.607 190.055 320.712C189.918 320.816 189.754 320.897 189.562 320.954C189.371 321.009 189.159 321.037 188.923 321.037C188.717 321.037 188.513 321.008 188.313 320.951C188.115 320.894 187.934 320.808 187.77 320.693C187.609 320.579 187.479 320.438 187.381 320.27C187.284 320.1 187.236 319.904 187.236 319.681H187.825C187.825 319.834 187.855 319.966 187.914 320.077C187.974 320.185 188.054 320.275 188.157 320.347C188.261 320.418 188.378 320.471 188.509 320.506C188.642 320.539 188.78 320.555 188.923 320.555C189.13 320.555 189.305 320.527 189.448 320.469C189.591 320.412 189.7 320.33 189.773 320.224C189.849 320.118 189.887 319.992 189.887 319.847ZM193.181 320.209V317.657H193.752V320.976H193.209L193.181 320.209ZM193.289 319.509L193.525 319.503C193.525 319.724 193.501 319.929 193.454 320.117C193.409 320.303 193.336 320.464 193.233 320.601C193.131 320.738 192.997 320.846 192.831 320.923C192.666 320.999 192.464 321.037 192.227 321.037C192.066 321.037 191.917 321.013 191.782 320.966C191.649 320.919 191.535 320.847 191.439 320.749C191.343 320.65 191.268 320.523 191.215 320.365C191.164 320.208 191.138 320.019 191.138 319.798V317.657H191.706V319.804C191.706 319.953 191.722 320.077 191.755 320.175C191.79 320.271 191.836 320.348 191.893 320.405C191.952 320.46 192.018 320.499 192.089 320.522C192.163 320.544 192.238 320.555 192.316 320.555C192.557 320.555 192.749 320.509 192.89 320.417C193.031 320.323 193.132 320.197 193.193 320.04C193.257 319.88 193.289 319.704 193.289 319.509ZM195.184 318.365V320.976H194.617V317.657H195.154L195.184 318.365ZM195.049 319.19L194.813 319.181C194.815 318.954 194.849 318.744 194.914 318.552C194.98 318.358 195.072 318.189 195.19 318.046C195.309 317.903 195.45 317.793 195.614 317.715C195.779 317.635 195.962 317.595 196.163 317.595C196.326 317.595 196.474 317.618 196.604 317.663C196.735 317.706 196.847 317.775 196.939 317.871C197.033 317.967 197.104 318.092 197.154 318.246C197.203 318.397 197.227 318.582 197.227 318.801V320.976H196.657V318.795C196.657 318.621 196.631 318.482 196.58 318.377C196.529 318.271 196.454 318.194 196.356 318.147C196.258 318.098 196.137 318.074 195.994 318.074C195.853 318.074 195.724 318.103 195.608 318.163C195.493 318.222 195.394 318.304 195.31 318.408C195.228 318.512 195.164 318.632 195.117 318.767C195.072 318.9 195.049 319.041 195.049 319.19Z" fill="white"/>
</g>
<defs>
<clipPath id="clip0_145_2392">
<rect x="0.100098" y="0.199951" width="212" height="353.6" rx="11.4222" fill="white"/>
</clipPath>
</defs>
</svg>
